<svg width="23" height="23" viewBox="0 0 23 23" fill="none" xmlns="http://www.w3.org/2000/svg">
<path d="M22.3719 19.4228L18.0961 15.147C17.7049 14.7558 17.1459 14.5322 16.615 14.5322C16.4193 14.5322 16.1958 14.5601 16.0001 14.644L14.491 13.1349C15.6648 11.6537 16.2237 9.89307 16.2237 8.1045C16.2237 6.03645 15.4412 3.94046 13.8482 2.37546C12.2553 0.782503 10.1872 0 8.1192 0C6.05116 0 3.95517 0.782503 2.39016 2.37546C0.797212 3.96841 0.0147095 6.03645 0.0147095 8.1045C0.0147095 10.1725 0.797212 12.2685 2.39016 13.8335C3.98312 15.4265 6.05116 16.2369 8.14715 16.2369C9.90778 16.2369 11.6964 15.6501 13.1496 14.5043L14.6587 16.0134C14.6028 16.209 14.5469 16.4046 14.5469 16.6282C14.5469 17.1592 14.7425 17.6902 15.1617 18.0814L19.4376 22.3852C19.8288 22.7764 20.3598 23 20.8908 23C21.4218 23 21.9527 22.8044 22.3719 22.3852C22.7632 21.9939 22.9868 21.435 22.9868 20.904C22.9868 20.373 22.7911 19.842 22.3719 19.4228ZM12.7024 12.6598C11.4448 13.9174 9.796 14.5601 8.14715 14.5601C6.49831 14.5601 4.84946 13.9174 3.59187 12.6598C2.33427 11.4022 1.6915 9.75334 1.6915 8.1045C1.6915 6.45565 2.33427 4.8068 3.59187 3.54921C4.84946 2.29162 6.49831 1.64885 8.14715 1.64885C9.796 1.64885 11.4448 2.29162 12.7024 3.54921C13.96 4.8068 14.5749 6.45565 14.5749 8.1045C14.5749 9.75334 13.96 11.4022 12.7024 12.6598ZM21.1982 21.1835C21.1143 21.2673 21.0305 21.2953 20.9187 21.2953C20.8069 21.2953 20.7231 21.2673 20.6393 21.1835L16.3355 16.9077C16.2516 16.8238 16.2237 16.74 16.2237 16.6282C16.2237 16.5164 16.2516 16.4326 16.3355 16.3487C16.4193 16.2649 16.5032 16.2369 16.615 16.2369C16.7267 16.209 16.8385 16.2649 16.9224 16.3487L21.1982 20.6245C21.282 20.7084 21.31 20.7922 21.31 20.904C21.31 21.0158 21.282 21.0996 21.1982 21.1835Z" fill="#F57E20"/>
<path d="M13.2048 7.71302C13.2048 7.07025 13.0371 6.48338 12.7856 5.95239C12.5341 5.42141 12.1987 4.91837 11.7516 4.49917C11.025 3.77257 10.1307 3.29747 9.15258 3.10185C8.20239 2.90622 7.16837 2.99006 6.21819 3.35337C5.79899 3.52105 5.57542 3.99614 5.7431 4.44328C5.91078 4.86248 6.38587 5.08605 6.83301 4.91837C7.47578 4.66685 8.17445 4.61096 8.81722 4.75069C9.45999 4.89042 10.0748 5.19784 10.5499 5.70087C10.8294 5.98034 11.0809 6.3157 11.2486 6.679C11.4162 7.0423 11.528 7.43356 11.556 7.85275C11.5839 8.2999 12.0031 8.6632 12.4503 8.60731C12.8974 8.57936 13.2607 8.16017 13.2048 7.71302Z" fill="#F57E20"/>
</svg>
