<svg width="29" height="29" viewBox="0 0 29 29" fill="none" xmlns="http://www.w3.org/2000/svg">
<g clip-path="url(#clip0)">
<path d="M17.3929 4.80458L7.17273 12.4502L4.06615 13.2826C2.91831 13.5902 2.23389 14.7756 2.54145 15.9235L3.22355 18.4691C3.51573 19.5595 4.57587 20.091 5.8024 19.7624L6.58922 19.5515L9.00625 25.2099C9.14709 25.5393 9.50756 25.7145 9.85284 25.622L12.6299 24.8779C12.828 24.8248 12.9933 24.6903 13.0862 24.5076C13.1783 24.3252 13.1886 24.1121 13.1136 23.9209L11.2662 19.2111L21.5818 20.4414C21.6749 20.4522 21.7664 20.4455 21.8534 20.4222C21.9895 20.3857 22.1156 20.3083 22.2112 20.1984C22.3671 20.0177 22.4234 19.7724 22.3617 19.5419L18.5171 5.19387C18.4554 4.96338 18.284 4.77913 18.0586 4.70063C17.8322 4.62238 17.5827 4.66144 17.3929 4.80458ZM4.61207 18.097L3.92997 15.5514C3.82753 15.1691 4.0559 14.7736 4.4382 14.6711L6.98382 13.989L7.97596 17.6917L5.43034 18.3738C5.11376 18.4587 4.7145 18.4793 4.61207 18.097ZM11.4812 23.6975L10.0825 24.0723L7.99163 19.1758L8.90898 18.9299L9.64782 19.0177L11.4812 23.6975ZM20.6986 18.8892L10.2691 17.6448C10.2244 17.6369 10.1812 17.6277 10.1347 17.6282L9.42451 17.5437L8.31232 13.393L17.4034 6.59158L20.6986 18.8892Z" fill="#F57E20"/>
<path d="M21.9571 9.81407L23.7752 7.34263C24.01 7.02277 23.942 6.5727 23.6218 6.33702C23.3013 6.10344 22.8524 6.17213 22.6162 6.4904L20.7981 8.96184C20.5633 9.2817 20.6314 9.73177 20.9515 9.96744C21.1341 10.1011 21.36 10.1368 21.5636 10.0822C21.7164 10.0413 21.8557 9.95037 21.9571 9.81407Z" fill="#F57E20"/>
<path d="M23.2795 14.7464C22.9177 14.5883 22.4937 14.7535 22.3319 15.1163C22.1723 15.4796 22.3387 15.9043 22.7019 16.0639L25.5122 17.2952C25.6681 17.3625 25.8343 17.3716 25.987 17.3306C26.1907 17.2761 26.3684 17.1322 26.4598 16.9252C26.6194 16.562 26.453 16.1373 26.0898 15.9776L23.2795 14.7464Z" fill="#F57E20"/>
<path d="M24.3134 11.0823L21.9992 11.7024C21.6159 11.8051 21.3882 12.1995 21.4909 12.5827C21.5936 12.9659 21.988 13.1936 22.3712 13.0909L24.6854 12.4708C25.0686 12.3682 25.2963 11.9738 25.1936 11.5906C25.0909 11.2073 24.6966 10.9796 24.3134 11.0823Z" fill="#F57E20"/>
</g>
<defs>
<clipPath id="clip0">
<rect y="6.43506" width="23" height="23" transform="rotate(-15 0 6.43506)" fill="white"/>
</clipPath>
</defs>
</svg>
