<svg width="21" height="21" viewBox="0 0 21 21" fill="none" xmlns="http://www.w3.org/2000/svg">
<g clip-path="url(#clip0)">
<path d="M17.9246 3.07537C15.9415 1.0922 13.3048 0 10.5002 0H10.4998C7.69524 0 5.05854 1.0922 3.07537 3.07537C1.0922 5.05854 0 7.6954 0 10.5C0 13.3046 1.0922 15.9415 3.07537 17.9246C5.05854 19.9078 7.6954 21 10.5 21C13.3046 21 15.9415 19.9078 17.9246 17.9246C19.9078 15.9415 21 13.3046 21 10.5C21 7.6954 19.9078 5.05854 17.9246 3.07537ZM18.6105 14.9837H15.5374C15.9492 13.7772 16.1972 12.471 16.255 11.1152H19.7485C19.6567 12.511 19.2546 13.8232 18.6105 14.9837ZM10.5 19.6785C9.19038 18.8992 8.10427 17.6914 7.32305 16.2141H13.6769C12.8957 17.6914 11.8096 18.8992 10.5 19.6785ZM6.76694 14.9837C6.31448 13.7966 6.04019 12.4859 5.97675 11.1152H15.0233C14.9598 12.4859 14.6854 13.7966 14.2329 14.9837H6.76694ZM1.25146 11.1152H4.745C4.80283 12.471 5.05085 13.7772 5.46261 14.9837H2.38948C1.74541 13.8232 1.34326 12.511 1.25146 11.1152ZM2.38948 6.01632H5.46261C5.05085 7.22276 4.80283 8.52901 4.745 9.88477H1.25146C1.34326 8.48895 1.74541 7.17677 2.38948 6.01632ZM10.5 1.32147C11.8096 2.10077 12.8957 3.30865 13.6769 4.78585H7.32305C8.10427 3.30865 9.19038 2.10077 10.5 1.32147ZM14.2331 6.01632C14.6855 7.20337 14.9598 8.51411 15.0233 9.88477H5.97675C6.04019 8.51411 6.31464 7.20337 6.7671 6.01632H14.2331ZM19.7485 9.88477H16.255C16.1972 8.52901 15.9492 7.22276 15.5374 6.01632H18.6105C19.2546 7.17677 19.6567 8.48895 19.7485 9.88477ZM15.0447 4.78585C14.4599 3.5227 13.6819 2.40646 12.7478 1.50668C14.7752 2.01361 16.5407 3.18945 17.7941 4.78585H15.0447ZM8.25215 1.50668C7.31808 2.40646 6.54007 3.5227 5.95528 4.78585H3.20595C4.45933 3.18945 6.22476 2.01361 8.25215 1.50668ZM5.95528 16.2141C6.54007 17.4773 7.31808 18.5935 8.25215 19.4933C6.22476 18.9864 4.45933 17.8106 3.20595 16.2141H5.95528ZM12.7478 19.4933C13.6819 18.5935 14.4599 17.4771 15.0447 16.2141H17.7941C16.5407 17.8106 14.7752 18.9864 12.7478 19.4933Z" fill="#F57E20"/>
</g>
<defs>
<clipPath id="clip0">
<rect width="21" height="21" fill="white"/>
</clipPath>
</defs>
</svg>
