<svg width="75" height="75" viewBox="0 0 75 75" fill="none" xmlns="http://www.w3.org/2000/svg">
<g clip-path="url(#clip0)">
<path d="M18.7009 5.45032C18.0037 4.8547 16.9744 4.86275 16.2865 5.46907L11.2562 9.97063V9.38071C11.2562 8.69047 10.6968 8.13102 10.0065 8.13102C9.31629 8.13102 8.75683 8.69047 8.75683 9.38071V12.2089L6.67338 14.0735C6.1668 14.5356 6.12711 15.3196 6.58448 15.8305C7.04186 16.3415 7.82539 16.3884 8.34047 15.9357L17.5048 7.73237L26.6692 15.9357C27.0011 16.2384 27.47 16.3398 27.8972 16.2011C28.3246 16.0624 28.6444 15.705 28.7352 15.2649C28.826 14.825 28.6737 14.3701 28.3363 14.0735L18.7009 5.45032Z" fill="#DA2526"/>
<path d="M25.0025 17.5042C24.3123 17.5042 23.7528 18.0636 23.7528 18.7538V27.502H11.2553V18.7538C11.2553 18.0636 10.6959 17.5042 10.0056 17.5042C9.31541 17.5042 8.75595 18.0636 8.75595 18.7538V28.2956C8.76825 29.2498 9.55149 30.0134 10.5056 30.0015H24.5027C25.4574 30.0112 26.2399 29.2466 26.2524 28.2918V18.7538C26.2522 18.0636 25.6926 17.5042 25.0025 17.5042Z" fill="#DA2526"/>
<path d="M17.5041 32.5007C12.6726 32.5007 8.75595 36.4175 8.75595 41.2489C8.75595 46.0802 12.6727 49.997 17.5041 49.997C22.3355 49.997 26.2522 46.0802 26.2522 41.2489C26.2467 36.4197 22.3333 32.5062 17.5041 32.5007ZM11.2553 41.2489C11.2591 38.2805 13.3468 35.723 16.2543 35.1252V40.5403L11.6303 43.3134C11.3882 42.6517 11.2613 41.9535 11.2553 41.2489ZM12.9182 45.4563L17.3103 42.821L20.9446 46.4553C18.3915 48.1586 14.9759 47.7334 12.9182 45.4563ZM22.7117 44.6882L18.7538 40.7314V35.1252C20.7883 35.5375 22.4846 36.9349 23.2785 38.853C24.0723 40.7711 23.8599 42.9586 22.7117 44.6882Z" fill="#F57F1F"/>
<path d="M67.4944 22.5031V18.2252C67.4936 17.137 66.6117 16.2551 65.5235 16.2544H61.9668C60.8786 16.2551 59.9967 17.137 59.9959 18.2252V22.5031H57.4964V14.6672C57.4951 13.4738 56.5279 12.5066 55.3343 12.5051H52.1599C50.9666 12.5066 49.9994 13.4738 49.9979 14.6672V22.5031H47.4986V8.75591C47.4986 7.37544 46.3795 6.25638 44.999 6.25638H42.4995C41.119 6.25638 40 7.37544 40 8.75591V22.5031H38.7503C38.06 22.5031 37.5006 21.9435 37.5006 21.2534V6.25653C37.5006 5.56629 36.941 5.00684 36.2509 5.00684C35.5608 5.00684 35.0012 5.56629 35.0012 6.25653V21.2534C35.0012 23.324 36.6797 25.0026 38.7504 25.0026H67.4945C68.1848 25.0026 68.7442 24.4432 68.7442 23.753C68.7442 23.0627 68.1846 22.5031 67.4944 22.5031ZM44.999 22.5031H42.4995V8.75591H44.999V22.5031ZM54.997 22.5031H52.4975V15.0047H54.997V22.5031ZM64.9948 22.5031H62.4955V18.7539H64.995V22.5031H64.9948Z" fill="#DA2526"/>
<path d="M67.4944 47.498H38.7503C38.06 47.498 37.5006 46.9385 37.5006 46.2483V44.2662L41.6159 40.1508C42.1096 39.6769 42.8894 39.6769 43.383 40.1508L44.8477 41.6155C46.3118 43.0792 48.6851 43.0792 50.1491 41.6155L55.363 36.4016C55.8567 35.9277 56.6364 35.9277 57.1301 36.4016L58.5948 37.8676C60.0605 39.3272 62.4304 39.3272 63.8961 37.8676L68.3778 33.386C68.8514 32.8956 68.8447 32.1161 68.3626 31.6341C67.8804 31.152 67.101 31.1452 66.6107 31.6189L62.129 36.0992C61.641 36.587 60.8499 36.587 60.3619 36.0992L58.8972 34.6345C57.4136 33.2186 55.0793 33.2186 53.5959 34.6345L48.382 39.8484C47.894 40.3362 47.1028 40.3362 46.6149 39.8484L45.1515 38.3837C43.6676 36.9676 41.3327 36.9676 39.8488 38.3837L37.5006 40.732V31.2514C37.5006 30.5612 36.941 30.0017 36.2509 30.0017C35.5608 30.0017 35.0012 30.5613 35.0012 31.2514V46.2483C35.0012 48.3189 36.6797 49.9975 38.7504 49.9975H67.4945C68.1848 49.9975 68.7442 49.4379 68.7442 48.7478C68.7441 48.0574 68.1846 47.498 67.4944 47.498Z" fill="#DA2526"/>
<path d="M74.9923 58.063V6.93734C75.1661 3.30323 72.3762 0.209236 68.7435 0.00756836H6.25657C2.62392 0.209382 -0.166027 3.30337 0.0078135 6.93734V58.063C-0.166613 61.6976 2.62334 64.7923 6.25657 64.9941H26.2524V67.4936H21.2535C18.4927 67.4936 16.2545 69.7317 16.2545 72.4925V73.7422C16.2545 74.4325 16.814 74.9919 17.5042 74.9919H57.496C58.1862 74.9919 58.7457 74.4325 58.7457 73.7422V72.4925C58.7457 69.7317 56.5076 67.4936 53.7468 67.4936H48.7479V64.9941H68.7437C72.3768 64.7924 75.1667 61.6976 74.9923 58.063ZM53.7466 69.9932C55.1271 69.9932 56.2462 71.1122 56.2462 72.4927H18.7539C18.7539 71.1122 19.873 69.9932 21.2535 69.9932H53.7466ZM28.7519 67.4936V64.9941H46.2483V67.4936H28.7519ZM68.7435 62.4947H6.25657C4.00689 62.2882 2.33834 60.3159 2.50734 58.0631V54.9963H72.4929V58.0631C72.6619 60.3159 70.9934 62.2882 68.7435 62.4947ZM72.4928 6.93734V52.4967H2.50734V6.93734C2.33834 4.68473 4.00703 2.71287 6.25657 2.50695H68.7437C70.9931 2.71287 72.6619 4.68473 72.4928 6.93734Z" fill="#F57F1F"/>
</g>
<defs>
<clipPath id="clip0">
<rect width="75" height="75" fill="white"/>
</clipPath>
</defs>
</svg>
