<svg width="75" height="75" viewBox="0 0 75 75" fill="none" xmlns="http://www.w3.org/2000/svg">
<path d="M71.25 37.5H70V11.25C69.9959 7.8 67.2 5.00406 63.75 5H11.25C7.8 5.00406 5.00406 7.8 5 11.25V30H3.75C1.67891 30 0 31.6789 0 33.75V66.25C0 68.3211 1.67891 70 3.75 70H51.25C51.9403 70 52.5 69.4403 52.5 68.75C52.4959 65.3 49.7 62.5041 46.25 62.5H42.5V55H57.5V66.25C57.5 68.3211 59.1789 70 61.25 70H71.25C73.3211 70 75 68.3211 75 66.25V41.25C75 39.1789 73.3211 37.5 71.25 37.5ZM27.5 66.25C27.5 66.9403 26.9403 67.5 26.25 67.5H3.75C3.05969 67.5 2.5 66.9403 2.5 66.25V65H27.5V66.25ZM27.5 62.5H2.5V33.75C2.5 33.0597 3.05969 32.5 3.75 32.5H26.25C26.9403 32.5 27.5 33.0597 27.5 33.75V62.5ZM46.25 65C47.8387 65.0019 49.2545 66.0028 49.7862 67.5H29.77C29.9181 67.0997 29.9958 66.6769 30 66.25V65H46.25ZM30 62.5V55H32.5V62.5H30ZM35 62.5V55H40V62.5H35ZM57.5 52.5H30V45H57.5V52.5ZM57.5 41.25V42.5H30V33.75C29.9958 33.1569 29.8491 32.5734 29.5725 32.0487C29.5913 32.0312 29.6163 32.0263 29.6338 32.0075L42.0087 19.6325C42.4884 19.1359 42.4747 18.3445 41.9781 17.865C41.4938 17.3972 40.7258 17.3972 40.2412 17.865L27.8662 30.24C27.8362 30.2712 27.8238 30.3112 27.7975 30.3438C27.3125 30.1187 26.7845 30.0016 26.25 30H7.5V11.25C7.5 9.17891 9.17891 7.5 11.25 7.5H63.75C65.8211 7.5 67.5 9.17891 67.5 11.25V37.5H61.25C59.1789 37.5 57.5 39.1789 57.5 41.25ZM72.5 66.25C72.5 66.9403 71.9403 67.5 71.25 67.5H61.25C60.5597 67.5 60 66.9403 60 66.25V65H72.5V66.25ZM72.5 62.5H60V41.25C60 40.5597 60.5597 40 61.25 40H71.25C71.9403 40 72.5 40.5597 72.5 41.25V62.5Z" fill="#F57F1F"/>
<path d="M14.9363 45.2151C14.4482 44.7271 13.657 44.7271 13.1688 45.2151L7.86634 50.5176C7.36977 50.9973 7.35602 51.7885 7.83571 52.2851C8.3154 52.7816 9.10665 52.7954 9.60321 52.3157C9.61368 52.3057 9.62384 52.2954 9.63384 52.2851L14.9363 46.9826C15.1595 46.5959 14.711 45.8607 14.9363 45.2151Z" fill="#DA2526"/>
<path d="M22.4057 45.215C21.9213 44.7472 21.1534 44.7472 20.6688 45.215L15.3663 50.5175C14.8698 50.997 14.856 51.7884 15.3357 52.285C15.8152 52.7816 16.6066 52.7953 17.1032 52.3156C17.1137 52.3056 17.1238 52.2953 17.1338 52.285L22.4363 46.9825C22.9159 46.4859 22.9023 45.6945 22.4057 45.215Z" fill="#DA2526"/>
<path d="M49.6034 17.8662C49.1191 17.3984 48.3511 17.3984 47.8666 17.8662L35.4916 30.2412C34.995 30.7208 34.9813 31.5122 35.4608 32.0087C35.9403 32.5053 36.7317 32.5191 37.2283 32.0395C37.2388 32.0295 37.2489 32.0192 37.2591 32.0087L49.6341 19.6337C50.1138 19.1372 50.1 18.3458 49.6034 17.8662Z" fill="#DA2526"/>
<path d="M68.8711 48.5989C68.3868 48.1309 67.6186 48.1309 67.1342 48.5989L63.5992 52.1339C63.1027 52.6136 63.0889 53.4048 63.5686 53.9014C64.0483 54.398 64.8396 54.4117 65.3361 53.932C65.3464 53.922 65.3567 53.9117 65.3667 53.9014L68.9017 50.3664C69.3814 49.8698 69.3677 49.0786 68.8711 48.5989Z" fill="#DA2526"/>
<path d="M37.5251 47.5H37.5126C36.8223 47.5034 36.2654 48.0659 36.2688 48.7563C36.2723 49.4466 36.8348 50.0034 37.5251 50C38.2154 50 38.7751 49.4403 38.7751 48.75C38.7751 48.0597 38.2154 47.5 37.5251 47.5Z" fill="black"/>
<path d="M40 10H35C34.3097 10 33.75 10.5597 33.75 11.25C33.75 11.9403 34.3097 12.5 35 12.5H40C40.6903 12.5 41.25 11.9403 41.25 11.25C41.25 10.5597 40.6903 10 40 10Z" fill="#DA2526"/>
</svg>
