<svg width="75" height="75" viewBox="0 0 75 75" fill="none" xmlns="http://www.w3.org/2000/svg">
<path d="M52.7344 60.3516C52.7339 60.8176 52.5485 61.2644 52.219 61.594C51.8894 61.9235 51.4426 62.1089 50.9766 62.1094H24.0234C23.5574 62.1089 23.1106 61.9235 22.781 61.594C22.4515 61.2644 22.2661 60.8176 22.2656 60.3516V6.44531C22.2661 5.97927 22.4515 5.53245 22.781 5.20291C23.1106 4.87336 23.5574 4.688 24.0234 4.6875H50.9766C51.4426 4.688 51.8894 4.87336 52.219 5.20291C52.5485 5.53245 52.7339 5.97927 52.7344 6.44531V16.4062H55.0781V6.44531C55.0769 5.35789 54.6444 4.31536 53.8754 3.54644C53.1065 2.77752 52.064 2.34499 50.9766 2.34375H24.0234C22.936 2.34499 21.8935 2.77752 21.1246 3.54644C20.3556 4.31536 19.9231 5.35789 19.9219 6.44531V30.4688H19.5312C18.7211 30.4673 17.9289 30.7064 17.2549 31.1558C16.5809 31.6051 16.0554 32.2444 15.7452 32.9927L10.637 45.2524C10.5775 45.3952 10.5469 45.5484 10.5469 45.7031V50.3906H12.8906V45.9375L17.9087 33.8943C18.0417 33.5736 18.2668 33.2996 18.5557 33.107C18.8445 32.9144 19.184 32.8119 19.5312 32.8125H19.9219V60.3516C19.9231 61.439 20.3556 62.4815 21.1246 63.2504C21.8935 64.0194 22.936 64.4519 24.0234 64.4531H40.5117C40.2652 64.7054 39.9483 64.8775 39.6025 64.9469L30.2389 66.8196C29.9342 66.8805 29.6661 67.0601 29.4937 67.3187L27.4979 70.3125H4.6875V69.5427L12.6437 59.3133C12.8037 59.1076 12.8906 58.8544 12.8906 58.5938V52.7344H10.5469V58.1917L2.59072 68.4211C2.43067 68.6268 2.34377 68.88 2.34375 69.1406V71.4844C2.34375 71.7952 2.46721 72.0932 2.68698 72.313C2.90675 72.5328 3.20482 72.6562 3.51562 72.6562H28.125C28.3179 72.6562 28.5078 72.6086 28.6779 72.5176C28.848 72.4266 28.993 72.295 29.1 72.1345L31.1745 69.0234L40.0622 67.2458C40.7822 67.1 41.4501 66.7641 41.9966 66.2731C42.543 65.782 42.9481 65.1536 43.1697 64.4531H50.9766C52.064 64.4519 53.1065 64.0194 53.8754 63.2504C54.6444 62.4815 55.0769 61.439 55.0781 60.3516V51.5625H52.7344V60.3516Z" fill="#F57F1F"/>
<path d="M51.5625 16.4062V8.49609C51.5617 7.79704 51.2836 7.12686 50.7893 6.63255C50.295 6.13825 49.6248 5.86019 48.9258 5.85938H44.5312C44.2204 5.85938 43.9224 5.98284 43.7026 6.20261C43.4828 6.42238 43.3594 6.72045 43.3594 7.03125V7.91016C43.3594 7.98786 43.3285 8.06237 43.2736 8.11732C43.2186 8.17226 43.1441 8.20312 43.0664 8.20312H31.9336C31.8559 8.20312 31.7814 8.17226 31.7264 8.11732C31.6715 8.06237 31.6406 7.98786 31.6406 7.91016V7.03125C31.6406 6.72045 31.5172 6.42238 31.2974 6.20261C31.0776 5.98284 30.7796 5.85938 30.4688 5.85938H26.0742C25.3752 5.86019 24.705 6.13825 24.2107 6.63255C23.7164 7.12686 23.4383 7.79704 23.4375 8.49609V58.3008C23.4383 58.9998 23.7164 59.67 24.2107 60.1643C24.705 60.6586 25.3752 60.9367 26.0742 60.9375H48.9258C49.6248 60.9367 50.295 60.6586 50.7893 60.1643C51.2836 59.67 51.5617 58.9998 51.5625 58.3008V51.5625H49.2188V58.3008C49.2188 58.3785 49.1879 58.453 49.1329 58.5079C49.078 58.5629 49.0035 58.5938 48.9258 58.5938H26.0742C25.9965 58.5938 25.922 58.5629 25.8671 58.5079C25.8121 58.453 25.7812 58.3785 25.7812 58.3008V8.49609C25.7812 8.41839 25.8121 8.34388 25.8671 8.28893C25.922 8.23399 25.9965 8.20312 26.0742 8.20312H29.313C29.3859 8.84738 29.6933 9.44229 30.1765 9.87452C30.6598 10.3067 31.2852 10.5461 31.9336 10.5469H43.0664C43.7148 10.5461 44.3402 10.3067 44.8235 9.87452C45.3067 9.44229 45.6141 8.84738 45.687 8.20312H48.9258C49.0035 8.20312 49.078 8.23399 49.1329 8.28893C49.1879 8.34388 49.2188 8.41839 49.2188 8.49609V16.4062H51.5625Z" fill="#DA2526"/>
<path d="M72.6562 39.8438V21.3867C72.6554 20.6877 72.3774 20.0175 71.8831 19.5232C71.3888 19.0289 70.7186 18.7508 70.0195 18.75H31.6406V16.4062H29.2969V51.5625H31.6406V49.2188H70.0195C70.7186 49.2179 71.3888 48.9399 71.8831 48.4456C72.3774 47.9513 72.6554 47.2811 72.6562 46.582V42.1875H70.3125V46.582C70.3125 46.6597 70.2816 46.7342 70.2267 46.7892C70.1717 46.8441 70.0972 46.875 70.0195 46.875H31.6406V44.5312H37.5C37.8108 44.5312 38.1089 44.4078 38.3286 44.188C38.5484 43.9682 38.6719 43.6702 38.6719 43.3594V38.6719C38.6719 38.3611 38.5484 38.063 38.3286 37.8432C38.1089 37.6235 37.8108 37.5 37.5 37.5H31.6406V35.1562H70.3125V39.8438H72.6562ZM36.3281 39.8438V42.1875H31.6406V39.8438H36.3281ZM31.6406 21.0938H70.0195C70.0972 21.0938 70.1717 21.1246 70.2267 21.1796C70.2816 21.2345 70.3125 21.309 70.3125 21.3867V24.6094H31.6406V21.0938ZM31.6406 32.8125V26.9531H70.3125V32.8125H31.6406Z" fill="#F57F1F"/>
<path d="M62.1094 37.5H64.4531V39.8438H62.1094V37.5Z" fill="#DA2526"/>
<path d="M58.5938 37.5H60.9375V39.8438H58.5938V37.5Z" fill="#DA2526"/>
<path d="M65.625 37.5H67.9688V39.8438H65.625V37.5Z" fill="#DA2526"/>
</svg>
