<svg xmlns="http://www.w3.org/2000/svg" width="922" height="485" fill="none"><g filter="url(#filter0_d)"><path fill="#fff" d="M774.07 179.7C743.64 153.74 706.93-2.75 581.25 78.75c-64.93 42.1-174.43-36.15-265.08-9.11-83.22 24.83-91.25 106.6-83.2 133.25 16.26 53.84-34.35 61.84-81.33 84.97-73.66 36.28-19.5 163.79 50.1 164.4 69.6.6 491.22-1.22 491.22-1.22s101.1.27 143.15-55.5c45.25-60.03 16.57-148.83-62.04-215.86z"/><path fill="#F57E20" d="M645.82 374.39H819.1V83.44H645.82v290.95z"/><path fill="#FFD8BD" d="M813.64 83.42H640.38v290.95h173.26V83.42z"/><path fill="#F3F9FF" d="M802.26 99.7H652.2v101.33h150.07V99.7zM799.69 296.12h-80.56v54.1h80.56v-54.1z"/><path fill="#F57E20" d="M658.38 151.42s25.62-3.2 41.27 11.22c15.65 14.43 44.84 1.29 56.58 0 20.43-2.23 36.42 4.47 41.18 11.79v22.02H658.38v-45.03z"/><path fill="#A6C7F9" d="M679.3 115.96h-1.07v34.39h1.06v-34.39zM721.44 130.73h-1.07v34.39h1.07v-34.39zM764.92 122.95h-1.07v34.38h1.07v-34.38zM691.3 121.25h-8.22a.91.91 0 01-.9-.9c0-.48.41-.9.9-.9h8.22c.49 0 .9.42.9.9 0 .49-.41.9-.9.9zM691.3 124.48h-8.22a.91.91 0 01-.9-.9c0-.49.41-.9.9-.9h8.22c.49 0 .9.41.9.9 0 .48-.41.9-.9.9zM732.82 138.78h-8.23a.91.91 0 01-.9-.9c0-.48.42-.9.9-.9h8.23c.48 0 .9.42.9.9-.03.5-.42.9-.9.9zM732.82 141.94h-8.23a.91.91 0 01-.9-.9c0-.49.42-.9.9-.9h8.23c.48 0 .9.41.9.9-.03.48-.42.9-.9.9zM777 125.8h-8.22a.91.91 0 01-.9-.89c0-.48.41-.9.9-.9H777c.49 0 .9.42.9.9 0 .49-.41.9-.9.9zM777 128.96h-8.22a.91.91 0 01-.9-.9c0-.48.41-.9.9-.9H777c.49 0 .9.42.9.9 0 .49-.41.9-.9.9z"/><path fill="#F3F9FF" d="M772.63 226.96a14.82 14.82 0 1129.64 0 14.82 14.82 0 01-29.63 0z"/><path fill="#C65447" d="M801 226.96a13.55 13.55 0 01-22.74 9.99l9.17-10V213.4c7.5 0 13.57 6.06 13.57 13.56z"/><path fill="#A6C7F9" d="M782.27 224.56h-4.88a.43.43 0 01-.41-.42c0-.21.2-.4.41-.4h4.88c.22 0 .41.19.41.4a.4.4 0 01-.41.42z"/><path fill="#F3F9FF" d="M750.65 241.77a14.82 14.82 0 100-29.64 14.82 14.82 0 000 29.64z"/><path fill="#E57970" d="M750.65 226.96l8.33 10.69a13.55 13.55 0 11-8.32-24.25c7.05 0 12.88 5.4 13.5 12.32l-13.5 1.24z"/><path fill="#A6C7F9" d="M761.08 230.3h-3.4a.43.43 0 01-.4-.41c0-.22.19-.41.4-.41h3.4c.22 0 .41.2.41.41a.4.4 0 01-.4.41z"/><path fill="#F3F9FF" d="M772.63 267.74a14.82 14.82 0 1129.64 0 14.82 14.82 0 01-29.63 0z"/><path fill="#EE9849" d="M801 267.74a13.55 13.55 0 01-22.74 10l9.17-10V254.2c7.5 0 13.57 6.06 13.57 13.55z"/><path fill="#A6C7F9" d="M782.27 265.34h-4.88a.42.42 0 01-.41-.4c0-.23.2-.42.41-.42h4.88c.22 0 .41.2.41.41a.4.4 0 01-.41.41z"/><path fill="#F3F9FF" d="M735.83 267.74a14.82 14.82 0 1129.64 0 14.82 14.82 0 01-29.64 0z"/><path fill="#C65447" d="M764.17 266.5a13.56 13.56 0 10-5.2 11.94l-8.32-10.7 13.52-1.23z"/><path fill="#A6C7F9" d="M761.08 271.1h-3.4a.43.43 0 01-.4-.42c0-.22.19-.41.4-.41h3.4c.22 0 .41.19.41.4a.4.4 0 01-.4.42zM796.2 346.46h-73.94v-43.67h.93v42.75h73v.92z"/><path fill="#F57E20" d="M745.38 330.67c-9.04-7.2-18.68 0-18.68 0V343h67.67v-31.81c-18.39.43-39.94 26.7-48.99 19.5z"/><path fill="#A6C7F9" d="M727.48 306.13H759c.43 0 .77-.34.77-.77a.77.77 0 00-.77-.78h-31.52a.77.77 0 00-.78.78c0 .43.34.77.78.77zM727.48 309.92H759c.43 0 .77-.34.77-.78a.77.77 0 00-.77-.78h-31.52a.77.77 0 00-.78.78c0 .41.34.78.78.78zM727.33 313.48h20.87c.34 0 .63-.3.63-.63v-.3c0-.33-.3-.62-.63-.62h-20.87c-.34 0-.63.29-.63.63v.29c0 .34.3.63.63.63z"/><path fill="#FFCACA" d="M611.72 38.2H374.64v357.34h237.08V38.2z"/><path fill="#F3F9FF" d="M588.43 58.2H397.55v212.62h190.88V58.2zM460.2 363.01a34.3 34.3 0 000-48.52 34.35 34.35 0 00-48.56 0 34.3 34.3 0 000 48.52 34.34 34.34 0 0048.56 0z"/><path fill="#EE9849" d="M464.95 338.75c0-16-12.98-29-29.02-29a29 29 0 100 58 28.8 28.8 0 0017.6-5.94l-17.6-23.06 27.13 10.35c1.21-3.22 1.9-6.69 1.9-10.35z"/><path fill="#F3F9FF" d="M586.3 346.7a34.33 34.33 0 00-66.82-15.77 34.33 34.33 0 0066.82 15.77z"/><path fill="#EE9849" d="M552.88 309.75a29 29 0 00-20.67 49.34l20.67-20.34 27.13 10.35a29.01 29.01 0 00-27.13-39.36z"/><path fill="#DD7C2C" d="M548.66 324.03h-12.35a.87.87 0 00-.87.87c0 .49.39.87.87.87h12.35c.49 0 .87-.38.87-.87a.88.88 0 00-.87-.87zM548.66 326.82h-12.35a.87.87 0 00-.87.87c0 .49.39.87.87.87h12.35c.49 0 .87-.38.87-.87a.87.87 0 00-.87-.87zM541.4 329.63h-5.09a.87.87 0 00-.87.87c0 .49.39.88.87.88h5.1c.48 0 .87-.4.87-.88a.87.87 0 00-.87-.87zM431.45 324.03H419.1a.87.87 0 00-.88.87c0 .49.4.87.88.87h12.35c.48 0 .87-.38.87-.87.02-.46-.39-.87-.87-.87zM431.45 326.82H419.1a.87.87 0 00-.88.87c0 .49.4.87.88.87h12.35c.48 0 .87-.38.87-.87a.87.87 0 00-.87-.87zM424.22 329.63h-5.1a.87.87 0 00-.87.87c0 .49.39.88.87.88h5.1c.48 0 .87-.4.87-.88a.87.87 0 00-.87-.87z"/><path fill="#F57E20" d="M434.7 134.18h-20.14v125.4h20.14v-125.4zM467.67 99.23h-20.14V259.6h20.14V99.23z"/><path fill="#DB2726" d="M503.68 164.51h-20.14v95.09h20.14V164.5z"/><path fill="#F57E20" d="M538.71 120.64h-20.13V259.6h20.13V120.64z"/><path fill="#DB2726" d="M573.94 183.11H553.8v76.46h20.14v-76.46zM537.77 102.55H520.7c-.97 0-1.77.8-1.77 1.77s.8 1.77 1.77 1.77h17.06c.97 0 1.77-.8 1.77-1.77s-.8-1.77-1.77-1.77zM524.6 108.98h-3.89c-.97 0-1.77.8-1.77 1.77s.8 1.77 1.77 1.77h3.88c.97 0 1.77-.8 1.77-1.77s-.8-1.77-1.77-1.77zM467.48 75.25h-17.06c-.97 0-1.77.8-1.77 1.77s.8 1.77 1.77 1.77h17.06c.97 0 1.77-.8 1.77-1.77s-.8-1.77-1.77-1.77zM454.3 81.67h-3.88c-.97 0-1.77.8-1.77 1.77s.8 1.77 1.77 1.77h3.88c.97 0 1.77-.8 1.77-1.77 0-.99-.8-1.77-1.77-1.77zM502.15 145.8h-17.06c-.97 0-1.77.8-1.77 1.76 0 .97.8 1.77 1.77 1.77h17.06c.97 0 1.77-.8 1.77-1.77s-.8-1.77-1.77-1.77zM488.97 152.22h-3.88c-.97 0-1.77.8-1.77 1.77s.8 1.77 1.77 1.77h3.88c.97 0 1.77-.8 1.77-1.77 0-1-.8-1.77-1.77-1.77zM572.39 164.51h-17.06c-.97 0-1.77.8-1.77 1.77s.8 1.77 1.77 1.77h17.06c.97 0 1.77-.8 1.77-1.77 0-1-.8-1.77-1.77-1.77zM559.24 170.91h-3.88c-.97 0-1.77.8-1.77 1.77s.8 1.78 1.77 1.78h3.88c.97 0 1.77-.8 1.77-1.78a1.8 1.8 0 00-1.77-1.77zM342.64 173.65H169.38v97.49h173.26v-97.49z"/><path fill="#FFC2C2" d="M348.27 173.65H175.01v97.49h173.26v-97.49z"/><path fill="#F3F9FF" d="M244.56 242.32a31.3 31.3 0 000-44.27 31.34 31.34 0 00-44.3 0 31.3 31.3 0 000 44.27 31.34 31.34 0 0044.3 0zM328.81 202.7h-51.9a3.42 3.42 0 100 6.84h51.9a3.42 3.42 0 100-6.83zM328.81 216.77h-51.9a3.42 3.42 0 100 6.84h51.9a3.42 3.42 0 100-6.84zM328.81 230.86h-51.9a3.42 3.42 0 100 6.84h51.9a3.42 3.42 0 100-6.84z"/><path fill="#F26B6B" d="M193.71 219.73h28.68v-28.66a28.7 28.7 0 00-28.68 28.66z"/><path fill="#F1A34F" d="M251.1 220.68H193.72a28.7 28.7 0 0057.38 0z"/><path fill="#FF8D8D" d="M217.44 205h-15.57a1.6 1.6 0 100 3.21h15.57c.9 0 1.6-.73 1.6-1.6.03-.87-.7-1.6-1.6-1.6zM205.43 210.85h-3.54a1.6 1.6 0 100 3.2h3.54a1.6 1.6 0 100-3.2z"/><path fill="#DD8936" d="M240.57 227.68h-15.58a1.6 1.6 0 100 3.2h15.58a1.6 1.6 0 100-3.2zM228.53 233.53H225a1.6 1.6 0 100 3.2h3.54c.9 0 1.6-.73 1.6-1.6.03-.88-.7-1.6-1.6-1.6z"/><path fill="#F57E20" d="M157.18 288.6v99.7h173.26v-99.7H157.18z"/><path fill="#FFDCC5" d="M162.83 288.6v99.7h173.26v-99.7H162.83z"/><path fill="#F3F9FF" d="M210.2 366.68a31.32 31.32 0 100-62.63 31.32 31.32 0 000 62.63zM264.71 324.7h51.9a3.42 3.42 0 100-6.83h-51.9a3.42 3.42 0 100 6.84zM316.61 331.96h-51.9a3.42 3.42 0 100 6.84h51.9a3.42 3.42 0 100-6.84zM316.61 346.02h-51.9a3.42 3.42 0 100 6.84h51.9a3.42 3.42 0 100-6.84z"/><path fill="#F1A34F" d="M210.22 335.89l-28.68-.37c0 .12 0 .25 0 .37a28.66 28.66 0 0044.06 24.17l-15.38-24.17z"/><path fill="#DD8936" d="M211.26 344.9h-15.58a1.6 1.6 0 100 3.2h15.58a1.6 1.6 0 100-3.2zM199.25 350.78h-3.54a1.6 1.6 0 100 3.2h3.54a1.6 1.6 0 100-3.2z"/><path fill="#F57E20" d="M330.44 67.32H157.18v90.35h173.26V67.32z"/><path fill="#FFD6BB" d="M336.09 67.32H162.83v90.35h173.26V67.32z"/><path fill="#F3F9FF" d="M232.36 135.96a31.3 31.3 0 000-44.28 31.34 31.34 0 00-44.3 0 31.3 31.3 0 000 44.28 31.34 31.34 0 0044.3 0z"/><path fill="#FF9D5A" d="M210.22 85.17a28.66 28.66 0 00-13.76 53.8c4.58-8.5 13.75-25.14 13.75-25.14l13.6 25.24c9-4.85 15.08-14.33 15.08-25.24a28.68 28.68 0 00-28.67-28.66z"/><path fill="#F3F9FF" d="M316.61 96.35h-51.9a3.42 3.42 0 100 6.83h51.9a3.42 3.42 0 100-6.83zM316.61 110.41h-51.9a3.42 3.42 0 100 6.84h51.9a3.42 3.42 0 100-6.84zM316.61 124.47h-51.9a3.42 3.42 0 100 6.84h51.9a3.42 3.42 0 100-6.84z"/><path fill="#F57E20" d="M211.26 100.13h-15.58a1.6 1.6 0 100 3.2h15.58a1.6 1.6 0 100-3.2zM199.25 106h-3.54a1.6 1.6 0 100 3.2h3.54a1.6 1.6 0 100-3.2z"/><path fill="#E58638" d="M376.27 223.37s20.21 20.85 21.18 28.7c.98 7.87-9.6 20.19-9.6 20.19l-11.58-48.9z"/><path fill="#000" d="M367.63 439.68s-.68 11.08-2.83 11.25c-.3.02-10.9.02-10.9.02l-13.54-.07s.1-3.25 4.05-3.95c3.96-.68 10.58-3.47 12.98-8.68 2.53-5.5 10.24 1.43 10.24 1.43zM397.77 439.68s-.68 11.08-2.84 11.25c-.29.02-10.9.02-10.9.02l-13.56-.05s.13-3.3 4.08-3.97c3.95-.68 10.58-3.47 12.98-8.68 2.52-5.5 10.24 1.43 10.24 1.43z"/><path fill="#EA5757" d="M352.64 320.8s3.54 22.63 16.74 62.79 15 57.54 15 57.54 3.56.51 7.35.51c2.38 0 6.82-.92 6.82-.92s.12-43.9-5.97-64.07c-6.1-20.2-1.31-72.8-1.31-72.8l-38.63 16.95z"/><path fill="#DB2726" d="M345.75 305.09s-.51 34.1 5.41 75.93c5.9 41.85 3.9 59.6 3.9 59.6s4.86.88 6.58.92c1.82.08 7.57-.46 7.57-.46s8.45-41.85 6.02-62.8c-2.43-20.96 11.57-71.88 11.57-71.88l-41.05-1.31z"/><path fill="#FFB27D" d="M373.12 225.33l-6.67 4.92-9.64-2.03c.13-.88.78-4.51 1.36-7.81.03-.2.08-.39.1-.58.49-2.82.92-5.22.92-5.22l9-4.48 3.35-1.68c0 .05-.27 3.1-.29 3.57-.63 7.93 1.87 13.31 1.87 13.31z"/><path fill="#E58638" d="M357.5 222.83c.21-.1 13.1-3.88 14.5-3.42 1.41.47 2.24 3.18 2.24 3.18l-21.09 4.75c-.02 0 1.65-3.37 4.34-4.5z"/><path fill="#EE9849" d="M392.21 309.3c-2.18 9.98-38.55 11.16-47.94 2.12-1.07-1.04-1.12-5.82-.73-12.3.78-12.63 3.32-31.64 3.42-41.34.05-4.68.7-9.48 1.56-13.85 1.81-9.29 4.6-16.56 4.6-16.56s17.77-5.75 21.09-4.75c16.04 4.67 20.19 76.72 18 86.69z"/><path fill="#E58638" d="M343.57 299.1c.77-12.64 3.32-31.65 3.42-41.35a78 78 0 011.55-13.84l10.68-1.9s10.43 42.66-15.65 57.09z"/><path fill="#FFB27D" d="M349.34 281.5s.73 1.74-.8 2.9c-1.53 1.17-2.52 3.06-2.18 4.44.33 1.38 3.7 3.64 4.87 3.28 1.17-.37 3.54-2.19 3.28-2.91-.27-.73 1.6-6.4-1.24-8.59-2.84-2.18-3.93.87-3.93.87z"/><path fill="#EE9849" d="M361.3 224.8s-10.43 1.94-18.73 14.18c-8.3 12.23-13.76 21.32-12.23 25.73 1.53 4.42 15.48 19.7 17.89 19.7 2.4 0 6.28-1.75 6.5-5.68 0 0-9.83-14.7-7.89-16.9.83-.95 12.74-10.62 14.44-6.23 2.81 7.2.02-30.8.02-30.8z"/><path fill="#FCA56B" d="M370.57 212.16c-1.96 3.79-9.34 7.06-12.4 8.25.03-.2.07-.39.1-.58.48-2.82.92-5.22.92-5.22l9-4.48c2 0 3.2.48 2.38 2.03z"/><path fill="#FFB27D" d="M356.3 214.83s13.32 4.15 15.77-4.17c2.45-8.32 5.83-13.41-2.57-16.42-8.4-3-10.99-.31-12.5 2.26-1.5 2.6-4.12 17.05-.7 18.33z"/><path fill="#000" d="M357.54 195.72s.85 9.7 2.86 9.27c2.02-.42 3.84-.73 3.55 2.18-.3 2.9-3.08 6.3 3.1 6.81 6.19.51 15.07-15.42 13.37-18.43-4.92-8.7-29.96-10.45-22.88.17z"/><path fill="#FFB27D" d="M117.72 420.96l4.08 17.07 6.07-.03.22-17.04h-10.37zM168.82 421.68l11.55 16.35 4.49-5.77-6.94-12.83-9.1 2.25z"/><path fill="#000" d="M138.83 196.67c-2.08-1.19-4.6-1.31-6.35-1.21a3.04 3.04 0 011.33-.64c-1.1-.16-3.52.93-3.52.93-15.16-5.85-17.54 16.46-17.22 21.65.31 5.2-5.1 6.89-12.98 10.96-15.05 7.79-16.38 18.24-16.38 18.24.12.07.24.14.36.24.75-1.26 2.28-3.64 3.6-4-.06.12-1.54 3.27-2.1 5.07 4.45 3.37 12.74 10.86 18.54 16.15-.02-1.04.03-2.5.4-3.27l.7 4.29c3.1 2.83 5.24 4.85 5.24 4.85-.4-4.2 18.95-26.29 29.04-32.91 2.45-3.61 3.32-10 3.4-10.5-.42 5.07-1.29 7.9-2.07 9.5 8.54-7.88 3.57-36.2-1.99-39.35z"/><path fill="#FFB27D" d="M138.88 237.34c.05.02-4.88 2.57-8.56 1.57-3.5-.94-5.75-5.45-5.7-5.48 1.47-.29 1.89-2.33 1.86-11l.66.11 11.2 2.21s-.26 3.52-.26 6.84c0 2.79.17 5.43.8 5.75z"/><path fill="#E37970" d="M126.22 200.3s5.53-5.89 12.47-.29c0 0-4.05-.7-12.47.3z"/><path fill="#D68D5D" d="M138.35 224.75s-.27 3.52-.27 6.84c-6.28-.17-9.58-5.9-10.94-9.07l11.2 2.23z"/><path fill="#000" d="M126 221.3s-3.28-5.18-4.08-9.62c-.56-3.18 1.05-14.92 12.86-13.22 0 0 3.42.34 6.65 2.53 2.57 1.72 6.26 5.45 2.13 15.7l-1.06 3.48-16.5 1.14z"/><path fill="#DB2726" d="M183.04 427.77l-5.94.17-6.43.2s-14.85-16.54-23.2-43.02c-.2-.61-.39-1.24-.6-1.87-4.57-13.3-14.03-29.98-19-45.08-.8-2.4-1.5-4.68-2.14-6.82-.2-.68-.41-1.36-.58-2.01-3.66-12.76-4.73-21.12-5.73-30.07l35.99.3c-.03.01 5.77 61.08 27.63 128.2z"/><path fill="#E7F1FD" d="M150.34 278.92c-.08 17.1 2.52 24.45 2.52 24.45s-15.4 7.83-33.7 2.06c-.22-.07-15.17-3.47-15.17-3.47.32-.7 3.04-12.22 3.33-12.85 3.85-8.3 6.79-11.93 7.25-14.48.85-4.75.87-9.67.44-14.33a114.88 114.88 0 00-4.44-22.5c5-1.14 9.78-3.08 14.97-5.02 1.19 1.48 4.7 2.98 7.88 2.9 3.64-.07 4.78-1.62 4.66-3.34 3.88 2.16 6.96 4.22 6.96 4.22 3.3 5.72 10 11.3 10.49 20.1.14 2.11-5.2 21.78-5.2 22.26z"/><path fill="#5F9AA8" d="M119.4 280.81c-1.58 2.24-4.59 15.74-12.09 17.44 3.86-9.63 6.8-13.87 7.26-16.83.85-5.53.87-11.25.44-16.66 2.5-4.39 4.39-7.42 4.39-7.42.2-.7 3.98-12.44 5.21-1.96 1.22 10.52-3.44 22.96-5.21 25.44z"/><path fill="#FFB27D" d="M140.46 227.9s-14.85.25-14.85-9c0-9.23-1.94-15.42 7.55-15.97 9.46-.56 11.33 2.98 12.08 6.06.73 3.08-.92 18.6-4.78 18.91z"/><path fill="#000" d="M144.78 203.85c-2.28-2.77-4.03-2.19-5-1.34-3.2-4.8-13.35 2.14-13.35 2.14-1 6.62-5.77 10.42-5.77 10.42s2.7 1.68 8.93.08c4.9-1.26 8.47-8.25 9.75-11.16.88.78 2.74 2.6 3.3 4.37.73 2.35 1.07 7.2 2.48 7.03.02 0 3.1-7.37-.34-11.54z"/><path fill="#FFB27D" d="M121.58 437.08s.49 3.37-.77 7.01c0 0-1 4.54 3.47 4.6 4.46.08 5.55-.33 5.04-3.1-.5-2.76-1.45-7.56-1.45-7.56l-6.29-.95z"/><path fill="#C45446" d="M129.76 450.9h-9.27c-.51-2.37.32-6.83.32-6.83 5.04 4.82 8.2-.13 8.2-.13.85 2.1.75 6.96.75 6.96z"/><path fill="#FFB27D" d="M195.61 446.22s-8.22-9.33-10.75-13.96l-6.11 3.13 13.66 12.82 3.2-.4v-1.59z"/><path fill="#C45446" d="M200.66 450.88h-11.4c-1-.9-1.97-2.74-3.14-5.12-.68-1.35-2.18-2.13-3.71-2.54v7.66h-2.38l-2.18-8.15c-1.46-2.74-.37-5.24.65-7.4 1.2 0 4.66.86 10.73 7.84 1.99 2.3 4.2 3.1 6.38 3.03.02.03.07.03.1.05 3.44 1.62 4.58 3.56 4.95 4.63z"/><path fill="#F57E20" d="M200.1 243.23s-9.73 5.43-13.22 7c-1.24.56-3.47 1.6-5.78 2.67-1.38.66-2.79 1.31-4 1.87a5 5 0 01-5.95-1.28c-5.26-6.16-18.92-19.5-33.02-21.18l-.05-.02s0 0 0 .03c0 0 0 0-.02 0l.07.14c.8 1.97 8.52 21.27 8.76 25.34.24 4.3 1.02 70.16 1.02 70.16s-.51 3.03 5.31 1.77c5.8-1.26 7.33-2.53 7.33-2.53s-5.56-40.61-4.05-54.75c.29-2.77.02-5.9-.58-9.12 8.59 5.19 18.7 7.52 18.7 7.52s3.79-1.65 9.63-5.29c2.46-1.53 5.32-3.95 8.13-6.55 3.4-3.1 9.25-10.62 9.25-10.62l-1.53-5.16z"/><path fill="#EA5E5E" d="M177.1 427.96l-6.44.2s-14.84-16.54-23.19-43.02c-.2-.6-.39-1.24-.6-1.87-4.57-13.29-14.03-29.97-19-45.08-.8-2.4-1.5-4.68-2.14-6.81-.2-.68-.41-1.36-.58-2.02l5.29-4.02s15.91 25.75 20.81 49.95c4.28 21.05 21.4 46.37 25.84 52.67z"/><path fill="#DB2726" d="M130.97 377.55c.1 11.78-.5 38.87-2.03 50.07h-5.7c-3.16 0-4.74-.04-4.74-.04a945.24 945.24 0 01-8.59-49.52c-1.62-11.4-3.08-21.2-4.2-29.61-1.11-8.46-1.91-15.57-2.18-21.56-.05-.94-.07-1.87-.1-2.76-.02-.9-.02-1.77-.02-2.62l31.08-3.03c-.39 20.66-3.56 52.23-3.52 59.07z"/><path fill="#EA5E5E" d="M123.23 427.63c-3.15 0-4.73-.05-4.73-.05a945.22 945.22 0 01-8.59-49.52c-1.62-11.4-3.08-21.2-4.2-29.61-1.11-8.46-1.91-15.57-2.18-21.56l11.4 6.72s-7.27 2.57-4.5 22c2.78 19.42 8.94 69.27 12.8 72.01z"/><path fill="#F57E20" d="M124.71 326.7s-2.18 7.9-9.75 6.88c-7.57-1.01-18.34-5.55-18.34-5.55s3.22-10.23 7.25-23.64c4.88-16.27 10.9-37.23 13.76-50.44.8-3.71 1.33-6.8 1.55-9.02l6.4-12.2s9.25 21.02 9.76 26.33c.46 5.31-10.63 67.64-10.63 67.64z"/><path fill="#FFB27D" d="M151.76 264.98c-3.63.48-5.04 2.42-5.48 5.02-.24 1.4-.97 2.81-1.58 3.78-3.63.2-12.27.66-19.55 1.12l-.6 9.53c5.96-.75 13.29-2.26 21.73-5.14a5.82 5.82 0 002.48-1.34c5.24-4.29 8.2-11.44 8.2-12.49 0-1.01-1.56-.94-5.2-.48z"/><path fill="#D36820" d="M124.37 270.17c-.34 8.58-2.35 25.24-20.38 34.14-.05.03-.1.05-.14.08 4.87-16.27 10.9-37.23 13.75-50.44 3.3 4.94 6.94 11.5 6.77 16.22z"/><path fill="#F57E20" d="M125.56 232.75s-15.4 1.1-19.12 9.34c-3.7 8.24-4.87 35.67-.17 43.74 0 0 6.48 1.85 17.96-.29.14-.02.29-.04.41-.07 0 0 3.66-8.95.39-10.72 0 0-9.68.51-8.66-2.69 1.02-3.2 9.2-39.3 9.2-39.3z"/><path fill="#FFB27D" d="M210.56 236.75c-8.3-1.06-10.39 6.48-10.39 6.48l1.55 5.16c2.55.37 4.78-.31 6.85-3.25 2.06-2.93 2.62-1.81 3.93-4 1.77-2.98-1-4.1-1.94-4.39zM186.88 250.24c-1.24.55-3.47 1.6-5.78 2.66 1.24 2.19 2.77 6.14 3.18 12.66a53.42 53.42 0 008.37-6.74c4.37-4.3 9-10.43 9-10.43l-1.55-5.16s-9.73 5.43-13.22 7z"/><path fill="#DB2726" d="M154.09 362.14v-8.53h2.4c.75 0 1.4.16 1.98.5.57.32 1 .79 1.31 1.4.32.6.48 1.3.48 2.08v.54c0 .8-.16 1.51-.47 2.12-.3.6-.75 1.07-1.33 1.4-.57.32-1.24.48-2 .49h-2.37zm1.13-7.6v6.68h1.18c.87 0 1.54-.27 2.02-.8.48-.55.73-1.31.73-2.31v-.5c0-.97-.23-1.72-.69-2.25a2.42 2.42 0 00-1.93-.82h-1.31zm-1.13 21.6v-8.53h2.79c.93 0 1.62.19 2.09.57.46.39.7.95.7 1.7 0 .4-.11.75-.34 1.06-.23.3-.54.54-.93.71.46.13.83.38 1.1.74.26.36.4.79.4 1.29 0 .76-.25 1.37-.75 1.8-.5.44-1.2.66-2.1.66h-2.96zm1.13-3.99v3.07h1.85c.53 0 .94-.14 1.24-.4.3-.28.46-.65.46-1.13 0-1.03-.56-1.54-1.68-1.54h-1.88zm0-.9h1.7c.49 0 .88-.13 1.17-.37.3-.25.45-.58.45-1 0-.47-.14-.81-.41-1.02-.28-.22-.7-.32-1.25-.32h-1.66v2.7zm4.18 18.89h-5.6v-.78l2.96-3.28c.44-.5.74-.9.9-1.2.17-.32.26-.64.26-.97 0-.45-.14-.81-.4-1.1a1.42 1.42 0 00-1.09-.43c-.53 0-.96.16-1.26.47-.3.3-.44.73-.44 1.27h-1.08c0-.78.25-1.42.75-1.9.5-.49 1.19-.73 2.03-.73.8 0 1.42.21 1.88.63.47.41.7.96.7 1.66 0 .84-.54 1.84-1.6 3l-2.3 2.48h4.29v.88zm-.08 6.08l-3.54 7.92h-1.13l3.52-7.64h-4.62v-.9h5.77v.62zm.08 21.92h-5.6v-.78l2.96-3.28c.44-.5.74-.9.9-1.2.17-.32.26-.64.26-.97 0-.45-.14-.81-.4-1.1a1.42 1.42 0 00-1.09-.43c-.53 0-.96.16-1.26.47-.3.3-.44.73-.44 1.27h-1.08c0-.78.25-1.42.75-1.9.5-.49 1.19-.73 2.03-.73.8 0 1.42.21 1.88.63.47.41.7.96.7 1.66 0 .84-.54 1.84-1.6 3l-2.3 2.48h4.29v.88zm-1.34 5.46v.92h-.2c-.84.02-1.51.27-2.01.75-.5.49-.8 1.17-.87 2.05a2.31 2.31 0 011.84-.78c.74 0 1.33.27 1.78.79.44.52.66 1.2.66 2.03a3 3 0 01-.72 2.1c-.47.53-1.11.8-1.92.8-.81 0-1.48-.31-1.99-.94a3.74 3.74 0 01-.76-2.43v-.41c0-1.57.34-2.77 1-3.6.68-.83 1.67-1.26 3-1.28h.2zm-1.42 3.85c-.37 0-.71.1-1.03.33-.3.22-.53.5-.65.84v.4c0 .7.16 1.27.48 1.7.31.43.7.64 1.18.64.49 0 .87-.18 1.15-.54.28-.36.42-.83.42-1.41 0-.59-.14-1.06-.43-1.42a1.35 1.35 0 00-1.12-.54z"/><path fill="#E49963" d="M626.6 310.25s-5.9 1.5-9.64.4c-3.73-1.15-10.19.72-11.23 2.08-1.04 1.36-.66 1.91 1.19 2.37 1.84.46 8.42 3.28 12.74 1.65 4.32-1.62 9.95-1.67 9.95-1.67l-3.01-4.83z"/><path fill="#A82222" d="M677.53 259.09s-6.63 47.04-17.6 51.24c-5.4 2.08-29.3 6.79-36.39 7.27 0 0-1.72-1.4-1.31-7.13 0 0 25.04-9.19 28.6-14.18 5.3-7.45-3.3-30.39 3.35-37.37 6.68-6.99 17.86-10 23.35.17z"/><path fill="#727272" d="M676.67 440.3v-10.25h16.16a.8.8 0 00.8-.8v-1.65a.8.8 0 00-.8-.8h-16.16v-58.37a2.98 2.98 0 00-2.98-2.98h-3.2a2.98 2.98 0 00-2.99 2.98v58.37h-16.16a.8.8 0 00-.8.8v1.65c0 .44.37.8.8.8h16.16v10.26c-11.7.87-21.06 5.09-23.68 10.52h56.51c-2.6-5.43-11.96-9.63-23.66-10.52z"/><path fill="#232323" d="M675.3 358.17a81.6 81.6 0 01-6.49 9.24c-7.1 8.97-14.87 16.4-16.2 23.38-.27 1.4-.7 2.88-1.26 4.48-.56 1.6-1.27 3.3-2.07 5.03-3 6.54-7.54 13.89-12.03 20.58-7.8 11.55-15.12 21.17-15.12 21.17l-13.44-.58c.53-1.36 6.4-17.29 14.24-36.76 3.18-7.9 6.58-16.32 9.83-24.42.44-1.1.87-2.16 1.3-3.23 1-2.47 2-4.92 2.95-7.3a21565.6 21565.6 0 0013.22-32.86s29.43-11.15 32.49-3.92c2.52 5.96.48 11.8-7.43 25.2z"/><path fill="#163560" d="M621.72 439.63s-.68 11.08-2.84 11.25c-.29.02-10.9.02-10.9.02l-13.53-.07s.1-3.25 4.05-3.95c3.96-.68 10.58-3.47 12.98-8.68 2.52-5.5 10.24 1.43 10.24 1.43zM652.83 407.96s9.34 6.01 8.44 7.95c-.12.27-5.3 9.5-5.3 9.5l-6.66 11.77s-2.82-1.67-1.48-5.46c1.33-3.78 2.13-10.91-1.26-15.54-3.57-4.88 6.25-8.22 6.25-8.22z"/><path fill="#000" d="M640.18 331.64s-36.95 23-41.07 38.46c-4.13 15.45 49.13 48.43 49.13 48.43s5.85-5.14 6.87-8.92c0 0-24.07-28.84-29.32-35.29-3.2-3.97 47.44-13.75 53.63-23.35 6.18-9.63 3.98-17.7 3.98-17.7l-43.22-1.63z"/><path fill="#EE9849" d="M709.92 361.18h-75.6a2.75 2.75 0 00-2.75 2.74v15.1c0 1.51 1.24 2.75 2.74 2.75h75.6c1.51 0 2.75-1.24 2.75-2.74v-15.11c0-1.5-1.24-2.74-2.74-2.74z"/><path fill="#E49963" d="M657.27 251.04c-3.64 2.25-5.63 5.09-5.63 5.09 8.85 2.28 23.5-5.92 23.5-5.92s-5.7-3.83-7.8-12.22c-.1-.41-.2-.85-.3-1.31-.26-1.4-.43-2.96-.48-4.6l-4.08 3.63-6.77 6.06s.15 2.52 1 6.84c.2.75.36 1.55.56 2.43z"/><path fill="#DB2726" d="M684.49 292.77c-1.26 17.05.87 42.95-.58 47.43-1.24 3.88-15.85 1.58-21.5.3-2.09-.5-4.61-1.17-7.23-1.97-7.28-2.25-15.24-5.48-16.09-7.88-.02-.1-.07-.2-.07-.27-.07-.34-.07-.68.02-1 .3-1.2 1.39-2.54 1.5-5.55.15-3.37.13-7.34.25-11.61 0-.49.02-1 .07-1.48v-.17c0-.1 0-.17 0-.27a448.9 448.9 0 011.29-23.88c.63-7.64 1.5-14.43 2.62-18.72 1.84-6.99 5.94-11.57 9.66-14.92l2.69-2.3c3 .65 6.55.22 9.75-1.31 3.47-1.65 4.69-2.84 5.3-2.38 8.05 6.19 13.82 25.13 12.32 45.98z"/><path fill="#AA1D1D" d="M655.23 338.55c-7.28-2.25-15.24-5.48-16.1-7.88-.02-.1-.06-.2-.06-.26 0-.34 0-.68.02-1 .3-1.21 1.38-2.54 1.5-5.55.15-3.37.13-7.35.25-11.62 0-.48.02-1 .07-1.48v-.17c0-.1 0-.17 0-.26l27.54-12.5c0-.02 1.6 22.17-13.23 40.72z"/><path fill="#D68D5D" d="M655.76 241.77s.15 2.52 1 6.84c6.6-2.13 9.6-8.1 10.6-10.62.3-.7.41-1.17.41-1.17s-.26-.04-.7-.14c-.92-.2-2.67-.56-4.54-.97l-6.77 6.06z"/><path fill="#E49963" d="M653.1 241.7s14.5 1.63 15.38-7.4c.87-9.04 3.34-14.91-5.88-16.34-9.22-1.43-11.35 1.84-12.4 4.8-1.01 2.94-.87 18.28 2.9 18.94z"/><path fill="#000" d="M668.4 234.91s-.92-12-14.12-13.24c-9.05-.85-4-8.63-3.03-9.87 0 0 6.94.94 14.02 2.13 14.92 2.45 4.61 19.11 3.13 20.98zM587.43 288.86l-1.26.42 10.8 33.23 1.27-.41-10.8-33.24z"/><path fill="#000" d="M633.57 319.5l-36.68.78.05 2.19 36.68-.79-.05-2.18z"/><path fill="#E49963" d="M629.63 317.5s-5.7 2.16-9.54 1.46c-3.86-.7-10.04 1.84-10.94 3.32-.87 1.48-.44 1.97 1.46 2.23 1.89.27 8.73 2.33 12.83.25 4.1-2.09 9.7-2.77 9.7-2.77l-3.51-4.49z"/><path fill="#CE2525" d="M674.61 261.03s-1.38 47.48-11.82 52.86c-5.14 2.67-28.38 10-35.37 11.23 0 0-1.87-1.21-2.09-6.94 0 0 23.88-11.9 26.86-17.26 4.44-7.98-6.62-29.85-.77-37.52 5.82-7.66 16.62-11.88 23.2-2.37z"/></g><defs><filter id="filter0_d" width="930" height="493" x="-4" y="0" color-interpolation-filters="sRGB" filterUnits="userSpaceOnUse"><feFlood flood-opacity="0" result="BackgroundImageFix"/><feColorMatrix in="SourceAlpha" values="0 0 0 0 0 0 0 0 0 0 0 0 0 0 0 0 0 0 127 0"/><feOffset dy="4"/><feGaussianBlur stdDeviation="2"/><feColorMatrix values="0 0 0 0 0 0 0 0 0 0 0 0 0 0 0 0 0 0 0.25 0"/><feBlend in2="BackgroundImageFix" result="effect1_dropShadow"/><feBlend in="SourceGraphic" in2="effect1_dropShadow" result="shape"/></filter></defs></svg>