<svg xmlns="http://www.w3.org/2000/svg" width="1920" height="1104" fill="none"><path fill="url(#paint0_linear)" d="M0 0h1920v1073H0z"/><g opacity=".7"><path fill="#A8A8A8" d="M428.5 644C253.7 644 68 739-2.5 770v306H1919V706c-46.67 15.33-4.5 60-86.5 60H1488c-206 0-394 128-537 128S647 644 428.5 644z"/><path fill="url(#paint1_linear)" d="M428.5 644C253.7 644 68 739-2.5 770v306H1919V706c-46.67 15.33-4.5 60-86.5 60H1488c-206 0-394 128-537 128S647 644 428.5 644z"/></g><g opacity=".7"><path fill="#A8A8A8" d="M428.5 949c-174.8 0-360.5 19-431 50v91l1997.5-12 50.5-320.5c-46.67 15.33-131 28.5-213 28.5-102.5 0-214-63-420-63s-415 241.5-558 241.5S647 949 428.5 949z"/><path fill="url(#paint2_linear)" d="M428.5 949c-174.8 0-360.5 19-431 50v91l1997.5-12 50.5-320.5c-46.67 15.33-131 28.5-213 28.5-102.5 0-214-63-420-63s-415 241.5-558 241.5S647 949 428.5 949z"/></g><path fill="url(#paint3_linear)" d="M425.5 963c-174.8 0-357.5 35-428 66v67l1970.5-21 82-225c-46.67 15.33-72 46-154 46-102.5 0-279-105.5-485-105.5s-413.5 204-556.5 204S644 963 425.5 963z" opacity=".5"/><path fill="#fff" d="M428.5 987.5c-174.8 0-358 64-428.5 95v21.5h1921V984c-102.5 0-303.5-85-509.5-85s-413 147-556 147-208.5-58.5-427-58.5z"/><defs><linearGradient id="paint0_linear" x1="960" x2="960" y1="0" y2="1073" gradientUnits="userSpaceOnUse"><stop stop-color="#F57F1F"/><stop offset="1" stop-color="#DA2526"/></linearGradient><linearGradient id="paint1_linear" x1="1009.25" x2="1009.25" y1="703" y2="1167.5" gradientUnits="userSpaceOnUse"><stop stop-color="#DA2526"/><stop offset="1" stop-color="#F57F1F"/></linearGradient><linearGradient id="paint2_linear" x1="1009.25" x2="1009.25" y1="723" y2="1187.5" gradientUnits="userSpaceOnUse"><stop stop-color="#DA2526"/><stop offset="1" stop-color="#F57F1F"/></linearGradient><linearGradient id="paint3_linear" x1="1011.5" x2="1011.5" y1="790.5" y2="1217.5" gradientUnits="userSpaceOnUse"><stop stop-color="#F57F1F"/><stop offset="1" stop-color="#DB2826"/></linearGradient></defs></svg>