<svg xmlns="http://www.w3.org/2000/svg" width="809" height="809" fill="none"><path fill="#E2E0E7" fill-rule="evenodd" d="M652.86 285.25s-12.78-117.63-108.73-166.5C427.96 59.56 398.5 232.68 275.06 210.2 151.6 187.85 23.78 454.33 232.02 608.53 440.1 762.9 701.4 628.76 652.86 285.25z" opacity=".23" clip-rule="evenodd"/><path fill="#DA2526" d="M575.52 356.44c.33-1.6 1.62-2.75 3.08-3.07-1.13-.97-1.78-2.6-1.46-4.04.5-2.27 2.75-3.56 5.02-3.08.16 0 .64.16.64.16l9.7 2.44s-.15-9.22 1.63-13.75c1.78-4.54 8.58-5.2 7.6.15-1.13 5.34-.8 7.12 2.27 12.62 1.94 3.56 2.9 6.3 3.24 7.6.16.65.16 1.46 0 2.1l-4.37 19.9c-.16 1.14-1.3 1.8-2.43 1.47l-23.78-5.34s-.5-.17-.65-.17c-2.26-.48-3.88-2.58-3.23-4.7.5-1.77 2.9-1.93 2.9-1.93s-2.57-.97-2.1-3.56c.5-2.43 2.28-2.75 3.25-2.6-1.14-1.12-1.62-2.58-1.3-4.2zM613.06 357.25l8.58 1.95c1.45.32 2.26 1.78 1.94 3.07l-5.02 22.5c-.32 1.45-1.78 2.26-3.07 1.93l-8.6-1.94c-1.44-.32-2.25-1.78-1.93-3.07l5.02-22.5c.3-1.46 1.6-2.27 3.06-1.95z"/><path fill="#EDF1FF" d="M611.46 439.33c-.3-1.62.5-3.15 1.75-3.97-1.4-.5-2.58-1.78-2.8-3.25-.37-2.28 1.27-4.3 3.56-4.67.15-.06.66-.08.66-.08l9.93-1.25s-3.48-8.54-3.46-13.4c0-4.87 6.12-7.93 7.14-2.6.87 5.38 1.82 6.93 6.67 10.95 3.1 2.62 5 4.83 5.78 5.92.38.54.67 1.3.76 1.96l3.1 20.13c.27 1.12-.55 2.13-1.72 2.24l-24.1 3.62s-.52.02-.67.08c-2.3.36-4.56-1-4.72-3.2-.2-1.84 2.02-2.87 2.02-2.87s-2.77.03-3.25-2.56c-.42-2.44 1.12-3.38 2.08-3.58-1.46-.66-2.44-1.84-2.72-3.47zM646.75 426.52l8.7-1.28c1.47-.23 2.75.84 2.92 2.16l3.45 22.78c.22 1.48-.84 2.76-2.17 2.93l-8.7 1.3c-1.47.22-2.75-.85-2.92-2.17l-3.44-22.8c-.24-1.46.67-2.68 2.15-2.9z"/><path fill="#E29059" d="M558.7 614.2c4.04-15.7 17.8-27.5 32.68-33.82 14.88-6.48 31.23-8.58 47.25-11.8 16-3.25 32.2-8.1 44.5-18.62 5.33-4.7 10.02-10.52 11.32-17.64 1.3-6.96-1.78-15.05-8.26-17.96-10.2-4.7-21.04 4.7-28.8 12.95-19.1 19.9-40.94 37.22-64.73 50.97"/><path fill="#EA7151" d="M451.26 629.73c8.9-10.68 25.24-9.87 39-8.26-5.18.33-9.88-5-9.55-10.2.5-5.17 5.35-9.54 10.53-10.02 5.17-.5 10.5 2.6 13.26 6.96-4.7-5.82-9.55-11.8-11.33-19.1-1.62-7.27.8-16.17 7.44-19.24 5.67-2.6 12.47-.65 17.32 3.24 4.86 3.88 7.93 9.38 11 14.88 0-9.38-5-17.96-9.7-25.9-4.86-8.08-9.7-16.65-9.7-25.88 0-9.38 7.1-19.4 16.33-18.93 9.22.33 15.2 9.88 18.45 18.6 6.14 16.35 8.73 34 7.92 51.46 2.27-18.44 8.26-36.24 17.64-52.42 1.13-1.93 2.43-3.87 4.37-5 3.4-1.78 7.76-.17 10.2 2.75 2.42 2.9 3.23 6.8 3.7 10.68 1.96 15.2-1.44 30.9-9.37 44 5.5-4.04 8.1-10.84 10.03-17.3 2.1-6.48 4.2-13.44 9.05-18.13 5.02-4.7 13.92-6 18.28-.8 3.08 3.55 2.92 8.9 1.95 13.42-2.1 10.68-7.93 20.55-16.18 27.67 7.44-8.26 16.66-15.06 26.86-19.6 3.88-1.77 8.4-3.23 12.3-1.6 7.44 3.07 6.8 14.4 2.1 20.7-4.86 6.47-12.3 10.84-16.02 17.96 9.54-10.35 26.05-13.6 38.83-7.6 12.78 6 20.87 20.7 19.1 34.8-56.64.63-113.27 1.28-169.9 1.76-22.8.33-45.63.5-68.44-.8"/><path fill="#FFA95C" d="M294.3 682.8c-4.35-17-19.24-29.77-35.42-36.73-16.18-6.96-33.82-9.23-51.13-12.8-17.3-3.54-34.78-8.72-48.22-20.2-5.82-5.03-10.84-11.5-12.3-19.1-1.3-7.6 1.95-16.34 9.07-19.58 11.16-5.03 22.65 5.17 31.06 13.9 20.55 21.52 44.34 40.3 70.06 55.18"/><path fill="#EC866A" d="M197.56 673.74c9.06-10.85 25.56-10.04 39.48-8.42-5.34.32-10.03-5-9.55-10.35.48-5.34 5.33-9.7 10.67-10.2 5.34-.48 10.52 2.6 13.43 7.12-4.7-5.83-9.7-11.98-11.33-19.42-1.78-7.45.8-16.35 7.6-19.58 5.67-2.75 12.63-.65 17.64 3.24 4.87 3.88 8.1 9.54 11.18 15.04 0-9.54-5.02-18.12-9.87-26.37-4.85-8.08-9.86-16.82-9.86-26.37 0-9.54 7.12-19.57 16.67-19.25 9.4.33 15.38 10.03 18.77 18.93 6.15 16.68 8.9 34.48 8.1 52.27 2.26-18.6 8.4-36.9 17.8-53.07 1.12-1.94 2.42-4.04 4.36-5 3.4-1.8 7.93-.17 10.36 2.74 2.4 2.9 3.38 6.96 3.87 10.84 1.94 15.37-1.46 31.4-9.4 44.65 5.5-4.04 8.1-11 10.2-17.63 2.1-6.63 4.2-13.6 9.23-18.28 5.02-4.7 14.08-6 18.45-.8 3.07 3.7 2.9 8.88 1.94 13.58-2.28 10.84-8.1 20.87-16.52 28.15 7.6-8.4 16.83-15.2 27.2-19.9 3.87-1.78 8.4-3.24 12.44-1.62 7.6 3.08 6.96 14.56 2.1 21.04-4.85 6.47-12.45 11-16.17 18.12 9.7-10.53 26.53-13.77 39.48-7.78 12.94 6 21.2 21.03 19.4 35.1-57.43.66-114.87 1.3-172.14 1.8-23.15.3-46.3.48-69.43-.82"/><path fill="#E0E2E7" d="M467.9 721.03c85.6-13.62 153.43-34.53 151.5-46.7-1.95-12.2-72.9-11.02-158.52 2.6-85.6 13.62-153.43 34.53-151.5 46.7 1.95 12.18 72.9 11.02 158.52-2.6z" opacity=".23"/><path fill="#292929" d="M508.2 212.28l74.12 433.46c.48 2.43.65 5.02.48 7.45 0 1.12-.16 2.4-.32 3.55-.16.64-.16 1.13-.32 1.78-.65 3.56-1.78 6.8-3.4 10.03-.8 1.62-1.78 3.07-2.75 4.53-.96 1.44-2.1 2.74-3.4 4.03-.8.8-1.6 1.62-2.58 2.43-.8.8-1.78 1.46-2.75 2.1-1.45.97-2.9 1.95-4.53 2.75-1.13.5-2.1 1-3.24 1.47-2.26.8-4.7 1.62-7.1 1.94l-177.83 30.43c-2.6.5-5.18.65-7.77.5-.48 0-.8 0-1.3 0-.48 0-.96-.18-1.45-.18-1.94-.16-3.88-.64-5.66-1.13-.98-.32-1.8-.65-2.76-.97-.5-.16-.8-.32-1.3-.5-.8-.3-1.78-.8-2.6-1.12-2.57-1.3-5-2.9-7.27-4.85-.8-.8-1.78-1.62-2.6-2.43-1.12-1.3-2.25-2.6-3.38-4.04-1.47-1.93-2.6-4.04-3.57-6.14-1.3-2.75-2.1-5.66-2.75-8.74l-74.1-433.46c-3.4-19.9 10.02-38.83 29.92-42.23l177.98-30.58c19.9-3.4 38.84 10.03 42.23 29.93z"/><path fill="#EDF1FF" d="M500.3 213.58l74.1 433.46c.3 1.94.48 3.88.3 5.82 0 .8-.15 1.78-.15 2.75l-.32 1.63c-.5 2.6-1.3 5.18-2.6 7.6-.64 1.3-1.28 2.43-2.1 3.57-.8 1.13-1.6 2.1-2.58 3.23-.5.5-.97.97-1.78 1.62l-.33.16c-.48.5-1.13.98-1.78 1.47l-.48.32c-.97.64-2.1 1.45-3.24 1.93l-.32.16c-.8.48-1.78.8-2.6 1.13-1.77.65-3.7 1.13-5.65 1.45l-177.5 30.42c-1.94.33-4.04.5-6.15.33-.64 0-1.45 0-2.1-.17-1.45-.16-3.07-.48-4.53-.97-.66-.17-1.47-.5-2.1-.65-.34-.17-.66-.17-.82-.33l-.16-.16c-.5-.16-1.14-.5-1.94-.97-1.95-.98-3.9-2.27-5.67-3.9-.63-.64-1.28-1.3-1.93-1.77-.97-.97-1.78-2.1-2.6-3.24-.96-1.47-1.93-2.92-2.58-4.38l-.17-.48c-.97-2.27-1.62-4.53-2.1-6.96l-74.1-433.46c-2.6-15.54 7.76-30.26 23.3-32.85l177.8-30.42c11.82-1.94 23.3 3.56 29.13 13.27 1.78 3.24 3.08 6.63 3.73 10.36z"/><path fill="#292929" d="M560.96 525.7c-.16-1.63-.16-3.57-.16-5.84l5.82 34.14c-2.75-5-4.7-8.9-5.17-10.2-1.14-3.55-.97-11.32-.5-18.1z" opacity=".2"/><path fill="#292929" d="M526.98 321.98l-8.73-51.13c4.04-.64 7.76 1.94 8.4 6l6.32 36.72c.65 3.88-1.94 7.76-6 8.4zM272.8 338.97l3.4-.65-4.38-25.56-3.4.65c-2.1.33-3.4 2.27-3.07 4.38l3.08 18.12c.32 2.1 2.42 3.56 4.37 3.07zM278.13 369.88l3.4-.65-4.37-25.57-3.4.65c-2.1.33-3.4 2.28-3.07 4.38l3.07 18.12c.32 2.1 2.26 3.4 4.36 3.07zM406.76 211.8l-52.9 9.06c-8.9 1.45-17.32-4.53-18.93-13.43l85.1-14.56c1.62 8.9-4.37 17.3-13.26 18.93z"/><path fill="#EA9878" d="M629.56 679.88c.17.8.5 1.62.65 2.43h4.54l2.27 3.9-2.26 3.88c1.13 1.3 2.43 2.42 3.88 3.4l3.56-2.76 4.05 1.78.32 4.53c1.62.33 3.24.5 5.02.5l1.3-4.38 4.36-.8 2.9 3.4c1.63-.66 3.1-1.63 4.54-2.6l-1.45-4.2 3.07-3.24 4.36.98c.8-1.46 1.62-3.07 2.1-4.7l-3.72-2.58.5-4.37 4.2-1.78c0-.8-.17-1.78-.33-2.75-.15-.8-.3-1.62-.63-2.43h-4.54l-2.26-3.88 2.26-3.9c-1.13-1.3-2.42-2.42-3.88-3.55l-3.56 2.75-4.05-1.78-.33-4.53c-1.62-.34-3.4-.66-5.17-.5l-1.3 4.37-4.37.97-2.9-3.4c-1.63.65-3.08 1.62-4.54 2.6l1.46 4.2-2.92 3.23-4.36-.97c-.8 1.46-1.62 3.08-2.1 4.7l3.7 2.6-.47 4.35-4.2 1.78c0 1.14.15 1.95.3 2.75zm14.08-10.84c3.4-4.37 9.7-5 14.08-1.62 4.37 3.4 5 9.7 1.62 14.08-3.4 4.37-9.7 5.02-14.08 1.62-4.37-3.4-5.18-9.7-1.62-14.08z"/><path fill="#DA2526" d="M478.77 139.96c0 .97 0 1.94.16 2.9l4.85.98 1.46 4.7-3.4 3.55c.97 1.6 2.1 3.23 3.4 4.68l4.53-2.1 4.04 2.9-.63 5.03c1.62.82 3.4 1.47 5.34 1.8l2.43-4.38 5.02.16 2.43 4.37c1.94-.32 3.72-.97 5.5-1.78l-.5-5.02 4.06-2.9 4.53 2.1c1.3-1.46 2.42-2.92 3.4-4.7l-3.4-3.72 1.62-4.7 4.84-.96c.16-.97.16-1.94.16-3.08 0-.98 0-1.78-.16-2.76l-4.86-.97-1.45-4.7 3.4-3.55c-.97-1.78-2.1-3.23-3.4-4.7l-4.53 2.1-4.05-2.9.65-5c-1.78-.82-3.56-1.47-5.5-1.8l-2.43 4.37h-5l-2.44-4.38c-1.94.33-3.72.98-5.5 1.8l.48 5-4.03 2.9-4.53-2.1c-1.3 1.47-2.43 2.92-3.4 4.7l3.4 3.72-1.62 4.7-4.85.97c.16.82.16 1.8 0 2.76zm17.96-8.58c4.85-3.88 11.8-3.23 15.7 1.62 3.87 4.85 3.07 11.8-1.63 15.7-4.85 3.88-11.8 3.23-15.7-1.62-3.88-4.7-3.23-11.82 1.63-15.7z"/><path fill="#E27D82" d="M195.13 197.4c0 .64 0 1.45.16 2.1l3.55.8 1.14 3.57-2.6 2.75c.64 1.3 1.45 2.43 2.42 3.4l3.4-1.46 2.9 2.1-.47 3.72c1.3.65 2.6.98 3.88 1.3l1.78-3.24h3.73l1.78 3.24c1.47-.32 2.76-.65 4.06-1.3l-.33-3.72 3.08-2.1 3.4 1.62c.98-.97 1.8-2.1 2.6-3.4l-2.43-2.75 1.13-3.4 3.56-.64c.16-.66.16-1.47.16-2.28 0-.65 0-1.3-.16-2.1l-3.56-.8-1.13-3.57 2.6-2.75c-.66-1.3-1.47-2.43-2.44-3.56l-3.4 1.45-2.9-2.27.47-3.72c-1.3-.64-2.58-1.13-4.04-1.3l-1.78 3.25h-3.72l-1.78-3.24c-1.46.34-2.75.66-4.05 1.3l.33 3.73-2.92 2.1-3.4-1.62c-.96 1-1.77 2.12-2.58 3.4l2.43 2.76-1.15 3.4-3.56.65c0 1.14-.17 1.95-.17 2.6zm13.27-6.15c3.56-2.9 8.74-2.27 11.65 1.3 2.9 3.55 2.26 8.73-1.3 11.64-3.56 2.9-8.73 2.26-11.65-1.14-2.75-3.88-2.26-9.06 1.3-11.8z"/><path fill="#F57F1F" d="M528.92 154.36c0 .48 0 .97 0 1.45l2.43.5.8 2.43-1.77 1.78c.5.8.97 1.62 1.62 2.43l2.26-.97 1.95 1.46-.32 2.43c.8.32 1.78.64 2.75.97l1.3-2.27h2.42l1.14 2.27c.96-.17 1.93-.5 2.74-.8l-.33-2.6 2.12-1.46 2.26 1.13c.65-.65 1.3-1.46 1.78-2.27l-1.62-1.94.8-2.44 2.44-.5c0-.47.16-.96.16-1.44 0-.5 0-.97 0-1.46l-2.43-.48-.8-2.43 1.78-1.78c-.48-.8-.97-1.62-1.6-2.43l-2.28.97-1.94-1.44.32-2.43c-.8-.48-1.78-.8-2.75-.97l-1.3 2.27h-2.42l-1.12-2.27c-.97.16-1.94.5-2.75.8l.32 2.6-2.1 1.45-2.27-1.12c-.64.65-1.3 1.46-1.78 2.27l1.78 1.94-.8 2.42-2.43.48c-.33.5-.33.97-.33 1.46zm9.07-4.2c2.4-1.95 5.97-1.63 7.9.8 1.96 2.43 1.63 6-.8 7.93-2.42 1.93-5.98 1.6-7.92-.82-2.1-2.43-1.62-6 .8-7.93z"/><path fill="#FF5C5C" d="M271 710.95c0 .48 0 .97 0 1.45l2.44.5.8 2.42-1.77 1.78c.5.8.97 1.62 1.62 2.42l2.25-.97 1.95 1.46-.33 2.44c.8.32 1.78.64 2.75.97l1.3-2.26h2.42l1.14 2.27c.97-.15 1.94-.48 2.75-.8L288 720l2.1-1.45 2.27 1.14c.65-.66 1.3-1.47 1.78-2.28l-1.62-1.94.8-2.43 2.44-.48c0-.5.16-.97.16-1.46 0-.47 0-.96 0-1.45l-2.43-.48-.8-2.43 1.78-1.78c-.5-.8-.98-1.62-1.62-2.42l-2.27.97-1.95-1.45.33-2.43c-.8-.48-1.8-.8-2.76-.97l-1.3 2.27h-2.42l-1.13-2.27c-.97.16-1.94.5-2.75.8l.32 2.6-2.1 1.46-2.26-1.13c-.65.65-1.3 1.46-1.78 2.27l1.77 1.94-.8 2.43-2.43.5c-.32.48-.32.96-.32 1.45zm9.08-4.37c2.42-1.94 5.98-1.62 7.92.8 1.95 2.44 1.62 6-.8 7.94-2.43 1.94-6 1.62-7.93-.8-2.1-2.44-1.62-6 .8-7.94z"/><path fill="#FFAE71" d="M139 256.45c0 1.62.15 3.24.3 4.86l8.6 1.63 2.74 8.08-5.83 6.5c1.63 2.9 3.73 5.65 6 8.08l7.76-3.72 6.96 5-.97 8.6c2.9 1.28 6 2.25 9.22 2.9l4.2-7.6h8.6l4.2 7.6c3.4-.65 6.47-1.78 9.54-3.24l-1.12-8.57 6.95-5.18 7.93 3.56c2.27-2.43 4.2-5.18 5.83-8.1l-6-6.3 2.6-8.25 8.56-1.78c.17-1.78.33-3.4.33-5.18 0-1.62-.17-3.24-.34-4.85l-8.57-1.62-2.76-8.1 5.82-6.46c-1.62-2.93-3.72-5.68-5.98-8.1l-7.93 3.72-6.96-5.02.96-8.57c-3.07-1.3-6.15-2.43-9.54-3.08l-4.2 7.6h-8.6l-4.35-7.6c-3.4.65-6.48 1.78-9.55 3.24l1.13 8.56-6.96 5.18-7.93-3.56c-2.27 2.43-4.2 5.18-5.83 8.1l6 6.3-2.6 8.25-8.58 1.78c.5 1.96.33 3.57.33 5.35zm30.73-15.37c8.1-6.96 20.4-6 27.34 2.27 6.96 8.25 5.83 20.38-2.26 27.34-8.08 6.95-20.38 5.98-27.34-2.27-6.95-8.26-5.82-20.55 2.27-27.35z"/><path fill="#fff" d="M470.74 244.47L306.3 270.5l18.55 117.15L489.3 361.6l-18.56-117.13z"/><path fill="#DA2526" fill-rule="evenodd" d="M411.3 322.47l-23.95-9.87 4.2 26.7 19.75-16.83z" clip-rule="evenodd"/><path fill="#fff" d="M494.12 390.27l-160.66 27.16L352.6 530.7l160.67-27.16-19.15-113.27z"/><path fill="#DA2526" d="M494.15 390.28L333.5 417.44l4.18 24.73L498.33 415l-4.18-24.72z"/><path fill="#EA6E75" d="M483.95 439.84L406.1 453l.86 5.1 77.85-13.16-.85-5.1zM485.73 450.2l-77.86 13.15.87 5.1 77.85-13.15-.87-5.1zM470.78 463.26l-61.26 10.35.84 4.96 61.26-10.36-.84-4.94zM452.98 477.04l-41.64 7.04.86 5.1 41.64-7.03-.86-5.1z"/><path fill="#F57F1F" d="M397.03 454.35l-42.9 7.26 6.25 37.02 42.9-7.25-6.25-37.02z"/><path fill="#fff" d="M352.4 427.48c.16 1.3-.65 2.58-1.94 2.75-1.3.16-2.6-.65-2.75-1.94-.15-1.3.66-2.6 1.95-2.77 1.3-.16 2.43.65 2.75 1.95zM361.46 425.86c.16 1.3-.64 2.6-1.94 2.75-1.3.17-2.6-.64-2.75-1.93-.16-1.3.65-2.6 1.94-2.75 1.3-.17 2.6.64 2.76 1.94zM370.7 424.4c.15 1.3-.66 2.6-1.96 2.75-1.3.16-2.6-.64-2.75-1.94-.17-1.28.64-2.58 1.93-2.74 1.3-.32 2.6.5 2.75 1.94z"/><path fill="url(#a)" d="M515.98 532.65l19.1 112.77-160.2 27.18-19.08-112.77 160.18-27.18z"/><path fill="#DA2526" d="M515.96 532.68L355.8 559.86l4.2 24.72 160.16-27.17-4.2-24.72z"/><path fill="#FF994D" d="M401.87 641.18c11.8-1.5 20.13-12.28 18.62-24.07-1.52-11.78-12.3-20.1-24.08-18.6-11.8 1.5-20.13 12.28-18.62 24.07 1.5 11.78 12.28 20.12 24.07 18.6z"/><path fill="#F57F1F" d="M505.6 582.12l-77.53 13.15.87 5.1 77.53-13.15-.87-5.1zM507.4 592.47l-77.54 13.15.87 5.1 77.52-13.15-.86-5.1zM509.14 602.66l-77.52 13.15.86 5.12L510 607.76l-.86-5.1zM510.93 613l-77.53 13.16.87 5.1 77.52-13.15-.87-5.1z"/><path fill="#fff" d="M400.3 615.16c.64-.8 1.13-1.94.96-3.07-.32-2.1-2.26-3.4-4.36-3.1-2.1.34-3.4 2.28-3.08 4.38.16 1.3.97 2.1 2.1 2.75-1.94 1.3-3.07 3.56-2.58 6l.8 5 11.98-1.93-.8-5.02c-.66-2.6-2.6-4.53-5.03-5.02zM374.24 569.86c.17 1.13-.64 2.26-1.78 2.43-1.13.15-2.26-.66-2.42-1.8-.17-1.13.64-2.26 1.78-2.42 1.13-.16 2.26.65 2.42 1.78zM382.33 568.4c.17 1.14-.64 2.27-1.78 2.43-1.13.16-2.26-.65-2.42-1.78-.17-1.13.64-2.26 1.78-2.43 1.14-.16 2.27.65 2.43 1.78zM390.42 567.1c.17 1.14-.64 2.27-1.78 2.44-1.13.16-2.26-.65-2.42-1.78-.17-1.14.64-2.27 1.78-2.43 1.13-.16 2.26.65 2.42 1.78z"/><path fill="#F57F1F" d="M470.56 244.2l-165.04 26.45 3.97 24.76 165.02-26.43-3.96-24.77z"/><path fill="#fff" d="M323.92 281.37c.17 1.13-.64 2.26-1.78 2.43-1.13.16-2.26-.65-2.42-1.78-.16-1.13.64-2.27 1.78-2.43 1.13-.17 2.26.64 2.42 1.77zM332 280.08c.18 1.13-.63 2.26-1.76 2.42-1.14.17-2.27-.64-2.43-1.78-.15-1.13.65-2.26 1.8-2.42 1.12-.17 2.25.48 2.4 1.78zM340.1 278.62c.17 1.13-.64 2.26-1.78 2.43-1.13.16-2.26-.65-2.42-1.78-.16-1.14.65-2.27 1.78-2.43 1.13-.16 2.26.65 2.42 1.78z"/><path fill="#DA2526" d="M264.87 384.44c2.9 10.5-3.24 21.36-13.76 24.27-10.5 2.92-21.34-3.23-24.26-13.75-2.9-10.5 3.24-21.35 13.76-24.27 10.5-3.07 21.35 3.24 24.27 13.76z"/><path fill="#676C7E" d="M276.2 436.05c1.3 2.27.64 5.02-1.63 6.47l-2.1 1.3c-2.26 1.3-5 .64-6.47-1.62l-60.2-100c-1.28-2.26-.64-5 1.63-6.46l2.1-1.3c2.27-1.3 5.02-.65 6.47 1.62l60.2 100zM177.98 460.97l-33.65 20.22c-2.6 1.6-6.15.64-7.77-1.95L113.1 440.1c-1.62-2.6-.8-6.15 1.94-7.77l28.8-17.3c2.6-1.63 6.15-.66 7.77 1.93l26.38 44z"/><path fill="#DA2526" d="M113.75 441.23c-6.3 6.3-7.93 16.5-3.08 24.6l2.75 4.52c4.86 8.1 14.56 11.5 23.14 8.74l-22.8-37.87zM151.6 417.12l23.8 39.64c39.96-20.06 76.85-18.12 89.47-16.66l-57.44-95.47c-4.53 12.14-19.9 46.6-55.82 72.5zM142.87 482c.16.16.16.33.32.5l7.1 6.14c1.14.97 2.92.8 3.9-.33l21.03 36.1.8 1.3 1.47 2.25c.8 1.3 2.58 1.78 3.88.97l16.5-10.03c1.3-.82 1.78-2.6.97-3.9l-2.1-3.55c-.8-1.3-2.6-1.78-3.88-.97 0 0-6.96-9.38-9.55-13.75-3.24-5.5-12.13-20.07-15.05-24.92l3.9-4.68c.8-.97.8-2.1.3-3.08L142.88 482z"/><path fill="#AFAFAF" d="M168.1 471.97l8.9 7.6-2.42 3.24-6.47-10.83z"/><path fill="#DA2526" d="M265.5 326.67L255 352.9c-.5 1.28-1.94 1.77-3.08 1.28-1.3-.5-1.78-1.94-1.3-3.07l10.53-26.2c.48-1.3 1.94-1.78 3.07-1.3 1.3.5 1.78 1.78 1.3 3.07zM289.62 346.9l-19.9 20.06c-.97.97-2.43.97-3.4 0-.97-.97-.97-2.42 0-3.4l19.9-20.06c.97-.97 2.43-.97 3.4 0 .97.97.97 2.43 0 3.4zM304.5 373.6l-26.7 9.06c-1.28.48-2.58-.33-3.06-1.46-.5-1.3.32-2.6 1.45-3.07l26.7-9.06c1.3-.5 2.58.32 3.06 1.45.33 1.3-.32 2.75-1.45 3.08zM310.66 399.16l-28.16 2.6c-1.3.15-2.42-.82-2.58-2.1-.17-1.3.8-2.44 2.1-2.6l28.15-2.6c1.3-.15 2.43.82 2.6 2.1.15 1.3-.82 2.44-2.1 2.6z"/><path fill="#F9D9C7" d="M375.38 144.33l-41.9 9.06c-2.6.47-5.2-1.15-5.67-3.74l-9.05-41.9c-.5-2.6 1.13-5.18 3.72-5.66l41.9-9.06c2.6-.5 5.18 1.13 5.67 3.72l9.06 41.9c.48 2.6-1.14 5.02-3.72 5.67zM359.68 110.35c-4.37-2.6-9.87-.97-12.62 3.23l-.16.33-.32-.16c-4.2-2.74-10.04-1.77-12.8 2.27-2.9 4.22-1.77 10.2 2.6 12.96l13.6 8.25c1.3.8 3.07.5 3.88-.8l8.9-13.1c2.75-4.38 1.3-10.2-3.08-12.95zM365.67 144.5l-9.55 13.74-13.75-9.7"/><path fill="#DA2526" d="M344.7 125.4c1.2-1.4 2.08-2.84 2.66-4.38.6-1.54.76-3.04.48-4.5-.27-1.37-.92-1.95-1.96-1.75-.48.1-.82.3-1.04.63-.2.32-.26.73-.16 1.22.1.47.3 1 .66 1.55L341.2 120c-.5-.9-.86-1.78-1.03-2.66-.33-1.73-.06-3.18.8-4.34.88-1.2 2.3-1.97 4.23-2.35 1.96-.38 3.6-.15 4.87.68 1.28.83 2.1 2.2 2.48 4.13.34 1.75.22 3.46-.35 5.14-.57 1.68-1.56 3.3-2.97 4.86l.56 2.88-4.37.85-.74-3.8zm.9 5.52l4.7-.9.88 4.56-4.68.9-.9-4.56z"/><path fill="#F48D40" d="M736.4 500.76L534.57 497c-4.06 0-7.38 3.16-7.38 7.23L526 572c0 4.07 3.16 7.38 7.23 7.38l7.53.15c2.86 0 5.27 2.4 5.12 5.42l-.15 10.7c0 1.8 2.26 2.85 3.6 1.5l9.8-9.34c5.12-4.96 11.9-7.67 18.98-7.52l156.93 2.86c4.07 0 7.38-3.16 7.38-7.23l1.22-67.76c0-4.06-3.32-7.38-7.23-7.38z"/><path fill="#fff" d="M652.96 518.08l-102.56-1.95c-1.06 0-1.96-.9-1.96-1.96v-1.06c0-1.04.9-1.94 1.96-1.94l102.56 1.95c1.05 0 1.95.92 1.95 1.97v1.06c.16 1.05-.74 1.95-1.94 1.95zM666.96 528.02l-116.7-2.1c-1.07 0-1.97-.9-1.97-1.96v-1.06c0-1.05.9-1.95 1.95-1.95l116.7 2.1c1.07 0 1.97.9 1.97 1.96v1.07c0 1.05-.9 1.95-1.96 1.95zM644.97 537.2l-94.87-1.8c-1.06 0-1.96-.9-1.96-1.95v-1.06c0-1.06.9-1.97 1.96-1.97l94.87 1.8c1.06 0 1.96.9 1.96 1.97v1.05c.15 1.2-.75 2.1-1.96 1.96zM652.5 547.15l-102.55-1.96c-1.06 0-1.96-.9-1.96-1.97v-1.05c0-1.05.9-1.96 1.95-1.96l102.55 1.96c1.06 0 1.96.9 1.96 1.96v1.05c0 1.05-.9 1.95-1.96 1.95zM666.5 557.1l-116.7-2.12c-1.06 0-1.96-.9-1.96-1.96v-1.05c0-1.06.9-1.96 1.95-1.96l116.7 2.12c1.06 0 1.97.9 1.97 1.96v1.05c0 1.06-.9 1.96-1.96 1.96zM644.52 566.28l-94.88-1.8c-1.05 0-1.95-.9-1.95-1.97v-1.04c0-1.06.9-1.96 1.94-1.96l94.88 1.8c1.06 0 1.96.9 1.96 1.96v1.06c0 1.2-.9 2.1-1.96 1.96zM723.97 560.65c10.76-10.77 10.76-28.22 0-38.98-10.76-10.76-28.22-10.76-38.98 0-10.77 10.76-10.77 28.2 0 38.98 10.75 10.76 28.2 10.76 38.97 0z" opacity=".72"/><path fill="#F48D40" d="M710.63 552.57c3.02-2.26 5.13-5.87 4.82-9.64-.3-3.6-2.7-6.77-5.87-8.28-3.3-1.5-7.23-1.2-10.24.6-3.3 1.8-5.72 5.42-5.87 9.2-.15 3.15 1.5 6.3 4.06 8.12-6.17 2.56-10.7 8.43-10.84 15.66v3.62l34.33.75V569c.3-7.54-4.07-13.72-10.4-16.43z"/><path fill="#DA2526" d="M231.68 543.16l-43.52 36.9c-3.77 3.3-4.22 8.9-1.06 12.8l21.1 24.85c3.3 3.77 8.87 4.23 12.8 1.06l15.2-12.95 12.95 4.68c1.35.45 2.86-.75 2.56-2.26l-2.4-13.4 15.2-12.95c3.77-3.32 4.23-8.9 1.06-12.8l-21.08-24.85c-3.3-3.77-9.04-4.37-12.8-1.06z"/><path fill="#fff" d="M237.1 593.3c-4.97-.3-9.94-.6-14.9-.9-3.47-.14-7.1-.6-9.65-2.85-2.86-2.56-3.3-7.38-.9-10.4 2.4-3 7.23-3.76 10.4-1.5-3.02-1.2-3.77-5.42-2.87-8.58.6-2.26 2.1-4.52 4.37-5.27 2.26-.6 4.82.45 6.32 2.25s2.26 4.07 3 6.33c2.57 8.74 4.23 11.6 4.23 20.93z"/><path fill="#DA2526" d="M666.34 255.12l14.3-4.67-39.3-119.73c-1.2-3.6-5.12-5.57-8.74-4.36l-1.2.45c-3.62 1.2-5.57 5.13-4.37 8.74l39.3 119.58z"/><path fill="#D3C9C9" d="M619.95 270.63l14.3-4.67-32.22-98.2c-1.2-3.6-5.12-5.56-8.74-4.36l-1.2.45c-3.62 1.2-5.58 5.13-4.38 8.74l32.23 98.03z"/><path fill="#3A3A3A" d="M643.3 262.95l14.3-4.67-21.23-64.9c-1.2-3.62-5.12-5.58-8.74-4.38l-1.2.46c-3.62 1.2-5.58 5.12-4.37 8.73l21.23 64.75z"/><path fill="#FFBEA0" d="M597.2 278.9l14.32-4.65-13.86-42.17c-1.2-3.62-5.12-5.58-8.73-4.37l-1.2.46c-3.62 1.2-5.58 5.12-4.38 8.74l13.86 42z"/><defs><linearGradient id="a" x1="433.355" x2="269.327" y1="622.343" y2="888.858" gradientUnits="userSpaceOnUse"><stop stop-color="#fff"/><stop offset="1" stop-color="#D9B7B3"/></linearGradient></defs></svg>