<svg width="135" height="115" viewBox="0 0 135 115" fill="none" xmlns="http://www.w3.org/2000/svg">
<path d="M73.1909 2.22607H85.8197L100.804 45.563C92.4639 43.9527 85.584 38.0323 82.8038 29.9333L73.1909 2.22607Z" fill="url(#paint0_linear)"/>
<path d="M66.8766 57.0248H54.2478L73.1909 2.22607H85.7725L66.8766 57.0248Z" fill="url(#paint1_linear)"/>
<path d="M29.0376 57.0248H16.456L35.3519 2.22607H47.9807L29.0376 57.0248Z" fill="url(#paint2_linear)"/>
<path d="M66.8766 57.0248H54.2479L35.3519 2.22607H47.9806L66.8766 57.0248Z" fill="url(#paint3_linear)"/>
<path d="M29.0376 57.0249H16.456L1.47113 13.688C9.81175 15.2983 16.6916 21.2187 19.4718 29.3177L29.0376 57.0249Z" fill="url(#paint4_linear)"/>
<path d="M15.958 111H13.7998L13.1777 98.749C13.11 97.598 13.0762 96.4046 13.0762 95.1689H13C12.7884 95.7783 12.5303 96.4342 12.2256 97.1367C11.9209 97.8307 9.78809 102.452 5.82715 111H3.61816L2.83105 92.4395H4.98926L5.38281 103.878L5.4082 104.995C5.4082 105.825 5.36589 106.916 5.28125 108.271H5.35742C6.11068 106.214 6.77083 104.593 7.33789 103.408L12.4795 92.4395H14.7393L15.2852 103.357C15.3613 104.652 15.3994 105.939 15.3994 107.217L15.3867 108.271H15.501C16.1357 106.375 16.6901 104.877 17.1641 103.776L22.0771 92.4395H24.3877L15.958 111ZM28.4121 111.254C26.8548 111.254 25.6318 110.793 24.7432 109.87C23.8545 108.948 23.4102 107.67 23.4102 106.036C23.4102 104.445 23.7233 102.922 24.3496 101.466C24.9844 100.002 25.8223 98.8633 26.8633 98.0508C27.9043 97.2383 29.0511 96.832 30.3037 96.832C31.5986 96.832 32.5719 97.1156 33.2236 97.6826C33.8753 98.2412 34.2012 99.0241 34.2012 100.031C34.2012 101.555 33.4987 102.752 32.0938 103.624C30.6888 104.487 28.6787 104.919 26.0635 104.919H25.6445L25.5938 105.935C25.5938 107.043 25.8519 107.911 26.3682 108.537C26.8929 109.155 27.7012 109.464 28.793 109.464C29.3262 109.464 29.8721 109.388 30.4307 109.235C30.9977 109.083 31.7002 108.804 32.5381 108.397V110.251C31.7425 110.623 31.04 110.882 30.4307 111.025C29.8213 111.178 29.1484 111.254 28.4121 111.254ZM30.1768 98.6475C29.305 98.6475 28.484 99.0452 27.7139 99.8408C26.9521 100.636 26.3682 101.741 25.9619 103.154H26.1143C28.0439 103.154 29.5208 102.905 30.5449 102.405C31.5775 101.897 32.0938 101.165 32.0938 100.209C32.0938 99.7604 31.9372 99.388 31.624 99.0918C31.3193 98.7956 30.8369 98.6475 30.1768 98.6475ZM41.9072 111.254C41.0863 111.254 40.3626 111.038 39.7363 110.606C39.1185 110.175 38.653 109.587 38.3398 108.842H38.2129L37.3242 111H35.7373L39.9268 91.2461H42.0596C41.6279 93.2943 41.2936 94.8643 41.0566 95.9561C40.8281 97.0394 40.5107 98.3089 40.1045 99.7646H40.2188C41.0059 98.766 41.7803 98.0339 42.542 97.5684C43.3122 97.0944 44.1035 96.8574 44.916 96.8574C46.1094 96.8574 47.0404 97.2764 47.709 98.1143C48.3776 98.9521 48.7119 100.103 48.7119 101.567C48.7119 103.336 48.4199 104.974 47.8359 106.48C47.2604 107.979 46.4521 109.151 45.4111 109.997C44.3786 110.835 43.2106 111.254 41.9072 111.254ZM44.2686 98.6221C43.4561 98.6221 42.6266 99.0241 41.7803 99.8281C40.9424 100.632 40.2738 101.644 39.7744 102.862C39.2835 104.081 39.0381 105.329 39.0381 106.607C39.0381 107.538 39.2708 108.254 39.7363 108.753C40.2103 109.244 40.8916 109.489 41.7803 109.489C42.6182 109.489 43.3968 109.146 44.1162 108.461C44.8441 107.775 45.4281 106.802 45.8682 105.541C46.3083 104.271 46.5283 102.926 46.5283 101.504C46.5283 99.5827 45.7751 98.6221 44.2686 98.6221ZM58.8301 111L60.709 102.215C60.8613 101.419 60.9375 100.848 60.9375 100.501C60.9375 99.9085 60.8063 99.4473 60.5439 99.1172C60.2816 98.7871 59.833 98.6221 59.1982 98.6221C58.4873 98.6221 57.7933 98.876 57.1162 99.3838C56.4476 99.8916 55.8551 100.619 55.3389 101.567C54.8311 102.507 54.4375 103.641 54.1582 104.97L52.876 111H50.7432L53.7139 97.0859H55.4785L55.1992 99.6631H55.3262C56.0625 98.6559 56.7946 97.9323 57.5225 97.4922C58.2588 97.0521 59.0163 96.832 59.7949 96.832C60.7513 96.832 61.4876 97.1071 62.0039 97.6572C62.5202 98.2074 62.8249 98.9733 62.918 99.9551H63.0195C63.7474 98.8971 64.5218 98.1143 65.3428 97.6064C66.1637 97.0902 66.9932 96.832 67.8311 96.832C68.9059 96.832 69.7354 97.1198 70.3193 97.6953C70.9118 98.2708 71.208 99.1087 71.208 100.209C71.208 100.785 71.1149 101.538 70.9287 102.469L69.1006 111H66.9424L68.8213 102.215C68.9906 101.335 69.0752 100.717 69.0752 100.361C69.0752 99.8366 68.9271 99.4176 68.6309 99.1045C68.3431 98.7829 67.8861 98.6221 67.2598 98.6221C66.5742 98.6221 65.8971 98.8675 65.2285 99.3584C64.5599 99.8493 63.9717 100.548 63.4639 101.453C62.9645 102.35 62.5837 103.417 62.3213 104.652L60.9629 111H58.8301ZM78.9141 111.254C77.3568 111.254 76.1338 110.793 75.2451 109.87C74.3564 108.948 73.9121 107.67 73.9121 106.036C73.9121 104.445 74.2253 102.922 74.8516 101.466C75.4863 100.002 76.3242 98.8633 77.3652 98.0508C78.4062 97.2383 79.5531 96.832 80.8057 96.832C82.1006 96.832 83.0739 97.1156 83.7256 97.6826C84.3773 98.2412 84.7031 99.0241 84.7031 100.031C84.7031 101.555 84.0007 102.752 82.5957 103.624C81.1908 104.487 79.1807 104.919 76.5654 104.919H76.1465L76.0957 105.935C76.0957 107.043 76.3538 107.911 76.8701 108.537C77.3949 109.155 78.2031 109.464 79.2949 109.464C79.8281 109.464 80.374 109.388 80.9326 109.235C81.4997 109.083 82.2021 108.804 83.04 108.397V110.251C82.2445 110.623 81.542 110.882 80.9326 111.025C80.3232 111.178 79.6504 111.254 78.9141 111.254ZM80.6787 98.6475C79.807 98.6475 78.986 99.0452 78.2158 99.8408C77.4541 100.636 76.8701 101.741 76.4639 103.154H76.6162C78.5459 103.154 80.0228 102.905 81.0469 102.405C82.0794 101.897 82.5957 101.165 82.5957 100.209C82.5957 99.7604 82.4391 99.388 82.126 99.0918C81.8213 98.7956 81.3389 98.6475 80.6787 98.6475ZM93.6025 96.8574C95.2445 96.8574 96.4336 97.6615 97.1699 99.2695H97.2969C97.4408 97.9577 97.6312 96.7982 97.8682 95.791L98.8584 91.2461H100.966L96.7764 111H95.0117L95.291 108.347H95.1895C94.3346 109.405 93.5348 110.154 92.79 110.594C92.0452 111.034 91.2751 111.254 90.4795 111.254C89.3031 111.254 88.3848 110.839 87.7246 110.01C87.0645 109.18 86.7344 108.029 86.7344 106.557C86.7344 104.745 87.0391 103.087 87.6484 101.58C88.2578 100.074 89.0788 98.9098 90.1113 98.0889C91.1523 97.2679 92.3161 96.8574 93.6025 96.8574ZM91.1904 109.489C91.986 109.489 92.807 109.096 93.6533 108.309C94.4997 107.513 95.1683 106.502 95.6592 105.274C96.1585 104.039 96.4082 102.782 96.4082 101.504C96.4082 100.564 96.1797 99.8493 95.7227 99.3584C95.2656 98.8675 94.6012 98.6221 93.7295 98.6221C92.8747 98.6221 92.0791 98.9733 91.3428 99.6758C90.6149 100.37 90.0267 101.352 89.5781 102.621C89.138 103.882 88.918 105.211 88.918 106.607C88.918 108.529 89.6755 109.489 91.1904 109.489ZM103.378 111H101.245L104.216 97.0859H106.349L103.378 111ZM104.812 93.5312C104.812 93.0573 104.948 92.6722 105.219 92.376C105.49 92.0713 105.841 91.9189 106.272 91.9189C107.017 91.9189 107.39 92.2998 107.39 93.0615C107.39 93.527 107.246 93.9206 106.958 94.2422C106.679 94.5638 106.353 94.7246 105.98 94.7246C105.642 94.7246 105.363 94.623 105.143 94.4199C104.923 94.2083 104.812 93.9121 104.812 93.5312ZM115.21 96.832C115.989 96.832 116.683 97.0436 117.292 97.4668C117.901 97.8815 118.375 98.4824 118.714 99.2695H118.854L119.704 97.0859H121.316L118.358 111H116.67L117 108.347H116.898C115.383 110.285 113.788 111.254 112.112 111.254C110.936 111.254 110.013 110.835 109.345 109.997C108.676 109.159 108.342 108.012 108.342 106.557C108.342 104.796 108.642 103.163 109.243 101.656C109.844 100.15 110.674 98.9691 111.731 98.1143C112.789 97.2594 113.949 96.832 115.21 96.832ZM112.798 109.489C113.619 109.489 114.436 109.1 115.248 108.321C116.061 107.534 116.721 106.514 117.229 105.262C117.736 104.001 117.99 102.74 117.99 101.479C117.99 100.607 117.753 99.9128 117.279 99.3965C116.805 98.8802 116.183 98.6221 115.413 98.6221C114.533 98.6221 113.712 98.986 112.95 99.7139C112.197 100.442 111.604 101.428 111.173 102.672C110.741 103.916 110.525 105.228 110.525 106.607C110.525 107.572 110.724 108.296 111.122 108.778C111.52 109.252 112.078 109.489 112.798 109.489Z" fill="white"/>
<defs>
<linearGradient id="paint0_linear" x1="80.435" y1="4.7013" x2="94.3748" y2="45.2579" gradientUnits="userSpaceOnUse">
<stop stop-color="white"/>
<stop offset="1" stop-color="white"/>
</linearGradient>
<linearGradient id="paint1_linear" x1="61.6721" y1="53.8152" x2="79.5386" y2="2.62315" gradientUnits="userSpaceOnUse">
<stop offset="0.00359712" stop-color="#D1D1D1"/>
<stop offset="1" stop-color="white"/>
</linearGradient>
<linearGradient id="paint2_linear" x1="24.1505" y1="54.0523" x2="41.2771" y2="2.60542" gradientUnits="userSpaceOnUse">
<stop stop-color="#C8C8C8"/>
<stop offset="1" stop-color="white"/>
</linearGradient>
<linearGradient id="paint3_linear" x1="59.353" y1="53.9082" x2="41.7729" y2="2.61606" gradientUnits="userSpaceOnUse">
<stop stop-color="white"/>
<stop offset="1" stop-color="white"/>
</linearGradient>
<linearGradient id="paint4_linear" x1="21.887" y1="55.8701" x2="8.52129" y2="14.9177" gradientUnits="userSpaceOnUse">
<stop stop-color="white"/>
<stop offset="1" stop-color="white"/>
</linearGradient>
</defs>
</svg>
