<svg xmlns="http://www.w3.org/2000/svg" width="784" height="784" fill="none"><path fill="#E5E9ED" d="M690.08 635.67c0 3.6-133.44 6.58-298.08 6.58s-298.08-2.98-298.08-6.58 133.44-6.59 298.08-6.59 298.08 2.98 298.08 6.59z"/><path fill="#fff" stroke="#E0B8B8" stroke-miterlimit="10" d="M682.7 634.1c-13.16-27.91-65.38-53.16-34.02-88.28 31.36-35.12-68.52-74.48-22.73-107.4 50.49-36.38 24.3-88.13 56.76-88.13v283.8z"/><path fill="#fff" stroke="#E0B8B8" stroke-miterlimit="10" d="M682.7 634.1c13.18-27.91 65.4-53.16 34.03-88.28-31.36-35.12 68.52-74.48 22.74-107.4-50.5-36.38-24.3-88.13-56.76-88.13v283.8z"/><path stroke="#E0B8B8" stroke-miterlimit="10" d="M682.7 614.5c0-39.04-43.9-46.73-43.9-46.73M682.7 529.51c0-42.65-41.86-75.26-68.99-72.9M682.7 448.6c0-44.06-22.1-66-22.1-66M682.7 614.5c0-39.04 43.91-46.73 43.91-46.73M682.7 529.51c0-42.65 41.87-75.26 69-72.9M682.7 448.6c0-44.06 22.12-66 22.12-66"/><path fill="#fff" stroke="#F4D7D7" stroke-miterlimit="10" d="M101.3 634.1c13.16-27.91 65.38-53.16 34.02-88.28-31.36-35.12 68.52-74.48 22.73-107.4-50.49-36.38-24.3-88.13-56.76-88.13v283.8z"/><path fill="#fff" stroke="#F4D7D7" stroke-miterlimit="10" d="M101.3 634.1c-13.18-27.91-65.4-53.16-34.03-88.28 31.36-35.12-68.52-74.48-22.74-107.4 50.5-36.38 24.3-88.13 56.76-88.13v283.8z"/><path stroke="#F4D7D7" stroke-miterlimit="10" d="M101.3 614.5c0-39.04 43.9-46.73 43.9-46.73M101.3 529.51c0-42.65 41.86-75.26 68.98-72.9M101.3 448.6c0-44.06 22.1-66 22.1-66M101.3 614.5c0-39.04-43.91-46.73-43.91-46.73M101.3 529.51c0-42.65-41.87-75.26-69-72.9M101.3 448.6c0-44.06-22.12-66-22.12-66"/><path fill="#FFF8F3" d="M630.8 268.75H153.36v306.08h477.46V268.75z"/><path fill="#FFD3B6" d="M630.8 280.99H153.36v26.8h477.46V281z"/><path fill="#fff" d="M181.73 291.33l2.67 2.83v3.76h-5.33v-3.76l2.66-2.83zm0-1.88c-.16 0-.47.16-.63.32l-3.29 3.45c-.16.15-.31.62-.31.94v4.23c0 .63.47 1.25.94 1.25h6.43c.63 0 .94-.47.94-1.25v-4.23c0-.32-.16-.63-.31-.94l-3.3-3.45c0-.32-.31-.32-.47-.32z"/><path stroke="#fff" stroke-linecap="round" stroke-miterlimit="10" d="M194.28 297.3l3.76-2.36c.47-.31.47-.63 0-.94l-3.76-2.35M169.03 297.3l-3.76-2.36c-.47-.31-.47-.63 0-.94l3.76-2.35"/><path fill="#F2F2F2" d="M575.46 302.78H214.35a4.15 4.15 0 01-4.08-4.08v-8.46c0-2.2 1.88-4.08 4.08-4.08h361.1c2.2 0 4.08 1.88 4.08 4.08v8.46c0 2.2-1.88 4.08-4.07 4.08z"/><path fill="#BEC8D2" d="M455.82 291.96H334.14v5.02h121.68v-5.02z"/><path stroke="#BEC8D2" stroke-miterlimit="10" d="M223.28 291.96a3.5 3.5 0 010 5.02 3.5 3.5 0 01-5.01 0 3.5 3.5 0 010-5.02 3.5 3.5 0 015.01 0z"/><path stroke="#BEC8D2" stroke-linecap="round" stroke-miterlimit="10" d="M223.28 296.98l2.2 2.2M574.05 294.47c0 2.04-1.57 3.6-3.61 3.6a3.55 3.55 0 01-3.6-3.6c0-2.04 1.56-3.6 3.6-3.6"/><path stroke="#BEC8D2" stroke-linecap="round" stroke-linejoin="round" stroke-miterlimit="10" d="M570.44 289.92l1.88 1.26-1.88 1.25v-2.5z"/><path stroke="#fff" stroke-linecap="round" stroke-linejoin="round" stroke-miterlimit="10" d="M594.9 289.45l1.25 3.77h4.08l-3.3 2.5 1.26 3.77-3.3-2.35-3.28 2.35 1.25-3.76-3.3-2.51h4.09l1.25-3.77zM608.7 290.24h13.33M608.7 294.47h13.33M608.7 298.7h13.33"/><path stroke="#F57E20" stroke-miterlimit="10" stroke-width=".75" d="M630.65 268.75v306.08h-477.3"/><path fill="#F57E20" d="M630.8 268.75H153.36V281h477.46v-12.24z"/><path fill="#FAE54E" d="M162.92 277.7a2.82 2.82 0 100-5.65 2.82 2.82 0 000 5.64z"/><path fill="#2D80EA" d="M170.76 277.7a2.82 2.82 0 100-5.65 2.82 2.82 0 000 5.64z"/><path fill="#E148BE" d="M181.57 274.87a2.81 2.81 0 01-2.82 2.82 2.81 2.81 0 01-2.82-2.82 2.81 2.81 0 012.82-2.82 2.91 2.91 0 012.82 2.82z"/><path fill="#DB2726" d="M593.96 537.98H428.85v18.66h165.1v-18.66z"/><path fill="#F57E20" d="M211.37 364.4a21.8 21.8 0 100-43.59 21.8 21.8 0 000 43.6z"/><path fill="#FCE7D9" d="M328.97 333.51h-84.99v7.37h84.99v-7.37zM306.54 344.33h-62.56v7.37h62.56v-7.37z"/><path fill="#FFD2B3" d="M487.8 333.51h-42.49v7.37h42.5v-7.37zM540.8 333.51h-42.49v7.37h42.5v-7.37z"/><path stroke="#174159" stroke-miterlimit="10" d="M190.51 372.56H593.5"/><path fill="#EFCECE" d="M329.12 466.01h-138.6v11.13h138.6v-11.13z"/><path fill="#D1BFBF" d="M383.38 487.96H190.5v4.86h192.87v-4.86zM366.44 497.37H190.51v4.86h175.93v-4.86zM352.17 506.94H190.51v4.86h161.66v-4.87zM383.38 516.5H190.5v4.86h192.87v-4.86z"/><path fill="#000" d="M326.3 558.2h-48.14a9.27 9.27 0 01-9.25-9.24 9.27 9.27 0 019.25-9.25h48.14a9.27 9.27 0 019.25 9.25c.16 5.17-4.07 9.25-9.25 9.25z" opacity=".2"/><path fill="#F48F4A" d="M324.73 556.64H276.6a9.27 9.27 0 01-9.26-9.25 9.27 9.27 0 019.26-9.25h48.13a9.27 9.27 0 019.25 9.25c.16 5.17-4.07 9.25-9.25 9.25z"/><path fill="#DB2726" d="M218.74 391.06H190.5v28.22h28.23v-28.22z"/><path stroke="#F2F2F2" stroke-miterlimit="10" stroke-width=".5" d="M190.51 391.06l28.07 28.07M218.58 391.06l-28.07 28.07"/><path fill="#DB2726" d="M258.1 391.06h-28.23v28.22h28.22v-28.22z"/><path stroke="#F2F2F2" stroke-miterlimit="10" stroke-width=".5" d="M229.87 391.06l28.22 28.07M258.1 391.06l-28.23 28.07"/><path fill="#DB2726" d="M297.6 391.06h-28.22v28.22h28.23v-28.22z"/><path stroke="#F2F2F2" stroke-miterlimit="10" stroke-width=".5" d="M269.38 391.06l28.07 28.07M297.45 391.06l-28.07 28.07"/><path fill="#000" d="M198.25 427.98l-.4 24.77 146.44 2.33.4-24.77-146.44-2.33z" opacity=".2"/><path fill="#DB2726" d="M195.11 426.4l-.4 24.78 146.44 2.33.4-24.77-146.44-2.33z"/><path stroke="#BEC8D2" stroke-linecap="round" stroke-miterlimit="10" d="M497.84 100.5v122.63"/><path fill="#BEC8D2" d="M505.2 250.25c-1.09 0-2.03.94-2.03 2.04.16 2.51-1.88 5.02-4.55 5.49-.62.16-1.25.16-2.04 0-.62-.16-1.25-.31-1.72-.63a5.88 5.88 0 01-2.5-2.98 5.63 5.63 0 010-3.92c2.97-5.8 8.62-9.56 8.62-15.36a10.65 10.65 0 007.2-10.04 10.67 10.67 0 00-21.32 0c0 4.55 2.82 8.47 6.75 9.88-.32 4.08-5.18 7.84-7.22 13.33-.94 2.66-.78 5.49.32 8 .94 2.5 2.82 4.54 5.17 5.64a10.95 10.95 0 007.37.94 10.32 10.32 0 005.96-3.92 9.69 9.69 0 001.88-6.43v-.16c.16-1.1-.78-1.88-1.88-1.88zm-7.36-29.95a4.38 4.38 0 012.5 8c-.78-.63-1.72-1.1-2.81-.94-.79.16-1.57.47-2.2.94a4.38 4.38 0 01-1.88-3.6c-.16-2.36 1.88-4.4 4.39-4.4z"/><g fill="#000" opacity=".2"><path d="M637.4 354.05l-270.76 37.22 21.96 159.7 270.76-37.23-21.96-159.69z" opacity=".2"/><path d="M577.8 419.13l-68.98 90.94-59.59-45.16-61.46 80.91.78 5.17 270.8-37.31-5.02-36.38-76.52-58.17z" opacity=".2"/><path d="M632.06 361.11l20.23 147.4-258.4 35.43-20.24-147.4 258.41-35.43zm5.33-7.06l-270.8 37.17 21.96 159.77 270.8-37.16-21.96-159.78z" opacity=".2"/><path d="M514.47 436.52a22.74 22.74 0 10-35.44-28.5 22.74 22.74 0 0035.44 28.5z" opacity=".2"/></g><path fill="#FFE2CF" d="M621.72 327.4l-270.76 37.22 21.96 159.69 270.76-37.22-21.96-159.7z"/><path fill="#F48F4A" d="M562.13 392.47l-69 90.94-59.58-45.15-61.46 80.9.78 5.18 270.8-37.32-5.02-36.38-76.52-58.17z"/><path fill="#EA7E34" d="M616.38 334.45l20.23 147.4-258.4 35.43-20.24-147.39 258.41-35.44zm5.33-7.05l-270.8 37.16 21.96 159.78 270.8-37.16L621.7 327.4z"/><path fill="#F2F2F2" d="M498.79 409.87a22.74 22.74 0 10-35.44-28.5 22.74 22.74 0 0035.44 28.5z"/><path stroke="#BEC8D2" stroke-linecap="round" stroke-linejoin="round" stroke-miterlimit="10" d="M368.48 362.2l-12.23 41.4 15.05-41.86M595.37 330.38l31.99 38.41-34.66-38.88M592.7 329.9l-90.47-70.08a5.59 5.59 0 00-8.94-.16L371.3 361.74"/><path stroke="#BEC8D2" stroke-linecap="round" stroke-miterlimit="10" d="M493.74 110a13.33 13.33 0 10-18.85-18.86A13.33 13.33 0 00493.74 110z"/><path stroke="#BEC8D2" stroke-linecap="round" stroke-miterlimit="10" d="M484.35 105.37a4.86 4.86 0 100-9.72 4.86 4.86 0 000 9.72z"/><path fill="#D86D25" d="M585.18 516.19c-5.18 23.36-3.14 53.3 8.15 70.71 8.94 13.8 24.77 18.03 39.04 29.01l-.62 6.9 6.27-7.53s-7.84-7.84-30.73-31.36c-5.65-5.8-1.57-28.53-.16-34.34 7.05-9.4 0-19.28-4.7-33.4h-17.25z"/><path fill="#2D80EA" d="M632.37 615.91l-.62 6.9 6.27-7.53-2.67-2.66s.32 2.82-2.98 3.29z"/><path fill="#F57E20" d="M578.6 516.19c-14.9 29.47-14.43 48.45 7.36 117.44l-6.9 4.23h10.5s-.46-72.91 3.77-89.53c7.06-9.4 7.21-18.19 2.51-32.14h-17.25z"/><path fill="#2D80EA" d="M579.06 637.86h10.5v-4.23s-2.19 1.41-3.6 0l-6.9 4.23z"/><path fill="#F2F2F2" d="M594.9 448.13c-2.67 8-10.04 11.92-13.96 11.3-3.92-.79-5.8-7.38-4.54-14.75 1.4-7.37 5.64-11.6 9.56-12.07 5.65-.78 12.54 4.24 8.94 15.52z"/><path fill="#F2F2F2" d="M593.17 450.33h-7.2v18.19h7.2v-18.19z"/><path fill="#2D80EA" d="M587.37 464.29c-9.56 1.72-16 17.4-16.93 23.04-.63 3.3-.16 6.59 3.45 13.02 5.17 8.94 4.7 15.84 4.7 15.84h23.83c0-7.22 4.55-15.21 7.38-26.35 2.66-11.13-6.28-28.53-22.43-25.55z"/><path fill="#DB2726" d="M595.53 464.6s13.8 1.72 19.6-.31c13.48-4.87 19.28-16.31 19.75-28.23h3.61s4.86 35.12-28.38 47.82l-14.58-19.28z"/><path fill="#F2F2F2" d="M634.88 435.9c-2.35-2.66-.94-4.86-1.88-7.05-.94-2.04.16-4.55 2.82 1.25l-1.1-8s3.14 1.57 3.77 13.8h-3.6z"/><path fill="#DB2726" d="M586.75 466.17c7.2 1.4 6.27 14.26-1.89 21.8-7.68 7.05-29.48 13.16-58.64 17.08l-.94-3.13s16.3-2.98 30.58-11.6c14.1-8.94 20.54-26.2 30.88-24.15z"/><path fill="#F2F2F2" d="M525.28 501.76c-3.14-1.41-4.86.47-7.06.16-2.2-.32-3.29 1.25 2.83 2.03l-8.31 1.26s2.03 2.35 13.48-.16l-.94-3.29z"/><path fill="#000" d="M577.5 433.55c-3.61 6.43 8.3 4.86 8.3 11.13 0 6.28-13.17 7.53-15.68 15.69-2.82 9.4 16.31 6.9 13.49 16.62-4.23 14.26-32.3 15.52-21.64 30.73 7.84 10.97 26.81 4.7 24.62 22.73-2.04 17.57 29.95 13.96 32.61-.3 1.88-9.57-16-15.38-5.96-22.59 12.24-8.78 27.76-20.7 14.43-30.73-6.74-5.02-24.77-8.15-26.66-16.3-1.88-8.16 8.78-20.55-3.92-28.86-12.7-8.62-19.6 1.88-19.6 1.88z"/><path fill="#174159" d="M256.68 243.35s6.27 25.4 19.6 25.4c30.42 0 39.2-11.6 51.28-10.81 6.42.47 22.57 10.81 22.57 10.81h9.1l-6.43-3.92s-17.56-22.89-29.32-24.3c-14.9-1.72-34.5 13.01-45.16 2.98h-21.64v-.16z"/><path fill="#F57E20" d="M350.13 268.75l-2.03-1.25s3.6.16 4.7-2.67l6.43 3.93h-9.1z"/><path stroke="#BEC8D2" stroke-linecap="round" stroke-miterlimit="10" d="M477.46 89.22l-141.28 89.06-20.23 19.29v67.26"/><path fill="#BEC8D2" d="M312.35 200.23c1.25-2.2 4.23-6.27 5.64-3.6.94 1.72.47 4.86-.31 5.17-.79.31-2.98.47-2.98.47l-2.35-2.04z"/><path fill="#DD6B1D" d="M252.92 196.16c11.6-6.59 30.26 14.42 36.06 15.52 9.25 1.73 22.27-10.35 23.52-11.29l2.35 2.2s-14.27 20.54-27.9 21c-13.65.48-48.77-19.12-34.03-27.43z"/><path fill="#F2F2F2" d="M312.35 200.23c.46-2.2 1.25-2.98 2.82-3.76 2.2-1.25 1.72-2.35 2.5-2.35.79 0 1.57 2.2-.3 2.82 0 0 .15 3.76-3.14 4.7l-1.88-1.4z"/><path fill="#F2F2F2" d="M317.99 196.78c.16.79-.78.63-1.73.63-1.1 0-2.35-.16-2.19 1.26.31 2.35 0 3.76 1.1 3.76s1.88.31 2.66-.16c.94-.31 1.26-3.76.16-5.49z"/><path fill="#2E546A" d="M279.73 236.77c14.9 29.48 26.5 59.74 54.25 85.92l7.84-2.2-7.05 7.85s-57.86-33.87-73.54-54.57c-7.06-9.4-8.94-16.3-4.24-30.26l22.74-6.74z"/><path fill="#F57E20" d="M334.61 328.18l7.06-7.84-7.84 2.2s.47 2.66-2.51 3.6l3.29 2.04z"/><path fill="#F2F2F2" d="M246.65 181.57c4.23 6.43 11.76 8 15.05 6.43 3.3-1.56 3.3-7.84.31-14.1-2.98-6.12-7.84-8.79-11.29-8.32-5.33.94-10.03 7.06-4.07 16z"/><path fill="#F2F2F2" d="M249.31 200.23l10.2-2.82-4.55-16-10.98-6.42 5.33 25.24z"/><path fill="#F57E20" d="M257 193.96c-10.82 1.41-20.23 4.4-15.53 40.77 4.4 34.18 15.53 34.03 15.53 34.03s34.18 2.35 41.08-23.37c0 0-14.74-10.19-19.29-28.7-4.55-18.5-13.33-23.83-21.8-22.73z"/><path fill="#F57E20" d="M257 193.96l74.94-15.68 1.73 4.08S281.93 215.9 263.89 217c-18.03 1.1-19.91-19.13-6.9-23.05z"/><path fill="#F9E8DE" d="M332.1 178.28s3.14-4.23 4.86-3.92c1.73.31 4.24 4.4 3.14 5.96-.94 1.57-6.27 2.04-6.27 2.04l-1.73-4.08z"/><path fill="#174159" d="M247.59 192.24s5.64-2.04 5.33-8.47c0 0-2.67 1.41-3.45-4.4-.31-2.66 2.2-3.13 3.45-.3 1.72.62 3.92-.47 3.6-3.61-.62-4.86 5.65-4.08 5.8-9.88.32-7.53-14.73-17.4-17.56-10.5-2.35 5.64-1.56 8.93-8.78 9.09-13.17.16.32 30.73 11.6 28.07z"/><path fill="#BC2020" d="M204 516.18c5.17 23.37 3.13 53.32-8.16 70.72-8.93 13.8-24.77 18.03-39.04 29.01l.63 6.9-6.28-7.53s7.84-7.84 30.74-31.36c5.64-5.8 1.57-28.53.16-34.34-7.06-9.4 0-19.28 4.7-33.4H204z"/><path fill="#000" d="M156.8 615.91l.63 6.9-6.28-7.53 2.67-2.66s-.31 2.82 2.98 3.29z"/><path fill="#DB2726" d="M210.58 516.18c14.9 29.48 14.43 48.46-7.37 117.45l6.9 4.23h-10.5s.47-72.91-3.77-89.53c-7.05-9.4-7.2-18.19-2.5-32.15h17.24z"/><path fill="#000" d="M210.11 637.86h-10.5v-4.23s2.2 1.41 3.6 0l6.9 4.23z"/><path fill="#F2F2F2" d="M194.28 448.13c2.66 8 10.03 11.92 13.95 11.3 3.92-.63 5.8-7.38 4.55-14.75-1.41-7.37-5.65-11.6-9.57-12.07-5.64-.78-12.54 4.24-8.94 15.52z"/><path fill="#F2F2F2" d="M190.48 468.55h12.7v-18.19h-12.7v18.2z"/><path fill="#DD6B1D" d="M193.65 464.6s-13.8 1.72-19.6-.31c-13.49-4.87-19.29-16.31-19.76-28.23h-3.6s-4.87 35.12 28.38 47.82l14.58-19.28z"/><path fill="#F2F2F2" d="M154.3 435.9c2.34-2.66.93-4.86 1.87-7.05.94-2.04-.15-4.55-2.82 1.25v-8s-2.04 1.57-2.66 13.8h3.6z"/><path fill="#F57E20" d="M208.54 467.1c-8.93-4.38-12.54-2.5-27.44-1.88-14.73.63-2.2 36.38-2.2 76.52 0 0 12.87 7.53 44.85 0 .16 0-1.1-67.58-15.2-74.63z"/><path fill="#000" d="M202.27 453.15c2.2 3.92-10.5 7.22-13.8 3.3-3.29-3.93-14.73-6.9-6.43-22.11 3.61-6.59 5.02-16.31 10.35-17.25 12.86-2.2 19.13 7.68 18.82 13.48-.47 8-3.6 12.86-6.74 14.58-2.2 1.1-5.65 1.89-2.2 8z"/><path fill="#F57E20" d="M201.18 464.6c15.36 0 26.8 8.3 37.94 9.4 13.01 1.26 26.03-7.68 28.7-14.58l5.8-.94s-8.94 18.82-34.03 26.97c-12.54 4.08-28.07 4.7-37.32.47s-11.76-21.17-1.1-21.32z"/><path fill="#F2F2F2" d="M267.81 459.42c-1.88-2.82.94-5.64 1.42-7.68.3-2.04 1.4-3.6 2.5-3.76 1.73-.32 1.26 2.04.63 4.39 0 .31.16.47.47.31 1.41-.63 4.86-2.04 7.53-1.72.94.15 1.41 1.1-2.2 2.98-3.6 1.88-4.39 4.54-4.39 4.54l-5.95.94z"/><g opacity=".2"><path fill="#000" d="M442.49 568.24H267.97v46.42H442.5v-46.42z" opacity=".2"/><path fill="#000" d="M307.95 577.34h-28.22v28.22h28.22v-28.22z" opacity=".2"/><path stroke="#000" stroke-miterlimit="10" stroke-width=".5" d="M279.73 577.34l28.07 28.22M307.8 577.34l-28.07 28.22" opacity=".2"/><path fill="#000" d="M422.73 583.6H317.68v3.3h105.05v-3.3zM422.73 596H317.68v3.29h105.05v-3.3zM411.44 589.88h-93.76v3.3h93.76v-3.3z" opacity=".2"/></g><path fill="#DB2726" d="M440.92 566.67H266.4v46.42h174.52v-46.42z"/><path fill="#E25D5D" d="M306.39 575.77h-28.23v28.22h28.23v-28.22z"/><path stroke="#DB2726" stroke-miterlimit="10" stroke-width=".5" d="M278.16 575.77l28.07 28.22M306.23 575.77l-28.07 28.22"/><path fill="#EA7171" d="M421.17 582.04H316.1v3.3h105.06v-3.3zM421.17 594.43H316.1v3.3h105.06v-3.3zM409.88 588.31H316.1v3.3h93.76v-3.3z"/><g opacity=".2"><path fill="#000" d="M413.17 588.31H238.65v46.42h174.52V588.3z" opacity=".2"/><path fill="#000" d="M278.63 597.4h-28.22v28.23h28.22v-28.22z" opacity=".2"/><path stroke="#000" stroke-miterlimit="10" stroke-width=".5" d="M250.4 597.4l28.08 28.23M278.48 597.4l-28.07 28.23" opacity=".2"/><path fill="#000" d="M393.41 603.68H288.35v3.3h105.06v-3.3zM393.41 616.07H288.35v3.29h105.06v-3.3zM382.12 609.8h-93.77v3.29h93.77v-3.3z" opacity=".2"/></g><path fill="#F57E20" d="M411.6 586.75H237.08v46.4H411.6v-46.4z"/><path fill="#E4E4E4" d="M277.06 595.84h-28.22v28.22h28.22v-28.22z"/><path stroke="#F57E20" stroke-miterlimit="10" stroke-width=".5" d="M248.84 595.84l28.07 28.22M276.9 595.84l-28.06 28.22"/><path fill="#E4E4E4" d="M391.84 602.11H286.8v3.3h105.05v-3.3zM391.84 614.5H286.8v3.3h105.05v-3.3zM380.55 608.23H286.8v3.29h93.76v-3.3z"/><path fill="#fff" stroke="#BEC8D2" stroke-miterlimit="10" d="M397.64 246.18a4.55 4.55 0 100-9.1 4.55 4.55 0 000 9.1zM381.18 220.46a8.94 8.94 0 100-17.88 8.94 8.94 0 000 17.88zM426.34 224.54a5.17 5.17 0 100-10.35 5.17 5.17 0 000 10.35z"/></svg>