<svg width="18" height="18" viewBox="0 0 18 18" fill="none" xmlns="http://www.w3.org/2000/svg">
<g clip-path="url(#clip0)">
<path d="M1.44431 11.8149C2.54634 11.8149 3.62841 11.6426 4.6538 11.3037C5.15625 11.1323 5.77392 11.2896 6.08058 11.6045L8.1045 13.1324C10.4517 11.8794 11.8975 10.4341 13.1333 8.10455L11.6504 6.13336C11.2651 5.74861 11.127 5.18658 11.2925 4.65923C11.6328 3.62845 11.8057 2.54691 11.8057 1.44441C11.8057 0.647953 12.4536 0 13.25 0H16.5556C17.352 0 18 0.647953 18 1.44436C18 10.5733 10.5732 18 1.44431 18C0.647907 18 -4.76837e-05 17.352 -4.76837e-05 16.5556V13.2593C0 12.4629 0.647953 11.8149 1.44431 11.8149Z" fill="#FFCEAA"/>
</g>
<defs>
<clipPath id="clip0">
<rect width="18" height="18" transform="matrix(-1 0 0 1 18 0)" fill="white"/>
</clipPath>
</defs>
</svg>
