<svg width="21" height="21" viewBox="0 0 21 21" fill="none" xmlns="http://www.w3.org/2000/svg">
<g clip-path="url(#clip0)">
<path d="M10.4581 19.1337C11.2057 19.1337 11.8116 18.5277 11.8116 17.7802C11.8116 17.0327 11.2057 16.4267 10.4581 16.4267C9.7106 16.4267 9.10461 17.0327 9.10461 17.7802C9.10461 18.5277 9.7106 19.1337 10.4581 19.1337Z" fill="#F57E20"/>
<path d="M20.78 6.35182C18.0841 3.45928 14.4334 1.86624 10.5001 1.8662C6.56711 1.86624 2.91644 3.45928 0.220444 6.35182C-0.0884028 6.68323 -0.0701509 7.20232 0.261255 7.51121C0.592701 7.82005 1.11175 7.80184 1.42064 7.4704C3.80282 4.91447 7.0273 3.50686 10.5004 3.50682C13.9732 3.50686 17.1976 4.91447 19.5798 7.4704C19.7414 7.64373 19.9604 7.73142 20.1801 7.73142C20.3804 7.73142 20.5811 7.65849 20.7392 7.51121C21.0706 7.20228 21.0889 6.68323 20.78 6.35182Z" fill="#F57E20"/>
<path d="M17.7675 9.73935C15.7747 7.73148 13.1936 6.62574 10.4997 6.62582C7.80523 6.62586 5.22412 7.73164 3.23191 9.73944C2.91281 10.061 2.91482 10.5804 3.23642 10.8995C3.55803 11.2186 4.07741 11.2166 4.39651 10.895C6.07835 9.2 8.24586 8.26649 10.4997 8.26644C12.7531 8.26636 14.9206 9.19992 16.603 10.8951C16.7634 11.0566 16.9743 11.1375 17.1853 11.1375C17.3941 11.1375 17.6031 11.0582 17.7632 10.8994C18.0847 10.5803 18.0867 10.0609 17.7675 9.73935Z" fill="#F57E20"/>
<path d="M14.4839 13.1369C13.4167 12.0796 11.8869 11.4228 10.4915 11.4228C10.4913 11.4228 10.491 11.4228 10.4909 11.4228H10.4318C10.4315 11.4228 10.4314 11.4228 10.4312 11.4228C9.03569 11.4228 7.50581 12.0796 6.43862 13.1369C6.11681 13.4558 6.11439 13.9752 6.43325 14.297C6.59366 14.4589 6.80481 14.54 7.016 14.54C7.22465 14.54 7.43337 14.4609 7.59329 14.3024C8.35302 13.5497 9.46689 13.0634 10.4312 13.0634C10.4314 13.0634 10.4315 13.0634 10.4317 13.0634H10.491C10.4912 13.0634 10.4912 13.0634 10.4914 13.0634C11.4556 13.0634 12.5695 13.5497 13.3292 14.3024C13.651 14.6212 14.1705 14.6189 14.4893 14.297C14.8082 13.9752 14.8058 13.4558 14.4839 13.1369Z" fill="#F57E20"/>
</g>
<defs>
<clipPath id="clip0">
<rect width="21" height="21" fill="white"/>
</clipPath>
</defs>
</svg>
