<svg width="21" height="21" viewBox="0 0 21 21" fill="none" xmlns="http://www.w3.org/2000/svg">
<path d="M16.0708 2.00448L18.2982 3.86195C18.4515 3.98988 18.6378 4.05231 18.8231 4.05231C19.0581 4.05231 19.2913 3.9519 19.4535 3.75736C19.7437 3.40943 19.6968 2.89214 19.3489 2.602L17.1215 0.74448C16.7736 0.454335 16.2563 0.501134 15.9661 0.849111C15.6759 1.19705 15.7228 1.71429 16.0708 2.00448Z" fill="#F57E20"/>
<path d="M2.17639 4.05242C2.36162 4.05242 2.54796 3.99 2.70131 3.86207L4.92867 2.00464C5.2766 1.71449 5.32348 1.1972 5.03334 0.849267C4.74323 0.501372 4.2259 0.454491 3.87797 0.744636L1.65057 2.60211C1.30264 2.89226 1.25576 3.40954 1.5459 3.75748C1.7082 3.95202 1.94142 4.05242 2.17639 4.05242Z" fill="#F57E20"/>
<path d="M17.3446 4.47575C15.7111 2.84226 13.5964 1.86514 11.3203 1.67537V0.820312C11.3203 0.367254 10.9531 0 10.5 0C10.0469 0 9.67969 0.367254 9.67969 0.820312V1.67537C7.40357 1.86514 5.28892 2.84222 3.65544 4.47571C1.82716 6.30398 0.820312 8.73477 0.820312 11.3203C0.820312 13.9059 1.82716 16.3366 3.65544 18.1649C5.48367 19.9931 7.91446 21 10.5 21C12.5817 21 14.5654 20.3491 16.2366 19.1176C16.6014 18.8489 16.6791 18.3354 16.4104 17.9706C16.1416 17.6058 15.6281 17.5281 15.2633 17.7968C13.8761 18.8191 12.229 19.3594 10.5 19.3594C6.06724 19.3594 2.46094 15.7531 2.46094 11.3203C2.46094 6.88755 6.06724 3.28125 10.5 3.28125C14.9328 3.28125 18.5391 6.88755 18.5391 11.3203C18.5391 12.6742 18.1964 14.0125 17.5481 15.1904C17.3296 15.5873 17.4743 16.0861 17.8712 16.3046C18.268 16.5229 18.7669 16.3784 18.9854 15.9815C19.7667 14.5619 20.1797 12.9501 20.1797 11.3203C20.1797 8.73477 19.1728 6.30398 17.3446 4.47575Z" fill="#F57E20"/>
<path d="M14.4963 6.38211C14.1442 6.09717 13.6277 6.15152 13.3426 6.50372L10.7561 9.69987C10.6726 9.68671 10.5871 9.67973 10.5 9.67973C9.59536 9.67973 8.85938 10.4157 8.85938 11.3204C8.85938 12.225 9.59536 12.961 10.5 12.961C11.4046 12.961 12.1406 12.225 12.1406 11.3204C12.1406 11.1132 12.1016 10.915 12.0312 10.7323L14.6179 7.5358C14.9029 7.1836 14.8485 6.66705 14.4963 6.38211Z" fill="#F57E20"/>
</svg>
