<svg width="21" height="21" viewBox="0 0 21 21" fill="none" xmlns="http://www.w3.org/2000/svg">
<path d="M0.699989 0.700287C0.313595 0.700287 0 1.01388 0 1.40028V11.2001C0 11.5865 0.313595 11.9001 0.699989 11.9001C1.08638 11.9001 1.39998 11.5865 1.39998 11.2001V1.40028C1.39998 1.01388 1.08638 0.700287 0.699989 0.700287Z" fill="#F57E20"/>
<path d="M3.50003 0.700287C3.11364 0.700287 2.80005 1.01388 2.80005 1.40028V8.40016C2.80005 8.78655 3.11364 9.10015 3.50003 9.10015C3.88643 9.10015 4.20002 8.78655 4.20002 8.40016V1.40028C4.20002 1.01388 3.88643 0.700287 3.50003 0.700287Z" fill="#F57E20"/>
<path d="M20.2997 0.700287C19.9133 0.700287 19.5997 1.01388 19.5997 1.40028V11.2001C19.5997 11.5865 19.9133 11.9001 20.2997 11.9001C20.6861 11.9001 20.9997 11.5865 20.9997 11.2001V1.40028C20.9997 1.01388 20.6861 0.700287 20.2997 0.700287Z" fill="#F57E20"/>
<path d="M3.52754 10.5001H3.51354C3.12715 10.5001 2.82056 10.8137 2.82056 11.2001C2.82056 11.5865 3.14115 11.9001 3.52754 11.9001C3.91394 11.9001 4.22753 11.5865 4.22753 11.2001C4.22753 10.8137 3.91394 10.5001 3.52754 10.5001Z" fill="#F57E20"/>
<path d="M20.7952 19.1058L16.7997 15.1102C17.6074 14.1009 18.1114 12.8493 18.1716 11.4731C18.208 11.3891 18.2276 11.2967 18.2276 11.2001C18.2276 11.1035 18.208 11.0111 18.1716 10.9271C18.1422 10.2635 18.0106 9.62794 17.7908 9.03295C18.0316 8.92095 18.1996 8.68155 18.1996 8.40016V1.40028C18.1996 1.01388 17.886 0.700287 17.4996 0.700287C17.1133 0.700287 16.7997 1.01388 16.7997 1.40028V7.28858C16.3965 6.78459 15.9373 6.32679 15.3997 5.9656V1.40028C15.3997 1.01388 15.0861 0.700287 14.6997 0.700287C14.3133 0.700287 13.9997 1.01388 13.9997 1.40028V5.28661C13.5531 5.12841 13.0855 5.02622 12.5997 4.97162V1.40028C12.5997 1.01388 12.2861 0.700287 11.8997 0.700287C11.5134 0.700287 11.1998 1.01388 11.1998 1.40028V4.97162C10.714 5.02622 10.2464 5.12841 9.79978 5.28661V1.40028C9.79978 1.01388 9.48619 0.700287 9.09979 0.700287C8.7134 0.700287 8.39981 1.01388 8.39981 1.40028V5.967C7.86221 6.32679 7.40302 6.78459 6.99983 7.28858V1.40028C6.99983 1.01388 6.68623 0.700287 6.29984 0.700287C5.91345 0.700287 5.59985 1.01388 5.59985 1.40028V8.40016C5.59985 8.68155 5.76785 8.92095 6.00865 9.03155C5.75665 9.71054 5.59985 10.4357 5.59985 11.2001C5.59985 14.6735 8.4264 17.5 11.8997 17.5C13.3837 17.5 14.7319 16.9624 15.8099 16.1L19.804 20.0942C19.9412 20.2314 20.1204 20.3 20.2996 20.3C20.4788 20.3 20.658 20.2314 20.7952 20.0956C21.0682 19.8226 21.0682 19.3788 20.7952 19.1058ZM11.8997 16.1C9.19779 16.1 6.99983 13.9021 6.99983 11.2001C6.99983 8.49816 9.19779 6.30019 11.8997 6.30019C14.6017 6.30019 16.7997 8.49816 16.7997 11.2001C16.7997 13.9021 14.6017 16.1 11.8997 16.1Z" fill="#F57E20"/>
</svg>
