<svg xmlns="http://www.w3.org/2000/svg" width="770" height="770" fill="none"><path fill="#fff" d="M173.1 145.84c24.02 1.54 34.18-14.8 45.43-35.88 30.95-57.75 99.8-52.2 122.9-16.64 16.3 25.26 51.73 20.02 80.22 10.17 28.18-9.7 76.08-19.1 114.12-7.4 33.26 10.16 46.97 46.66 77.3 44.35 66.22-4.93 99.64 60.52 87.63 89-7.85 18.64-11.7 39.43-5.4 58.68 7.1 21.1 23.1 37.9 36.05 55.9 12.93 18.18 23.4 40.82 16.94 62.07-5.56 18.17-21.88 30.8-32.2 46.97-31.72 50.05-.3 126.6-42.5 168.32-30.2 29.87-79.47 22.94-121.82 28.63-35.26 4.78-68.37 19.56-103.5 25.4-70.98 11.72-142.9-14.15-214.82-14.77-25.4-.3-51.28 2.62-75.76-3.7-32.8-8.3-60.68-33.57-72.08-65.14-15.7-43.58-.77-94.1-18.63-136.9-14.5-34.8-49.75-63.3-47.6-100.87 1.4-23.4 17.4-42.97 28.34-63.76 16.63-30.96-4.93-153.1 125.36-144.46zm209.74-56.52c-6.3 0-11.4 3.85-11.4 8.78 0 4.77 5.1 8.3 11.4 8.78 20.5 1.38 20.5-6.93 20.5-11.86 0-7.7-14.18-5.7-20.5-5.7zm208.83 37.42c5.54 4.47 12.47 7.24 19.7 7.7 1.86.16 4 0 5.4-1.23 1.85-1.53 2-4.6.46-6.3-1.08-1.08-2.46-1.54-3.85-2.16-2.3-.92-4.62-2.3-6-4.47-.47-.6-.77-1.38-1.4-1.7-4-2.3-21.55 2.17-14.3 8.17zm34.96 7.7c1.84.62 3.85 0 5.54-.6 1.23-.32 2.62-1.25 2.3-2.48-.14-.6-.6-.92-1.22-1.23-2.47-1.23-5.55-2.16-7.86-.62-2.47 1.86-.62 4.33 1.23 4.94zm83.62 165.24c.3 2.78 2 5.1 3.7 7.24 3.07 4.3 6.3 8.63 10.47 12 1.7 1.4 3.85 2.63 6 2.8 2 0 4-.94 5.7-2.02 4-2.92 6.78-7.54 7.4-12.47.76-6.78-2.32-13.4-6-19.1-2.32-3.54-4.94-7.08-8.8-9.08-6.3-3.24-10.62-.46-12.3 5.23-1.7 5.1-6.8 9.55-6.17 15.4zM32.03 457.53c-3.4 2.93-.3 11.55.62 17.25.3 1.7.77 3.54 1.85 4.93 1.54 1.86 4 2.63 6.3 3.24 4.17 1.24 9.1 2.16 12.18-.6 2.3-2.17 2.6-5.56 2.6-8.8 0-2.92-.14-5.7-.45-8.6-.15-1.4-.3-2.8-1.08-4.02-.92-1.54-2.6-2.3-4.15-3.08-6-2.3-14.48-3.23-17.87-.3zM237.16 674.2c-2 .47-4.3 1.24-4.62 3.25-.3 1.7 1.08 3.08 2.46 4 10.94 8.16 25.72 8.62 39.43 8.93 1.54 0 3.23 0 4.77-.6 2.93-1.25 4.3-5.1 2.93-8.02-.46-1.08-1.23-1.85-2.16-2.77-10.93-10.5-29.1-7.4-42.8-4.8zm273.66-5.38c-12.32 9.1.15 17.1 15.7 11.1 8.48-3.24 16.48-6.48 25.1-8.63 2.78-.78 19.57-4.33 19.57-8.18 0-10-18.96-7.7-30.97-6-9.4 1.38-19.25 4.16-29.4 11.7z"/><path fill="#F7DED0" d="M278.43 642.64c32.83 0 59.45-2.48 59.45-5.54s-26.62-5.55-59.45-5.55-59.44 2.5-59.44 5.55c0 3.06 26.6 5.54 59.43 5.54zM584.28 642.64c32.83 0 59.44-2.48 59.44-5.54s-26.6-5.55-59.44-5.55c-32.83 0-59.45 2.5-59.45 5.55 0 3.06 26.62 5.54 59.45 5.54z"/><path stroke="#F4C2A6" d="M709.94 245.63c-.15-1.08-.3-2-.62-3.08" stroke-linecap="round" stroke-linejoin="round"/><path stroke="#F4C2A6" d="M707.94 236.54c-10.63-36.2-44.5-32.64-75-32.64-32.96 0-542.85 1.07-542.85 1.07-51.3.16-46.36 74.08-6.17 74.08 23.1 0 31.88 43.27-8 43.43-23.88 0-24.65 30.33-8.63 36.5" stroke-linecap="round" stroke-linejoin="round" stroke-dasharray="3.99 3.99"/><path stroke="#F4C2A6" d="M70.22 359.74c.93.16 2 .3 3.08.3" stroke-linecap="round" stroke-linejoin="round"/><path fill="#F4A876" d="M79.46 358.5c.62 4.02-2 7.87-6 8.48-4 .62-7.86-2-8.47-6-.63-4 2-7.86 6-8.47 4-.6 7.85 2 8.46 6zM717.18 248.86c-.77 4-4.62 6.63-8.63 6-4-.76-6.62-4.6-6-8.6.77-4.02 4.62-6.64 8.62-6.02 4.16.77 6.78 4.62 6 8.62z"/><path fill="#E24747" d="M154.62 304.6c-1.08 6.02-2.62 11.87-4.47 17.57-4 12.47-9.7 24.48-15.4 36.34-2.93 6.17-15.1 20.5-21.56 23.27.76-16.17.76-34.96-1.1-51.3-1.84-15.7 3.86-27.55-2.3-42.18-.77-1.86-1.54-3.7-2.46-5.56-3.08-6.93-6.16-13.86-7.1-21.4-1.22-9.4 1.7-20.33 9.87-25.26 5.86-3.54 13.56-3.4 19.88-.6 6.3 2.76 11.4 7.84 15.24 13.54 10.94 16.17 12.78 36.8 9.4 55.6z"/><path stroke="#B53030" stroke-miterlimit="10" d="M125.97 252.4c12 17.1 13.1 36.8 14.17 57.76 1.08 20.8-4 41.88-14.32 60.06" stroke-linecap="round" stroke-linejoin="round"/><path fill="#F4A876" d="M125.5 566.4c-8.46-7.38-16.93-15.08-23.24-24.47-5.4-8.17-8.94-17.4-13.7-26.03-3.1-5.54-6.63-10.93-8.48-17.1-1.85-6.15-1.4-13.4 2.93-18 4.47-4.8 12.33-5.56 18.5-3.1 6.15 2.47 10.77 7.7 14.46 13.25 4.78 7.4 8 15.86 9.24 24.5 1.23 7.84.93 16 2.16 23.86 1.08 7.4 3.54 14.48 6.77 21.1 2.78 6.17 10 16.95 11.86 23.26-5.1 2.77-16.8-14-20.5-17.25z"/><path stroke="#CE7C4E" stroke-miterlimit="10" d="M95.94 489.1c8 3.55 11.24 13.1 12.94 21.72 1.85 9.85 1.54 20.48 6 29.26 8.47 16.78 19.56 35.88 27.72 41.58" stroke-linecap="round" stroke-linejoin="round"/><path fill="#E24747" d="M83.93 543.47c-7.08-2.78-16.32-3.85-20.94 2.15-3.7 5.08-1.86 12.32.76 18.02 2.15 4.93 4.92 9.86 9.54 12.47 3.24 1.86 6.93 2.32 10.48 2.8 10 1.22 20.17 1.83 30.33 1.68 11.72 0 26.04 4.77 35.74 12.17-12.16-23.26-42.35-39.9-65.9-49.28z"/><path stroke="#AD2F2F" stroke-miterlimit="10" d="M71.6 558.56c8.94.3 17.87 1.08 26.5 3.54 8.78 2.62 42.5 18.02 47.74 24.64" stroke-linecap="round" stroke-linejoin="round"/><path fill="#F4A876" d="M160.47 495.88c-9.1-14.32-24.8-24.33-41.58-26.5-12.5-1.68-25.27.63-37.43-2-12.94-2.76-24.5-10.92-31.27-22.32-6.77-11.24-8.47-25.4-4.62-38.04 2.93-9.55 9.4-18.63 18.95-21.7 5.23-1.7 10.93-1.4 16.17-.17 4.92 1.24 9.4 3.24 13.55 5.86 9.55 6 17.25 15.4 23.1 25.26 5.23 9.1 18.32 23.1 27.26 32.2 5.24 5.38 8.94 8.92 8.94 8.92 6.16 7.7 3.4 29.4 6.93 38.5z"/><path stroke="#DD814E" stroke-miterlimit="10" d="M61.75 413.03c29.88 13.4 62.37 31.1 83.47 56.05" stroke-linecap="round" stroke-linejoin="round"/><path fill="#5275A0" d="M148.15 465.7s-44.5-36.04-53.75-74.7c9.55 6 17.25 15.4 23.1 25.26 5.24 9.1 18.33 23.1 27.26 32.2.92 4.92 2.16 10.46 3.4 17.24zM150.15 322.32c-4 12.48-9.7 24.5-15.4 36.35-2.93 6.16-15.1 20.48-21.56 23.25.76-16.17.76-34.96-1.1-51.28-1.84-15.7 3.86-27.57-2.3-42.2-.77-1.85-1.54-3.7-2.46-5.54.6.15 1.08.46 1.7.6 10.16 4.33 14.78 15.1 15.7 25.42.77 8.63-.77 17.25-2 25.72-.46 4-.93 8-.16 11.86v.15c1.08 4.62 7.86 4.32 8.63-.3l2.78-14.33c.77-4.3 1.7-8.77 5.24-11.7 1.38-1.23 3.23-2 4.92-1.85 3.08 0 4.78 1.7 6 3.85z" opacity=".2"/><path fill="#F4A876" d="M148.15 456.6c-7.1-36.64-10.78-42.34-7.7-51.43 4-11.7 1.7-23.56 5.4-35.26 3.68-11.85 6.3-24.48 3.22-36.5-.92-3.84-2.92-7.84-7.4-8-1.84 0-3.53.62-4.92 1.85-3.54 2.93-4.46 7.55-5.23 11.7l-2.62 14.33c-.93 4.62-7.55 4.92-8.63.3v-.15c-.92-3.85-.46-7.85.16-11.86 1.08-8.62 2.77-17.1 2-25.72-.92-10.47-5.54-21.1-15.7-25.4-3.55-1.55-7.7-1.85-11.4-.93-10.63 2.77-13.4 13.1-11.7 21.87 1.07 6.15 4 11.85 6.6 17.7 6.48 14 1.7 26.8 2.63 42.2 2.3 42.5 55.3 85.3 55.3 85.3z"/><path stroke="#CC7748" stroke-miterlimit="10" d="M100.87 300.6c5.24 26.03 10.47 52.37 20.64 77 2.93 7.25 4.47 16.64 21.57 36.35" stroke-linecap="round" stroke-linejoin="round"/><path fill="#E24747" d="M304.6 307.23c-5.38-6.16-10.46-12.47-15.7-18.48-3.38-3.85-6.93-7.7-10.78-11.4-1.84-1.84-3.85-3.54-5.85-5.23-12.16-10-25.87-18.48-40.35-24.64-8.77-3.7-18-6.78-25.56-12.78-7.4-6-12.78-15.87-10.32-25.1 1.85-6.63 7.4-11.86 14.02-14.17 6.46-2.3 13.7-2.16 20.32-.77 18.8 4 34.5 17.55 45.13 33.57.16.3.47.6.62.92 7.86 12 13.25 25.26 18.02 38.66 1.54 4.32 2.93 8.78 4.47 13.1 2.16 6.46 8.78 19.86 6 26.33z"/><path stroke="#BF3232" stroke-miterlimit="10" d="M218.68 210.36c20.48 3.85 34.96 17.56 50.2 31.73 15.25 14.16 26.18 32.94 31.42 53.12" stroke-linecap="round" stroke-linejoin="round"/><path fill="#5275A0" d="M288.9 288.75c-.15 2.16-.15 4.3.3 6.47-5.07-1.23-8.6-9.1-11.08-17.87-2.3-8.47-3.38-17.55-3.85-21.7-.6-8.94-.15-17.87 1.7-26.65 7.85 12 13.24 25.25 18.02 38.65-1.7 4.93-3.1 9.7-4.17 14.8-.3 2.14-.77 4.14-.93 6.3z" opacity=".2"/><path fill="#F4A876" d="M324.48 214.83c-1.7 7.7-6.3 14.32-10.47 21.1-2.15 3.54-4.15 7.24-6 10.93-6 11.86-10.63 24.33-13.7 37.27-.93 4.3-1.55 8.32-.78 12.63-10.16-2.3-14.16-30.96-14.78-39.58-1.23-15.4 1.4-31.1 7.7-45.28 2.77-6.16 6.3-12.32 11.86-16.17 5.54-4 13.24-5.4 19.1-1.84 3.54 2 5.7 5.53 6.77 9.38 1.08 3.7 1.23 7.7.3 11.55z"/><path stroke="#CE6F3A" stroke-miterlimit="10" d="M289.67 288.3c-6.3-15.72-2.46-49.14 7.55-70.24 3.08-6.3 7.4-12.32 13.4-15.86" stroke-linecap="round" stroke-linejoin="round"/><path fill="#5275A0" d="M324.48 214.83c-1.7 7.7-6.32 14.32-10.47 21.1-2.15 3.54-4.15 7.24-6 10.93-2.77-4.62-4.62-9.85-5.24-15.1-.92-8.92 2.62-18.47 9.86-23.86 3.4-2.46 7.4-3.85 11.55-4.47 1.08 3.55 1.23 7.55.3 11.4z" opacity=".2"/><path fill="#EA8E5C" d="M382.84 281.67c-.46 2.92-1.38 5.7-2.6 8.47-4.48 9.7-13.88 18-28.04 24.8 0 0-.77-15.4-.93-19.4-.6-17.57-19.7-27.27-31.88-40.2-6.16-6.48-10.78-14.8-11.7-23.72-.93-8.94 2.6-18.48 9.85-23.87 6.16-4.47 14-5.4 21.56-4.78 12.17.93 24.34 6 31.88 15.56.3.3.62.77.93 1.07 4.63 6.32 6.94 14.02 8.8 21.56 2.9 13.25 4.3 27.1 2.14 40.5z"/><path stroke="#F4A876" stroke-miterlimit="10" d="M322.78 217.3c13.25 6.77 26.5 15.1 34.2 27.87 10.77 17.7 8.3 40.8.15 59.9" stroke-linecap="round" stroke-linejoin="round"/><path fill="#F4A876" d="M603.83 395c8.47-13.85 4.16-31.7 7.1-47.58 2.3-12.32 9.07-23.56 18.78-31.4 6.17-4.94 14.8-8.33 21.72-4.63 1.54.76 3.23 1.84 4.77 1.07.92-.47 1.23-1.54 1.38-2.62 1.7-8.63-2.3-18.02.92-26.18 1.85-4.3 5.55-7.7 9.55-10.17 7.7-4.92 16.63-7.7 25.87-8.16 2.47-.15 4.93 0 7.1 1.08 3.84 2 5.7 6.78 5.22 11.24-.46 4.3-2.92 8.16-5.54 11.7-8.78 11.56-21.87 21.57-23.56 36.04-.16 1.85-.16 3.7.6 5.4.78 1.53 2.32 2.76 3.25 4.3 2.76 4.93-2.48 10.63-7.7 13.1-4.63 2.3-9.87 3.7-14.95 4.15-3.54.3-7.55.46-10 3.08-4.48 4.93.6 12.63-.32 19.25-.6 4.16-3.54 7.4-6.47 10.17-5.54 5.23-11.55 10-18 14.16-5.25 3.4-10.8 6.33-15.4 10.5-4.63 4.14-8.33 9.7-8.64 15.85"/><path stroke="#BF6D40" stroke-miterlimit="10" d="M614.92 381.6c1.4-6.76 4.47-12.92 7.55-19.08 4.77-9.55 9.7-19.25 17.1-27.1 5.54-6 12.3-10.63 18-16.5 4-4.14 7.4-8.92 10.17-14 1.4-2.77 2.78-5.7 4.62-8.16 2.3-2.93 5.55-4.93 8.32-7.55 3.7-3.38 6.78-7.53 8.78-12.15" stroke-linecap="round" stroke-linejoin="round"/><path fill="#E24747" d="M724.72 404.7c-1.84 7.25-4.77 14.5-9.54 20.34-3.4 4-7.55 7.08-12.02 9.7-2.3 1.4-4.77 2.47-7.23 3.54-9.7 4-20.02 6.32-30.5 6.78-15.24.62-30.8-2.77-45.43 1.54-6.77 2-12.93 5.54-17.86 10.47-3.23 2.93-5.85 6.47-8 10.17l2-12.63c3.7-13.54 7.4-27.4 14.93-39.26 4.78-7.7 11.1-14.48 17.87-20.64 10.78-9.85 22.63-18.63 35.72-24.95 10.63-5.08 22.33-8.77 34.04-7.4 11.7 1.4 23.1 8.8 26.8 20.03 2.15 7.1 1.07 14.94-.78 22.33z"/><path stroke="#AF2E2E" stroke-miterlimit="10" d="M605.84 444.9c11.24-16.47 27.87-29.25 46.8-35.57 11.87-4 24.34-5.4 36.2-8.93 12-3.4 23.87-9.24 30.96-19.56" stroke-linecap="round" stroke-linejoin="round"/><path fill="#F4A876" d="M613.23 566.1c.6-16.94 9.4-32.64 20.17-45.9 8.93-11.08 19.56-21.1 32.8-26.17 4.16-1.54 8.78-2.62 13.1-1.54 4.3 1.07 8.16 4.77 8.3 9.23 0 3.7-2.45 7.1-5.07 9.7-8.78 8.78-20.02 14.33-30.5 20.64-18.17 10.93-35.4 25.56-42.65 45.58"/><path stroke="#CC7A4C" stroke-miterlimit="10" d="M619.85 551.32c11.1-24.8 39.73-46.82 58.67-49.6" stroke-linecap="round" stroke-linejoin="round"/><path fill="#F4A876" d="M606.3 579.66c-.16-2.78 9.08-10.32 11.24-12.17 11.55-10.48 25.4-18.18 39.9-22.8 5.84-1.85 12.15-3.24 18-1.7 5.86 1.4 11.25 6.32 11.86 12.63.62 6.16-3.54 12.17-8.78 15.25-5.23 2.92-11.4 3.4-17.4 3.08-9.08-.46-18.02-2.77-27.1-2.77-9.1 0-22.02.9-27.72 8.46z"/><path stroke="#D17D4E" stroke-miterlimit="10" d="M615.7 571.03c18.63-10.16 46.8-16.63 67.3-14.17" stroke-linecap="round" stroke-linejoin="round"/><path fill="#F4A876" d="M447.37 280.9c13.86-4.93 28.34-8.94 41.12-16.48 3.84-2.3 7.53-4.93 10.15-8.47 2.77-3.54 4.3-8 3.85-12.48-.6-4.46-3.54-8.77-2.46-13.24.6-2.93 2.77-5.24 4.46-7.7 4-5.85 5.24-13.55 3.08-20.48-2.15-7.4-7.7-13.25-10.78-20.18-2.6-5.7-3.54-12.16-2.6-18.32-11.72.15-22.34 6.47-33.9 8.62-8.77 1.7-17.86.77-26.64 2.77-15.86 3.7-28.8 17.56-31.26 33.73-7.4-1.23-15.24 1.4-20.48 6.78-5.4 5.85-8.47 14-8 22.02 3.53 57.6 36.64 87.78 36.64 87.78s31.42-42.5 36.8-44.35z"/><path stroke="#C17348" stroke-miterlimit="10" d="M416.1 280.43c-1.38-14.16 3.55-28.33 9.25-41.42 5.54-12.77 12-25.25 20.48-36.18 8.62-10.94 19.56-20.33 32.34-25.72M428.58 185.88c-1.38 12.63-.46 27.87 2.93 40.35M433.82 221.6c14.47-9.23 36.8-14.93 53.9-14M398.4 223.92c17.4 7.4 18.17 32.95 18.63 40.2M421.8 247.94c13.4-9.55 32.65-12.47 46.82-8.93M458.15 179.26c-4 4.92-5.08 10.78-4.62 14.93M457.38 190.65c6.16-3.08 14.32-3.85 23.1-1.7" stroke-linecap="round" stroke-linejoin="round"/><path fill="#E24747" d="M114.42 218.53c1.7-.16 12.78-8.32 17.1-11.1 1.23-.76 2.46-1.53 3.23-2.76.77-1.24 1.23-2.78.62-4-.77-1.7-2-3.24-5.24-3.24-5.54 0-7.55 1.85-10.16 4.62-8.94 9.08-5.55 16.48-5.55 16.48zM164.47 251.8c4.93 2.15 10 4.3 15.4 3.7 2-.32 4.3-1.25 4.93-3.1.62-1.7-.15-3.54-1.54-4.77-1.38-1.23-3.08-1.7-4.77-2.15-6.48-1.54-15.57-.77-22.03 1.07 0 0 5.08 4 8 5.24zM196.5 180.03c-2.15-1.4-4.62-3.24-4.62-5.7 0-2.62 2.62-4.47 5.24-4.62 2.62 0 4.93 1.4 6.93 3.1 8.16 7.23 7.24 15.4 7.24 15.4s-12.33-6.63-14.8-8.17zM202.97 158c-1.85-.77-3.85-1.84-4.93-3.54-.6-.92-.92-2-.46-2.92.62-1.54 1.54-3.08 5.55-2.3 12.62 2.3 15.4 10.92 15.4 10.92s-12.17-.62-15.56-2.16zM240.24 177.25c5.08-.46 10.32-2.92 13.55-6.93 1.22-1.54 2.3-3.23 2.76-5.08.47-1.85 0-4-1.54-5.4-1.84-1.53-4.62-1.22-6.62 0-2 1.24-3.23 3.4-4.3 5.56-1.24 2.92-3.86 11.85-3.86 11.85z"/><path stroke="#A82C2C" stroke-miterlimit="10" d="M149.23 363.13c-12.32-10.93-24.64-21.7-36.96-32.65-6.63-5.85-13.25-11.7-17.4-19.4-8.94-16.63-3.86-38.2 8.3-52.5 12.18-14.5 29.9-22.96 47.6-29.27 17.86-6.15 36.34-10.62 53.28-18.78 10.63-5.08 21.4-12.78 24.18-24.33 1.7-6.94.3-14.5-3.85-20.34-4.16-5.7-11.1-9.4-18.17-9.86M248.86 165.55c-3.38 10.32-16.47 16.63-22.48 25.56M201.74 177.4c2.62 2.78 5.7 4.94 8 8.02 4.78 6.3 5.24 16.63-1.84 23.1M135.2 235.3c10.95 8.33 25.27 14.03 38.98 14.5M110.27 250.56c-5.1-14.8.46-32.5 12.93-41.9" stroke-linecap="round" stroke-linejoin="round"/><path fill="#E24747" d="M508.2 188.2c-.62-1.86-.62-4.02.77-5.4 1.08-1.08 2.93-1.54 4.3-.93 10.8 4.78 9.7 21.72 9.7 21.72s-10.3-1.7-14.77-15.4zM508.05 219.76c-6.93 12.63 17.86 11.7 26.8 4.3 0 0-20.8-15.08-26.8-4.3zM539.46 189.1c-1.7-2.3-2.3-5.7-.46-8 1.4-1.7 3.7-2.15 5.85-1.7 2.16.47 5.24 2.32 6.63 4 8.16 10.18 4.3 20.2 4.3 20.2s-13.54-10.64-16.32-14.5zM638.33 220.53c-.62-2-.46-4.3 1.08-5.7.93-.92 2.32-1.23 3.7-1.08 1.24.16 2.47.62 3.7 1.08 2.46 1.23 4.47 3.23 5.7 5.7 3.08 6.3.92 14.17.92 14.17s-13.55-9.24-15.1-14.17zM607.22 243.63c-4.46-3.85-11.1-5.08-16.48-2.62-1.38.63-2.6 1.4-3.54 2.63-2 2.77-1.23 6.62.77 9.4 2 2.6 5.08 4.3 8.16 5.7 5.55 2.45 14.17 3.07 20.02 4.46 0 0 0-11.72-8.93-19.57z"/><path stroke="#AA2929" stroke-miterlimit="10" d="M516.05 190.96c3.7 12 14.02 21.1 25.57 25.87 11.55 4.93 24.18 6.16 36.8 6.93 12.48.77 25.1 1.23 37.27 4.47 11.85 3.23 23.55 9.85 28.64 20.94 6.16 13.55.77 29.72-8 41.74-8.63 12.17-20.34 21.87-28.66 34.2-3.84 5.7-7.08 12.3-6.3 19.1 1.07 9.08 8.62 15.7 15.7 21.4M544.85 186.5c8.32 9.23 14.94 23.56 16.48 35.72M516.98 221.9c4.77 1.25 9.55 2.48 14.48 2.48 4.92 0 10.62-2.77 14.16-6.16M646.5 221.14c4.46 4.32 7.08 10.32 7.38 16.48.16 6.16-3.23 13.7-7.23 18.33M600 249.17c8.92 8.16 16.62 14.8 26.47 21.72 4.47 3.22 13.4 7.22 17.4 6.15" stroke-linecap="round" stroke-linejoin="round"/><path fill="#5275A0" d="M703 434.74c-2.3 1.4-4.76 2.47-7.23 3.54-9.7 4-20.02 6.32-30.5 6.78-15.24.62-30.8-2.77-45.42 1.54-6.78 2-12.94 5.54-17.86 10.47-.48.3-1.1.46-1.55.77-1.24-10.32 24.48-23.7 32.34-27.26 14-6.3 29.86-9.08 45.26-7.85 6.78.62 13.7 1.85 19.25 5.7 2.17 1.54 4.32 3.7 5.7 6.3z" opacity=".2"/><path fill="#F4A876" d="M677.9 428.74c6.78.46 13.7 1.84 19.26 5.7 5.54 3.84 9.55 10.62 8.16 17.4-1.54 7.7-9.55 12.78-17.25 13.7-7.7.93-15.7-1.23-23.4-2.77-17.1-3.54-34.66-4.3-52.06-2.3-4.3.45-8.46 1.38-12.15 3.53-1.24-10.32 24.48-23.7 32.34-27.26 14-6.3 29.7-9.24 45.1-8z"/><path stroke="#BA6B3F" stroke-miterlimit="10" d="M607.07 457.38c12.78-11.24 45.43-18.8 68.68-16.32 6.93.77 14.02 2.77 19.4 7.4" stroke-linecap="round" stroke-linejoin="round"/><path stroke="#E88585" stroke-miterlimit="10" d="M583.35 331.4l124.6-.3c14.62 0 26.48 11.86 26.48 26.5 0 14.62-11.86 26.48-26.5 26.48l-85.15.15" stroke-linecap="round" stroke-linejoin="round" stroke-dasharray="4 4"/><path stroke="#F4C2A6" stroke-miterlimit="10" d="M67.3 490.34c-29.88 0-30.5 44.5 7.54 44.5 38.04-.15 536.08-1.08 559.64-1.08 23.56 0 26.03-36.65-3.08-36.65-57.75.17-59.75-27.4-27.56-27.55" stroke-linecap="round" stroke-linejoin="round" stroke-dasharray="4 4"/><path fill="#F4A876" d="M74.38 489.1c.62 4-2 7.86-6 8.47-4 .62-7.86-2-8.47-6-.6-4 2-7.86 6-8.47 3.86-.62 7.7 2 8.48 6z"/><path fill="#0B43A4" d="M618 469.7c.62 4-2 7.85-6 8.47-4 .62-7.86-2-8.47-6-.62-4 2-7.86 6-8.48 4-.62 7.86 2 8.47 6z"/><path fill="#F4A876" d="M626.16 598.44l-463.38.93c-6.16 0-11.24-4.93-11.24-11.24l-.62-306.93c0-6.16 4.93-11.24 11.24-11.24l463.4-.92c6.15 0 11.23 4.93 11.23 11.24l.6 306.92c-.15 6.16-5.08 11.24-11.24 11.24z" opacity=".2"/><path fill="#fff" d="M617.08 592.6l-463.4.92c-6.15 0-11.23-4.93-11.23-11.25l-.62-306.92c0-6.16 4.93-11.24 11.25-11.24l463.38-.9c6.16 0 11.24 4.9 11.24 11.23l.62 306.92c-.15 6.16-5.08 11.24-11.24 11.24z"/><path fill="#DB2726" d="M615.54 263.2l-461.4.9c-6.76 0-12.15 5.55-12.15 12.18v10.62l485.7-1.08V275.2c.16-6.47-5.4-12-12.16-12z"/><path fill="#EFD0D0" d="M154.77 593.52l69.76-.16-.6-306.6-81.94.14.6 294.45c0 6.78 5.4 12.17 12.17 12.17z"/><path fill="#DB2726" d="M616.46 266.27c4.47 0 8.16 3.7 8.16 8.16l.62 306.92c0 2.16-.77 4.16-2.3 5.7-1.55 1.54-3.55 2.3-5.7 2.46l-463.4.94c-4.46 0-8.16-3.7-8.16-8.17l-.6-306.92c0-2.15.76-4.16 2.3-5.7 1.54-1.54 3.54-2.3 5.7-2.46l463.38-.93zm0-3.08l-463.38.9c-6.16 0-11.25 5.1-11.25 11.25l.62 306.92c0 6.16 5.08 11.25 11.24 11.25l463.38-.93c6.16 0 11.24-5.1 11.24-11.25l-.62-306.92c0-6.16-5.08-11.24-11.24-11.24z"/><path fill="#fff" d="M212.67 570.1l-53.74.16c-2.3 0-4.3-1.85-4.3-4.3v-.47c0-2.32 1.83-4.32 4.3-4.32l53.74-.16c2.3 0 4.32 1.85 4.32 4.3v.48c0 2.46-1.86 4.3-4.33 4.3zM206.2 362.05l-45.73.16c-4.3 0-7.86-3.53-7.86-7.85l-.14-45.73c0-4.32 3.54-7.86 7.85-7.86l45.75-.15c4.3 0 7.86 3.55 7.86 7.86l.16 45.74c0 4.47-3.4 7.85-7.85 7.85z"/><path fill="#EFD0D0" d="M402.1 499.1l-159.4.32c-3.08 0-5.54-2.46-5.54-5.54v-.77c0-3.07 2.46-5.54 5.54-5.54l159.4-.3c3.07 0 5.54 2.46 5.54 5.54v.77c0 3.08-2.47 5.54-5.55 5.54zM392.85 317.55l-125.97.3c-3.08 0-5.54-2.46-5.54-5.54v-.76c0-3.08 2.46-5.54 5.54-5.54l125.97-.3c3.08 0 5.55 2.45 5.55 5.53v.77c0 3.08-2.47 5.55-5.55 5.55zM591.98 444.9l-167.87.3c-3.06 0-5.53-2.45-5.53-5.53v-.77c0-3.08 2.47-5.54 5.55-5.54l167.86-.3c3.07 0 5.54 2.45 5.54 5.53v.76c0 3.08-2.47 5.55-5.54 5.55zM402.1 523.75l-159.4.3c-3.08 0-5.54-2.45-5.54-5.53v-.77c0-3.08 2.46-5.55 5.54-5.55l159.4-.3c3.07 0 5.54 2.46 5.54 5.54v.77c.15 3.1-2.47 5.55-5.55 5.55zM402.1 548.4l-159.4.3c-3.08 0-5.54-2.46-5.54-5.54v-.77c0-3.1 2.46-5.56 5.54-5.56l159.4-.3c3.07 0 5.54 2.46 5.54 5.54v.77c.15 2.93-2.3 5.54-5.55 5.54zM588.6 564.4l-160.64.32c-5.08 0-9.23-4.16-9.23-9.24l-.16-69c0-5.08 4.16-9.23 9.24-9.23l160.63-.3c5.1 0 9.24 4.15 9.24 9.23l.16 69c0 5.07-4.16 9.23-9.24 9.23z"/><path fill="#fff" d="M168.63 275.35c0 2.16-1.7 4-3.85 4-2.16 0-4-1.7-4-3.84 0-2.15 1.7-4 3.85-4 2.15 0 4 1.7 4 3.85zM181.4 279.2c2.14 0 3.86-1.72 3.86-3.85 0-2.12-1.72-3.85-3.85-3.85-2.12 0-3.84 1.73-3.84 3.85 0 2.13 1.72 3.85 3.85 3.85zM201.9 275.35c0 2.16-1.7 4-3.86 4-2.15 0-4-1.7-4-3.84 0-2.15 1.7-4 3.85-4 2.3-.15 4 1.54 4 3.85z"/><path fill="#EFD0D0" d="M255.25 313.15c.62-6.26-3.94-11.84-10.2-12.47-6.27-.63-11.85 3.94-12.48 10.2-.63 6.26 3.94 11.85 10.2 12.48 6.26.63 11.85-3.94 12.48-10.2z"/><path fill="#fff" d="M209.44 371.76l-50.2.15c-1.24 0-2.16-.9-2.16-2.15v-.3c0-1.24.92-2.16 2.16-2.16l50.2-.16c1.23 0 2.16.92 2.16 2.15v.3c0 1.23-.93 2.16-2.16 2.16zM209.44 381.3l-50.2.16c-1.24 0-2.16-.93-2.16-2.16v-.3c0-1.24.92-2.16 2.16-2.16l50.2-.16c1.23 0 2.16.93 2.16 2.16v.3c0 1.24-.93 2.16-2.16 2.16z"/><path fill="#EFD0D0" d="M267.04 401.63l-14.17.16.15 59.58H240.7c-4.3 0-7.85-3.54-7.85-7.85l-.3-110.1c0-4.32 3.53-7.86 7.84-8.02h26.33l.3 66.23z"/><path fill="#EDCECE" d="M359.28 335.26v1.54c4.3 0 7.7 3.4 7.7 7.7l.16 107.34c0 2-.77 4-2.3 5.4-1.4 1.37-3.4 2.3-5.4 2.3l-117.5.3c-4.32 0-7.7-3.38-7.7-7.7l-.16-107.33c0-2 .77-4 2.3-5.38 1.4-1.4 3.4-2.3 5.4-2.3l117.5-.32v-1.54zm0 0l-117.5.3c-5.08 0-9.24 4.16-9.24 9.25l.15 107.34c0 5.1 4.15 9.24 9.23 9.24l117.5-.3c5.1 0 9.25-4.16 9.25-9.24l-.16-107.34c0-5.24-4.16-9.24-9.24-9.24z"/><path fill="#E8ACAC" d="M555.32 423.65L398.7 388.23c-4.92-1.07-8.16-6.16-6.93-11.08l17.56-77.93c1.08-4.93 6.16-8.16 11.1-6.93l156.6 35.4c4.94 1.1 8.17 6.17 6.94 11.1l-17.56 77.92c-1.07 4.93-6 8-11.08 6.93z"/><path fill="#E24747" d="M252.25 635.7h-22.02l-5.4-27.86 32.66-.16-5.25 28.03z"/><path fill="#EAA0A0" d="M231 607.68c0 2.3-.46 6.16 1.08 6.16s.92-3.7 2.62-3.54c1.07 0-.47 12.17 3.7 12.48 2.92.15 2.3-5.86 2.6-9.7.16-2.62 3.55-2.16 3.55-.3 0 1.83-.15 3.22 0 5.38.16 3.7 5.7 2.6 5.55-2.16-.16-4.77 0-8.16 0-8.16l-19.1-.16z"/><path fill="#0C2340" d="M225.76 624.62c-.46 0-.92 0-1.23-.15-1.54-.3-2.77-1.23-3.4-2.46-2.3-4.77 3.7-13.55 3.86-14l.3 1.53c0 .16-5.24 7.7-3.23 12 .46 1.1 1.38 1.7 2.62 1.86.3 0 .76.15 1.06.15 7.86 0 21.4-14.8 21.56-14.94.62-.6 1.54 0 1.24.47-.62.77-14.33 15.55-22.8 15.55z"/><path fill="#5275A0" d="M456 242.7c-31.1-1.23-74.08 21.87-58.83 78.24-.3 4.77 2.46 8.16 5.54 7.23 3.1-.92.32-10 .32-10 5.23-41.9 14.94-49.13 31.4-48.98l38.67-.16c9.54 1.38 26.94 8.16 29.56 41.58l9.54 1.85c.77-24.18-5.08-67.76-56.2-69.77z" opacity=".2"/><path fill="#F57E20" d="M456 237.78c-31.1-1.24-74.08 21.86-58.83 78.23l5.85-2.76c5.23-41.9 14.94-49.13 31.4-48.98l38.67-.15c9.54 1.4 27.4 9.87 30.02 43.44h9.08c.77-24.18-5.08-67.76-56.2-69.76z"/><path fill="#FFB9A3" d="M449.68 238.7l-4.62 10.16s.62 5.7 6.16 5.55c5.54-.15 6.3-2.76 6.3-2.76l.78-11.7-8.62-1.24zM473.55 230.23c-5.24 9.4-7.55 12.17-14.48 13.55-8.93 1.85-18.94-4.16-14.32-19.1 3.85-12.16 9.55-10.3 15.25-9.85 5.54.62 19.25 5.4 13.55 15.4z"/><path fill="#0C2340" d="M452.45 222.84c-1.38-.77-3.23-.16-4.3 1.08-1.1 1.23-1.7 2.92-1.24 4.46-2.15 0-4 2.16-3.84 4.3-1.54-3.37-.62-7.07-.93-10.46-.3-3.54.16-7.4 2.3-10 .94-1.1 2.17-2 3.4-2.63 4.93-2.62 10.94-2.62 15.86-.16 1.07.46 3.54 2.16 7.08 1.23 6.77-1.7 10.78 2.93 6.62 7.24 1.4.47 2.77 1.1 3.4 2.32.14.3.14.77 0 1.08-.17.15-.48.3-.63.46-1.08.46-2.46.46-3.54.3.46.47 2.93.62 3.7 2 2 3.86-6 2-7.24 1.55 1.37.32 5.07 3.24 3.84 5.25-.3.46-5.24 3.23-10.48-2.78-1.23-1.38-2.77-2.77-4.46-3.23-1.4-.3-2.93.15-4.3.62-.94.3-3.56 1.84-4.32.92-.3-1.08.76-2.62-.93-3.54z"/><path fill="#FFB9A3" d="M504.04 307.7c-1.38 4.77-2.77 5.23-1.08 6 1.7.77 3.08-1.85 3.08-1.85l7.7 1.54s-1.7-5.1-2.92-5.7c-1.23-.62-6.78 0-6.78 0zM403.17 313.24c1.08 2.46 1.23 2.46 2.62 5.54 2.6 5.7-3.55 14.94-7.56 4.93-1.07-2.76-1.07-7.7-1.07-7.7l6-2.76z"/><path fill="#0C2340" d="M463.54 210.06c5.24.3 11.86-3.4 15.86 1.38.3.46 1.08-.15.77-.6-4-5.7-11.24-1.4-16.78-1.55-.48 0-.48.76.14.76zM465.7 207.13c-3.55.62-7.1-1.08-10.78-.46-2.93.46-5.55 2-7.86 3.85-.6.46.16 1.54.77 1.08 3.08-2 6.16-3.85 10-3.55 2.78.16 5.25 1.08 8.02.16.77-.15.46-1.07-.15-1.07zM445.06 212.06c-2.62 1.54-4 3.7-4.3 6.77-.17 2.16-.32 7.24 1.84 8.47.46.3 1.07-.46.6-.77-1.37-1.38-1.53-5.23-1.37-7.08.15-2.77 1.38-4.93 3.54-6.62.46-.3.15-.93-.3-.77zM484.18 220.84c-1.24-2.3-4.62-4.32-7.24-2.78-.46.16-.16.77.15.93 1.07 0 2.15-.17 3.23.14 1.23.3 2.3 1.08 3.08 2.16.3.3 1.08 0 .78-.46z"/><path fill="#BC2020" d="M312.77 455.7c16.33 6 30.5 24.78 27.26 38.33-3.7 15.4-14.32 22.02-14.32 22.02l-3.38-6.16s8.47-13.25 7.7-19.56c-1.23-10-13.86-16.8-13.86-16.8l-3.4-17.85z"/><path fill="#0C2340" d="M272.58 629.24s-10 4-12.47 6.32h19.87v-6.32h-7.4zM316.47 628.94s2.77 3.23 3.4 6.62H306.3c.3-2.3 1.24-4.47 2.47-6.62h7.7z"/><path fill="#EA7221" d="M317.4 629.24h-9.25c.16-10.93-2-48.04-4.3-75.92-1.24-16.32-2.47-29.4-3.24-32.03l4.94-1.1 18.63-4.15c3.23 14.63-4.16 81.93-6.78 113.2z"/><path fill="#009790" d="M283.36 520.83c-7.24 11.4-9.1 93.48-12.17 108.72l8.77.46s10-51.73 31.57-110.1l-28.18.93z"/><path fill="#5275A0" d="M315.24 519.9c-4.3 11.55-8 22.8-11.4 33.42-1.23-16.32-2.46-29.4-3.23-32.03l4.94-1.1 9.7-.3z" opacity=".2"/><path fill="#F57E20" d="M283.36 520.83c-7.24 11.4-9.1 93.48-12.17 108.72l8.77.46s10-51.73 31.57-110.1l-28.18.93z"/><path fill="#FFB9A3" d="M288.75 429.04s-5.55 21.4 8.47 21.4l-.77 5.55 10.63 1.23-2.3-7.7s2.14-13.4 2.3-15.87c.15-4.62-12.48-12.62-18.33-4.62z"/><path fill="#0C2340" d="M254.08 405.02h-4.16l.04 17.4h4.16l-.04-17.4z"/><path fill="#DB2726" d="M263.96 405.02h-23.72c-1.7 0-3.08-1.4-3.08-2.93v-.62c0-1.7 1.4-3.08 3.08-3.08h23.72c1.7 0 3.08 1.38 3.08 2.92v.62c-.16 1.7-1.54 3.08-3.08 3.08z"/><path fill="#FFB9A3" d="M248.86 427.04c-.15-4-3.38-2.92-1.54-9.4 1.08-4 9.4.62 8.32 3.4-1.08 2.77-2.16 7.08-2.16 7.08l-4.62-1.08z"/><path fill="#0056EC" d="M297.37 454.6c-20.94 1.4-22.33 8.48-31.72 7.4-13.86-1.7-11.4-27.4-9.7-36.65h-8.32s-14.94 58.83 32.34 47.9c-1.85 10.3 10 27.1-1.38 47.58 18 4.93 34.64 6 48.96-.16-2.47-3.38 5.08-37.57-9.86-62.2-3.08-4.8-18.8-4.02-20.33-3.86z"/><path fill="#DB2726" d="M297.37 454.6c-20.94 1.4-22.33 8.48-31.72 7.4-13.86-1.7-11.4-27.4-9.7-36.65h-8.32s-14.94 58.83 32.34 47.9c-1.85 10.3 10 27.1-1.38 47.58 18 4.93 34.64 6 48.96-.16-2.47-3.38 5.08-37.57-9.86-62.2-3.08-4.8-18.8-4.02-20.33-3.86z"/><path fill="#F57E20" d="M294.45 433.2c1.38.3 2.92.62 3.7 1.85.46.77.46 1.7.46 2.62.3-.93 1.24-1.54 2.32-1.54.92.15 1.84.92 1.84 2 0 .46-.15.92-.3 1.23-.47 1.08-.93 2-1.54 2.93 1.7.6 3.08 5.7 4 7.23 2.93-.77 9.24-3.24 9.86-13.4.3-4.78-1.24-10.47-6.32-13.55-3.7-2.3-9.7-2.3-13.86-1.24-3.4.93-8.78 4.32-6.3 8.17 1.07 1.85 3.84 3.1 6.15 3.7zM312.47 426.58c2-.62 4.46-.3 5.54 1.4.93 1.22.78 2.9 1.1 4.45.14.77.45 1.54.9 2 .63.62 1.7.77 2.63.77 2.3.16 4.62-.15 6.78.16 2.16.3 4.47 1.7 5.1 3.7.3 1.07.14 2.46.6 3.54.62 1.7 2.47 2.6 4 3.7 3.4 2.15 6.17 4.92 8.32 8.15 1.24 2 2.3 4.32 2.47 6.78.14 2.46 1.84 5.54 1.37 8-.46 2.63-3.08 6-8 7.7-8.63 2.78-11.4 4-19.56-.92-.92-.6-2.92-2.6-3.84-3.37-.77-.62-1.23-1.4-1.4-2.3-.6-2.32.17-4.94 1.4-7.1 1.23-2.15 2.92-4 4.16-6.16.77-1.23 1.38-2.77 1.23-4.16 0-.6-.16-1.06-.62-1.53-.3-.3-.92-.46-1.38-.6-1.85-.32-3.85 0-5.4-.78-1.53-.78-2.46-2.78-2-4.32.3-1.08 1.24-2 1.4-3.24.3-1.7-.63-3.23-2.17-4.3-1.54-1.1-3.23-1.4-4.92-1.55-.77-.16-1.7-.32-2.47-.78-.78-.62-1.24-1.7-1.24-2.62.3-3.23 2.93-5.54 6-6.62z"/><path fill="#EF832B" d="M310.93 435.2c10.3 2.3-2.78 12.02 2.77 16.8 1.54 1.38 3.4.9 5.23 1.22 7.1.93 3.24 5.7 2.78 9.55 0 .62.93.62.93.15.62-2.6 2.93-5.7 1.7-8.47-1.08-2.46-3.7-2.15-6-2.15-2.78-.16-5.86 0-4.8-5.55.17-1.23 1.25-2.46 1.7-3.54.62-1.37.93-2.6.62-4-.46-2.46-2.6-3.84-4.92-4.3-.3-.3-.47.3 0 .3zM289.52 422.58c8-4 16.02-3.24 22.8 2.77.45.46 1.07-.16.6-.62-6-6.62-16.47-7.85-23.7-2.46-.16 0 0 .46.3.3z"/><path fill="#FFB9A3" d="M558.4 447.68l-3.38 6.93 8.47 3.55.9-8.16-6-2.32zM563.64 424.9c-19.25 8.3-11.4 28.63.3 26.32 5.7-1.23 8.63-19.56 8.63-19.56l-8.93-6.77z"/><path fill="#DB2726" d="M569.95 422.1c-.6-1.22-1.23-2.45-2.3-3.22-1.08-.77-2.62-1.08-3.7-.15-1.23 1.23-.46 3.38.77 4.62-1.08.15-2.47-.62-3.24.15-.6.62-.46 1.7 0 2.46.93 1.85 2.3 3.4 4 4.47-.92.62-2.15 1.7-1.53 2.62.15.3.46.46.6.77.32.6 0 1.38-.3 2-.6 1.08-1.23 2-2 2.93.62-.93 2.3-.47 2.78.46.46 1.1 0 2.32-.62 3.1-.45.45-.9.9-1.53.9-.46.17-2.93 7.4-1.08 8.8 2.3 1.68 9.85.14 10.93-1.7 1.07 1.23 2.77 2.15 4.3 1.84 1.55-.3 2.78-2.3 2-3.7 1.7.62 3.86 0 5.1-1.38 1.22-1.38 1.38-3.54.45-5.23.93-.3 1.08-1.54.93-2.47-.45-2-2-3.54-4-4.16.93 0 1.7-.92 1.85-2 0-.92-.46-1.85-1.08-2.62-1.84-2.15-4-2.77-6.62-3.23-3.08-.3-4.46-3.08-5.7-5.24z"/><path fill="#0C2340" d="M551.94 628s-11.25 5.4-12.8 7.1c0 0 22.2.92 23.88 0 1.7-1.08-3.54-7.1-3.54-7.1h-7.54zM593.82 621.85s-9.85 7.55-11.08 9.55c0 0 23.4-3.54 23.4-4.93 0-1.54-4.92-6.16-4.92-6.16l-7.4 1.55z"/><path fill="#545454" d="M562.87 523.6c-.46 2.3-15.86 63.14 28.34 99.64l12.8-2.93s-14.95-14-21.88-38.95c-6.62-23.72-1.4-26.03 2.62-39.12 4.46-14.47 1.08-24.94 1.08-24.94l-22.95 6.3z"/><path fill="#353535" d="M541.77 523.45c-6.93 16.63-18.94 73.6 7.24 105.64h13.1s-10.32-11.25-11.4-37.43c-1.07-26.18 5.55-37.58 10.17-46.36 4.62-8.6 9.08-23.24 9.08-23.24l-28.18 1.4z"/><path fill="#D36B24" d="M532.53 419.8c-3.54 12.17-4.62 34.8 12.78 43.9l11.72-2.78s-20.95-10.93-16.48-38.8l-8-2.32z"/><path fill="#F57E20" d="M500.5 413.64l9.08-1.07s-1.07 37.88 42.66 41.1c33.42 2.48 36.04 65.16 36.04 65.16-10.78 7.23-28.8 9.4-52.05 7.85 0 0 1.54-44.8-2.16-56.98 0-.15-36.5-11.55-33.57-56.06z"/><path fill="#FFB9A3" d="M489.4 406.7c-1.53 1.86 4.94 4.02 11.1 6.94l7.85-.92s.16-1.54 0-3.23c-.15-1.7-.92-2.63-1.84-1.25-.92 1.4-4.92 1.85-6.77.62-1.85-1.4-8.78-3.85-10.32-2.16zM532.53 419.8c-2.92-2.92-2.15-2.6-2.15-2.6l8.93 2s2-4.32 3.55-4.48c1.7-.15-1.23 2.93-.62 4.16.62 1.08-1.84 3.4-1.84 3.4l-7.87-2.48z"/><path fill="#E24747" d="M574.88 426.27c1.85.46 3.7.62 5.24 1.85s2.15 3.4 1.08 5.08c-.47.77.77 1.4 1.23.77 1.38-1.85 1.08-4.3-.3-6-1.55-2-4.63-2.78-7.1-2.47-.46 0-.6.62-.15.77zM582.9 442.6c1.22.77 2.15 1.84 1.68 3.38-.46 1.4-1.84 2.16-2.92 2.93-.62.32 0 1.24.46.93 1.7-.92 3.4-2.15 3.7-4.15.15-1.7-.93-3.08-2.47-3.85-.46-.3-.92.46-.46.77zM562.7 451.84c4.17 2.46 9.87 2.15 13.26-1.4.46-.45-.16-1.22-.62-.9-3.7 2.76-7.85 3.53-12.16 1.68-.46-.15-.77.3-.46.62zM583.5 428.9c2.32 2.15 0 5.23-1.53 7.23-.3.46.15.92.6.6 1.4-1.22 2.63-2.6 2.94-4.6.16-1.4-.46-2.78-1.7-3.55-.3 0-.45.16-.3.3z"/><path fill="#CC631D" d="M322.94 147.53l-3.55-8.78 34.8-13.24-31.26 22.03z"/><path fill="#F57E20" d="M324.8 142.14l29.4-16.63-20.48 20.8-8.94-4.16zM311.4 135.2l42.8-9.7-34.8 13.25-8-3.54z"/><path fill="#E26B1B" d="M324.8 142.14l-1.86 5.4 5.4-3.7-3.55-1.7z"/><path stroke="#EDC4A9" stroke-miterlimit="10" d="M318.93 146.45c-9.08-1.54-21.4 7.7-16.17 17.25 1.85 3.24 11.1 1.85 10.48-1.7-.3-1.7-2.47-2.46-4.16-2.3-10.17 1.23-10.63 9.7-10.17 11.86 2.32 11.24 19.57 7.4 25.27 5.85" stroke-linecap="round" stroke-linejoin="round" stroke-dasharray="4 4"/></svg>