<svg xmlns="http://www.w3.org/2000/svg" width="610" height="407" fill="none"><path fill="#F5F5F5" d="M536.8 122.02c.57-4.32-5.53-7.9-10.08-8.3-2.2-.17-4.48.16-6.6-.57-4.47-1.55-6.26-7.41-10.65-9.28-3.25-1.39-7.07-.17-10.25 1.46-3.17 1.63-6.34 3.58-9.92 3.83-3.09.16-6.42-.98-9.19.57-2.03 1.14-3.09 3.42-4.96 4.8-1.79 1.3-4.23 1.63-6.43 1.7-2.27.17-4.55.17-6.67 1.07-2.03.97-3.74 3.1-3.33 5.37l78.08-.65zM85.8 230.53l19.6-3.02a19.97 19.97 0 01-16.58 22.63 19.95 19.95 0 01-22.61-16.6A19.97 19.97 0 0182.8 210.9c1.7-.25 3.41-.33 5.2-.08l-2.2 19.7z"/><path fill="#E0E0E0" d="M92.15 210.83l-2.36 15.22 14.97-2.77c-.08 0-2.28-8.55-12.6-12.45z"/><path fill="#F5F5F5" d="M210.48 173.23l-41.24 3.67 2.47 27.81 41.24-3.67-2.47-27.8z"/><path fill="#E0E0E0" d="M210.4 173.22s-.07.16-.32.4c-.24.25-.65.66-1.05 1.15-.98.97-2.28 2.36-3.9 4.07-3.42 3.41-8.06 8.05-13.18 13.26l-.08.09-.17-.09c-.08-.08-.24-.16-.32-.24-6.1-4.07-11.63-7.82-15.7-10.5-1.95-1.3-3.58-2.44-4.72-3.18-.57-.4-.97-.65-1.3-.9a4.9 4.9 0 01-.4-.32s.16.08.48.25c.33.24.73.49 1.3.81 1.14.73 2.77 1.8 4.8 3.1 4.07 2.68 9.6 6.34 15.78 10.41.08.09.25.17.33.25h-.25c5.13-5.13 9.84-9.77 13.26-13.19 1.7-1.63 3-3.01 4.07-3.9.48-.41.81-.82 1.13-1.06.17-.25.25-.41.25-.41z"/><path fill="#E0E0E0" d="M171.7 204.72c-.09-.08 2.68-4.15 6.18-9.12 3.5-4.96 6.42-8.95 6.5-8.87.08.08-2.68 4.15-6.18 9.12-3.5 4.96-6.42 8.95-6.5 8.87zM198.05 185.1c.08-.08 3.5 3.42 7.56 7.82 4.15 4.4 7.4 8.06 7.32 8.06-.08.08-3.5-3.42-7.56-7.82-4.15-4.4-7.4-7.97-7.32-8.06z"/><path fill="#DB2726" d="M314.27 195.03L288 208.87a3.75 3.75 0 01-5.04-1.54l-19.03-36.39a3.76 3.76 0 011.54-5.05l16.67-8.79 19.85 6.51L315.82 190a3.74 3.74 0 01-1.55 5.04z"/><path fill="#E8505B" d="M282.14 157.1l5.37 10.26a3.42 3.42 0 004.64 1.46l9.84-5.2-19.85-6.52z"/><path fill="#000" d="M288.08 168.17s1.14 2.53 4.4 1.88c.16 0 .24-.09.32-.09 1.38-.4 10.65-3.42 10.57-3.58-.08-.24-1.46-2.77-1.46-2.77l-9.84 5.21c.08 0-2.44 1.22-3.99-.65z" opacity=".2"/><path fill="#fff" d="M282.14 157.1l5.37 10.26a3.42 3.42 0 004.64 1.46l9.84-5.2-19.85-6.52z" opacity=".3"/><path fill="#FAFAFA" d="M285.07 168.1c.08.15-2.6 1.7-5.93 3.41-3.34 1.8-6.1 3.1-6.19 2.93-.08-.16 2.6-1.7 5.94-3.42 3.34-1.7 6.1-3.01 6.18-2.93zM295.97 169.8c.08.16-4.3 2.6-9.84 5.54a159.75 159.75 0 01-10.08 5.04c-.09-.16 4.3-2.6 9.84-5.53 5.45-2.93 10-5.21 10.08-5.05zM300.28 173.63c.08.16-4.71 2.76-10.73 5.94a210.74 210.74 0 01-10.98 5.53c-.08-.16 4.71-2.76 10.73-5.94 6.02-3.17 10.9-5.62 10.98-5.53zM302.72 178.19c.08.16-4.72 2.76-10.73 5.94a209.24 209.24 0 01-10.98 5.53c-.08-.16 4.71-2.76 10.73-5.94 5.94-3.18 10.9-5.62 10.98-5.53zM305.08 182.74c.08.17-4.72 2.77-10.73 5.94a208.78 208.78 0 01-10.99 5.54c-.08-.16 4.72-2.77 10.74-5.94 6.02-3.18 10.9-5.62 10.98-5.54zM307.52 187.3c.08.16-4.72 2.77-10.73 5.94a210.68 210.68 0 01-10.99 5.54c-.08-.16 4.72-2.77 10.74-5.94 5.94-3.18 10.9-5.62 10.98-5.54z"/><path fill="#263238" d="M214.62 223.38l-1.2 2.4 3.7 1.87 1.21-2.4-3.7-1.87z"/><path fill="#455A64" d="M216.43 222.71l-2.44 4.88-3.99-2.03a9.94 9.94 0 012.44-4.88l3.99 2.03z"/><path fill="#263238" d="M214.31 226.78c0 .08-.97-.32-2.2-.9a11.7 11.7 0 01-2.03-1.13c0-.09.98.32 2.2.9 1.22.56 2.12 1.05 2.03 1.13zM214.8 225.88c-.08.09-.97-.4-2.2-.97-1.13-.65-2.1-1.14-2.03-1.22.08-.08 1.06.32 2.2.97 1.22.57 2.11 1.14 2.03 1.22zM215.45 224.58c-.08.08-1.05-.4-2.2-.97a21.51 21.51 0 01-2.03-1.23c.08-.08 1.06.33 2.2.98a9.5 9.5 0 012.03 1.22zM216.02 223.44c0 .08-.97-.32-2.2-.9a9.58 9.58 0 01-2.03-1.21c0-.09.98.32 2.2.9 1.14.64 2.03 1.13 2.03 1.21zM248.53 211.87l-2.45-1.08-1.67 3.8 2.46 1.08 1.66-3.8z"/><path fill="#455A64" d="M249.37 213.6l-5.04-2.2 1.78-4.07c1.96.32 3.66 1.05 5.05 2.2l-1.8 4.06z"/><path fill="#263238" d="M245.14 211.72c-.08 0 .24-1.06.81-2.2a8.6 8.6 0 011.06-2.11c.08 0-.24 1.06-.81 2.2-.5 1.22-.98 2.2-1.06 2.11zM246.12 212.21c-.09 0 .32-1.06.89-2.2a10.84 10.84 0 011.14-2.11c.08 0-.25 1.05-.81 2.28-.66 1.05-1.14 2.03-1.22 2.03zM247.42 212.7c-.08 0 .32-1.06.9-2.28a10.75 10.75 0 011.13-2.12c.08 0-.33 1.06-.9 2.28-.56 1.22-1.05 2.2-1.13 2.12zM248.56 213.19c-.09 0 .24-1.06.8-2.2.5-1.22.98-2.12 1.07-2.04.08 0-.25 1.06-.82 2.2-.49 1.22-.97 2.12-1.06 2.04zM229.36 209.92l-2.93 1.23 1.88 4.5 2.93-1.22-1.88-4.5z"/><path fill="#E8505B" d="M231.47 210.66l-6.01 2.53-2.04-4.89a12.6 12.6 0 016.02-2.52l2.03 4.88z"/><path fill="#263238" d="M229.52 205.78c.08 0-.9 1.3-2.68 2.03-1.8.74-3.34.57-3.34.57 0-.08 1.55-.08 3.26-.81 1.62-.81 2.68-1.87 2.76-1.8z"/><path fill="#263238" d="M227.49 212.3c-.08 0-.57-.9-1.06-2.04a8.34 8.34 0 01-.73-2.12c.08 0 .57.9 1.06 2.04a8.3 8.3 0 01.73 2.11zM228.63 211.88c-.08 0-.57-.9-1.06-2.03-.49-1.14-.81-2.12-.73-2.2.08 0 .57.9 1.06 2.04.48 1.14.8 2.11.73 2.2zM229.77 211.4c-.08 0-.57-.9-1.06-2.04-.49-1.14-.81-2.12-.73-2.2.08 0 .57.9 1.06 2.04.48 1.14.8 2.11.73 2.2zM230.66 210.99c-.08 0-.57-.98-1.06-2.2-.48-1.22-.9-2.28-.8-2.36.07 0 .56.98 1.05 2.2.57 1.22.9 2.28.81 2.36zM226.35 212.7c-.08 0-.57-.98-1.06-2.2-.48-1.22-.9-2.28-.81-2.36.08 0 .57.98 1.06 2.2.57 1.3.9 2.36.81 2.36z"/><path fill="#E8505B" d="M256.68 247.6a22.89 22.89 0 00-6.41-31.71 22.84 22.84 0 00-31.68 6.42A22.89 22.89 0 00225 254a22.84 22.84 0 0031.68-6.42z"/><path fill="#FAFAFA" d="M255.36 241.96a19.19 19.19 0 10-35.63-14.3 19.19 19.19 0 1035.63 14.3z"/><path fill="#263238" d="M255.3 227.35s-.08-.08-.16-.24c-.08-.17-.24-.5-.4-.82-.09-.16-.17-.4-.33-.57-.08-.24-.24-.4-.4-.73-.33-.49-.66-1.06-1.14-1.71a18.34 18.34 0 00-10.5-7c-2.6-.65-5.69-.9-8.78-.16-.73.16-1.55.32-2.36.65-.4.16-.81.24-1.14.4-.4.17-.73.33-1.14.58-.16.08-.4.16-.57.24l-.56.32c-.33.25-.74.41-1.14.66-.65.57-1.47 1.05-2.04 1.7-.65.58-1.3 1.3-1.87 1.96a5.8 5.8 0 00-.81 1.14c-.33.32-.49.73-.73 1.14-.5.81-.9 1.63-1.3 2.52-.33.9-.66 1.8-.9 2.77-.4 1.87-.65 3.9-.49 5.94.17 2.04.65 3.99 1.39 5.94a21.54 21.54 0 003.25 5.21 18.66 18.66 0 004.55 3.83c.82.57 1.71.9 2.6 1.3.9.33 1.8.65 2.69.9.49.08.9.24 1.38.32.5.08.9.17 1.39.17.89.08 1.78.16 2.68.08.9 0 1.79-.17 2.6-.33.4-.08.82-.24 1.3-.32l.65-.17c.25-.08.41-.16.57-.24.41-.16.82-.33 1.22-.4.41-.17.74-.33 1.14-.5.73-.32 1.47-.81 2.12-1.22a18.77 18.77 0 006.02-6.43 19.17 19.17 0 002.44-12.45c-.09-.74-.25-1.39-.41-1.96a2.91 2.91 0 01-.16-.81c-.09-.25-.17-.4-.25-.65-.16-.4-.24-.65-.32-.9l-.08-.16s.08.08.08.33c.08.24.16.48.32.9.08.15.16.4.25.64.08.25.16.5.24.82a20.56 20.56 0 01.49 7.49 19.21 19.21 0 01-8.46 13.51c-.73.4-1.38.9-2.12 1.22-.4.16-.73.4-1.13.57-.41.16-.82.32-1.22.4-.25.09-.41.17-.65.25l-.66.16c-.4.08-.8.25-1.3.33-.9.08-1.79.32-2.68.32-.9.09-1.79 0-2.77-.08-.48-.08-.89-.16-1.38-.16-.49-.08-.9-.16-1.38-.33-.98-.16-1.87-.57-2.77-.9a19.05 19.05 0 01-7.24-5.13 19.74 19.74 0 01-4.72-11.31 21.3 21.3 0 01.5-6.02c.24-.98.56-1.87.89-2.77.4-.9.81-1.79 1.3-2.6.25-.4.49-.81.73-1.22.25-.4.57-.73.82-1.14.65-.73 1.22-1.38 1.87-2.04.65-.65 1.38-1.14 2.11-1.7.33-.25.73-.5 1.14-.74l.57-.32c.16-.09.4-.17.57-.33.4-.16.81-.4 1.14-.57.4-.16.81-.33 1.22-.4.81-.33 1.63-.5 2.36-.66 3.17-.73 6.26-.49 8.86.25 2.69.73 4.88 1.87 6.59 3.17 1.7 1.3 3.01 2.69 3.9 3.99.5.57.82 1.22 1.14 1.71.17.24.33.49.41.73.08.25.16.4.32.65.17.33.33.66.41.82.25.08.25.16.25.16z"/><path fill="#263238" d="M252.62 228.16c-1.63.74-2.93 1.14-3 1.06-.09-.08 1.13-.81 2.76-1.63 1.54-.73 2.93-1.22 3-1.05.09.24-1.13.97-2.76 1.62zM252.95 240.7c-1.63-.65-2.93-1.22-2.85-1.38.08-.17 1.46.24 3.1.81 1.62.57 2.92 1.14 2.84 1.38-.08.17-1.47-.24-3.1-.81zM244.4 249.74c-.72-1.63-1.21-2.94-1.05-3.02.08-.08.81 1.14 1.63 2.77.81 1.55 1.3 2.93 1.05 3.01-.24.08-.97-1.14-1.62-2.76zM231.88 250.22a20.44 20.44 0 011.3-2.93c.16.09-.24 1.47-.73 3.1-.57 1.62-1.14 2.93-1.3 2.93-.25-.08.16-1.47.73-3.1zM222.7 241.76c1.62-.73 2.92-1.22 3-1.14.08.08-1.14.9-2.68 1.63-1.55.81-2.93 1.3-3.01 1.14-.08-.17 1.14-.9 2.68-1.63zM222.12 229.22c1.63.57 2.93 1.22 2.93 1.3-.08.17-1.47-.16-3.1-.73-1.7-.49-3-1.14-2.92-1.3.08-.16 1.47.16 3.1.73zM230.5 219.94c.73 1.55 1.3 2.93 1.14 3.02-.08.08-.9-1.15-1.71-2.7-.81-1.54-1.3-2.84-1.14-3 .16-.08.98 1.14 1.7 2.68zM242.94 219.3c-.57 1.62-1.14 2.92-1.3 2.92-.16 0 .16-1.46.73-3.1.5-1.7 1.06-3 1.3-2.92.17 0-.16 1.38-.73 3.1zM252.3 227.51c-1.55.74-2.93 1.3-2.93 1.22-.08-.08 1.14-.9 2.68-1.7 1.55-.82 2.85-1.39 2.93-1.23.16.17-1.06.98-2.68 1.71z"/><path fill="#fff" d="M222.7 218.48s-.25.32-.74.81c-.49.49-1.14 1.3-1.95 2.28a22.13 22.13 0 00-3.99 8.8 22.34 22.34 0 001.06 12.53c.24.65.4 1.06.4 1.06s-.08-.09-.16-.25-.24-.4-.32-.73c-.25-.65-.65-1.63-.98-2.85a21.67 21.67 0 01-.24-9.85 20.98 20.98 0 016.18-11.07c.24-.24.49-.4.57-.57.08-.16.16-.16.16-.16zM228.14 214.81c0 .09-.81.57-1.95 1.23-1.06.65-1.95 1.14-2.03 1.05-.09-.08.73-.73 1.87-1.38 1.13-.57 2.03-.9 2.11-.9z"/><path fill="#000" d="M227.9 251.36s15.29 10.67 26.43-2.68c11.63-14-3.99-28.33-3.99-28.33s12.94 11.23 2.28 26.54c-2.68 3.82-6.59 5.45-9.68 6.43-8.13 2.44-15.04-1.96-15.04-1.96z" opacity=".4"/><path fill="#E0E0E0" d="M238.63 223.28c1.14 2.6 2.2 5.21 3.01 7.9.33.97.57 1.95.57 3 0 1.07-.24 2.12-.97 2.86-.74.73-1.88 1.06-2.77.57l.16-14.33z"/><path fill="#E8505B" d="M236.6 233.54l1.95-13.52 1.22 13.84-1.7 1.47-1.47-1.8z"/><path fill="#000" d="M238.55 220.02l-.16 13.11 1.38.73-1.22-13.84z" opacity=".4"/><path fill="#FAFAFA" d="M240.1 234.43a2.25 2.25 0 11-4.16 1.71 2.25 2.25 0 014.16-1.7z"/><path fill="#263238" d="M240.1 234.43s-.09-.16-.33-.4c-.24-.25-.65-.66-1.22-.74-.57-.16-1.38 0-1.95.5-.57.48-.9 1.46-.49 2.35.33.9 1.22 1.3 2.03 1.3.82 0 1.47-.48 1.71-1.05.33-.5.33-1.06.33-1.39 0-.32-.08-.57-.08-.57s.16.16.24.49c.08.33.08.9-.24 1.55a2.45 2.45 0 01-1.96 1.22c-.9.08-1.95-.49-2.35-1.47-.41-.97-.09-2.11.56-2.68a2.09 2.09 0 012.2-.5c.65.17 1.06.58 1.22.9.33.33.33.5.33.5z"/><path fill="#455A64" d="M239.6 234.68c.33.81-.07 1.87-.89 2.2-.81.32-1.87-.09-2.2-.9-.32-.81.09-1.87.9-2.2.81-.4 1.8 0 2.2.9z"/><path fill="#E8505B" d="M207.8 291.57s.5-.08.98-.65c.25-.32.5-.81.5-1.38 0-.33-.1-.57-.17-.9-.08-.32-.17-.65-.25-1.05-.73-3.02-1.87-7.41-3.17-12.78a108 108 0 00-1.06-4.24c-.16-.73-.32-1.46-.56-2.28-.09-.4-.17-.81-.33-1.14-.16-.32-.4-.65-.73-.8-.33-.17-.73-.34-1.06-.25-.32 0-.81.16-1.22.24-.81.25-1.63.4-2.52.65-1.7.4-3.42.9-5.2 1.39-7.08 1.87-14.89 3.82-23.1 5.94-.98.24-1.55 1.3-1.39 2.2.25.97.5 2.03.73 3 .5 2.04.98 4 1.47 5.95.97 3.9 1.87 7.65 2.68 11.23.08.41.25.9.33 1.3.08.41.24.82.57 1.06.32.25.65.5 1.05.5.41.07.82-.09 1.22-.17 1.71-.4 3.34-.81 4.89-1.22 3.17-.82 6.1-1.55 8.78-2.28 5.37-1.38 9.68-2.44 12.77-3.26 1.46-.4 2.68-.65 3.5-.9.4-.07.65-.16.89-.24.32.08.4.08.4.08s-.08 0-.32.09c-.24.08-.49.16-.9.24-.8.25-1.95.57-3.4.9-3.02.81-7.41 1.95-12.7 3.33-2.68.74-5.6 1.47-8.78 2.28-1.55.4-3.25.82-4.88 1.3-.4.09-.9.25-1.38.17a2.39 2.39 0 01-1.3-.57 2.56 2.56 0 01-.66-1.22c-.08-.41-.24-.9-.32-1.3-.9-3.59-1.8-7.33-2.77-11.24-.48-1.95-.97-3.9-1.46-5.94-.25-.98-.49-2.04-.73-3.01a2.33 2.33 0 011.7-2.69c8.22-2.12 16.03-4.15 23.1-5.94 1.8-.49 3.5-.9 5.2-1.3.82-.25 1.72-.41 2.53-.66.4-.08.81-.24 1.22-.24.49 0 .9.08 1.3.33.4.24.65.57.9.97.16.41.24.82.32 1.14.16.74.33 1.55.57 2.28.33 1.47.65 2.93.98 4.24 1.3 5.37 2.27 9.76 3 12.77.09.41.17.74.25 1.06.08.33.16.65.16.98 0 .65-.24 1.14-.57 1.38-.24.33-.57.5-.73.57-.24.08-.32.08-.32.08z"/><path fill="#E8505B" d="M189.67 280.34l4.96 1.47-3.74 3.74-3.74 3.66-1.22-5.2-1.22-5.13 4.96 1.46z"/><path fill="#EBEBEB" d="M141.33 241.9l-25.98 6.76 5.41 20.8 25.98-6.76-5.41-20.8z"/><path fill="#263238" d="M141.28 241.84s-.09 0-.17 0c-.08 0-.24.08-.32.08-.33.08-.81.25-1.38.4-1.22.33-3.01.82-5.3 1.4-4.55 1.21-11.05 2.92-18.78 4.88l.08-.09c1.63 6.2 3.5 13.27 5.45 20.84l-.08-.08c9.6-2.52 18.54-4.8 26.03-6.75l-.09.08c-1.62-6.27-2.92-11.48-3.9-15.06-.49-1.8-.81-3.26-1.06-4.23-.16-.5-.24-.9-.24-1.15a1.4 1.4 0 01-.24-.32s0 .16.08.4c.08.25.16.66.32 1.06.25.98.65 2.36 1.14 4.24.98 3.66 2.36 8.87 3.99 15.14v.08h-.09c-7.4 1.95-16.34 4.31-26.02 6.75h-.08v-.08c-1.95-7.49-3.83-14.65-5.37-20.83v-.09h.08c7.73-2.03 14.23-3.66 18.79-4.88 2.28-.57 4.06-1.06 5.28-1.38.66-.17 1.06-.25 1.39-.33.16 0 .24-.08.32-.08.17 0 .17 0 .17 0z"/><path fill="#E8505B" d="M140.7 243.4l-24.16 6.3 4.74 18.2 24.16-6.3-4.73-18.2z"/><path fill="#E8505B" d="M121.27 267.89l5.53-13.51 7.08 5.7 2.52-4.65 9.02 6.19-24.15 6.27zM133.88 251.04c.24 1.06-.33 2.11-1.39 2.36-1.06.24-2.11-.33-2.36-1.39-.24-1.05.33-2.11 1.39-2.36 1.05-.24 2.11.33 2.35 1.39z"/><path fill="#000" d="M121.27 267.89l5.53-13.51 7.08 5.7 2.52-4.65 9.02 6.19-24.15 6.27zM133.88 251.04c.24 1.06-.33 2.11-1.39 2.36-1.06.24-2.11-.33-2.36-1.39-.24-1.05.33-2.11 1.39-2.36 1.05-.24 2.11.33 2.35 1.39z" opacity=".2"/><path fill="#EBEBEB" d="M168.7 223.84l-40.48 2.86 2.29 32.4 40.48-2.86-2.28-32.4z"/><path fill="#263238" d="M168.77 223.85s-.08 0-.17 0c-.16 0-.32 0-.56.08-.5 0-1.22.08-2.2.16-1.95.17-4.72.33-8.3.66-7.07.48-17.24 1.22-29.28 2.11l.08-.08c.66 9.6 1.47 20.68 2.28 32.4l-.16-.08c14.96-1.06 28.95-2.04 40.5-2.85l-.08.08c-.65-9.77-1.22-17.83-1.63-23.53-.16-2.84-.32-5.04-.4-6.59-.08-.73-.08-1.3-.08-1.7 0-.42 0-.66 0-.66s0 .16.08.57c0 .4.08.98.16 1.7.08 1.56.25 3.75.49 6.52.4 5.7.97 13.76 1.7 23.53v.08h-.07c-11.55.81-25.54 1.79-40.5 2.85h-.09V259c-.81-11.72-1.63-22.79-2.28-32.4v-.07h.08c12.04-.82 22.2-1.55 29.28-2.04 3.58-.24 6.35-.4 8.3-.57.98-.08 1.7-.08 2.2-.16.24 0 .4 0 .56 0 0 .08.09.08.09.08z"/><path fill="#E8505B" d="M167.4 225.97l-37.65 2.66 2 28.33 37.64-2.65-2-28.34z"/><path fill="#E8505B" d="M131.76 256.98l11.96-18.56 8.86 10.5 5.13-6.27 11.7 11.72-37.65 2.61zM155.1 235.49a3 3 0 01-2.76 3.17 3 3 0 01-3.18-2.76 3 3 0 012.77-3.18 3 3 0 013.17 2.77z"/><path fill="#000" d="M131.76 256.98l11.96-18.56 8.86 10.5 5.13-6.27 11.7 11.72-37.65 2.61zM155.1 235.49a3 3 0 01-2.76 3.17 3 3 0 01-3.18-2.76 3 3 0 012.77-3.18 3 3 0 013.17 2.77z" opacity=".2"/><path fill="#E8505B" d="M91.34 273.5a11.94 11.94 0 00-15.05-7.9 12.03 12.03 0 001.87 23.45c.4 1.38.9 2.93.9 2.93l10.08-3.17s-.4-1.63-.9-3.1a12.1 12.1 0 003.1-12.2z"/><path fill="#263238" d="M85.48 289.87s0-.09 0-.17c0-.08-.08-.24-.08-.4-.08-.41-.16-.98-.33-1.63-.08-.74-.24-1.63-.32-2.6a17.14 17.14 0 01.49-5.54c.08-.33.24-.65.57-.98.24-.24.73-.4 1.14-.32.16.08.4.16.48.32.08.16.17.4.17.57-.09.4-.33.81-.65 1.06-.66.49-1.55.73-2.44.57-.9-.16-1.71-.65-2.2-1.38-.24-.41-.49-.82-.49-1.3 0-.5.25-.98.81-1.15.25-.08.57 0 .74.25.16.16.32.4.32.65 0 .49-.16.98-.49 1.38a3.68 3.68 0 01-2.44 1.63 3.27 3.27 0 01-2.76-.98c-.33-.32-.57-.9-.49-1.38 0-.25.16-.49.33-.65.24-.17.48-.17.73-.17.24.09.49.17.65.33.16.16.32.4.4.57a3.53 3.53 0 01-.81 3.83 3.7 3.7 0 01-2.28 1.06c-.4 0-.8 0-1.22-.25-.32-.24-.56-.65-.4-1.06a.99.99 0 01.4-.4c.17-.09.41-.09.57-.09.41.09.74.33.98.57a79.16 79.16 0 015.04 6.51c.41.58.73 1.06.98 1.39.08.16.16.24.24.32.08.09.08.17.08.17s0 0-.08-.08-.16-.17-.24-.33c-.25-.32-.57-.81-.98-1.38-.9-1.14-2.11-2.85-3.74-4.89-.4-.49-.81-1.06-1.3-1.54a2.1 2.1 0 00-.9-.57.82.82 0 00-.89.4c-.16.33.08.74.33.9.32.24.73.24 1.13.16.82-.08 1.63-.4 2.2-1.06a3.46 3.46 0 00.73-3.66c-.16-.4-.49-.81-.9-.9-.24-.08-.4 0-.64.17-.17.16-.25.32-.33.57 0 .49.16.9.49 1.22a2.83 2.83 0 002.6.9 3.6 3.6 0 002.36-1.55c.25-.4.49-.82.4-1.3 0-.25-.07-.41-.24-.57-.16-.17-.4-.25-.57-.17-.24.08-.4.17-.48.33-.17.16-.17.4-.17.65 0 .4.25.9.5 1.22.48.73 1.3 1.22 2.1 1.38.82.17 1.71-.08 2.37-.56.32-.25.56-.57.56-.98.09-.4-.16-.73-.56-.82-.33-.08-.74 0-.98.25-.24.24-.4.57-.57.9-.24.64-.33 1.38-.4 1.95-.17 1.3-.17 2.44-.09 3.5.08 1.06.16 1.95.33 2.6.08.74.16 1.3.24 1.63 0 .16.08.33.08.4-.08.41-.08.5-.08.5zM88.98 290.84l-8.62 2.69c-.33.08-.73-.08-.82-.4-.08-.33.09-.74.41-.82l8.62-2.69c.33-.08.73.08.82.4.16.33-.09.74-.41.82zM89.14 291.41l-8.62 2.69c-.33.08-.57.49-.4.81.07.33.48.57.8.4l.98-.32 2.04 2.04c.24.24.57.32.9.24l3.08-.97c.33-.09.57-.33.57-.66l.49-2.76.65-.17c.32-.08.57-.48.4-.81a.78.78 0 00-.89-.49z"/><path fill="#fff" d="M70.2 272.04c.56-.98 1.21-1.71 1.78-2.28.65-.57 1.22-.9 1.63-1.06.4-.16.65-.24.73-.16.08.16-.65.81-1.63 1.95a11.13 11.13 0 00-2.28 5.13c-.32 2.2.25 4.15.82 5.54.57 1.38 1.22 2.11 1.06 2.27-.09.09-.33 0-.66-.32a6.14 6.14 0 01-1.3-1.47 6.86 6.86 0 01-1.14-2.68c-.24-1.06-.4-2.28-.24-3.58M77.27 268.21c-.73.25-1.47.25-1.63-.16-.08-.16 0-.4.16-.65.25-.25.57-.49.98-.57.4-.16.9-.16 1.14-.08.32.08.49.24.57.4" opacity=".2"/><path fill="#455A64" d="M88.33 295.97s-.25 0-.65 0a6 6 0 00-1.55.24c-.57.17-1.06.5-1.38.74-.33.24-.49.4-.49.4s.16-.24.49-.48c.32-.25.81-.57 1.38-.82a6 6 0 011.55-.24c.4.08.65.16.65.16zM88.9 292.96s-1.55.57-3.5 1.14-3.5 1.06-3.5 1.06 1.55-.57 3.5-1.14c1.95-.65 3.5-1.14 3.5-1.06zM88.73 294.18s-.32.16-.8.32c-.5.17-1.23.5-2.04.74-.82.24-1.55.49-2.04.65-.56.16-.89.24-.89.24s.33-.16.81-.32c.57-.17 1.3-.4 2.04-.65.81-.25 1.46-.5 2.03-.66.57-.24.9-.4.9-.32z"/><path fill="#E8505B" d="M348.02 219.54c-8.94-8.3-24.8-7.33-32.7 2.03-3.08 3.66-5.2 8.47-9.43 10.75-6.5 3.41-14.47-.9-21.8-.25-8.61.73-15.69 9.53-14.63 18.07.49 3.9 2.36 7.98.49 11.48-2.36 4.4-9.03 4.56-11.88 8.7-2.52 3.67-.57 9.2 3.17 11.73 3.66 2.52 8.46 2.85 12.94 2.69 4.47-.25 9.02-.82 13.42.16 4.8 1.06 8.94 4.07 13.58 5.86 11.06 4.4 24 1.95 34.16-4.15 10.25-6.1 18.14-15.38 25.05-25.07"/><path fill="#fff" d="M348.02 219.54c-8.94-8.3-24.8-7.33-32.7 2.03-3.08 3.66-5.2 8.47-9.43 10.75-6.5 3.41-14.47-.9-21.8-.25-8.61.73-15.69 9.53-14.63 18.07.49 3.9 2.36 7.98.49 11.48-2.36 4.4-9.03 4.56-11.88 8.7-2.52 3.67-.57 9.2 3.17 11.73 3.66 2.52 8.46 2.85 12.94 2.69 4.47-.25 9.02-.82 13.42.16 4.8 1.06 8.94 4.07 13.58 5.86 11.06 4.4 24 1.95 34.16-4.15 10.25-6.1 18.14-15.38 25.05-25.07" opacity=".8"/><path fill="#DB2726" d="M345.83 230.77c-7.24-7.16-20.82-6.1-27 2.03-3.75 4.97-5.94 12.54-12.04 13.44-4.15.56-8.13-2.61-12.36-2.28-5.62.4-9.03 7.24-7.57 12.7 1.47 5.45 6.26 9.35 11.23 11.88 17.4 8.87 40.58 4.15 53.19-10.75"/><path fill="#FFBE9D" d="M511.5 249l-9.35-13.35 12.2-8.7 8.62 17.41-10.9 4.56"/><path fill="#DB2726" d="M522.4 242l6.67 12.05s14.48-2.77 15.86-.65l-22.77 13.75-11.14-18.31L522.4 242z"/><path fill="#fff" d="M521.43 257.3c-.4.41-.4 1.06 0 1.47.4.4 1.06.4 1.46 0 .4-.4.4-1.22 0-1.55-.4-.32-1.22-.32-1.46.08zM522.16 267.15l-1.06-1.87 22.29-12.45s1.3-.17 1.63.65l-22.86 13.67z" opacity=".6"/><path fill="#263238" d="M529.4 253.72c.08.09-.49.5-.81 1.22-.33.66-.33 1.3-.5 1.39-.07 0-.32-.73.09-1.55.4-.9 1.14-1.22 1.22-1.06zM532.4 253.24c.09.08-.24.56-.4 1.3-.08.73.08 1.3 0 1.3-.08.08-.57-.49-.4-1.38.08-.9.73-1.3.8-1.22zM535.5 255.27c-.08.08-.57-.4-.65-1.14-.08-.81.32-1.3.4-1.3.09.08 0 .57.09 1.22 0 .65.24 1.14.16 1.22zM527.53 251.12c0 .16-.57.24-1.22.73-.65.4-.98.9-1.06.9-.08-.09.08-.74.81-1.22.74-.57 1.47-.5 1.47-.41zM526.14 248.76c0 .08-.4.4-1.13.65-.41.16-.9.24-1.39.33-.24 0-.57.08-.9.08-.15 0-.32 0-.48-.08-.16-.09-.4-.33-.4-.58 0-.24.16-.4.32-.56.16-.09.33-.17.49-.17.32-.08.57-.16.9-.16a4.2 4.2 0 011.46.08c.81.16 1.22.49 1.22.49 0 .08-.5-.16-1.3-.24-.41 0-.9-.09-1.39 0-.24.08-.49.08-.81.16-.25.08-.49.24-.49.32 0 .08 0 .08.08.08s.25 0 .4.09c.25 0 .58 0 .82 0 .5-.09.98-.17 1.38-.25.74-.08 1.23-.32 1.23-.24z"/><path fill="#263238" d="M526.15 249c0 .08-.5-.24-.98-.9a3.1 3.1 0 01-.57-1.38c-.08-.24-.08-.57-.16-.9 0-.32 0-.72.4-.97.25-.16.5-.08.65 0 .17.08.25.25.41.33.16.24.33.48.49.73.24.57.24 1.06.24 1.46-.08.9-.48 1.3-.48 1.22-.09 0 .16-.48.16-1.22 0-.4-.08-.81-.33-1.3-.08-.24-.24-.4-.4-.65-.17-.24-.41-.32-.5-.24-.07.08-.15.32-.15.65 0 .24 0 .57.08.81.08.49.24.9.49 1.3.32.66.65.98.65 1.06zM476.7 201.55l29.2 45.99 16.02-10.91L495 181.28"/><path fill="#455A64" d="M479.05 191.45c.08.08-.73 1.96-1.13 4.4-.41 2.44-.25 4.56-.41 4.56-.08 0-.49-2.04 0-4.64.4-2.53 1.46-4.4 1.54-4.32zM476.04 191.62c.17 0 0 2.03.33 4.47.32 2.44.98 4.32.81 4.4-.08.08-.9-1.87-1.22-4.32-.32-2.52 0-4.55.08-4.55z"/><path fill="#263238" d="M362.67 201.38l-20.1-6.18c-24.15 30.85-22.6 64.71 16.35 84.74l21.64-24.26-17.9-54.3z"/><path fill="#E0E0E0" d="M364.62 196.5c-12.85 7.49-19.2 23.28-17.65 38.75 1.7 16.93 12.93 33.45 33.43 38.01l137.86-27.6a41.96 41.96 0 0032.04-52.82c-6.26-21.5-28.3-34.35-50.02-29.06L364.62 196.5z"/><path fill="#263238" d="M364.62 196.5s.4-.08 1.3-.33c.9-.24 2.11-.48 3.74-.9 3.33-.8 8.21-2.03 14.48-3.5 12.6-3.09 30.82-7.48 53.35-12.93 11.3-2.69 23.59-5.7 36.85-8.96 6.58-1.63 13.5-3.25 20.57-4.96 1.8-.41 3.58-.82 5.37-1.3.9-.17 1.8-.33 2.77-.5.49-.08.9-.16 1.38-.24l1.38-.16c.9-.08 1.87-.16 2.85-.25.97 0 1.87 0 2.84 0 .98 0 1.88.09 2.85.17l1.47.16.73.08.73.16c.98.17 1.87.41 2.85.57.97.25 1.87.57 2.76.82.49.16.98.24 1.38.4l1.39.57 1.38.57c.49.17.9.33 1.38.57.9.5 1.8.9 2.6 1.39.9.49 1.71 1.06 2.53 1.54.4.25.81.5 1.22.82l1.22.9 1.22.89.57.49.57.49a42.57 42.57 0 0112.68 20.75 42.25 42.25 0 01-1.22 25.16 42.3 42.3 0 01-26.02 25.31c-3.5 1.22-7.16 1.8-10.74 2.53-7.16 1.46-14.23 2.84-21.15 4.23-13.9 2.77-27.4 5.45-40.42 8.06-25.94 5.2-49.94 9.93-70.92 14.16a50.22 50.22 0 01-10.5-3.75 44.91 44.91 0 01-8.78-5.94 52.3 52.3 0 01-6.67-7.49 45.75 45.75 0 01-4.47-8.3c-.32-.73-.49-1.38-.81-2.12-.25-.73-.5-1.38-.65-2.11-.17-.73-.41-1.39-.57-2.12-.17-.73-.33-1.38-.41-2.11-.16-.74-.32-1.39-.32-2.04-.09-.65-.17-1.38-.25-2.03-.08-.66-.08-1.39-.16-2.04-.08-.65-.08-1.3-.08-1.95-.08-5.21.73-10.01 2.03-14.08 1.3-4.16 3-7.58 4.88-10.34a32.05 32.05 0 015.45-6.35c.4-.4.81-.73 1.22-1.06.4-.33.73-.57 1.14-.81.32-.25.65-.5.97-.74.33-.16.57-.4.82-.48.73-.58 1.22-.9 1.22-.9s-.5.32-1.47.98c-.24.16-.48.32-.81.57-.32.24-.57.48-.98.73-.32.24-.73.57-1.13.9-.41.32-.74.73-1.23 1.05a35.44 35.44 0 00-5.44 6.43 39.44 39.44 0 00-4.8 10.34 44.34 44.34 0 00-1.87 16.04c.08.65.08 1.3.16 2.03.08.65.16 1.39.24 2.04.08.65.25 1.38.33 2.03.16.65.32 1.39.4 2.12.17.65.41 1.38.58 2.11.16.74.4 1.39.64 2.12a47.93 47.93 0 005.29 10.34 46.8 46.8 0 006.59 7.4c2.6 2.2 5.53 4.24 8.7 5.87a49.32 49.32 0 0010.41 3.66h-.08c20.99-4.23 44.9-9.04 70.93-14.25 13-2.6 26.5-5.29 40.42-8.05 6.91-1.39 13.99-2.77 21.14-4.24 3.58-.73 7.24-1.3 10.66-2.52a37.08 37.08 0 009.84-4.88 42.06 42.06 0 0015.86-20.2c3-8.05 3.34-16.84 1.22-24.9a42.42 42.42 0 00-12.52-20.6l-.58-.48-.56-.5-1.14-.89-1.14-.9c-.4-.32-.81-.56-1.22-.8-.81-.5-1.63-1.06-2.52-1.55-.9-.49-1.71-.9-2.6-1.39-.41-.24-.9-.4-1.3-.57l-1.39-.56-1.38-.57c-.49-.17-.9-.33-1.38-.41-.9-.25-1.88-.57-2.77-.82-.98-.16-1.87-.4-2.85-.57l-.73-.16-.73-.08-1.38-.16c-.98-.08-1.87-.25-2.85-.17-.98 0-1.87 0-2.85 0-.9.09-1.87.17-2.76.25l-1.38.16c-.5.08-.9.16-1.39.25-.9.16-1.79.32-2.68.48-1.8.41-3.58.9-5.37 1.3-7.07 1.72-13.9 3.34-20.5 4.97-13.25 3.18-25.62 6.19-36.84 8.87-22.53 5.38-40.75 9.77-53.44 12.78-6.34 1.47-11.22 2.69-14.55 3.5-1.63.41-2.93.66-3.83.9-.48-.08-.97 0-.97 0z"/><path fill="#F57E20" d="M380.4 273.26l-18.22 41.35s85.8-8.3 82.14-54.21l-63.92 12.86zM429.6 180.87s-41.23-40.05-93.7-23.2l28.8 38.83 64.9-15.63zM504.92 163.2c17.73 13.11 28.55 63.99 20 80.1 50.19-14.73 60.68-57.79 60.68-57.79-36.27-33.78-80.68-22.3-80.68-22.3z"/><path fill="#455A64" d="M354.61 254.38c.08.08-2.68 3.41-6.18 7.4-3.5 4-6.42 7.17-6.5 7.08-.09-.08 2.68-3.42 6.18-7.4 3.5-4 6.42-7.17 6.5-7.08z"/><path fill="#263238" d="M585.6 185.51s-.08.16-.33.57c-.24.4-.56.9-.97 1.55-.4.73-.98 1.54-1.55 2.6-.32.49-.65 1.06-.97 1.63-.4.57-.82 1.14-1.22 1.79-.9 1.22-1.87 2.69-2.93 4.23-1.14 1.47-2.44 3.02-3.82 4.72-.73.82-1.47 1.63-2.28 2.53-.81.81-1.55 1.79-2.52 2.6-1.8 1.71-3.66 3.58-5.86 5.3a79.08 79.08 0 01-24.32 13.91c-1.62.57-3.33 1.14-4.96 1.71-1.63.57-3.5.98-5.2 1.39-14.24 3.17-29.93 6.35-46.36 9.76-32.94 6.84-62.71 12.86-84.35 17.26-10.81 2.2-19.52 3.9-25.53 5.13-3.01.57-5.37 1.06-7 1.38-.81.17-1.38.25-1.79.33-.4.08-.65.08-.65.08s.25-.08.65-.16 1.06-.25 1.8-.41c1.62-.33 3.9-.81 6.9-1.47 6.02-1.22 14.8-3 25.54-5.29 21.56-4.47 51.4-10.58 84.26-17.33 16.43-3.42 32.13-6.68 46.36-9.77 1.8-.4 3.5-.74 5.2-1.3 1.72-.66 3.34-1.14 4.97-1.71a72.59 72.59 0 009.2-3.91 80.79 80.79 0 0014.96-9.85c2.2-1.71 3.98-3.58 5.85-5.3.9-.8 1.71-1.78 2.52-2.6.82-.9 1.55-1.7 2.28-2.52 1.38-1.7 2.68-3.26 3.82-4.72 1.14-1.55 2.12-2.93 3.01-4.15.41-.65.9-1.22 1.22-1.8.33-.56.74-1.13.98-1.62.65-.98 1.14-1.87 1.63-2.53.4-.65.73-1.22.97-1.54.4-.33.49-.49.49-.49z"/><path fill="#263238" d="M455.06 258.36s-.08-.08-.16-.16c-.08-.16-.25-.32-.4-.49-.33-.49-.9-1.14-1.47-1.95-.33-.4-.65-.9-1.06-1.38-.4-.57-.73-1.14-1.14-1.8-.81-1.3-1.87-2.68-2.76-4.4-.5-.8-.98-1.7-1.47-2.6-.49-.9-.98-1.87-1.46-2.93-1.06-1.95-1.95-4.23-3.01-6.5a108.02 108.02 0 01-4.96-15.72 112.02 112.02 0 01-2.2-16.36c-.08-2.52-.16-4.97-.08-7.16.08-1.14 0-2.2.16-3.26.08-1.06.16-2.03.25-3.01.08-1.87.4-3.58.65-5.13.08-.73.24-1.47.32-2.12.17-.65.25-1.22.33-1.7.24-1.06.4-1.8.48-2.45.09-.24.09-.49.17-.65 0-.16.08-.24.08-.24s0 .08 0 .24c0 .16-.08.4-.08.65-.08.57-.25 1.39-.4 2.44-.09.5-.25 1.14-.33 1.71-.08.66-.17 1.39-.33 2.12-.16 1.47-.49 3.18-.57 5.13-.08.98-.16 1.95-.24 3.01-.08 1.06-.08 2.12-.08 3.26-.09 2.28 0 4.64.08 7.16.32 5.05.97 10.58 2.2 16.28 1.3 5.7 3 10.99 4.87 15.63.98 2.28 1.87 4.56 2.93 6.51.49.98.98 1.95 1.47 2.93.48.9.97 1.8 1.46 2.6.9 1.72 1.87 3.1 2.68 4.4.41.65.82 1.22 1.14 1.8.4.48.73.97 1.06 1.46.57.81 1.06 1.54 1.46 2.03.17.25.25.4.33.5 0 .15.08.15.08.15z"/><path fill="#F57E20" d="M416.26 215.71l-86.45 17.9s-.41 8.47 1.7 8.55c1.8.09 66.05-11.55 86.95-15.3a5.65 5.65 0 004.31-7.4 5.58 5.58 0 00-6.5-3.75z"/><path fill="#FAFAFA" d="M503.23 207.7c.02-10.6-9.22-19.22-20.63-19.23-11.41-.02-20.67 8.57-20.69 19.18-.01 10.6 9.23 19.22 20.63 19.24 11.41.01 20.68-8.57 20.7-19.18z"/><path fill="#263238" d="M503.2 207.73s0-.08 0-.32c0-.25-.07-.57-.07-.98 0-.24 0-.4-.08-.73-.09-.25-.09-.57-.17-.82-.08-.32-.08-.65-.16-.97-.08-.33-.16-.74-.32-1.06-.17-.73-.57-1.55-.9-2.44-.4-.9-.9-1.8-1.54-2.69a19.78 19.78 0 00-5.37-5.37 22.56 22.56 0 00-8.46-3.42c-.81-.08-1.63-.25-2.52-.25-.4 0-.9-.08-1.3-.08-.41 0-.9.09-1.3.09h-.66l-.65.08c-.4.08-.9.16-1.3.16-.4.08-.9.24-1.3.32l-.65.17-.65.24a20.1 20.1 0 00-9.52 6.43 18.59 18.59 0 00-4.23 11.48 18.17 18.17 0 004.15 11.48 19.73 19.73 0 009.52 6.43l.65.24.65.16c.4.09.9.25 1.3.33.49.08.9.16 1.3.16l.65.08h.65c.41 0 .9.09 1.3.09.41 0 .9 0 1.3-.09.9 0 1.71-.16 2.53-.24a20.74 20.74 0 0013.82-8.63c.65-.9 1.14-1.87 1.55-2.68.32-.9.73-1.71.9-2.45.08-.4.24-.73.32-1.05.08-.33.08-.66.16-.98.08-.33.08-.57.16-.81 0-.25 0-.5.09-.74 0-.4.08-.73.08-.97.08-.09.08-.17.08-.17s0 .08 0 .33c0 .24 0 .57 0 .97 0 .25 0 .41 0 .74 0 .24-.08.57-.16.81-.09.33-.09.65-.17.98-.08.32-.16.73-.24 1.06-.16.81-.49 1.62-.9 2.52a19.97 19.97 0 01-6.91 8.22 21.62 21.62 0 01-8.62 3.5c-.81.08-1.7.25-2.52.25-.4 0-.9.08-1.3.08s-.9-.08-1.3-.08h-.65l-.65-.09c-.5-.08-.9-.16-1.39-.16-.49-.08-.9-.24-1.38-.32l-.65-.17-.65-.24a20.31 20.31 0 01-9.68-6.6 18.9 18.9 0 01-4.31-11.8c.08-4.4 1.63-8.63 4.31-11.72 2.6-3.17 6.1-5.37 9.68-6.51l.65-.25.65-.16c.49-.08.9-.24 1.38-.32.49-.09.9-.17 1.39-.17l.65-.08h.65c.4 0 .9 0 1.3-.08.4 0 .9 0 1.3.08.9 0 1.7.16 2.52.25 3.34.57 6.26 1.87 8.62 3.5a19.99 19.99 0 015.37 5.45c.65.9 1.06 1.87 1.55 2.77.32.9.73 1.7.89 2.52.08.4.24.73.24 1.06.08.33.08.65.17.98.08.32.08.57.16.81 0 .24 0 .49 0 .73 0 .41 0 .73 0 .98 0 .08 0 .16 0 .16z"/><path fill="#E8505B" d="M238.06 277.17c-2.36 1.06-5.12.9-7.72.65-2.6-.33-5.2-.73-7.81-.25-3.99.82-7.49 3.75-11.47 3.59-5.61-.33-8.95-6.35-13.9-8.96-6.03-3.25-14.08-1.22-18.96-7.24a11.6 11.6 0 01-1.14-12.86c3.5-6.35 11.63-7.41 17.98-5.13 5.45 1.95 9.92 5.94 14.15 9.85 1.46 1.3 2.93 2.68 4.4 3.99a23.18 23.18 0 0017.48 5.53c3.09-.32 6.1.57 8.46 2.44a4.97 4.97 0 011.46 1.96c.33.73.49 1.54.4 2.36-.07 2.11-1.38 3.25-3.33 4.07z"/><path fill="#fff" d="M238.06 277.17c-2.36 1.06-5.12.9-7.72.65-2.6-.33-5.2-.73-7.81-.25-3.99.82-7.49 3.75-11.47 3.59-5.61-.33-8.95-6.35-13.9-8.96-6.03-3.25-14.08-1.22-18.96-7.24a11.6 11.6 0 01-1.14-12.86c3.5-6.35 11.63-7.41 17.98-5.13 5.45 1.95 9.92 5.94 14.15 9.85 1.46 1.3 2.93 2.68 4.4 3.99a23.18 23.18 0 0017.48 5.53c3.09-.32 6.1.57 8.46 2.44a4.97 4.97 0 011.46 1.96c.33.73.49 1.54.4 2.36-.07 2.11-1.38 3.25-3.33 4.07z" opacity=".8"/><path fill="#E8505B" d="M146 274.48c-1.63-2.85-6.51-2.93-9.44-1.46-2.93 1.46-4.96 4.15-6.91 6.75-1.96 2.6-4.23 5.21-7.33 6.27-3.33 1.14-6.9.24-10.4.24s-7.57 1.71-8.14 5.13a6.47 6.47 0 001.7 5.54c1.47 1.3 3.02 2.36 4.8 3.09a39.37 39.37 0 0014.65 2.85 21.15 21.15 0 0016.5-8.47c4-5.12 9.04-14.16 4.56-19.94z"/><path fill="#fff" d="M146 274.48c-1.63-2.85-6.51-2.93-9.44-1.46-2.93 1.46-4.96 4.15-6.91 6.75-1.96 2.6-4.23 5.21-7.33 6.27-3.33 1.14-6.9.24-10.4.24s-7.57 1.71-8.14 5.13a6.47 6.47 0 001.7 5.54c1.47 1.3 3.02 2.36 4.8 3.09a39.37 39.37 0 0014.65 2.85 21.15 21.15 0 0016.5-8.47c4-5.12 9.04-14.16 4.56-19.94z" opacity=".8"/><path fill="#E8505B" d="M57.34 291.09a9.53 9.53 0 00-3.82 2.52c-.98 1.22-1.47 2.85-.98 4.31.49 1.47 2.2 2.53 3.66 1.96.81-.25 1.38-.9 2.2-1.06 1.3-.25 2.44.9 3.66 1.14 1.95.33 3.74-1.55 3.66-3.5 0-1.95-1.63-3.42-3.17-4.56-1.96-1.46-4.4-1.06-5.21-.81z"/><path fill="#fff" d="M57.34 291.09a9.53 9.53 0 00-3.82 2.52c-.98 1.22-1.47 2.85-.98 4.31.49 1.47 2.2 2.53 3.66 1.96.81-.25 1.38-.9 2.2-1.06 1.3-.25 2.44.9 3.66 1.14 1.95.33 3.74-1.55 3.66-3.5 0-1.95-1.63-3.42-3.17-4.56-1.96-1.46-4.4-1.06-5.21-.81z" opacity=".8"/><path fill="#455A64" d="M412.52 158.24c-6.67-.32-9.92 4.72-13.66 5.7-3.74.98-7.8 1.22-11.39-.25-4.63-1.87-7.8-6.18-11.87-9.11-8.14-5.86-20.17-5.54-27.98.81-.16 4.4 3.58 7.98 7.32 10.42 3.66 2.53 13.82 6.1 15.13 10.34.97 3.17-5.86 5.86-4.15 8.7 1.63 2.78 7.4 2.53 10.57 2.04 19.85-3.41 12.93 2.7 19.03 2.12 0 0 12.86-3.25 22.94-4.97"/><path fill="#FFBE9D" d="M479.46 275.3l-6.43-15.06 13.75-5.95 4.8 18.8-11.55 2.2"/><path fill="#DB2726" d="M491.58 270.65l4.06 13.11s14.73.33 15.7 2.69l-25.21 8.7-7.16-20.18 12.6-4.32z"/><path fill="#fff" d="M487.43 285.47c-.4.32-.57.98-.32 1.38.24.5.97.57 1.38.33.4-.33.65-1.06.32-1.55-.32-.4-1.14-.57-1.46-.16M486.05 295.24l-.65-2.04 24.4-7.57s1.3.08 1.46.9l-25.21 8.7z" opacity=".6"/><path fill="#263238" d="M495.97 283.52c0 .16-.57.4-1.06.97-.49.57-.65 1.22-.73 1.22-.08 0-.16-.81.4-1.54.58-.65 1.39-.74 1.39-.65zM498.98 283.76c.08.08-.4.49-.65 1.14-.25.65-.16 1.22-.33 1.3-.08.08-.4-.65-.16-1.46.4-.82 1.06-1.14 1.14-.98zM501.58 286.37c-.08.08-.49-.5-.4-1.3.08-.82.56-1.23.65-1.15.08.08-.17.57-.17 1.22-.16.66 0 1.14-.08 1.23zM494.67 280.67c0 .16-.65.16-1.3.4-.65.25-1.14.74-1.22.66-.08-.09.24-.74 1.06-1.06.8-.33 1.54-.17 1.46 0zM493.86 278.06c0 .08-.41.33-1.3.4-.41.1-.9.1-1.47.1-.24 0-.57-.1-.9-.17-.16 0-.32-.08-.48-.16-.16-.09-.4-.41-.25-.66.09-.24.25-.4.41-.48.16-.09.33-.09.49-.09.32 0 .57 0 .9 0 .56.09 1.05.17 1.46.33.73.32 1.14.73 1.05.73-.08.08-.48-.24-1.22-.49-.4-.08-.8-.24-1.38-.24-.24 0-.49 0-.81 0-.33 0-.49.08-.57.24 0 .08 0 .08.08.17.08.08.24.08.33.08.24.08.56.08.8.16.5.08.99.08 1.4.08.89 0 1.37-.08 1.46 0z"/><path fill="#263238" d="M493.7 278.23s-.41-.33-.74-1.14c-.16-.41-.24-.9-.32-1.47 0-.24 0-.57.08-.9.08-.32.16-.73.57-.89.24-.08.48 0 .65.16.16.16.24.25.32.4.17.25.25.58.33.82.08.57.08 1.06-.08 1.47-.25.81-.74 1.14-.74 1.14-.08-.08.25-.4.41-1.22.08-.41.08-.82 0-1.3-.08-.25-.16-.5-.24-.74-.17-.24-.33-.4-.41-.4-.16.08-.24.32-.32.56-.09.25-.09.57-.09.82 0 .49.08.98.17 1.38.24.9.48 1.3.4 1.3zM413.58 158.73s-11.96 23.69-3.9 29.22c8.05 5.54 45.46 33.7 45.46 33.7l19.11 51.04 17.9-7.33-14.89-59.74-37.65-33.87-26.03-13.02z"/><path fill="#455A64" d="M459.53 212.3c.08.07-1.14 1.7-2.03 4.06-.98 2.36-1.14 4.4-1.3 4.31-.08 0-.08-2.11.9-4.47.97-2.44 2.35-3.99 2.43-3.9zM456.6 211.8c.17 0-.4 1.96-.56 4.4-.17 2.44 0 4.48-.09 4.48-.08 0-.48-1.96-.32-4.48.16-2.52.81-4.48.98-4.4z"/><path fill="#455A64" d="M476.04 271.96s-.08-.08-.08-.25c-.08-.16-.16-.4-.32-.73-.25-.73-.65-1.7-1.14-2.93-.98-2.6-2.44-6.35-4.15-10.99a889.63 889.63 0 01-5.94-16.6 68.84 68.84 0 01-1.54-4.89 42.12 42.12 0 00-1.71-5.13c-1.38-3.41-3.01-6.83-4.8-10.33l.08.08c-2.03-1.71-4.15-3.5-6.34-5.3-1.71-1.38-3.42-2.76-5.13-4.06-1.7-1.3-3.41-2.6-5.04-3.83-3.33-2.52-6.5-4.97-9.6-7.16-3.09-2.2-6.18-4.15-8.94-6.1-2.77-1.96-5.37-3.83-7.4-5.95a17.92 17.92 0 01-2.6-3.17 12.4 12.4 0 01-1.47-3.42 14.29 14.29 0 01-.08-5.86 19.73 19.73 0 011.46-4.48c.08-.16.16-.33.16-.33s0 .08-.08.33c-.08.24-.16.49-.32.9-.25.8-.65 2.03-.98 3.58-.24 1.54-.4 3.58.17 5.78.24 1.13.73 2.2 1.46 3.33a17.83 17.83 0 002.6 3.18 52.29 52.29 0 007.4 5.86c2.77 1.87 5.86 3.82 9.03 6.02 3.1 2.2 6.34 4.64 9.6 7.08 1.63 1.22 3.33 2.53 5.04 3.83 1.7 1.3 3.42 2.69 5.13 4.07 2.2 1.79 4.3 3.58 6.34 5.29 1.79 3.5 3.41 6.92 4.8 10.34.73 1.7 1.22 3.42 1.7 5.13.5 1.7 1.06 3.33 1.55 4.88 2.12 6.35 4.15 11.97 5.78 16.6 1.7 4.64 3.09 8.39 3.98 11.08.49 1.3.81 2.27 1.06 3 .08.33.24.58.24.82.08.17.08.33.08.33z"/><path fill="#263238" d="M428.3 166.3l23.1 3.26 11.8 3-16.2 5.87-18.7-12.13zM400.08 164.67s-.16.25-.49.57a23.13 23.13 0 01-13.42 6.27c-.81.08-1.55.16-1.95.08-.49 0-.73 0-.73-.08s1.05-.08 2.68-.33a27.88 27.88 0 0011.88-4.96c1.21-.9 1.95-1.63 2.03-1.55z"/><path fill="#DB2726" d="M416.59 130.81l-4.47 33.45s14.8-.97 25.2 2.53c10.42 3.5 16.85 3.34 16.85 3.34l-2.2-20.84 7.8-17.1 3.42 19.95 16.03 16.44 10.4-2.36-10.81-18.07-7.48-36.88s0 0 0-.08a13.49 13.49 0 00-4.72-7.81l-.33-.25-15.7-8.79-5.28.08c-5.78.17-10.33.82-13.26 1.39a13.13 13.13 0 00-7.16 3.82 16.87 16.87 0 00-3.65 6.84l-4.64 24.34z"/><path fill="#263238" d="M466.45 116.8s-.08.42-.41 1.07c-.33.73-.73 1.7-1.22 2.85-1.06 2.44-2.44 5.78-4.07 9.44-1.62 3.58-3.09 6.92-4.14 9.36-.5 1.14-.98 2.12-1.3 2.85-.33.65-.5.97-.5 1.06 0 0 .09-.41.33-1.06.25-.65.65-1.63 1.14-2.85.98-2.44 2.44-5.78 4.07-9.44 1.62-3.67 3.09-7 4.14-9.36.5-1.14.98-2.12 1.3-2.85.5-.65.66-1.06.66-1.06z"/><path fill="#DB2726" d="M422.12 111.03c3.09 8.55 8.95 28 11.8 35.49.89 2.28 2.35 4.31 4.22 5.78l31.72 22.47 7.32-9.53-23.75-22.95-12.85-38.02c-1.79-5.04-9.27-7.81-13.99-5.12-3.41 2.11-5.85 7.97-4.47 11.88z"/><path fill="#263238" d="M441.23 105.9s.08.25.25.65c.16.5.4 1.14.65 1.96.57 1.7 1.46 4.23 2.52 7.32 2.2 6.35 5.29 15.47 8.95 26.46l-.09-.08c7 6.75 15.13 14.57 23.84 22.95l.16.16-.08.17c-1.71 2.2-3.5 4.47-5.29 6.83-.73.9-1.38 1.8-2.03 2.69l-.17.16-.16-.08c-8.7-6.27-16.92-12.2-24.32-17.58a175.7 175.7 0 00-5.45-3.9c-.4-.33-.9-.66-1.3-.99-.4-.32-.9-.65-1.3-.97a12.25 12.25 0 01-3.33-5.2c-.33-.9-.74-1.8-1.06-2.7-.65-1.79-1.3-3.5-1.87-5.13a316.3 316.3 0 01-5.2-15.54c-.58-1.8-.98-3.26-1.3-4.24-.17-.48-.25-.81-.33-1.14-.09-.24-.09-.4-.09-.4s.09.16.17.4c.08.25.24.66.4 1.06.33.98.82 2.36 1.39 4.23 1.22 3.67 3 8.96 5.36 15.47.57 1.63 1.22 3.34 1.88 5.13.32.9.73 1.79 1.05 2.69.33.9.73 1.79 1.3 2.68.57.82 1.22 1.63 1.96 2.36.4.33.8.65 1.22.98.4.32.89.65 1.3.98 1.79 1.3 3.58 2.6 5.45 3.9 7.48 5.38 15.7 11.32 24.4 17.5l-.33.09c.65-.82 1.38-1.8 2.03-2.69 1.8-2.36 3.58-4.64 5.3-6.84v.25c-8.71-8.39-16.76-16.28-23.76-22.96v-.08c-3.66-10.99-6.67-20.1-8.86-26.45-1.06-3.18-1.87-5.7-2.44-7.41-.25-.82-.5-1.47-.65-1.96a5.5 5.5 0 00-.17-.73zM438.22 101.26c-.08.08-.57-.49-1.62-1.14a9.37 9.37 0 00-4.48-1.38c-1.87-.08-3.5.4-4.55.97-1.06.58-1.7 1.06-1.7.98 0 0 .48-.65 1.54-1.22a8.6 8.6 0 014.71-1.14c1.96.08 3.58.82 4.56 1.55 1.14.65 1.54 1.3 1.54 1.38zM479.54 148.72c0 .16-1.46 0-3.25.4-1.8.41-3.01 1.23-3.1 1.14-.07-.08 1.15-1.05 3.02-1.54 1.87-.4 3.41-.08 3.33 0z"/><path fill="#FAFAFA" d="M426.27 123.8s-.08.1-.33.1c-.24.07-.49.07-.9.15a9.4 9.4 0 01-2.92-.16c-1.14-.24-2.03-.81-2.68-1.22-.33-.25-.57-.4-.74-.57-.16-.16-.24-.24-.24-.24 0-.09 1.46 1.22 3.66 1.79 2.28.57 4.15.08 4.15.16zM428.79 131.13s-.57-.4-1.47-.89c-.97-.49-2.44-.9-4.06-1.06-1.63-.16-3.17 0-4.23.08-.49.08-.9.08-1.3.08-.33 0-.49 0-.49 0s.16-.08.49-.08c.32-.08.73-.08 1.3-.16 1.06-.16 2.6-.24 4.23-.16 1.63.16 3.09.57 4.06 1.06.5.24.82.48 1.06.65.25.32.4.4.4.48z"/><path fill="#000" d="M424.64 118.76s.81 12.7 1.79 18.64c.98 5.94 2.85 11.89 7 16.12 4.22 4.23 10.24 6.1 16.1 7.33-1.87-1.47-3.74-2.93-5.61-4.4-2.36-1.95-5.78-3.9-7.73-6.27-3.66-4.64-4.47-10.5-6.34-16.03-1.55-5.3-3.42-10.26-5.2-15.39z" opacity=".4"/><path fill="#FAFAFA" d="M446.76 123.73s-.24.16-.65.32c-.49.17-1.13.33-2.03.33-1.79 0-4.07-.81-6.67-.57-2.6.16-4.88 1.14-6.34 2.03-.74.41-1.3.9-1.71 1.14-.16.17-.33.25-.4.33a.25.25 0 01-.17.08s.73-.81 2.2-1.79c1.46-.9 3.74-1.95 6.42-2.12 2.68-.24 4.96.66 6.75.66.9 0 1.55-.09 2.03-.25.33 0 .57-.16.57-.16zM444.4 117.54s-.08.08-.16.08c-.16.08-.32.17-.49.25a12 12 0 01-1.79.9 30.1 30.1 0 01-6.18 2.1c-2.52.58-4.8.82-6.5.9-.82 0-1.55 0-1.95 0-.17 0-.41 0-.57 0-.17 0-.17 0-.17 0s.08 0 .17 0c.16 0 .32 0 .56 0 .5 0 1.14 0 1.96-.08 1.7-.08 3.98-.32 6.42-.9a31.89 31.89 0 006.18-2.1c.74-.33 1.39-.66 1.8-.82.16-.08.32-.17.48-.25.16 0 .24-.08.24-.08zM462.38 124.22s-.08 0-.24-.08c-.17 0-.33-.09-.65-.25a8.88 8.88 0 01-1.96-1.3c-1.54-1.3-3-3.83-5.36-5.7a18.07 18.07 0 00-6.92-3.42c-.97-.24-1.79-.32-2.36-.4-.24 0-.49-.09-.65-.09-.16 0-.24 0-.24 0s1.22-.08 3.25.41c1.95.4 4.64 1.47 7 3.42 1.22.98 2.2 2.03 3 3.1a19.24 19.24 0 002.37 2.6 6.66 6.66 0 001.95 1.3c.57.33.81.4.81.4zM461.49 128.12s-.25-.08-.66-.16a7.7 7.7 0 01-1.62-.98c-.65-.48-1.3-1.22-2.04-2.03-.73-.81-1.46-1.71-2.44-2.44a7 7 0 00-3.09-1.39c-1.05-.16-2.03-.08-2.84-.08-.82.08-1.47.16-1.87.25-.17 0-.33.08-.5.08-.07 0-.15 0-.15 0s.08 0 .16-.08c.16 0 .32-.09.49-.09.4-.08 1.05-.16 1.87-.24.81-.08 1.79-.16 2.84 0 1.06.16 2.2.57 3.18 1.38.97.82 1.7 1.71 2.44 2.53.73.81 1.3 1.54 1.95 2.03.65.5 1.22.82 1.62 1.06.41.08.66.16.66.16zM473.93 125.52s-.65-.24-1.79-.16c-.57.08-1.22.16-1.95.4-.73.25-1.47.57-2.28.98-.81.33-1.55.65-2.28.81-.73.17-1.46.17-2.03.09a4.07 4.07 0 01-1.3-.41c-.25-.17-.4-.33-.4-.33 0-.08.56.5 1.7.57.57.08 1.22 0 1.95-.16s1.47-.49 2.28-.81c.81-.33 1.55-.74 2.28-.98.73-.24 1.38-.4 1.95-.4.57 0 1.06.07 1.38.16.33.16.49.24.49.24zM475.23 129.91c0 .09-.73-.73-2.28-.81a6 6 0 00-2.52.49c-.9.32-1.87.98-2.76 1.63-.98.65-1.87 1.3-2.77 1.7-.9.41-1.79.66-2.6.66-.73 0-1.38-.08-1.8-.25-.4-.16-.56-.32-.56-.32 0-.08.81.57 2.36.49a6.67 6.67 0 002.52-.74c.9-.4 1.79-1.05 2.76-1.7.98-.66 1.88-1.23 2.85-1.63a6.37 6.37 0 012.6-.41c.74.08 1.39.24 1.71.49.33.24.49.4.49.4z"/><path fill="#000" d="M461.65 143.02c1.63-6.68 1.95-13.92 2.2-20.76-.58 2.36-2.04 4.48-2.93 6.76-.41 1.06-1.14 3.1-1.14 3.1l1.87 10.74" opacity=".4"/><path fill="#263238" d="M450.91 64.63a3.24 3.24 0 01-2.28 2.69c-.65.24-1.38.24-2.03.49-.65.24-1.3.9-1.14 1.54.08.5.57.82.98 1.22.4.33.73.9.49 1.39-.25.49-.98.57-1.39.97-.4.5-.24 1.23.08 1.71.41.5.9.82 1.47 1.14.49.33.98.82 1.14 1.39"/><path fill="#263238" d="M475.07 75.21c1.79-3.74.49-8.46-2.28-11.64-2.77-3.17-6.75-4.88-10.82-6.02-.57-.16-1.3-.33-1.7.16-.33.41-.25 1.06.08 1.47.32.4.9.57 1.38.81a13.15 13.15 0 00-5.2-1.46c-.66 0-1.3.08-1.88.4-.57.33-.9.98-.73 1.63.16.57 1.06.98 1.55.49-1.71-.16-3.5.24-4.97 1.14-1.05.65-1.95 1.79-1.7 3.01.16.73.65 1.3.9 1.95.4 1.3-.17 2.61-.66 3.83a12.14 12.14 0 00-.81 6.1 7.16 7.16 0 003.25 5.05"/><path fill="#FFBE9D" d="M450.1 107.12a8.36 8.36 0 01-5.86-10.42l7.49-25.31A11.96 11.96 0 01466.69 63l.57.25a12 12 0 017.48 14.49 257.5 257.5 0 01-4.39 14.73c-2.28 6.02-8.7 4.8-8.7 4.8l-1.55 4.56a8.3 8.3 0 01-10 5.3z"/><path fill="#EB996E" d="M461.73 97.2s-3.99-1.07-7.08-5.14c0 0 .33 5.05 6.51 6.68l.57-1.55z"/><path fill="#263238" d="M460.59 66.75c-.49-1.06-1.14-3.5-1.95-4.32-.81-.81-2.2-.57-3.34-.24a3.74 3.74 0 00-2.6 2.44c-1.63 4.4-1.79 8.55-3 12.78-.09.33-.17.57-.09.9.24.73 1.06.97 1.79 1.14 1.87.24 2.85-1.06 3.66-2.69.16-.33.57-2.6.65-3.01a8.15 8.15 0 014.56-6.76l.32-.24z"/><path fill="#FFBE9D" d="M452.78 74.89c-.08-.08-3.74-2.77-5.12 1.46-1.38 4.24 3.09 4.72 3.17 4.56.08-.08 1.95-6.02 1.95-6.02z"/><path fill="#EB996E" d="M450.1 78.96s-.08 0-.25.08c-.16 0-.32 0-.56-.16-.41-.33-.57-1.14-.33-1.88.08-.4.33-.73.57-.97.24-.25.49-.4.73-.4.25 0 .33.23.4.32 0 .16 0 .24 0 .24s.09-.08.17-.24c0-.09 0-.25-.08-.33-.08-.08-.25-.24-.4-.24-.33-.08-.74.08-.98.4-.25.25-.5.65-.65 1.06-.25.9-.09 1.8.48 2.2a.8.8 0 00.74.08c.16-.08.24-.16.16-.16z"/><path fill="#263238" d="M458.96 67.64c2.04-1.38 4.23-.73 5.62.08 1.38.82 2.6 2.04 4.06 2.77 1.47.73 3.34.98 4.64 0 .97-.73 1.38-2.03 1.46-3.25a9.02 9.02 0 00-2.11-6.52c-.4-.48-.98-.9-1.55-.65-.73.33-.57 1.3-.32 2.04 0 0-7.08-2.6-11.39-1.14-4.23 1.63-.4 6.67-.4 6.67z"/><path fill="#455A64" d="M461.65 57.47s.08.32.32.81c.25.5.65 1.22 1.39 1.87.73.66 1.62 1.39 2.84 1.96.57.24 1.22.49 1.95.65.74.16 1.47.24 2.2.49.73.24 1.46.49 2.03 1.06.57.48.98 1.14 1.22 1.7.25.66.33 1.3.25 1.96a4.38 4.38 0 01-.57 1.55c-.57.9-1.38 1.3-1.95 1.46-.25.08-.5.08-.65.08-.17 0-.25 0-.25 0s.33 0 .81-.24a3.44 3.44 0 001.71-1.47c.25-.4.5-.9.5-1.46.07-.57 0-1.14-.25-1.8a5.38 5.38 0 00-1.14-1.62c-.49-.49-1.22-.73-1.87-.98-.73-.16-1.47-.32-2.2-.49a6.94 6.94 0 01-1.95-.73 8.96 8.96 0 01-2.85-2.12 5.97 5.97 0 01-1.3-2.03 2.5 2.5 0 01-.16-.65c-.08.08-.08 0-.08 0z"/><path fill="#455A64" d="M457.01 58.69s.08.32.33.81c.24.5.65 1.22 1.46 1.96a8.6 8.6 0 003.1 1.79c1.3.49 2.76.73 4.3.97 1.55.33 3.1.57 4.4 1.23a2.73 2.73 0 011.46 3.26 3.58 3.58 0 01-1.47 1.95c-.24.16-.48.24-.56.32-.17.08-.25.08-.25.08s.33-.16.73-.49a3.3 3.3 0 001.3-1.95c.09-.49.09-1.06-.16-1.55a2.88 2.88 0 00-1.3-1.3c-1.22-.57-2.68-.9-4.23-1.22-1.54-.33-3.09-.57-4.4-1.06a9.1 9.1 0 01-3.16-1.87 5.97 5.97 0 01-1.39-2.04c-.08-.24-.16-.48-.16-.65 0-.16-.08-.24 0-.24zM454 167.36c2.44.73 2.93 3.42 2.6 4.56l-5.53 2.2-1.22-5.3 4.15-1.46z"/><path fill="#455A64" d="M407.89 167.36s10.98-1.14 17.89 1.3 15.53 4.23 19.28 3.42a9.55 9.55 0 005.2-3.26s-10.98-1.3-16.1-3c-3.5-1.15-10.33-8.88-23.02-7l-3.25 8.54z"/><path fill="#455A64" d="M451.97 171.35c-.33-1.06-1.06-1.88-1.79-2.69l.08.16a16.4 16.4 0 00-3.41.5c-1.14.32-2.2.89-2.93 1.78-.25.33-.41.65-.41 1.06 0 .49.49.9.9 1.22 1.05.82 2.2 1.71 3.41 2.04 1.3.32 2.85.08 3.66-.98.81-.9.81-2.12.49-3.1z"/><path fill="#263238" d="M444 170.94s.08-.24.32-.65c.33-.33.9-.73 1.63-1.06.81-.24 1.79-.4 2.85-.24 1.06.16 2.27.81 2.93 1.87.32.57.48 1.22.48 1.79a3.9 3.9 0 01-.57 1.63c-.32.49-.8.73-1.3.9-.48.16-.97.16-1.38.16a6.78 6.78 0 01-2.36-.74c-.08-.08-.16-.08-.16-.08s.08 0 .16.08c.16.08.33.08.49.17.4.16 1.06.32 1.87.4.81.08 1.87-.16 2.44-1.05.65-.82.81-2.2.16-3.26a4.45 4.45 0 00-2.84-1.87 6.45 6.45 0 00-2.85.24c-.81.25-1.3.65-1.63.98-.16.49-.24.73-.24.73z"/><path fill="#FAFAFA" d="M446.36 171.1s-.25-.32-.65-.57c-.41-.24-.82-.4-.74-.4 0 0 .41.08.82.32.32.33.57.65.57.65zM448.06 171.18s-.24-.24-.56-.57c-.33-.24-.65-.48-.65-.48s.32.16.65.4c.4.33.65.65.56.65zM448.8 175.01s-.08-.16-.17-.49a4 4 0 00-.48-1.06c-.25-.4-.57-.65-.82-.9a2.9 2.9 0 01-.4-.32s.16.08.4.25c.25.16.57.48.82.9.24.4.4.8.49 1.05.16.33.16.57.16.57zM450.59 173.54s0-.16 0-.48c0-.33 0-.74-.08-1.14-.09-.41-.25-.82-.33-1.06-.08-.25-.16-.4-.16-.4s0 0 .08.07c.08.08.08.17.16.33.16.24.25.65.33 1.06.08.4.08.81.08 1.14 0 .16 0 .24-.08.32.08.16.08.25 0 .16z"/><path fill="#263238" d="M450.67 170.2c0 .09-1.22.41-2.44 1.31-1.3.9-1.95 1.95-2.04 1.95 0 0 .17-.32.5-.65.32-.4.8-.9 1.46-1.38a6.1 6.1 0 011.79-.9c.4-.32.73-.32.73-.32zM447.9 169.31c0 .08-.9.57-1.54 1.71-.65 1.14-.57 2.2-.57 2.2s-.08-.25 0-.65c0-.4.16-.98.49-1.63.32-.57.73-.98 1.05-1.3.33-.25.57-.33.57-.33z"/><path fill="#263238" d="M450.91 175.01s-.08-.24-.24-.65c-.17-.4-.49-.9-.98-1.3-.97-.82-2.03-1.22-1.95-1.3a5.62 5.62 0 012.03 1.14c.5.4.82.97.98 1.38.24.49.16.73.16.73zM427.81 169.15s-.4-.08-1.05-.16c-.65-.17-1.71-.41-2.93-.57a65.87 65.87 0 00-9.76-1.14c-1.95-.08-3.74 0-5.37.4a9.77 9.77 0 00-3.9 1.96c-1.96 1.54-2.69 3-2.77 2.93 0 0 .16-.4.57-.98.4-.57 1.06-1.38 2.03-2.2.98-.81 2.36-1.63 3.99-2.03 1.63-.49 3.5-.57 5.45-.49 3.9.16 7.32.73 9.84 1.3 1.22.25 2.2.57 2.93.74.65.16.97.24.97.24z"/><path fill="#263238" d="M346.97 158.16s.16-.16.57-.4c.4-.25.97-.66 1.79-.98a12.3 12.3 0 017.4-.57c1.54.4 3.17 1.14 4.55 2.36a20.58 20.58 0 013.83 4.47c1.21 1.71 2.44 3.5 3.9 5.21s3.09 3.42 4.88 4.97c3.58 3.1 7.48 5.7 11.39 6.92 1.95.65 3.9.98 5.77.98 1.79 0 3.5-.41 4.88-1.23 1.3-.81 2.28-1.87 3.01-2.84.73-.98 1.38-1.88 1.87-2.61.49-.73.81-1.3 1.14-1.7.24-.42.4-.58.4-.58s-.08.25-.32.65-.57.98-1.06 1.71c-.49.73-1.05 1.63-1.79 2.69-.73.97-1.7 2.11-3.09 3.01a9.23 9.23 0 01-4.96 1.3c-1.87 0-3.9-.32-5.85-.9-3.99-1.3-7.97-3.82-11.55-7a48.3 48.3 0 01-4.97-5.04c-1.46-1.71-2.68-3.58-3.9-5.3a26 26 0 00-3.74-4.47 10.85 10.85 0 00-4.47-2.36c-3.01-.81-5.62-.16-7.24.4-1.71.66-2.44 1.4-2.44 1.31z"/><path fill="#FAFAFA" d="M367.22 150.92s-.24 0-.57 0c-.4 0-.9.08-1.54.08-1.3.16-3.1.49-4.97 1.22-1.87.73-3.41 1.7-4.55 2.44-.57.4-.98.73-1.22.98-.25.24-.4.32-.4.32s.56-.57 1.62-1.38c1.06-.82 2.6-1.71 4.55-2.44a20.32 20.32 0 015.05-1.22c1.22 0 2.03 0 2.03 0zM380.23 158.81s-.24 0-.57.08c-.4.08-.97.17-1.62.25a22.07 22.07 0 00-9.68 4.64c-.57.4-.98.81-1.22 1.06-.25.24-.4.4-.4.4s.56-.65 1.62-1.55a22.08 22.08 0 019.68-4.64c1.38-.16 2.2-.24 2.2-.24zM379.9 177.37s-.07-.24-.07-.65c-.08-.4-.08-.98-.08-1.71.08-1.47.56-3.5 1.7-5.45 1.06-1.96 2.44-3.5 3.34-4.56.97-1.06 1.62-1.71 1.62-1.71s-.16.16-.4.49c-.33.4-.73.81-1.14 1.3a28.87 28.87 0 00-3.34 4.56 13.57 13.57 0 00-1.7 5.37c-.08.73 0 1.3 0 1.7 0 .17.08.33.08.5 0 .08 0 .16 0 .16zM394.22 169.15s-.08-.25-.24-.65c-.08-.4-.25-.98-.25-1.55 0-.65.09-1.22.17-1.63.08-.4.16-.65.16-.65s-.08.25-.16.65a7.52 7.52 0 000 3.1c.24.48.32.73.32.73zM396.66 179.08s-.57-.33-1.3-.98c-.73-.65-1.7-1.7-2.52-3-.81-1.31-1.3-2.61-1.54-3.59-.25-.98-.25-1.63-.25-1.63s0 .16.08.4c.08.25.17.66.25 1.15.24.97.73 2.28 1.54 3.58.81 1.3 1.7 2.36 2.52 3.01.4.33.65.57.9.73.24.25.32.33.32.33zM407.64 167.85s-.4-.17-1.06-.57c-.65-.41-1.46-.9-2.35-1.63-.9-.73-1.63-1.39-2.12-1.96-.49-.56-.81-.89-.81-.89s.08.08.24.24c.25.25.4.41.57.66.49.48 1.22 1.22 2.12 1.95.9.73 1.7 1.22 2.35 1.63.25.16.5.32.74.4.24.08.32.17.32.17zM415.45 166.79s0-.08 0-.33c0-.32 0-.57 0-.9 0-.72-.08-1.78-.24-2.84a39.44 39.44 0 00-.65-3.66c-.09-.17-.09-.33-.09-.33s0 .08.09.33c.08.16.16.48.24.81.16.73.4 1.7.57 2.85.16 1.14.24 2.12.24 2.85 0 .4 0 .65 0 .9-.16.16-.16.32-.16.32zM425.62 161.17s0 .08 0 .25c0 .24-.08.48-.08.73-.09.57-.17 1.46-.41 2.36-.16.9-.4 1.7-.57 2.28-.08.24-.16.49-.24.65-.09.16-.09.24-.09.24s0-.08.09-.24c.08-.25.16-.49.16-.73.16-.57.4-1.39.57-2.28.16-.9.32-1.71.4-2.36 0-.25.09-.5.09-.73l.08-.17zM432.53 167.93s.08-.57.25-1.3c.16-.74.32-1.3.32-1.3s-.08.56-.24 1.3c-.17.73-.33 1.3-.33 1.3zM443.92 171.67s0-.24.08-.57c0-.32.08-.81.08-1.3 0-.33 0-.73 0-1.3 0-.08 0-.25 0-.4 0-.09 0-.17 0-.17s0 .24.08.57c0 .32 0 .81 0 1.3s-.08.98-.08 1.3c-.08.41-.16.57-.16.57z"/><path fill="#455A64" d="M446.11 174.36c-.9-3.58-4.47-5.86-8.13-6.43-3.58-.57-7.24.16-10.9.65s-7.48.57-10.73-1.14a12.7 12.7 0 00-1.55 6.19c.65 0 1.3 0 1.87.08.4 2.76 2.93 4.88 5.61 5.45 2.69.57 4.48.65 7.08-.49 2.68-1.14 6.1-2.93 8.7-3.82 2.6-.9 5.53-1.39 8.13-.5"/><path fill="#263238" d="M418.22 168.34s-.09.32-.33.73c-.16.49-.49 1.14-.65 1.87-.24.73-.33 1.47-.4 1.95-.09.5-.09.82-.09.82s-.08-.33 0-.82c0-.48.16-1.22.33-1.95a15 15 0 01.73-1.87c.24-.5.4-.73.4-.73z"/><path fill="#263238" d="M416.91 172.16c0 .08-.48 0-.97-.08-.57-.08-.98-.08-.98-.16s.5-.08 1.06 0c.4.08.9.24.9.24zM417.32 169.96s-.4-.24-.9-.4c-.48-.17-.89-.17-.89-.25 0-.08.49-.08.98.08.49.17.81.57.81.57zM421.06 168.82s.17 0 .57 0c.4 0 .9 0 1.63 0 1.38 0 3.41-.08 5.94-.57 2.52-.49 5.53-.81 8.94-.24 1.71.33 3.42.9 4.96 1.95a9.55 9.55 0 013.42 4.64l.08.17-.16-.09a7.73 7.73 0 00-2.44-.65c-2.12-.16-4.15.5-6.02 1.06a53.02 53.02 0 00-5.37 2.2c-.81.4-1.63.73-2.44 1.14-.81.32-1.63.65-2.36.9-1.62.4-3.17.4-4.55.16a9.83 9.83 0 01-3.5-1.3 7.55 7.55 0 01-1.95-2.04 5.31 5.31 0 01-.73-1.63c-.08-.4-.17-.65-.17-.65.09 0 .09.9.9 2.2.4.65 1.06 1.38 1.95 2.03a8.5 8.5 0 003.5 1.3c1.38.17 2.93.17 4.47-.16a9.34 9.34 0 002.36-.9c.81-.32 1.63-.72 2.44-1.13a40.95 40.95 0 015.37-2.2c1.87-.65 3.9-1.22 6.1-1.06.9.08 1.79.33 2.52.65l-.08.08a8.85 8.85 0 00-3.34-4.47 11.04 11.04 0 00-4.88-1.96 24.3 24.3 0 00-8.86.25c-2.52.49-4.56.57-5.94.57-1.54-.25-2.36-.25-2.36-.25z"/><path fill="#FAFAFA" d="M420.98 178.67s-.08-.16-.16-.4a15.5 15.5 0 01-.49-4.64c.08-1.39.4-2.6.73-3.5.17-.41.33-.74.4-.98a.88.88 0 01.17-.33s-.24.5-.49 1.39c-.24.9-.57 2.11-.65 3.42a15.25 15.25 0 00.5 5.04zM427.98 173.95s.08.25.16.65c.08.41.16.98.32 1.63.33 1.3.65 2.28.65 2.28s-.16-.24-.24-.65c-.16-.4-.32-.98-.49-1.63-.16-.65-.24-1.22-.32-1.63-.08-.4-.08-.65-.08-.65zM427 171.18c.08 0 0 .57.08 1.3.08.74.16 1.3.16 1.3-.08 0-.24-.56-.32-1.3-.08-.73 0-1.3.08-1.3zM428.7 168.34c.09 0-.15.56-.32 1.22-.16.65-.08 1.22-.16 1.22s-.16-.57 0-1.3a3 3 0 01.49-1.14zM434.32 169.88s-.33-.32-.49-.97c-.16-.57 0-1.14 0-1.06.08 0 0 .49.16 1.06.17.56.41.97.33.97zM438.71 174.44s-.24-.24-.49-.65c-.24-.4-.57-.98-.9-1.71-.32-.65-.48-1.3-.64-1.8-.08-.48-.16-.8-.16-.8s.08.32.24.73c.16.49.32 1.14.65 1.79.33.65.57 1.3.81 1.7.33.5.5.74.5.74zM439.93 168.58c0 .08-.08.16-.24.32a1.4 1.4 0 00-.25.33c-.08 0 0-.24.17-.49.08-.16.32-.24.32-.16z"/><path fill="#FAFAFA" d="M446.36 174.6s-.08-.08-.25-.24c-.16-.16-.4-.33-.73-.57-.65-.4-1.7-.9-3.09-1.06-1.38-.16-3.09 0-4.8.49-1.79.57-3.58 1.46-5.53 2.28-1.95.9-3.9 1.54-5.7 1.63-1.86.16-3.49-.09-4.87-.41a11.54 11.54 0 01-3.1-1.22 2.82 2.82 0 01-.73-.49c-.16-.08-.24-.16-.24-.16s.08.08.25.16c.16.08.4.24.8.4.66.33 1.72.82 3.1 1.23 1.3.32 3 .57 4.8.4 1.87-.16 3.74-.8 5.7-1.62 1.94-.82 3.73-1.71 5.52-2.28 1.8-.57 3.42-.73 4.8-.5 1.38.17 2.44.66 3.1 1.15.72.49.97.81.97.81zM432.77 170.78s-.16.08-.56.24c-.41.16-.9.4-1.63.57a15.1 15.1 0 01-5.53.9c-2.2 0-4.15-.57-5.53-.9-1.39-.4-2.2-.73-2.2-.73s.25.08.57.16c.49.16 1.06.33 1.63.49 1.38.4 3.33.9 5.53.9s4.15-.41 5.53-.9c.65-.24 1.22-.4 1.63-.57.4-.08.56-.16.56-.16zM441.07 169.88s-.08-.08-.16-.16c-.17-.08-.33-.25-.57-.33-.49-.24-1.3-.65-2.36-.81a13.46 13.46 0 00-3.66-.08c-1.38.16-2.85.4-4.47.73-3.18.65-6.1.49-8.14.25-2.11-.33-3.33-.57-3.33-.57s.32.08.9.16c.56.08 1.38.24 2.43.4 2.04.25 4.96.41 8.14-.24 1.54-.32 3.09-.57 4.47-.73 1.38-.16 2.6-.08 3.66.16 1.06.16 1.79.57 2.36.81.49.25.73.41.73.41z"/><path fill="#263238" d="M446.2 174.2c-.09.08-.66-1.14-2.2-2.45a9.73 9.73 0 00-3.17-1.7 8.47 8.47 0 00-4.31-.25c-1.55.24-2.85.98-4.07 1.63-1.14.65-2.2 1.38-3.17 1.79-.98.49-1.8.73-2.36.81-.33.09-.49.09-.65.09-.16 0-.25 0-.25 0 0-.09 1.3-.09 3.1-1.15.89-.48 1.95-1.13 3.08-1.87 1.14-.73 2.6-1.46 4.15-1.7 1.63-.25 3.17-.09 4.48.32a9.02 9.02 0 014.8 3.66c.48.49.56.82.56.82z"/><path fill="#263238" d="M434.89 170.04c0 .09-2.12.9-4.96 1.14-2.85.25-5.13-.24-5.05-.4 0-.17 2.28.16 5.05 0 2.76-.25 4.88-.9 4.96-.74z"/><path fill="#FAFAFA" d="M430.82 167.52c-.16-.08-.4-.16-.9-.4-.56-.25-1.46-.66-2.68-1.06a33.79 33.79 0 00-10.24-2.12c-2.2-.08-4.64.16-7.16.9a16.63 16.63 0 00-7.08 4.15c-2.11 2.03-3.9 4.55-6.34 6.67a10.5 10.5 0 01-4.31 2.28c-1.63.4-3.34.25-4.96-.32a12.98 12.98 0 01-4.4-2.45 22.46 22.46 0 01-3.33-3.5c-1.95-2.52-3.5-5.2-5.29-7.57a41 41 0 00-5.6-6.1 21.68 21.68 0 00-6.1-3.83 17.03 17.03 0 00-10.26-1.06c-1.22.25-2.11.65-2.68.9-.49.24-.73.32-.9.4.17-.08.41-.24.9-.48.57-.25 1.46-.65 2.68-.9a17.8 17.8 0 0110.33.98c2.04.81 4.15 2.12 6.18 3.83a33.8 33.8 0 015.62 6.1c1.78 2.36 3.33 5.05 5.28 7.57a22.46 22.46 0 003.34 3.5 15.1 15.1 0 004.3 2.44c1.63.49 3.34.65 4.89.33 1.62-.4 3-1.22 4.23-2.28 2.44-2.04 4.23-4.64 6.34-6.68a16.54 16.54 0 017.16-4.15 22.7 22.7 0 017.16-.9c4.47.17 7.88 1.3 10.24 2.12 2.36 1.06 3.58 1.63 3.58 1.63z"/><path fill="#FAFAFA" d="M390.97 169.88s-.49.08-1.3-.08a7.68 7.68 0 01-3.26-1.3 14.41 14.41 0 01-3.57-3.75c-1.14-1.62-2.28-3.41-3.75-5.13a31.77 31.77 0 00-9.02-7.16c-1.3-.73-2.44-1.14-3.18-1.46-.8-.33-1.22-.5-1.22-.5s.41.17 1.22.42c.74.32 1.88.73 3.18 1.46 2.6 1.38 6.1 3.75 9.02 7.16 1.47 1.71 2.6 3.59 3.75 5.13a14.42 14.42 0 003.57 3.75 9.09 9.09 0 003.18 1.38c.4.08.73.08.97.08.25 0 .4 0 .4 0zM428.38 163.04s-.08-.08-.24-.16c-.16-.08-.4-.24-.73-.4-.65-.33-1.55-.82-2.69-1.3a23.02 23.02 0 00-9.6-1.72 22.96 22.96 0 00-9.51 2.36 21.28 21.28 0 00-2.6 1.47c-.33.16-.5.32-.65.4-.17.09-.25.17-.25.17s.33-.25.9-.65a23.92 23.92 0 0112.12-3.83 24.44 24.44 0 0112.36 3.1c.57.32.9.56.9.56z"/><path fill="#FAFAFA" d="M411.87 166.7s-.08-.07-.08-.32a6.5 6.5 0 01-.24-.9c-.25-.73-.65-1.7-1.14-2.76a14.62 14.62 0 00-1.55-2.6c-.24-.33-.4-.58-.57-.74-.16-.16-.16-.24-.16-.24s.33.32.81.97c.5.65 1.06 1.55 1.55 2.6.49 1.07.9 2.04 1.14 2.78.16.73.24 1.22.24 1.22zM420.5 159.14s.07.49.07 1.22 0 1.79-.16 2.85c-.16 1.14-.4 2.11-.65 2.76-.24.74-.4 1.14-.4 1.14s0-.08.08-.32c.08-.25.16-.57.24-.81.16-.74.4-1.72.57-2.77.16-1.14.24-2.12.24-2.85 0-.33 0-.57 0-.9 0-.24 0-.32 0-.32zM401.79 172.9s-.41-.17-.98-.58c-.57-.4-1.3-.97-2.11-1.79a11.45 11.45 0 01-1.71-2.11c-.4-.57-.57-.98-.57-.98s.08.08.16.24c.08.17.25.41.49.66.4.56.98 1.3 1.79 2.03.73.73 1.46 1.38 2.03 1.8.25.24.49.4.65.48.16.16.25.24.25.24zM389.18 170.37s-.08-.33-.16-.81a8.65 8.65 0 01-.08-2.12c.08-.81.24-1.55.32-2.03.16-.5.33-.82.33-.82s0 .08-.08.25c-.09.16-.09.32-.17.56a10.66 10.66 0 00-.24 4.16c0 .24.08.48.08.65 0 .08 0 .16 0 .16zM389.18 180.95s-.24-.49-.57-1.3c-.32-.81-.73-2.03-.98-3.34-.24-1.38-.32-2.6-.4-3.5 0-.9.08-1.46.08-1.46s0 .16 0 .4c0 .25 0 .66 0 1.06 0 .9.16 2.12.4 3.5.25 1.3.66 2.53.98 3.34.16.4.33.73.4.98 0 .16.09.32.09.32zM398.7 163.94s0 .32.16.65a6 6 0 00.32.57s-.24-.16-.4-.57c-.08-.33-.08-.65-.08-.65zM382.84 160.93s-.17.08-.5.32c-.32.17-.8.5-1.46.82a24.9 24.9 0 00-4.3 3.25 25.94 25.94 0 00-3.67 4c-.4.56-.73.97-.97 1.3-.25.32-.33.48-.33.48s.4-.73 1.22-1.87c.81-1.14 2.12-2.6 3.66-3.99a30.07 30.07 0 014.4-3.25c1.13-.74 1.95-1.06 1.95-1.06zM373.08 152.79s-.17.08-.5.16c-.32.08-.8.16-1.38.33a25.2 25.2 0 00-4.39 1.62c-1.62.74-3.09 1.63-4.06 2.28-.5.33-.9.66-1.14.82-.25.16-.4.32-.4.32s.56-.48 1.54-1.14a39.3 39.3 0 014.06-2.36c1.71-.73 3.26-1.3 4.4-1.63 1.13-.32 1.87-.4 1.87-.4zM439.44 167.11s0 .25-.08.5c-.08.24-.16.48-.16.48s0-.24.08-.49c.08-.24.16-.49.16-.49z"/><path fill="#FFBE9D" d="M476.37 166.79s3.66.73 5.2 1.14c.5.08 1.06 0 1.55.16 2.52.4 5.86.25 6.75-.08 1.55-.57 1.63 1.38-.08 2.28-1.7.81-2.69.98-2.69.98l4.07 3.25c.25.16.33.4.4.65l1.07 7.17c.08.57-.25 1.22-.82 1.38-.32.08-.57.08-.81-.24l.08.97c.16 1.63-2.2 2.04-2.52.4 0 0 0 0 0-.07l-1.38.81s-.98.98-1.96-.4c-.8-1.15-3.33-5.62-3.33-5.62s-10.74-4.56-10.57-6.35l5.04-6.43z"/><path fill="#EB996E" d="M488.73 184.7c-.08 0-.16-.66-.32-1.71-.17-1.06-.5-2.53-.66-4.15-.16-.82-.32-1.63-.48-2.2-.08-.33-.33-.49-.57-.65-.25-.17-.49-.33-.73-.5a6.95 6.95 0 01-1.47-1.05c0-.08.65.24 1.55.73.24.17.49.25.81.41.33.16.57.4.73.81.25.74.4 1.47.57 2.28.25 1.63.49 3.1.57 4.24.08 1.13 0 1.79 0 1.79zM491.09 183.31c-.16 0-.4-2.6-1.06-5.7-.16-.73-.32-1.54-.65-2.03-.49-.49-.9-.9-1.3-1.22a15 15 0 00-.97-.73c-.25-.17-.41-.17-.41-.25 0 0 .16-.08.49.08.32.08.65.33 1.13.66.41.32.9.73 1.47 1.22.49.65.65 1.38.81 2.2.33 1.54.49 3 .65 4.06-.16 1.06-.16 1.71-.16 1.71zM482.3 176.56c0-.09.58.24 1.39.65.24.16.49.24.65.4.24.17.57.25.73.57.25.25.33.66.49.98.08.33.24.65.32 1.06.9 2.77 1.47 5.05 1.39 5.13-.08 0-.9-2.2-1.71-4.97-.08-.32-.24-.65-.33-.97-.08-.33-.16-.66-.32-.82-.16-.24-.4-.32-.65-.49-.25-.16-.4-.24-.65-.4-.82-.82-1.3-1.14-1.3-1.14zM482.55 168.82c.08-.16 1.55.41 3.25 1.39 1.71.97 2.93 2.03 2.85 2.11-.08.09-1.38-.81-3.1-1.7-.72-.41-1.37-.82-2.19-1.23-.4-.4-.81-.57-.81-.57z"/></svg>