<svg xmlns="http://www.w3.org/2000/svg" width="631" height="516" fill="none"><path fill="#FC9365" d="M598.61 101.34c-30.07-23.84-71.2-28.17-106.33-14.96-46.6 17.65-81.01 62.13-126.27 83.59a141.55 141.55 0 01-101.68 7.53c-16.23-4.95-32.04-13-48.88-13.51-14.88-.52-29.66 5.05-42.37 13.72-37.3 25.39-56.1 79.57-43.5 125.7 6.72 24.66 21.18 46.13 38.03 64.19 34.82 37.15 81.01 61.3 129.27 67.6 26.97 3.5 54.25 1.65 81.11-2.69 58.49-9.39 116.05-30.65 164.3-68.21 57.66-45 114.8-123.43 93.21-205.17-6.1-23-19.22-43.75-36.89-57.79zM146.73 167.39c1.86-4.85 3.52-10.94.31-14.96a8.73 8.73 0 00-4.65-2.79c-8.47-2.27-16.74 4.23-22.63 11.25a100.48 100.48 0 00-13.84 21.67c-1.86 4.03-3.52 8.26-3.93 12.8-.41 4.54.62 9.29 3.51 12.59 19.22 21.88 35.96-27.14 41.23-40.56z"/><path fill="#E27A80" d="M178.46 103.51v-1.24c-2.69 0-5.38-.82-7.75-2.17l-.62 1.04a18.61 18.61 0 008.37 2.37zm8.47-2.06a17.53 17.53 0 006.3-5.99l-1.03-.62a16.62 16.62 0 01-5.79 5.57l.52 1.04zm-22.84-6.5l1.04-.63a15.79 15.79 0 01-2.07-7.74c0-.3 0-.61 0-1.03l-1.24-.1c0 .3 0 .72 0 1.03.1 3.1.83 5.99 2.27 8.46zm31.52-7.75c0-.2 0-.3 0-.51 0-2.79-.72-5.47-1.96-7.85l-1.04.52a16.39 16.39 0 011.86 7.33c0 .2 0 .3 0 .51h1.14zm-29.97-9.18a15.07 15.07 0 016-5.37l-.52-1.03a16.45 16.45 0 00-6.4 5.78l.92.62zm21.5-4.54l.62-1.03a16.6 16.6 0 00-8.27-2.58l-.1 1.23c2.79.1 5.47.93 7.75 2.38z"/><path fill="#F2A5A9" d="M56.73 317.34c2.9-.2 5.68-1.03 8.27-2.37l-.52-1.04a20.38 20.38 0 01-7.75 2.27v1.14zm-8.58-1.13l.42-1.14a18.46 18.46 0 01-6.93-4.23l-.82.93a19.72 19.72 0 007.33 4.44zm23.46-6.82a19.73 19.73 0 003.82-7.63l-1.13-.31a20.67 20.67 0 01-3.62 7.22l.93.72zm-35.86-4.64l1.14-.52a18.9 18.9 0 01-1.65-7.94H34c0 2.99.62 5.78 1.75 8.46zm-.41-10.63a20.62 20.62 0 012.48-7.74l-1.03-.62a21.1 21.1 0 00-2.69 8.15l1.24.21zm39.37-.83l1.24-.2a20.56 20.56 0 00-3-8.05l-1.03.62a20.66 20.66 0 012.79 7.63zM43.3 280.4a19.12 19.12 0 017.33-3.4l-.3-1.14a20.9 20.9 0 00-7.86 3.62l.83.92zm22.94-.51l.72-1.03a20.08 20.08 0 00-7.96-3.3l-.2 1.13a21.7 21.7 0 017.44 3.2zM210.7 70.38c0 4.03 3.2 7.23 7.23 7.23s7.23-3.2 7.23-7.23c0-4.02-3.2-7.22-7.23-7.22a7.25 7.25 0 00-7.23 7.22zM72.23 277.3a4.85 4.85 0 110-9.7 4.85 4.85 0 010 9.7zM484.01 75.85a4.19 4.19 0 004.24 4.23 4.19 4.19 0 004.24-4.23 4.19 4.19 0 00-4.24-4.23 4.19 4.19 0 00-4.24 4.23z"/><path fill="#DA2526" d="M539.3 215.69c8.47-5.16 13.64 4.95 13.74 4.95 0-.1 5.27-10.21 13.74-4.95 9.72 5.98.21 24.77-13.74 29.3-13.95-4.53-23.46-23.32-13.74-29.3zM167.3 184.83h40.3a4.85 4.85 0 014.85 4.85v26a4.85 4.85 0 01-4.85 4.86H195.6l-3.82 6.6-4.34 7.54-4.34-7.54-3.83-6.6H167.3a4.85 4.85 0 01-4.86-4.85v-26a4.85 4.85 0 014.86-4.86z"/><path fill="#fff" d="M190.65 214.24c-3.51.42-7.03.42-10.54.1-.83-.1-1.76-.2-2.48-.61-.72-.42-1.24-1.24-1.03-2.07-.62 0-1.14-.51-1.66-.93-.2-.2-.41-.4-.51-.61-.1-.31-.1-.62-.1-.93 0-.93.5-1.86 1.34-2.27a2.62 2.62 0 01-1.66-1.66c-.2-.72-.1-1.65.42-2.27.3-.4.72-.62 1.24-.82-.31-.31-.83-.41-1.14-.83-.41-.51-.2-1.34.3-1.75a2.8 2.8 0 011.77-.62c1.13-.1 2.37 0 3.5.1 1.15.1 2.49-.2 3.52-.72.21-1.55-.1-3.1.31-4.64a4.74 4.74 0 014.14-3.4c.41 0 .82 0 1.03.3.2.2.2.52.2.72 0 1.24-.4 2.48-.72 3.61a4.81 4.81 0 00.31 3.62c.31.41.62.72.93 1.13.31.62.31 1.34.42 1.96.2.62.62 1.34 1.34 1.24l-.93 11.35z"/><path fill="#000" d="M191.27 215.48h4.13c.31 0 .62-.3.62-.62v-14.55c0-.3-.3-.62-.62-.62h-4.13c-.31 0-.62.31-.62.62v14.55c0 .41.31.62.62.62z"/><path fill="#fff" d="M192.82 201.76c0 .3.31.62.62.62s.62-.31.62-.62a.67.67 0 00-.62-.62c-.31 0-.62.3-.62.62z"/><path fill="#CC6F49" d="M188.48 430.34h11.78c-.93 7.23-1.65 12.7-1.96 15.07 0 0 8.16 5.57 13.74 4.85.31 0 .62.1.83.31.2.31.41.93-.1 1.55-.21.2-.42.3-.63.3h-22.11c-.83 0-1.55-.61-1.65-1.44-.1-.93-.21-3.2.41-5.26l-.31-15.38z"/><path fill="#000" d="M201.4 447.37s-1.97 1.24-2.28 2.58c-.1.72-2.27.52-4.34.31a14.95 14.95 0 01-5.78-2.37c-.31-.2-.62-.41-.83-.31-.72.1-.72 4.75.2 5.16.83.3 21.09.1 24.29 0 .2 0 .41-.2.41-.42 0-.82-.1-2.26-1.34-2.47-1.45-.41-10.33-2.48-10.33-2.48z"/><path fill="#CC6F49" d="M161.51 430.34h11.78l-2.9 15.38c.21 2.06-.2 4.33-.51 5.26-.31.83-1.03 1.45-1.86 1.45h-18.4c0-.83 0-1.55 0-2.38 5.17-.92 11.37-4.64 11.37-4.64-.1-2.37.1-7.84.52-15.07z"/><path fill="#000" d="M157.17 447.37s1.96 1.24 2.27 2.58c.1.72 2.28.52 4.34.31 2.07-.3 4.03-1.24 5.79-2.37.31-.2.62-.41.83-.31.72.1.72 4.75-.21 5.16-.83.3-21.08.1-24.28 0-.21 0-.42-.2-.42-.42 0-.82.1-2.26 1.35-2.47 1.44-.41 10.33-2.48 10.33-2.48z"/><path fill="#F57F1F" d="M202.43 292.99s6.82 6.19 6.2 11.24c-.62 5.06-5.17 20.23-3.82 30.65 1.44 10.43 4.65 19.4 3.82 30.45-.83 11.04-7.65 72.13-7.65 72.13s-15.5-5.15-20.87-2.78c-5.37 2.37-20.25 4.44-22.32 3.61 0 0 3.41-82.35 14.67-97.83 0 0 1.97-22.2 0-27.14-1.96-4.96.42-18.68 5.38-20.33 5.16-1.55 24.59 0 24.59 0z"/><path fill="#121B46" d="M197.47 300.62c-3.82-.51-7.54-.93-11.26-1.55a85.66 85.66 0 01-5.48-1.13c-1.86-.41-3.62-1.03-5.48-1.55 3.2 2.06 7.03 3.2 10.75 3.92 1.86.31 3.82.52 5.68.62 1.97 0 3.93 0 5.79-.3zM193.23 398.87c-2.58-3.2-5.27-6.3-7.64-9.6-2.48-3.2-4.76-6.6-7.13-10.01a48.38 48.38 0 006.2 10.73c2.48 3.3 5.27 6.4 8.57 8.88zM185.28 397.32a20.76 20.76 0 00-2.28-4.85 18.7 18.7 0 00-3.3-4.23 20.8 20.8 0 002.27 4.85c1.03 1.44 1.96 3 3.3 4.23z"/><path fill="#CC6F49" d="M184.97 336.12c-.1-.93 6.2-2.58 5.99-3.3-.2-.62-1.86-.82-2.69-.72-.2 0-.3-.1-.3-.31 0-.31.2-.83 1.13-.93 1.14-.1 3.41-.31 6 .51.3-.2 3.1-1.65 7.23-4.02.72 2.48 1.44 4.95 2.37 7.33-2.79.51-5.58.93-8.47 1.13-1.55 1.45-5.27 4.75-7.34 5.47-.2.1-.3-.1-.2-.3.1-.32.62-1.04 2.06-2.17 0 0-3.72 1.54-4.34 1.23-.62-.3 3.72-2.89 3.72-2.89s-4.34 1.35-4.75.83c-.41-.52 4.24-2.58 4.24-2.58s-4.55 1.03-4.65.72z"/><path fill="#F57F1F" d="M204.6 294.95s8.68 8.87 13.64 15.79c4.96 6.91 5.89 10.73 4.75 15.06-1.24 4.34-8.68 6.81-10.95 7.54-2.17.72-13.02 2.68-13.02 2.68l-1.76-6.4 12.5-7.22-12.8-18.48 7.64-8.97z"/><path fill="#121B46" d="M214.31 320.75c-.82 0-1.65.2-2.48.4-.82.22-1.55.52-2.27.83l.72.83c.52-.93.93-1.86 1.14-3-.93.73-1.55 1.56-2.17 2.38l-.93 1.44 1.65-.61c.73-.31 1.55-.52 2.28-.93.72-.42 1.44-.83 2.06-1.34zM203.26 315.28a10.12 10.12 0 00-2.17-2.9 9.1 9.1 0 00-3-2.06 10.12 10.12 0 002.17 2.9c.93.82 1.86 1.54 3 2.06z"/><path fill="#DFDFDF" d="M171.02 339.63h37.92v-22.7c0-.93-.72-1.76-1.76-1.76h-34.51c-.93 0-1.76.72-1.76 1.76v22.7h.1z"/><path fill="#A1B0CF" d="M171.02 339.32h37.92v2.79h-37.92v-2.79z"/><path fill="#fff" d="M186.52 328.49c0 1.85 1.55 3.4 3.4 3.4a3.44 3.44 0 003.42-3.4c0-1.86-1.55-3.41-3.41-3.41a3.37 3.37 0 00-3.41 3.4z"/><path fill="#CC6F49" d="M168.74 334.57l.62-.82c.21 0 .31.1.42.1.2-.1.51-.3.72-.41.2.41.31.62.41.72a15.5 15.5 0 015.27 2.9c.73.5.62 1.13.42 1.44-.1.2-.31.2-.42.1-.72-.52-2.17-1.14-2.68-.83-.52.42 3.82 5.27 3.2 5.99-.2.3-3.41-3.1-3.41-3.1s2.79 4.23 2.07 4.44c-.62.1-3.52-3.3-3.52-3.3s2.28 4.64 1.55 4.44c-.72-.1-2.89-3.4-2.89-3.4.62 1.75.62 2.57.52 2.98 0 .21-.21.21-.31.1-1.35-1.65-2.69-6.5-3.2-8.56-.52-.41-.94-.72-1.45-1.13.93-.62 1.86-1.14 2.68-1.66z"/><path fill="#F57F1F" d="M176.39 294.33s-3.41 1.44-5.27 2.58c-1.86 1.23-19.84 16.5-20.05 20.95-.2 4.43 15.71 19.81 15.71 19.81l4.13-4.13-6.4-13.41 17.36-16.1-5.48-9.7z"/><path fill="#121B46" d="M162.23 317.13c.1.62.42 1.24.73 1.76.3.51.62 1.03 1.03 1.55l.93 1.13.1-1.44c0-.52 0-1.04 0-1.45 0-.51-.1-1.03-.3-1.55-.32.52-.42.93-.63 1.45-.1.51-.2.93-.3 1.44l1.03-.3a7.78 7.78 0 00-2.59-2.59zM169.98 332.82a6.1 6.1 0 00-2.48 1.13 4.94 4.94 0 00-1.75 2.07 6.1 6.1 0 002.48-1.14 4.96 4.96 0 001.75-2.06zM172.46 312.8l5.9-3.2-5.38 5.26-.52-2.06z"/><path fill="#CC6F49" d="M176.8 274.51c.31-1.03 1.45-1.86 2.59-1.65-.52-14.45 11.57-12.59 11.57-12.59 7.54.62 8.47 8.67 8.37 12.8.2-.1.52-.2.62-.31 1.14-.31 2.27.51 2.58 1.65.31.82.1 1.75-.41 2.48a4.04 4.04 0 01-1.76 1.44c-.2.1-.82.2-1.34.1-1.14 9.5-9.82 8.57-9.82 8.57-7.44.41-9.4-4.85-9.81-8.57-.31 0-.52-.1-.62-.1a4.04 4.04 0 01-1.76-1.44 3.1 3.1 0 01-.2-2.38z"/><path fill="#C4533A" d="M183.31 280.6a2.48 2.48 0 110-4.96 2.48 2.48 0 010 4.96zM195.4 280.6a2.48 2.48 0 110-4.96 2.48 2.48 0 010 4.96z"/><path fill="#121B46" d="M186.31 274.93c-.4 0-.72-.65-.72-1.45 0-.8.32-1.44.72-1.44.4 0 .72.64.72 1.44 0 .8-.32 1.44-.72 1.44z"/><path fill="#121B46" d="M184.86 271.52c.1.2.31.41.52.62.2.2.41.3.72.41.1 0 .31-.1.31-.2s-.1-.31-.2-.31c0 0 0 0-.1 0-.42 0-.83-.21-1.14-.62 0 0-.1 0-.1.1zM192.4 274.93c-.4 0-.72-.65-.72-1.45 0-.8.33-1.44.73-1.44.4 0 .72.64.72 1.44 0 .8-.32 1.44-.72 1.44z"/><path fill="#121B46" d="M193.65 271.42c-.31.3-.73.62-1.14.62-.1 0-.31.1-.31.2s.1.31.2.31c0 0 0 0 .11 0 .31-.1.52-.2.72-.41.21-.2.31-.41.52-.62v-.1s-.1 0-.1 0zM186.72 277.81c.21.52.62.93 1.04 1.24.41.31 1.03.52 1.55.52.62 0 1.13-.2 1.55-.52.2-.1.41-.3.62-.51.2-.2.3-.42.51-.62-.2.2-.41.3-.62.51-.2.1-.41.31-.62.42-.41.2-.93.41-1.34.41-.52 0-.93-.1-1.34-.41a8.86 8.86 0 01-1.35-1.04zM188.58 280.3c.21.2.52.2.73.2.3 0 .51-.1.72-.2-.31 0-.52.1-.72.1-.21 0-.42 0-.73-.1zM191.06 268.42c.31-.3.73-.4 1.14-.4.41 0 .83 0 1.14.2.41.1.72.3 1.03.62.31.2.52.62.72.93.1.2 0 .4-.1.4-.1.11-.31 0-.41 0-.21-.2-.42-.4-.73-.5-.2-.22-.51-.21-.72-.32-.31-.1-.52-.1-.83-.1-.3 0-.62 0-.93 0h-.1c-.2 0-.31-.2-.31-.41 0-.31.1-.31.1-.42zM187.55 268.42a1.55 1.55 0 00-1.14-.4c-.41 0-.82 0-1.13.2-.42.1-.73.3-1.04.62-.3.2-.51.62-.72.93-.1.2 0 .4.1.4.1.11.31 0 .42 0 .2-.2.41-.4.72-.5.2-.22.52-.21.72-.32.31-.1.52-.1.83-.1.31 0 .62 0 .93 0h.1c.21 0 .31-.2.21-.41.1-.31.1-.31 0-.42zM189.2 271.21c-.1.52-.2 1.03-.3 1.65-.11.52-.21 1.03-.32 1.55 0 .1-.1.2-.1.41 0 .1-.1.31-.1.42 0 .3.2.72.51.82.31.2.62.1.93 0 .31-.1.52-.2.73-.41-.52.2-1.14.3-1.45.1-.2-.1-.31-.3-.2-.51 0-.1 0-.21.1-.31s.1-.31.1-.42c.1-.51.2-1.13.3-1.65-.2-.51-.2-1.03-.2-1.65zM201.7 275.34c0-.31-.1-.72-.4-.93-.32-.2-.73-.2-1.04-.1-.31.1-.62.4-.83.62-.2.3-.41.61-.51.92 0 .1 0 .31.1.31s.2 0 .31-.1c.2-.2.52-.52.83-.62.1 0 .2 0 .3 0 .11.1.21.2.21.41.1.31.21.73-.1.83-.31.2-.72.1-1.03.1.3.1.72.31 1.13.2.21-.1.42-.3.42-.5 0-.21 0-.42-.1-.63-.11-.2-.11-.4-.32-.62a.64.64 0 00-.72-.1c-.41.1-.72.41-1.03.72l.41.21c.2-.52.62-1.13 1.14-1.34.3-.1.62-.2.82 0 .1 0 .31.3.42.62zM177.32 275.34c0-.31.1-.72.41-.93.31-.2.73-.2 1.04-.1.3.1.62.4.82.62.21.3.42.61.52.92 0 .1 0 .31-.1.31s-.21 0-.31-.1c-.21-.2-.52-.52-.83-.62-.1 0-.2 0-.31 0-.1.1-.2.2-.2.41-.11.31-.21.73.1.83.3.2.72.1 1.03.1-.31.1-.72.31-1.14.2-.2-.1-.41-.3-.41-.5 0-.21 0-.42.1-.63.1-.2.1-.4.31-.62.21-.2.52-.2.73-.1.41.1.72.41 1.03.72l-.41.21c-.21-.52-.62-1.13-1.14-1.34-.31-.1-.62-.2-.83 0-.1 0-.3.3-.41.62z"/><path fill="#121B46" d="M174.74 294.33h.1a5.3 5.3 0 003.62-6.3c-.93-4.85-2.48-13.41-2.28-15.9.42-3.4 2.69-13.1 11.78-13.82 9-.72 14.57 5.26 15.6 14.04 1.14 8.66-1.75 18.16-1.75 18.16.1 1.34 4.65 5.67 6.1 7.02.2.2.1.4-.1.51-13.65 4.34-29.25-1.44-33.07-3.1-.31-.2-.31-.51 0-.61zm14.57-7.74c5.27 0 9.5-4.96 9.5-10.94 0-6.1-4.23-10.94-9.5-10.94s-9.51 4.95-9.51 10.94c.1 5.98 4.34 10.94 9.5 10.94z"/><path fill="#fff" d="M206.25 297.42c-4.03-1.44-7.95-3.1-11.67-4.95a42.02 42.02 0 01-5.48-3.2 35.83 35.83 0 01-4.86-4.02 19.07 19.07 0 004.34 4.74 33.12 33.12 0 005.48 3.51c1.96.93 3.93 1.75 6 2.48a38.7 38.7 0 006.2 1.44zM195.2 285.04a8.76 8.76 0 003.3-2.17c.93-.93 1.76-2.06 2.28-3.3.51-1.24.82-2.58.72-3.92a12.68 12.68 0 00-.72-3.82c0 .62 0 1.34 0 1.96-.1.62 0 1.24-.21 1.86l-.1.93-.21.93c-.1.3-.2.61-.31.92a14.3 14.3 0 01-2.17 4.02c-.72.83-1.55 1.76-2.58 2.59zM196.95 268.94s-7.95-3.61-15.19 0c0 0 7.34-11.77 15.2 0z"/><path fill="#DFDFDF" d="M265.46 452.84h191.48c11.68 0 21.08-9.39 21.08-21.05V107.12c0-11.66-9.4-21.05-21.08-21.05H265.46a21.02 21.02 0 00-21.08 21.05V431.8c0 11.56 9.4 21.05 21.08 21.05z"/><path fill="#ADADAD" d="M334.08 94.84h54.14v4.03h-54.14v-4.03zM335.52 432.4h51.36v10.43h-51.36v-10.42z"/><path fill="#fff" d="M249.96 109.7h222.38v316H249.96v-316z"/><path fill="#000" d="M249.96 109.7h222.38v12.08H249.96V109.7z"/><path fill="#DA2526" d="M452.6 342.52a8.88 8.88 0 11-.01-17.76 8.88 8.88 0 01.01 17.76zM452.6 416.82a8.88 8.88 0 11-.01-17.76 8.88 8.88 0 01.01 17.76zM427.9 342.52a8.88 8.88 0 110-17.76 8.88 8.88 0 010 17.76z"/><path fill="#EDAEB1" d="M366.42 326.73h47.53v4.64h-47.53v-4.64zM262.47 348.4h197.47v4.65H262.47v-4.65zM262.47 357.8h197.47v4.64H262.47v-4.65zM412.4 367.19h47.54v4.64H412.4v-4.64zM392.46 400.62h47.53v4.65h-47.53v-4.65z"/><path fill="#DA2526" d="M443.96 166.29a8.87 8.87 0 1117.27-4.1 8.87 8.87 0 01-17.27 4.1z"/><path fill="#EAA0A3" d="M392.46 156.86h47.53v4.65h-47.53v-4.65z"/><path fill="#EDAEB1" d="M337.28 335.4h76.67v4.64h-76.67v-4.64z"/><path fill="#DA2526" d="M249.96 176.27h222.38v144.27H249.96V176.27z"/><path fill="#EA575F" d="M311.65 333.44c7.13 0 14.37-3.3 20.05-5.88 7.44-3.4 12.2-12.6 10.64-20.64-1.03-5.47-5.16-10.22-10.12-11.56-.52-.1-1.04-.31-1.66-.41-.82-.21-1.65-.31-2.37-.62-2.8-1.14-4.96-3.93-5.79-7.54-.72-3.1-.52-6.5-.31-9.7v-.51c.31-5.58.52-11.46-1.55-16.82-1.86-4.96-6.51-10.22-12.6-10.63-.73-.1-1.45 0-2.18 0-1.03 0-1.96 0-2.89-.1-4.44-.83-7.23-5.38-9.5-9.09-2.28-3.72-5.9-8.56-11.06-8.56-3.2.1-6.3 2.27-7.86 5.46-1.24 2.8-1.34 6.2-.3 9.6.3.93.72 1.96 1.03 2.9 1.13 2.98 2.27 5.77 1.13 8.35a11.27 11.27 0 01-2.37 3.1c-.31.4-.73.72-1.04 1.13-4.65 5.37-5.27 13.93-1.55 20.02 2.48 4.03 6.62 6.71 10.54 9.4 4.96 3.4 9.61 6.6 11.27 11.97.82 2.78.62 5.67.41 8.66-.2 2.58-.41 5.37.1 7.95 1.04 5.26 5.07 10.01 10.44 12.18 2.48.93 5.06 1.34 7.54 1.34zm-4.96-83.28c.42 0 .73 0 1.14 0 5.58.41 9.92 5.26 11.57 9.9 1.97 5.16 1.76 10.94 1.45 16.31v.52c-.2 3.3-.41 6.7.31 10.1.93 4.03 3.41 7.13 6.51 8.37.83.3 1.76.51 2.58.72.52.1 1.04.2 1.55.41 4.55 1.34 8.27 5.58 9.3 10.63 1.45 7.33-3.1 16.1-9.92 19.3-7.44 3.4-17.77 8.15-26.55 4.44-4.96-2.06-8.68-6.4-9.72-11.35-.51-2.48-.3-5.06-.1-7.64.2-3 .41-6.2-.41-9.18-1.66-5.78-6.82-9.19-11.68-12.6-3.82-2.57-7.75-5.26-10.13-9.08-3.51-5.57-2.89-13.62 1.45-18.57.31-.42.62-.73 1.03-1.03.93-1.04 1.97-2.07 2.59-3.51 1.34-3.1.1-6.3-1.14-9.3-.41-.92-.72-1.85-1.03-2.78-1.04-3.1-.93-6.3.2-8.77 1.24-2.79 4.03-4.75 6.72-4.75 4.55 0 7.96 4.54 10.02 7.95 2.38 3.92 5.38 8.77 10.34 9.6 1.03.2 2.17.2 3.2.1.1.2.41.2.72.2zM271.35 224.05a4.03 4.03 0 000-8.05 4.1 4.1 0 00-4.03 4.02c-.1 2.17 1.76 4.03 4.03 4.03zm0-6.92a2.89 2.89 0 110 5.78 2.89 2.89 0 01-2.89-2.89 2.82 2.82 0 012.9-2.89zM289.23 202.69c0 .82.72 1.54 1.55 1.54.83 0 1.55-.72 1.55-1.54 0-.83-.72-1.55-1.55-1.55-.83 0-1.55.72-1.55 1.55zM451.05 291.33a1.96 1.96 0 110-3.92 1.96 1.96 0 010 3.92zM271.66 300.1a3.7 3.7 0 003.72-3.7 3.7 3.7 0 00-3.72-3.72 3.7 3.7 0 00-3.72 3.71c-.1 1.96 1.66 3.72 3.72 3.72zm0-6.29a2.56 2.56 0 012.59 2.58 2.56 2.56 0 01-2.59 2.58 2.56 2.56 0 01-2.58-2.58 2.56 2.56 0 012.58-2.58z"/><path fill="#121B46" d="M394.53 288.86s11.67 19.2 15.08 35.91h-78.43s6-28.9 12.82-35.7l50.53-.21z"/><path fill="#fff" d="M396.39 294.53c-2.28-.1-4.55-.2-6.82-.3l-6.82-.21c-4.55-.1-9.1-.1-13.75-.1-4.54 0-9.09 0-13.74.1l-6.82.2c-2.27.1-4.55.21-6.82.31 2.27.1 4.55.2 6.82.31l6.82.2c4.55.11 9.1.11 13.74.11 4.55 0 9.1 0 13.75-.1l6.82-.2c2.27-.11 4.54-.21 6.82-.32zM388.43 294.95c.31 1.54.83 2.99 1.45 4.33a22.7 22.7 0 002.48 3.92 11.3 11.3 0 003.72 2.9c1.44.71 3.2.82 4.65.3-1.55 0-3-.41-4.24-1.13a13.84 13.84 0 01-3.2-2.8 47 47 0 01-4.86-7.52z"/><path fill="#fff" d="M364.97 294.33c-.2 3.81-.3 7.74-.41 11.56l-.1 5.77v5.99l.2.2c2.07 2.07 4.14 4.24 6.3 6.3l1.04 1.03v-1.44c-.1-4.85 0-9.8-.1-14.66-.1-4.85-.21-9.8-.42-14.65-.2 4.85-.3 9.8-.41 14.65-.1 4.86-.1 9.8-.1 14.66l1.03-.41a37432 37432 0 01-6.3-6.3l.2.41v-5.78l-.1-5.78c-.52-3.81-.72-7.63-.83-11.55zM347.2 294.53c-.2 1.45-.41 2.79-.72 4.03a10.36 10.36 0 01-1.55 3.61 7.19 7.19 0 01-2.9 2.37c-1.24.52-2.58.62-3.92.73 1.34.4 2.79.62 4.23.2a6.1 6.1 0 003.62-2.58 9.88 9.88 0 001.45-4.13c.1-1.44.1-2.88-.21-4.23z"/><path fill="#F7BB8B" d="M304.21 209.8l9.72.31s3.1 14.25 7.44 33.24c1.44-2.28 2.79-4.34 3.92-6.4 4.34 8.46 9.61 16.3 15.3 23.94a297.68 297.68 0 01-11.16 17.65c-.1.1-.1.2-.21.3-7.44 11.05-24.7 7.02-26.45-6.19 0-.1 0-.3-.1-.4-2.59-19.93-3-41.6 1.54-62.44z"/><path fill="#F28766" d="M309.9 195.46c.2-2.48.51-5.16.93-5.06.72.1 1.03 1.86 1.34 4.13-.72.31-1.45.62-2.27.93zM305.87 198.56c0-2.69.2-8.05 1.13-8.47.73-.4 1.45 3 1.97 5.89a12.87 12.87 0 00-3.1 2.58z"/><path fill="#F7BB8B" d="M299.05 195.05c.62.41 1.75 1.75 3.1 5.47 0 0-.93-8.26 0-9.5.72-.93 2.58 5.37 3.3 8.05a5.99 5.99 0 00-1.03 1.96c-.31 1.04-.41 2.07-.31 2.9-1.14 3.09.72 6.7 4.13 7.84 1.24.4 2.59.51 3.93.3 1.03.32 2.07.42 3.1.32a24.1 24.1 0 01-2.69 3.92l-6.71-1.24s-7.34-13.93-7.44-19.71c0-.42.41-.52.62-.31z"/><path fill="#121B46" d="M322.7 258.31c.11-2.48 0-5.06-.2-7.53-.1-1.24-.2-2.48-.3-3.72-.11-1.24-.32-2.48-.42-3.71l-.93.3c1.24 1.86 2.48 3.72 3.82 5.47a46.26 46.26 0 00-3-5.98l-1.13-2.06.1 2.37c.1 1.24.2 2.48.31 3.71.1 1.24.2 2.48.42 3.72.4 2.48.82 4.95 1.34 7.43z"/><path fill="#DFDFDF" d="M319.3 191.54l-11.57 21.77a2.36 2.36 0 01-2.59 1.14c-2.17-.62-5.58-1.96-6.4-4.64-1.24-4.03 9.2-24.36 9.2-24.36l11.36 6.09z"/><path fill="#D3691A" d="M331.8 163.37l3.93 1.13a2.52 2.52 0 011.76 2.79c-.52 3.5-2.07 11.35-6.62 21.67a2.43 2.43 0 01-3 1.34l-3.5-1.03 7.43-25.9z"/><path fill="#F57F1F" d="M312.48 152.84l18.5 5.57c2.68.83 2.58 9.19-.21 18.68-2.9 9.5-7.34 16.51-10.13 15.8l-18.5-5.58 10.34-34.47z"/><path fill="#FC9447" d="M302.35 168.63c-2.89 9.5-3 17.85-.2 18.68 2.68.82 7.23-6.2 10.12-15.8 2.9-9.49 3-17.84.21-18.67-2.69-.83-7.23 6.2-10.13 15.79z"/><path fill="#DFDFDF" d="M277.55 130.65l34.31 26.42-.1 2.37a50.9 50.9 0 01-8.17 25.29l-42.67.2 16.63-54.28z"/><path fill="#C4C4C4" d="M254.92 153.46c-4.54 15.17-2.58 29.1 4.34 31.16 5.38 1.66 12.2-4.43 17.05-14.24a60.68 60.68 0 005.69-18.47c1.55-11.35-.83-20.54-6.3-22.19-6.93-1.96-16.23 8.57-20.78 23.74z"/><path fill="#919191" d="M269.08 157.69c-2.79 9.4-3.1 18.37-1.34 24.35 4.75-3.92 9.4-11.66 12.3-21.05 2.78-9.39 3.1-18.37 1.34-24.35-4.76 4.02-9.4 11.66-12.3 21.05z"/><path fill="#EBEBEB" d="M268.98 150.98l-3.72 12.39 11.05 7.12A60.48 60.48 0 00282 152l-13.02-1.03z"/><path fill="#F57F1F" d="M264.33 156.25c-1.04 3.4-.62 6.6.93 7.01 1.55.52 3.61-1.96 4.65-5.36 1.03-3.41.62-6.6-.93-7.02-1.55-.41-3.72 1.96-4.65 5.37z"/><path fill="#000" d="M308.35 155c-.42 2.59-1.04 5.27-1.55 7.85a92.46 92.46 0 01-2.07 7.64 89.59 89.59 0 01-2.79 7.32 45.44 45.44 0 01-4.03 6.81 24.4 24.4 0 004.86-6.4 38.87 38.87 0 003.1-7.42 50.85 50.85 0 001.86-7.85c.41-2.58.72-5.26.62-7.94zM323.33 189.27a51.64 51.64 0 00-7.54-2.9c-2.59-.71-5.17-1.44-7.86-1.75a51.67 51.67 0 007.55 2.9c2.58.72 5.16 1.44 7.85 1.75z"/><path fill="#121B46" d="M265.88 156.35c-.1.62-.31 1.24-.31 1.86 0 .3 0 .61 0 .92 0 .21 0 .31.1.52.1.2.2.41.52.52.3.1.51 0 .72-.1.2-.11.31-.21.52-.32.2-.2.41-.51.62-.82.3-.62.62-1.24.72-1.86.1-.62.2-1.34.2-1.96 0-.31-.1-.72-.2-1.03-.1-.2-.1-.31-.2-.52-.11-.2-.32-.3-.63-.41-.3 0-.51.1-.62.2-.1.1-.2.31-.3.42-.21.3-.32.62-.42.82a4.87 4.87 0 00-.72 1.76zm0 0c.1-.62.41-1.14.72-1.76.2-.3.31-.51.52-.72.2-.2.51-.3.62-.2.1 0 .1.3.2.51 0 .31 0 .52 0 .83-.1.51-.2 1.13-.3 1.65a10.07 10.07 0 01-.83 2.37c-.1.2-.31.41-.42.41-.1 0-.3-.2-.41-.51-.1-.31-.2-.62-.2-.93-.11-.41-.11-1.03.1-1.65z"/><path fill="#000" d="M274.66 130.96a21 21 0 00-7.54 3.51 16.42 16.42 0 00-3 3c-.93 1.13-1.55 2.26-2.38 3.5a67.64 67.64 0 00-6.82 15.28 54.7 54.7 0 00-1.86 8.15 29.05 29.05 0 000 8.46c.52 2.79 1.24 5.47 2.9 7.95a7.65 7.65 0 003.3 2.68 5.7 5.7 0 004.14 0c-.62.2-1.35.3-2.07.2-.72 0-1.34-.2-1.96-.51a7.25 7.25 0 01-2.9-2.68c-1.44-2.27-2.06-5.06-2.48-7.74-.72-5.37.42-10.94 2.07-16.1a81.86 81.86 0 016.51-15.17c.72-1.14 1.34-2.38 2.17-3.51a19.08 19.08 0 012.79-3 19.6 19.6 0 017.13-4.02z"/><path fill="#F7BB8B" d="M314.44 214.55s4.03-8.77 3.62-10.83c-.41-1.96-4.96-6.92-7.13-6.1-2.17.83 1.14 7.03 1.14 7.03s-5.38 6.5-4.76 9.8c.62 3.3 7.13.1 7.13.1z"/><path fill="#FDB32C" d="M353.6 207.43s-17.46 9.29-20.56 12.9c-3 3.61-11.05 20.64-11.05 20.64l17.46 23.43s18.7-27.76 14.16-56.97z"/><path fill="#F7BB8B" d="M350.1 213.52a5.33 5.33 0 00.82-3.61 15.3 15.3 0 002.69-2.48 70.3 70.3 0 001.55-6.91c.51-2.79.82-5.78.62-8.16a5.97 5.97 0 00-.83-2.89l26.56-14.96c0 .1 0 .2 0 .2-.42 2.48-3.62 21.78-.31 32.1 1.96.93 4.44 1.55 7.54 1.65 3.3.1 6.51 1.24 8.89 3.51 2.58 2.48 4.85 6.5 4.96 13.32-2.48.3-4.86.82-7.34 1.23a1367.8 1367.8 0 01-21.8 3.93c-9.4 1.54-19.02 1.85-28.52 2.99.41-7.02 1.86-14.35 5.16-19.92z"/><path fill="#EBA771" d="M355.16 200.62c14.46 1.86 21.8-15.38 22-16.1a17.12 17.12 0 01-10.33 7.43c-4.65 1.24-9.2.83-11.05.52h-.1c.3 2.37 0 5.37-.52 8.15z"/><path fill="#F57F1F" d="M381.82 206.71s-17.05 18.88-22.12 15.79c-5.06-3.1-6.3-14.45-6.3-14.45s-17.15 14.86-19.63 19.71c-2.38 4.85-2.17 14.24 3.82 29.1 6 14.87 3.72 34.89 3.72 34.89h55.08s-4.65-9.6-3.2-20.85c1.44-11.25 14.67-47.06 14.67-47.06s2.68-16.51-26.04-17.13z"/><path fill="#000" d="M382.33 208.67a161.88 161.88 0 01-4.13 4.34 82.15 82.15 0 01-4.34 4.12c-1.55 1.24-3 2.58-4.65 3.72a22.28 22.28 0 01-5.06 2.78c-1.76.73-3.72.93-5.38.21-1.75-.62-3-2.17-3.92-3.92a17.54 17.54 0 01-1.76-5.57 28.4 28.4 0 01-.62-5.89c-.31 3.93-.1 8.05 1.55 11.87a9.05 9.05 0 004.24 4.54c1.03.42 2.06.62 3.2.62 1.03-.1 2.07-.3 3.1-.62a24.78 24.78 0 005.37-2.99 33.58 33.58 0 004.55-3.92c2.9-3 5.58-5.99 7.85-9.29zM342.65 230.86a51.1 51.1 0 01-3.51 7.63c-1.24 2.48-2.48 5.16-2.79 8.05-.31 2.9.1 5.78.83 8.47a47.43 47.43 0 003 7.84c-.73-2.68-1.56-5.37-2.07-8.15a31.09 31.09 0 01-.62-8.16c.2-2.68 1.34-5.26 2.48-7.84.51-1.24 1.13-2.58 1.55-3.92.51-1.13.93-2.48 1.13-3.92zM368.38 262.44a14.96 14.96 0 00-5.99-.73c-2.07.21-4.03.73-5.79 1.66 2.07-.1 3.93-.31 5.9-.52 1.96-.1 3.82-.2 5.88-.41z"/><path fill="#F7BB8B" d="M413.64 257.48c1.14-1.03 2.28-2.06 3.41-3.1 5.17-4.84 10.54-9.59 15.6-14.44a245.27 245.27 0 0114.36 16.72 15.16 15.16 0 01.42 18.47 207.68 207.68 0 01-8.47 10.94c-8.68 10.42-18.6 20.33-29.86 28.48l-7.03-6.6s9.82-17.55 21.7-39.11c-3.41-3.82-6.82-7.74-10.13-11.36z"/><path fill="#F7BB8B" d="M409.61 312.6s-3.72 15.27-7.54 19.7c-.2.31-.62.21-.72-.2-.21-.73-.1-2.48 1.24-6.1 0 0-4.76 6.82-6.3 7.03-1.45.2 3.4-9.3 3.4-9.3s-6.2 7.13-7.54 6.82c-1.34-.31 4.55-9.08 4.55-9.08s-6.82 6.91-7.34 6.3c-1.14-1.56 8.16-11.56 6.92-12.5-1.03-.72-4.13.63-5.58 1.66-.3.2-.72.1-.82-.2-.31-.63-.52-1.76.93-2.9 2.27-1.75 7.13-5.47 14.46-6.6l4.34 5.36z"/><path fill="#121B46" d="M428.42 264.2a7.35 7.35 0 00-2.69 1.85c-.72.82-1.44 1.65-1.86 2.68a7.35 7.35 0 002.69-1.86 7.33 7.33 0 001.86-2.68z"/><path fill="#F57F1F" d="M437.41 243.97l-20.05 18.47-25.31-26s-1.66-27.05 3.82-27.56c8.06-.83 33.9 24.04 41.54 35.09z"/><path fill="#000" d="M400.62 245.1l-10.23-9.6 7.44 18.47 2.8-8.87z"/><path fill="#F7BB8B" d="M341.62 168.22c.31-7.85 1.24-15.9 3.93-22.81 3.51-8.88 19.84-12.38 31.3-2.48 5.28 4.65 6.41 12.9 6.1 20.54.31-.1.52-.2.73-.31 2.27-.62 4.65 1.13 5.37 3.3.52 1.76.2 3.72-.83 5.26a7.9 7.9 0 01-3.61 3c-.31.1-1.97.41-3.1.3-1.14 5.06-3.62 9.6-7.65 12.9a20.84 20.84 0 01-17.77 4.45c-4.96-1.04-12.3-4.24-14.06-9.3-.51-1.33-.51-2.78-.51-4.22 0-.31 0-.62 0-1.04 0-2.89 0-6.19.1-9.6z"/><path fill="#EBA771" d="M341.52 178.02c.41.1.82.2 1.34.2a5.07 5.07 0 000-10.1c-.41 0-.83 0-1.24.1-.1 3.4-.1 6.7-.1 9.8zM373.14 173.17a5.07 5.07 0 11-10.14-.02 5.07 5.07 0 0110.14.02z"/><path fill="#121B46" d="M350.5 163.37c0 1.65-.61 2.99-1.44 2.99s-1.45-1.34-1.45-3c0-1.65.62-2.99 1.45-2.99s1.45 1.34 1.45 3z"/><path fill="#121B46" d="M346.06 159.34c.21.52.62.93 1.04 1.24.41.41.93.62 1.55.82.3.1.62-.1.62-.4.1-.32-.1-.63-.42-.63h-.1c-.83 0-1.76-.51-2.38-1.24-.1-.1-.2-.1-.2 0-.1.1-.1.21-.1.21zM367.04 162.95a3.38 3.38 0 01-2.38 1.24c-.3 0-.51.2-.51.52 0 .3.2.51.51.51h.1c.63-.1 1.14-.4 1.56-.82.41-.41.72-.83 1.03-1.24 0-.1 0-.2-.1-.2 0-.11-.1-.11-.21 0z"/><path fill="#121B46" d="M365.08 164.2a4.32 4.32 0 00-1.66-1.14 3.3 3.3 0 00-1.96-.31c-.72.1-1.34.2-1.86.51-.31.1-.52.31-.83.52l-.72.62c-.1.1-.2.3 0 .41.1.1.31.2.41.1l.73-.51c.2-.1.51-.31.72-.41.52-.21 1.03-.31 1.55-.31s1.03.1 1.55.4c.41.21.93.63 1.24.94.2.3.62.3.83.1.2-.31.3-.62 0-.93zM349.89 172.34a6.31 6.31 0 002.17 2.48 6.06 6.06 0 003.3 1.14c1.14 0 2.38-.42 3.31-1.14.52-.3.83-.72 1.24-1.13.31-.42.72-.93 1.03-1.35-.41.31-.82.73-1.24 1.04-.41.3-.82.62-1.34.82-.93.52-1.86.83-2.9.83a5.85 5.85 0 01-2.89-.83 7.85 7.85 0 01-2.68-1.86zM353.92 177.71c.41.41 1.03.52 1.55.52.51 0 1.13-.21 1.55-.52-.52.1-1.04.2-1.55.2-.52 0-1.04-.1-1.55-.2zM359.08 152.94a3.27 3.27 0 012.28-.82c.82 0 1.65.1 2.37.3.83.21 1.55.73 2.17 1.25.62.51 1.04 1.23 1.45 1.85.2.31.1.72-.31.93-.31.1-.62.1-.83-.1l-.1-.1c-.52-.42-.93-.83-1.45-1.14a4.85 4.85 0 00-1.55-.62c-.51-.1-1.13-.2-1.75-.2-.62 0-1.24 0-1.86-.1h-.21c-.41-.11-.62-.53-.52-.94.1-.1.21-.2.31-.3zM351.75 152.94a3.27 3.27 0 00-2.28-.82c-.82 0-1.65.1-2.37.3-.83.21-1.55.73-2.17 1.25-.62.51-1.04 1.23-1.45 1.85-.2.31-.1.72.31.93.31.1.62.1.83-.1l.1-.1c.52-.42.93-.83 1.45-1.14a4.85 4.85 0 011.55-.62c.51-.1 1.13-.2 1.75-.2.62 0 1.24 0 1.86-.1h.21c.41-.11.62-.53.52-.94-.1-.1-.21-.2-.31-.3zM355.05 158.72c-.3 1.14-.41 2.27-.62 3.4a37.5 37.5 0 01-.72 3.3c-.1.32-.1.53-.2.73-.11.2-.32.62-.21.93a2 2 0 001.03 1.75 2.6 2.6 0 001.96.1c.62-.2 1.04-.5 1.55-.92-1.03.41-2.27.72-3 .1-.4-.3-.61-.62-.51-1.03 0-.2.1-.3.2-.62.11-.3.21-.52.32-.82.3-1.14.51-2.27.51-3.41-.1-1.13-.1-2.37-.3-3.5zM387.09 168.22c0-.73-.21-1.45-.83-1.97-.62-.51-1.55-.51-2.27-.2-.73.2-1.35.72-1.86 1.34a7.47 7.47 0 00-1.14 1.96c-.1.2 0 .52.31.62.2.1.41 0 .52-.1.51-.52 1.13-1.03 1.65-1.14.31-.1.52-.1.72.1.21.1.42.42.52.83.2.62.41 1.45-.1 1.75-.62.31-1.45.21-2.17.1.72.32 1.55.63 2.48.32.41-.1.82-.73.82-1.14 0-.51 0-.93-.1-1.34-.1-.41-.31-.82-.72-1.24-.42-.41-1.04-.41-1.55-.3-.93.3-1.55.82-2.17 1.44l.82.51c.42-1.13 1.24-2.37 2.28-2.89.51-.3 1.24-.4 1.75-.1.52.1.83.83 1.04 1.45z"/><path fill="#000" d="M344.1 147.99a16.72 16.72 0 013.82-7.64c4.24-4.64 11.06-5.88 17.36-6.09 4.24-.1 8.58.21 12.4 2.07 6 2.89 9.61 9.08 14.06 14.03a49.2 49.2 0 0025.31 15.07c7.96 1.86 16.23 1.55 24.39 2.37 8.16.73 16.53 2.58 22.84 7.85 4.85 4.12 8.16 10.11 13.84 12.9 3.1 1.65 6.72 2.06 10.23 2.58l5.79.72c8.47 1.13 13.23 10.53 8.78 17.85 0 0-.1.1-.1.2-2.9 4.65-7.65 8.37-9.4 13.63-1.66 4.75-.52 10.01-.93 15.07-.62 7.94-5.17 15.27-11.37 20.23-6.2 4.95-14.05 7.63-22.01 8.46-2.9.3-5.79.41-8.78.3.41-3.81-.73-7.84-3.2-11.03a436.37 436.37 0 00-10.03-11.98c0-.1-.1-.1-.2-.2l.61-.52c-7.64-11.04-33.48-35.91-41.54-35.09a13.55 13.55 0 00-5.37-.1c-.62-.1-1.14-.1-1.76-.2-3-.1-5.47-.73-7.54-1.66-3.2-9.9-.31-28.48.31-31.78 1.14.1 2.69-.2 3.1-.31a7.9 7.9 0 003.62-3 6.34 6.34 0 00.82-5.26c-.62-1.96-2.68-3.61-4.85-3.4a20.05 20.05 0 01-3.62 4.64c-.41.41-.93.83-1.55.83-.83 0-1.34-.83-1.65-1.55-.52-.93-1.35-1.86-1.76-2.79a18.77 18.77 0 01-15.19-6.6 28.66 28.66 0 01-2.9-4.34 184.97 184.97 0 01-3.61-5.98c-2.69 2.99-6.92 8.46-10.95 8.87-.31.2-.52-3.71 1.03-8.15z"/><path fill="#F28766" d="M536.2 420.02c2.06.73 3.82 1.35 4.96 1.76 2.79-1.45 5.37-1.65 6.61-1.76.93-.1 1.24.42 1.24.83 0 .2-.1.3-.2.3-.83.11-2.49.63-2.59 1.25-.2.72 6.51 1.34 6.61 2.37 0 .41-4.75 0-4.75 0s5.06 1.34 4.65 1.96c-.41.52-5.06-.1-5.06-.1s4.85 1.96 4.23 2.37c-.62.42-4.65-.62-4.65-.62 1.76.93 2.28 1.55 2.48 1.86.1.2 0 .31-.2.31-1.76-.2-4.86-2.06-7.03-3.4v.1c-2.79.3-5.68.3-8.47.3a76.07 76.07 0 002.17-7.53z"/><path fill="#F57F1F" d="M505.5 387.62L517.8 413l22.84 7.63-.93 7.64s-27.07-1.65-31.41-5.99c-4.34-4.33-12.61-25.38-12.92-27.55-.31-2.06 10.13-7.12 10.13-7.12z"/><path fill="#DD711F" d="M497.86 383.9s5.68 5.89 5.48 10.43c-.21 4.54-.62 29.72-.62 29.72l2.37 1.13 4.86-1.75s-2.38-26.63-2.38-29.41c-.1-2.9-.93-7.23-3.61-8.46-2.8-1.14-6.1-1.66-6.1-1.66z"/><path fill="#F08D6E" d="M572.05 434.88a792.45 792.45 0 0117.16 2.27l2.27 9.7-20.36.21c.42-4.02.73-8.15.93-12.18z"/><path fill="#FDB32C" d="M587.76 436.64s2.17-2.27 3.1-4.23c.93-1.96.41-10.84 4.86-10.22v20.54l-1.86 1.86h2.06v4.12s-4.54 1.55-7.33.1c0 0 2.68-2.99 1.44-6.19-1.24-3.4-2.27-5.98-2.27-5.98z"/><path fill="#BA222A" d="M577.32 434.16v13.73h-97.54s3.4-19.61 11.36-22.19c7.86-2.37 86.18 8.46 86.18 8.46z"/><path fill="#FA9778" d="M569.57 431.9l14.26 7.94 1.14 6.81-3.3 3.82-3.1-1.03s0 0-.21-.1c-1.04-.42-6.93-2.9-15.2-6.3a148.4 148.4 0 006.41-11.15z"/><path fill="#F57F1F" d="M583.32 438.5s3-1.04 4.65-2.38c1.65-1.34 5.37-9.39 8.99-6.91l-9.4 18.16-2.49.83 1.76.93-1.86 3.6s-4.75-.71-6.51-3.3c0 0 3.72-1.44 4.13-4.84.52-3.3.73-6.1.73-6.1z"/><path fill="#DA2526" d="M577.43 435.1l-5.69 11.76-35.96-14.25s-41.43 23.02-52.49 18.68c-11.16-4.33-11.78-25.7-7.23-28.27 4.54-2.58 29.14.82 29.14.82l1.24 1.14s24.49-10.32 30.38-10.12c5.89.21 40.6 20.23 40.6 20.23z"/><path fill="#121B46" d="M571.23 446.34c-2.9-1.34-5.79-2.68-8.79-3.92a226.4 226.4 0 00-8.88-3.61c-3-1.14-6-2.27-9-3.4-2.99-1.04-5.99-2.18-8.98-3.2l.1.3c.62-.82 1.24-1.65 1.86-2.47-.72.72-1.45 1.54-2.07 2.26l-.2.21.2.1c2.9 1.35 5.9 2.58 8.79 3.82 3 1.24 5.89 2.38 8.88 3.51 3 1.14 6 2.27 9 3.3 3.1 1.14 6.09 2.17 9.09 3.1z"/><path fill="#121B46" d="M502.51 447.89c1.45-.52 2.79-1.14 4.24-1.65l4.23-1.76c2.8-1.24 5.58-2.47 8.37-3.71 2.8-1.34 5.48-2.58 8.27-4.03l4.03-2.06c1.34-.72 2.69-1.45 4.03-2.17-1.45.52-2.9 1.14-4.24 1.65l-4.23 1.76c-2.8 1.23-5.58 2.47-8.37 3.71-2.8 1.34-5.48 2.58-8.27 4.03l-4.03 2.06c-1.34.72-2.69 1.45-4.03 2.17zM506.23 425.08a22.52 22.52 0 00-5.17 2.06c-1.65.93-3.2 1.86-4.65 3.2a22.5 22.5 0 005.17-2.06c1.65-.93 3.3-1.96 4.65-3.2z"/><path fill="#121B46" d="M493.93 428.38c1.55.21 3.1.1 4.55-.2 1.45-.31 2.9-.62 4.34-1.35-1.55-.2-3.1-.1-4.55.21-1.44.2-3 .62-4.34 1.34z"/><path fill="#FA9778" d="M476.26 386.17a6.78 6.78 0 014.34-1.75c1.45-.1 2.69-.41 3.72-.83 1.66-5.05.1-14.55-.1-15.78v-.1l13.12 7.32c-.2.41-.3.82-.41 1.44-.1 1.14 0 2.69.31 4.03.31 1.55.62 2.89.72 3.4 1.04 1.24 2.48 1.97 4.34 3 0 .51 0 1.03.1 1.55.52 2.99-.4 7.32-.3 10.42.2 3.71.3 7.32.2 11.04 0 4.64-.2 8.98-.51 13.42h-24.8c.72-6.6-.93-16.41-2.8-27.25-1.03-5.47.42-8.36 2.07-9.9z"/><path fill="#FA7C55" d="M497.14 380.5c-7.13.93-10.75-7.64-10.85-7.95a8.53 8.53 0 005.06 3.61c2.27.62 4.55.42 5.48.31-.1 1.24.1 2.69.3 4.03z"/><path fill="#fff" d="M497.96 384.21s2.8 5.78.73 7.02c-1.97 1.34-14.57-7.63-14.57-7.63s-6.82.82-8.68 5.57c-1.86 4.85.82 34.57.82 34.57s23.05 1.44 28.94 0c0 0-.1-14.76.62-19.3.72-4.64.3-12.38-1.14-15.58-.83-1.65-6.72-4.65-6.72-4.65z"/><path fill="#F57F1F" d="M484.01 383.29s10.65 4.95 9.61 10.31c-1.03 5.37-5.68 59.03-5.68 59.03s-13.95.42-19.22-2.26c-5.27-2.69 6.61-39.43 6-42.83-.63-3.4-3.73-19 .72-21.78 4.44-2.78 8.57-2.47 8.57-2.47z"/><path fill="#121B46" d="M487.22 447.58a27.8 27.8 0 01-14.37 1.34c-1.55-.3-3.1-.93-4.75-1.44a14.18 14.18 0 004.44 2.37c.83.3 1.66.41 2.48.62.83.1 1.66.2 2.59.1 1.75 0 3.4-.3 5.06-.82 1.65-.52 3.2-1.24 4.55-2.17zM522.17 398.2l-1.54-1.52 8.74-8.79 1.54 1.53-8.74 8.79z"/><path fill="#FA9778" d="M527 398.87s-.52.93-.83 1.03c-.3.2-2.27.62-2.27.62-.1.1-1.76 1.55-4.34 3.61-.83-1.03-1.65-2.17-2.48-3.2-.52-.72-1.14-1.44-1.65-2.17 1.13-.51 2.06-.92 2.79-1.23l1.55-1.24c.72-.93 2.89-4.34 3.82-4.23 1.24.1 1.14.51 1.14.51s-1.86 2.38-1.45 3.3c.41.93 4.44-3.5 4.44-3.5l1.04-.83s.2 2.48-.73 3.3c0 0 .52 1.35-.41 2.38.1 0 0 1.34-.62 1.65z"/><path fill="#F57F1F" d="M485.05 387.2l8.16 20.34 26.04-11.25s4.55 5.67 4.03 5.88c-.41.1-23.46 22.5-33.07 20.85-9.6-1.65-16.12-29.93-16.12-29.93l10.96-5.88z"/><path fill="#121B46" d="M490.52 423.22s-2.89-.3-4.85-2.89c-1.86-2.58-8.68-16.4-8.68-16.4s3.72 23.83 13.53 19.3zM489.08 409.4c.82-.1 1.55-.31 2.27-.52.72-.31 1.45-.62 2.07-.93l1.44-.72-1.55-.31c-1.03-.2-2.06-.31-3.2-.2.93.61 1.86 1.02 2.9 1.33l-.11-1.03c-.72.31-1.34.62-2.07 1.03-.51.2-1.13.72-1.75 1.34zM515.94 408.67a35.48 35.48 0 00-5.68 3.61 29.5 29.5 0 00-4.96 4.55 35.4 35.4 0 005.68-3.62 25.94 25.94 0 004.96-4.54zM511.4 399.49c-1.04 0-1.97.3-2.9.62-.82.4-1.65.93-2.37 1.75 1.03 0 1.96-.3 2.89-.62a6.18 6.18 0 002.38-1.75zM488.77 392.16a5.7 5.7 0 00-.73-2.58c-.41-.82-.82-1.65-1.44-2.27a9.17 9.17 0 00-2.28-1.65 4.32 4.32 0 00-2.79-.1c.93.2 1.66.51 2.38.92.62.42 1.24.93 1.86 1.55.62.62 1.03 1.24 1.55 1.96l1.45 2.17z"/><path fill="#FA9778" d="M480.5 363.78c.3-1.03 1.45-1.96 2.58-1.65.1 0 .2.1.31.1-.2-3.71.42-7.84 3-10.11 5.58-4.85 13.64-3.2 15.4 1.24 1.96 5.05 2.06 11.25 1.96 16.5 0 .73 0 1.45-.31 2.07-.93 2.48-4.44 4.13-6.92 4.54-3.1.62-6.3-.2-8.68-2.16a11.28 11.28 0 01-3.72-6.4c-.52 0-1.35-.1-1.55-.1a4.05 4.05 0 01-1.76-1.45 3.22 3.22 0 01-.31-2.58z"/><path fill="#121B46" d="M499.72 362.13c0 .82.31 1.44.72 1.44.42 0 .73-.62.73-1.44 0-.83-.31-1.45-.73-1.45-.3 0-.72.73-.72 1.45zM494.24 363.57c-.4 0-.72-.64-.72-1.44 0-.8.32-1.45.72-1.45.4 0 .73.65.73 1.45 0 .8-.33 1.44-.73 1.44zM500.03 366.67c-.2.52-.62.93-1.14 1.24-.41.3-1.03.51-1.65.51-.62 0-1.14-.2-1.65-.51-.21-.1-.42-.42-.62-.52-.21-.2-.31-.41-.52-.62.2.2.41.31.62.52.2.1.41.3.62.41.41.2.93.42 1.45.42.51 0 .93-.1 1.44-.42a6.63 6.63 0 001.45-1.03zM498.17 369.25c-.2.2-.52.2-.72.2-.31 0-.52-.1-.73-.2.31 0 .52.1.73.1.2 0 .4-.1.72-.1zM495.59 357.07a1.55 1.55 0 00-1.14-.41c-.41 0-.83 0-1.24.2-.41.1-.72.31-1.03.63-.31.2-.52.61-.73.92-.1.21 0 .42.1.52.1.1.32 0 .42 0 .2-.2.41-.41.72-.52.2-.2.52-.2.83-.3.3-.1.52-.1.83-.1.3 0 .62 0 .93-.11h.1c.2 0 .3-.2.3-.41 0-.31-.1-.42-.1-.42zM499.2 357.07c.31-.3.73-.41 1.14-.41.41 0 .83 0 1.24.2.41.1.72.31 1.03.63.31.2.52.61.73.92.1.21 0 .42-.1.52-.11.1-.32 0-.42 0-.2-.2-.41-.41-.72-.52-.21-.2-.52-.2-.83-.3-.31-.1-.52-.1-.83-.1-.3 0-.62 0-.93-.11h-.1c-.2 0-.31-.2-.31-.41 0-.31 0-.42.1-.42zM498.79 359.75c.1.52.2 1.14.31 1.66.1.51.2 1.13.41 1.65 0 .1.1.2.1.41 0 .1.11.31.11.52 0 .4-.2.72-.52.82-.3.2-.62.1-.93 0-.3-.1-.51-.2-.72-.41.52.2 1.14.3 1.45.1.2-.1.3-.3.2-.51 0-.1 0-.21-.1-.31s-.1-.31-.1-.42c-.21-.51-.21-1.13-.31-1.65 0-.72.1-1.24.1-1.86zM481.33 364.4c0-.31.1-.72.4-.93.32-.3.73-.2 1.15-.1.4.1.62.41.93.62.2.3.4.62.51.93 0 .1 0 .3-.1.3s-.2 0-.31-.1a2.5 2.5 0 00-.83-.62c-.1 0-.2 0-.3 0-.11.1-.21.2-.21.42-.1.3-.21.72.1.82.3.2.72.1 1.14.1-.31.21-.73.31-1.24.21-.21-.1-.42-.3-.42-.52 0-.2 0-.4.1-.61.1-.21.1-.42.32-.62.2-.21.51-.21.72-.21.52.1.83.41 1.03.72l-.41.2a3.1 3.1 0 00-1.14-1.44c-.3-.1-.62-.2-.82 0-.31.21-.52.52-.62.83z"/><path fill="#121B46" d="M479.98 358.41c.42-1.34 1.14-2.99 2.48-3.2a4.9 4.9 0 010-3.81 6.57 6.57 0 012.28-2.48 9.68 9.68 0 014.44-1.65c2.38-.31 4.86.1 7.23.62 1.24.2 2.8.41 4.03.72 1.24-.93 3.2-.41 4.24.72 1.03 1.24 1.24 2.9 1.24 4.44-.1 3.1-1.03 6.09-2.17 8.98-.1-1.24-.2-2.38-.41-3.61a9.53 9.53 0 00-2.17-3.51c-3 2.99-7.86 4.13-11.89 2.68a8.66 8.66 0 01-.82 2.79c-.52 1.13-1.24 2.16-2.48 2.47-.52.1-1.14-.1-1.35-.51-.2-.42-1.24-.93-1.24-.83-.1-.1-.2-.1-.3-.1-1.14-.31-2.28.62-2.59 1.65-.31.83-.1 1.86.41 2.58a3.44 3.44 0 001.76 1.44c.2.1.93.21 1.55.21a11.6 11.6 0 001.45 3.72c-.93.1-1.97 0-2.8-.42-1.23-.62-1.96-1.96-2.58-3.2a14.19 14.19 0 01-1.24-3.5c-.3-2.07.21-4.24.93-6.2z"/><path fill="#FFCCA6" d="M553.45 205.88c2.38-2.78 5.79-4.64 9.4-4.64 4.35 0 8.79 2.17 12.72.2 5.16-2.47 5.58-10.62 10.85-13 3.61-1.65 7.75.31 11.78 1.14a19.3 19.3 0 0018.18-6.71c1.66-2.06 2.9-4.44 4.76-6.3 3.51-3.5 8.99-4.54 13.64-3.2 4.75 1.35 8.57 4.96 10.95 9.2 1.86 3.3 3.2 7.42 6.72 8.87 4.03 1.65 8.78-1.24 12.91.3 2.9 1.14 4.55 4.44 4.65 7.54a19.5 19.5 0 01-1.03 6.5H553.45v.1zM63.86 257.48c.72-1.96 2.69-3.5 4.55-4.12 2.79-.93 5.89-.73 8.47-2.17 2.9-1.65 5.27-5.26 8.47-4.95 2.59.3 4.45 3.2 7.03 3.71 5.27 1.24 8.78-7.64 14.16-7.64 3.2 0 5.89 3.2 9.09 3.3 4.13.1 6.92-4.64 9.4-8.35 3.72-5.58 10.23-10.22 15.81-7.23 3.72 1.96 5.58 6.6 7.65 10.74 2.07 4.02 5.06 8.35 9.2 8.35 4.34 0 8.68-4.74 12.4-2.27 1.75 1.14 2.58 3.62 2.58 5.89 0 1.65-.41 3.2-.83 4.74H63.86z"/></svg>