<svg xmlns="http://www.w3.org/2000/svg" width="1920" height="1075" fill="none"><path fill="url(#a)" d="M0 0h1920v1300H0z" transform="matrix(1 0 0 -1 0 1330)"/><path fill="url(#b)" d="M427 141C252.2 141 69.5 106-1 75V8l1970.5 21 82 225c-46.67-15.34-50.5-90-132.5-90-102.5 0-261 76-467 76S999 109.5 856 109.5 645.5 141 427 141z" opacity=".5"/><path fill="#fff" d="M429 117.5c-174.8 0-358-64-428.5-95V1h1921v80C1819 81 1644 156 1438 156S999 59 856 59s-208.5 58.5-427 58.5z"/><defs><linearGradient id="a" x1="960" x2="960" y2="1300" gradientUnits="userSpaceOnUse"><stop stop-color="#F57F1F"/><stop offset="1" stop-color="#DA2526"/></linearGradient><linearGradient id="b" x1="1013" x2="1013" y1="313.5" y2="-113.5" gradientUnits="userSpaceOnUse"><stop stop-color="#F57F1F"/><stop offset="1" stop-color="#DB2826"/></linearGradient></defs></svg>