<svg width="689" height="402" viewBox="0 0 689 402" fill="none" xmlns="http://www.w3.org/2000/svg">
<path d="M532.184 89.9512C505.45 68.7916 468.888 64.9444 437.653 76.6692C396.221 92.3328 365.629 131.812 325.392 150.865C297.097 164.239 264.668 166.62 234.995 157.552C220.572 153.155 206.516 146.01 191.542 145.552C178.313 145.094 165.176 150.041 153.877 157.735C120.713 180.269 103.993 228.359 115.201 269.304C121.172 291.196 134.033 310.249 149.008 326.279C179.967 359.255 221.031 380.69 263.933 386.277C287.91 389.392 312.163 387.743 336.048 383.896C388.045 375.56 439.215 356.69 482.116 323.348C533.378 283.41 584.18 213.794 564.98 141.247C559.56 120.82 547.893 102.409 532.184 89.9512Z" fill="#FC9365"/>
<path d="M130.451 148.575C132.104 144.27 133.574 138.865 130.726 135.293C129.624 134.011 128.154 133.186 126.592 132.82C119.059 130.805 111.71 136.575 106.474 142.804C101.605 148.575 97.4707 155.079 94.1635 162.04C92.5099 165.613 91.04 169.368 90.6726 173.399C90.3051 177.429 91.2237 181.643 93.796 184.574C110.883 203.993 125.766 160.483 130.451 148.575Z" fill="#FC9365"/>
<path d="M158.654 91.8748V90.7756C156.265 90.7756 153.877 90.0428 151.764 88.852L151.213 89.768C153.509 91.0504 156.082 91.7832 158.654 91.8748ZM166.187 90.0428C168.483 88.7604 170.413 86.9284 171.791 84.73L170.872 84.1804C169.586 86.1956 167.84 87.936 165.727 89.1268L166.187 90.0428ZM145.884 84.272L146.803 83.7224C145.609 81.6156 144.966 79.234 144.966 76.8524C144.966 76.5776 144.966 76.3028 144.966 75.9364L143.863 75.8448C143.863 76.1196 143.863 76.486 143.863 76.7608C143.955 79.5088 144.598 82.0736 145.884 84.272ZM173.904 77.402C173.904 77.2188 173.904 77.1272 173.904 76.944C173.904 74.4708 173.261 72.0892 172.158 69.9824L171.239 70.4404C172.25 72.4556 172.893 74.654 172.893 76.944C172.893 77.1272 172.893 77.2188 172.893 77.402H173.904ZM147.262 69.2496C148.548 67.2344 150.386 65.5856 152.591 64.4864L152.131 63.5704C149.835 64.7612 147.814 66.5016 146.436 68.7L147.262 69.2496ZM166.371 65.2192L166.922 64.3032C164.717 62.9292 162.237 62.1048 159.572 62.0132L159.481 63.1124C161.961 63.204 164.349 63.9368 166.371 65.2192Z" fill="#E27A80"/>
<path d="M614.864 326.554C617.344 326.371 619.916 326.096 622.397 325.546L622.121 324.539C619.733 325.088 617.252 325.363 614.772 325.546L614.864 326.554ZM607.331 326.371L607.422 325.272C604.942 324.997 602.553 324.539 600.165 323.898L599.889 324.905C602.278 325.638 604.758 326.096 607.331 326.371ZM629.562 323.348C631.859 322.432 634.156 321.241 636.36 319.959L635.809 319.043C633.696 320.325 631.491 321.424 629.195 322.34L629.562 323.348ZM592.724 322.432L593.183 321.424C590.978 320.417 588.773 319.134 586.752 317.76L586.109 318.676C588.222 320.142 590.427 321.333 592.724 322.432ZM642.515 315.47C644.445 313.822 646.19 311.99 647.844 310.158L647.017 309.425C645.455 311.257 643.71 313.089 641.781 314.646L642.515 315.47ZM580.23 314.005L580.965 313.272C579.219 311.623 577.474 309.7 576.004 307.776L575.177 308.417C576.739 310.341 578.393 312.264 580.23 314.005ZM652.253 304.02C653.539 301.822 654.642 299.624 655.561 297.242L654.55 296.876C653.631 299.166 652.529 301.364 651.243 303.471L652.253 304.02ZM571.135 302.005L572.054 301.547C570.859 299.349 569.941 297.059 569.114 294.769L568.103 295.135C568.93 297.425 569.941 299.807 571.135 302.005ZM657.765 290.006C658.317 287.532 658.592 285.059 658.776 282.494L657.673 282.403C657.582 284.876 657.214 287.349 656.755 289.731L657.765 290.006ZM566.266 287.716L567.369 287.532C567.001 285.151 566.817 282.678 566.817 280.204C566.817 278.739 566.909 277.182 567.001 275.716L565.899 275.624C565.715 277.182 565.715 278.739 565.715 280.204C565.715 282.769 565.899 285.242 566.266 287.716ZM657.49 275.075L658.592 274.983C658.317 272.51 657.857 269.945 657.122 267.564L656.112 267.838C656.663 270.22 657.214 272.693 657.49 275.075ZM568.287 268.48C568.93 266.098 569.757 263.808 570.768 261.518L569.757 261.06C568.747 263.35 567.828 265.732 567.185 268.205L568.287 268.48ZM653.448 260.968L654.458 260.51C653.356 258.22 652.161 256.022 650.692 254.007L649.773 254.648C651.151 256.572 652.437 258.77 653.448 260.968ZM574.35 255.106C575.728 253.091 577.29 251.076 578.944 249.335L578.117 248.602C576.371 250.434 574.81 252.45 573.432 254.556L574.35 255.106ZM645.088 248.877L645.823 248.144C644.077 246.312 642.148 244.664 640.127 243.106L639.484 243.931C641.505 245.396 643.434 247.045 645.088 248.877ZM584.456 244.297C586.385 242.832 588.498 241.458 590.611 240.267L590.06 239.351C587.855 240.542 585.742 241.916 583.721 243.473L584.456 244.297ZM633.329 239.992L633.788 239.076C631.583 237.885 629.195 236.878 626.806 236.145L626.439 237.152C628.827 237.885 631.124 238.893 633.329 239.992ZM597.409 237.336C599.706 236.511 602.186 235.962 604.575 235.504L604.391 234.496C601.91 234.954 599.43 235.504 597.041 236.328L597.409 237.336ZM619.273 235.412L619.457 234.313C617.068 233.946 614.68 233.763 612.199 233.763H611.924V234.862H612.199C614.588 234.862 616.977 235.046 619.273 235.412Z" fill="#E5767B"/>
<path d="M50.435 281.67C53.0072 281.487 55.4876 280.754 57.7843 279.563L57.325 278.647C55.212 279.746 52.8235 280.479 50.435 280.662V281.67ZM42.8099 280.662L43.1774 279.655C40.8807 278.83 38.7678 277.639 37.0223 275.899L36.2874 276.723C38.1247 278.464 40.3295 279.838 42.8099 280.662ZM63.6638 274.617C65.3174 272.601 66.4198 270.311 67.0629 267.838L66.0524 267.563C65.4093 269.945 64.3069 272.052 62.837 273.975L63.6638 274.617ZM31.7859 270.495L32.7965 270.037C31.7859 267.838 31.3265 265.457 31.3265 262.983H30.2242C30.2242 265.64 30.7753 268.113 31.7859 270.495ZM31.4184 261.06C31.694 258.678 32.4289 256.297 33.6232 254.19L32.7045 253.64C31.4184 255.93 30.5916 258.312 30.316 260.877L31.4184 261.06ZM66.4198 260.327L67.5222 260.144C67.1547 257.579 66.2361 255.197 64.858 252.999L63.9394 253.549C65.2255 255.655 66.0523 257.945 66.4198 260.327ZM38.4922 248.877C40.4214 247.411 42.6262 246.404 45.0148 245.854L44.7392 244.847C42.2588 245.396 39.8702 246.495 37.7572 248.053L38.4922 248.877ZM58.8867 248.419L59.5298 247.503C57.4168 246.037 55.0283 245.03 52.456 244.572L52.2723 245.579C54.6608 246.129 56.8656 247.045 58.8867 248.419Z" fill="#F2A5A9"/>
<path d="M187.316 62.4711C187.316 66.0435 190.164 68.8831 193.747 68.8831C197.33 68.8831 200.177 66.0435 200.177 62.4711C200.177 58.8987 197.33 56.0591 193.747 56.0591C190.164 56.0591 187.316 58.9903 187.316 62.4711Z" fill="#F2A5A9"/>
<path d="M605.86 217.825C605.86 221.031 608.525 223.687 611.74 223.687C614.955 223.687 617.619 221.031 617.619 217.825C617.619 214.619 614.955 211.962 611.74 211.962C608.525 211.962 605.86 214.527 605.86 217.825Z" fill="#E5767B"/>
<path d="M64.2147 246.129C61.8301 246.129 59.8969 244.202 59.8969 241.824C59.8969 239.446 61.8301 237.519 64.2147 237.519C66.5994 237.519 68.5325 239.446 68.5325 241.824C68.5325 244.202 66.5994 246.129 64.2147 246.129Z" fill="#F2A5A9"/>
<path d="M430.303 67.3259C430.303 69.4327 431.957 71.0815 434.07 71.0815C436.183 71.0815 437.836 69.4327 437.836 67.3259C437.836 65.2191 436.183 63.5703 434.07 63.5703C431.957 63.5703 430.303 65.2191 430.303 67.3259Z" fill="#F2A5A9"/>
<path d="M479.452 191.444C486.985 186.864 491.578 195.841 491.67 195.841C491.67 195.749 496.355 186.773 503.889 191.444C512.524 196.757 504.072 213.428 491.67 217.459C479.268 213.428 470.817 196.757 479.452 191.444Z" fill="#DA2526"/>
<path d="M148.732 164.056H184.56C186.948 164.056 188.877 165.979 188.877 168.361V191.444C188.877 193.826 186.948 195.749 184.56 195.749H173.903L170.504 201.612L166.646 208.298L162.787 201.612L159.388 195.749H148.732C146.343 195.749 144.414 193.826 144.414 191.444V168.361C144.414 165.979 146.343 164.056 148.732 164.056Z" fill="#DA2526"/>
<path d="M169.493 190.162C166.37 190.528 163.246 190.528 160.123 190.253C159.388 190.162 158.561 190.07 157.918 189.704C157.275 189.337 156.816 188.604 157 187.872C156.448 187.872 155.989 187.414 155.53 187.047C155.346 186.864 155.162 186.681 155.07 186.498C154.978 186.223 154.978 185.948 154.978 185.673C154.978 184.849 155.438 184.024 156.173 183.658C155.53 183.475 154.978 182.925 154.703 182.192C154.519 181.551 154.611 180.727 155.07 180.177C155.346 179.811 155.713 179.628 156.173 179.444C155.897 179.17 155.438 179.078 155.162 178.712C154.795 178.254 154.978 177.521 155.438 177.154C155.897 176.788 156.448 176.605 157 176.605C158.01 176.513 159.112 176.605 160.123 176.696C161.134 176.788 162.328 176.513 163.247 176.055C163.43 174.681 163.155 173.307 163.522 171.933C163.981 170.284 165.543 169.002 167.197 168.91C167.564 168.91 167.932 168.91 168.115 169.185C168.299 169.368 168.299 169.643 168.299 169.826C168.299 170.926 167.932 172.025 167.656 173.032C167.381 174.132 167.381 175.322 167.932 176.238C168.207 176.605 168.483 176.88 168.759 177.246C169.034 177.796 169.034 178.437 169.126 178.986C169.31 179.536 169.677 180.177 170.32 180.086L169.493 190.162Z" fill="white"/>
<path d="M170.045 191.261H173.72C173.995 191.261 174.271 190.986 174.271 190.711V177.795C174.271 177.521 173.995 177.246 173.72 177.246H170.045C169.769 177.246 169.494 177.521 169.494 177.795V190.711C169.494 191.077 169.769 191.261 170.045 191.261Z" fill="black"/>
<path d="M171.423 179.078C171.423 179.353 171.698 179.628 171.974 179.628C172.25 179.628 172.525 179.353 172.525 179.078C172.525 178.803 172.25 178.528 171.974 178.528C171.698 178.528 171.423 178.803 171.423 179.078Z" fill="white"/>
<path d="M167.565 381.972H178.038C177.211 388.384 176.568 393.239 176.292 395.345C176.292 395.345 183.55 400.292 188.511 399.651C188.786 399.651 189.062 399.742 189.245 399.925C189.429 400.2 189.613 400.75 189.154 401.299C188.97 401.483 188.786 401.574 188.602 401.574H168.943C168.208 401.574 167.565 401.025 167.473 400.292C167.381 399.467 167.289 397.452 167.841 395.62L167.565 381.972Z" fill="#CC6F49"/>
<path d="M179.048 397.086C179.048 397.086 177.303 398.185 177.027 399.376C176.935 400.017 175.006 399.834 173.169 399.651C171.331 399.376 169.586 398.551 168.024 397.544C167.748 397.36 167.473 397.177 167.289 397.269C166.646 397.361 166.646 401.483 167.473 401.849C168.208 402.124 186.214 401.941 189.061 401.849C189.245 401.849 189.429 401.666 189.429 401.483C189.429 400.75 189.337 399.467 188.235 399.284C186.949 398.918 179.048 397.086 179.048 397.086Z" fill="black"/>
<path d="M143.588 381.972H154.061L151.488 395.62C151.672 397.452 151.305 399.467 151.029 400.292C150.753 401.025 150.11 401.574 149.375 401.574H133.023C133.023 400.841 133.023 400.2 133.023 399.467C137.616 398.643 143.128 395.345 143.128 395.345C143.036 393.239 143.22 388.384 143.588 381.972Z" fill="#CC6F49"/>
<path d="M139.729 397.086C139.729 397.086 141.475 398.185 141.75 399.376C141.842 400.017 143.771 399.834 145.609 399.651C147.446 399.376 149.192 398.551 150.753 397.544C151.029 397.36 151.304 397.177 151.488 397.269C152.131 397.361 152.131 401.483 151.304 401.849C150.57 402.124 132.564 401.941 129.716 401.849C129.532 401.849 129.348 401.666 129.348 401.483C129.348 400.75 129.44 399.467 130.543 399.284C131.829 398.918 139.729 397.086 139.729 397.086Z" fill="black"/>
<path d="M179.967 260.052C179.967 260.052 186.03 265.548 185.479 270.037C184.928 274.525 180.885 287.99 182.08 297.242C183.366 306.494 186.214 314.463 185.479 324.264C184.744 334.065 178.681 388.292 178.681 388.292C178.681 388.292 164.901 383.712 160.124 385.819C155.347 387.926 142.118 389.758 140.28 389.025C140.28 389.025 143.312 315.928 153.325 302.188C153.325 302.188 155.071 282.494 153.325 278.098C151.58 273.701 153.693 261.518 158.102 260.052C162.696 258.678 179.967 260.052 179.967 260.052Z" fill="#F57F1F"/>
<path d="M175.557 266.831C172.158 266.373 168.851 266.006 165.544 265.457C163.89 265.182 162.237 264.815 160.675 264.449C159.021 264.083 157.459 263.533 155.806 263.075C158.654 264.907 162.053 265.915 165.36 266.556C167.014 266.831 168.759 267.014 170.413 267.105C172.158 267.105 173.904 267.105 175.557 266.831Z" fill="#121B46"/>
<path d="M171.791 354.034C169.494 351.194 167.106 348.446 164.993 345.515C162.788 342.676 160.767 339.653 158.654 336.63C160.032 340.019 161.961 343.225 164.166 346.156C166.371 349.087 168.851 351.836 171.791 354.034Z" fill="#121B46"/>
<path d="M164.717 352.66C164.257 351.103 163.523 349.729 162.696 348.355C161.869 346.981 160.95 345.698 159.756 344.599C160.215 346.156 160.95 347.53 161.777 348.904C162.696 350.187 163.523 351.561 164.717 352.66Z" fill="#121B46"/>
<path d="M164.441 298.341C164.349 297.517 169.953 296.051 169.769 295.41C169.586 294.86 168.116 294.677 167.381 294.769C167.197 294.769 167.105 294.677 167.105 294.494C167.105 294.219 167.289 293.761 168.116 293.67C169.126 293.578 171.147 293.395 173.444 294.128C173.72 293.944 176.2 292.662 179.875 290.555C180.518 292.754 181.161 294.952 181.988 297.059C179.507 297.517 177.027 297.883 174.455 298.066C173.077 299.349 169.769 302.28 167.932 302.921C167.748 303.013 167.657 302.83 167.748 302.646C167.84 302.372 168.3 301.73 169.586 300.723C169.586 300.723 166.279 302.097 165.727 301.822C165.176 301.547 169.035 299.257 169.035 299.257C169.035 299.257 165.176 300.448 164.809 299.99C164.441 299.532 168.575 297.7 168.575 297.7C168.575 297.7 164.533 298.616 164.441 298.341Z" fill="#CC6F49"/>
<path d="M181.896 261.793C181.896 261.793 189.613 269.67 194.022 275.808C198.432 281.945 199.259 285.334 198.248 289.181C197.146 293.028 190.532 295.227 188.51 295.868C186.581 296.509 176.935 298.25 176.935 298.25L175.374 292.57L186.489 286.158L175.098 269.762L181.896 261.793Z" fill="#F57F1F"/>
<path d="M190.531 284.693C189.796 284.693 189.061 284.876 188.326 285.059C187.592 285.242 186.948 285.517 186.305 285.792L186.948 286.525C187.408 285.7 187.775 284.876 187.959 283.868C187.132 284.51 186.581 285.242 186.03 285.975L185.203 287.258L186.673 286.708C187.316 286.433 188.051 286.25 188.694 285.884C189.337 285.517 189.98 285.151 190.531 284.693Z" fill="#121B46"/>
<path d="M180.702 279.838C180.243 278.83 179.508 278.006 178.773 277.273C178.038 276.54 177.211 275.899 176.109 275.441C176.568 276.449 177.303 277.273 178.038 278.006C178.865 278.739 179.691 279.38 180.702 279.838Z" fill="#121B46"/>
<path d="M152.039 301.455H185.755V281.303C185.755 280.479 185.112 279.746 184.193 279.746H153.509C152.683 279.746 151.948 280.387 151.948 281.303V301.455H152.039Z" fill="#DFDFDF"/>
<path d="M152.039 301.181H185.755V303.654H152.039V301.181Z" fill="#A1B0CF"/>
<path d="M165.819 291.563C165.819 293.211 167.197 294.585 168.851 294.585C170.505 294.585 171.883 293.211 171.883 291.563C171.883 289.914 170.505 288.54 168.851 288.54C167.197 288.54 165.819 289.822 165.819 291.563Z" fill="white"/>
<path d="M150.018 296.967L150.57 296.234C150.753 296.234 150.845 296.326 150.937 296.326C151.121 296.234 151.396 296.051 151.58 295.959C151.764 296.326 151.856 296.509 151.948 296.601C154.244 297.333 155.898 298.524 156.633 299.165C157.276 299.623 157.184 300.173 157 300.448C156.908 300.631 156.725 300.631 156.633 300.539C155.99 300.081 154.703 299.532 154.244 299.807C153.785 300.173 157.643 304.478 157.092 305.119C156.908 305.394 154.06 302.371 154.06 302.371C154.06 302.371 156.541 306.127 155.898 306.31C155.347 306.402 152.774 303.379 152.774 303.379C152.774 303.379 154.795 307.501 154.152 307.318C153.509 307.226 151.58 304.295 151.58 304.295C152.131 305.852 152.131 306.585 152.039 306.951C152.039 307.135 151.856 307.135 151.764 307.043C150.57 305.577 149.375 301.272 148.916 299.44C148.457 299.074 148.089 298.799 147.63 298.433C148.457 297.883 149.283 297.425 150.018 296.967Z" fill="#CC6F49"/>
<path d="M156.816 261.243C156.816 261.243 153.785 262.526 152.131 263.533C150.478 264.632 134.493 278.189 134.309 282.128C134.125 286.067 148.273 299.715 148.273 299.715L151.947 296.051L146.252 284.143L161.685 269.854L156.816 261.243Z" fill="#F57F1F"/>
<path d="M144.231 281.487C144.323 282.036 144.598 282.586 144.874 283.044C145.149 283.502 145.425 283.96 145.792 284.418L146.619 285.426L146.711 284.143C146.711 283.685 146.711 283.227 146.711 282.861C146.711 282.403 146.619 281.945 146.436 281.487C146.16 281.945 146.068 282.311 145.884 282.769C145.792 283.227 145.701 283.594 145.609 284.052L146.527 283.777C146.252 283.319 145.884 282.861 145.517 282.494C145.149 282.128 144.69 281.762 144.231 281.487Z" fill="#121B46"/>
<path d="M151.121 295.41C150.202 295.593 149.559 295.96 148.916 296.418C148.273 296.876 147.722 297.425 147.354 298.25C148.273 298.067 148.916 297.7 149.559 297.242C150.202 296.784 150.753 296.235 151.121 295.41Z" fill="#121B46"/>
<path d="M153.326 277.64L158.562 274.8L153.785 279.472L153.326 277.64Z" fill="#121B46"/>
<path d="M157.184 243.656C157.46 242.74 158.47 242.007 159.481 242.19C159.022 229.366 169.77 231.015 169.77 231.015C176.476 231.565 177.303 238.709 177.211 242.373C177.395 242.282 177.67 242.19 177.762 242.099C178.773 241.824 179.783 242.557 180.059 243.564C180.335 244.297 180.151 245.121 179.692 245.763C179.324 246.312 178.773 246.77 178.13 247.045C177.946 247.137 177.395 247.228 176.936 247.137C175.925 255.564 168.208 254.739 168.208 254.739C161.594 255.106 159.848 250.434 159.481 247.137C159.205 247.137 159.022 247.045 158.93 247.045C158.287 246.77 157.735 246.312 157.368 245.763C157.092 245.213 156.909 244.389 157.184 243.656Z" fill="#CC6F49"/>
<path d="M162.972 249.06C161.754 249.06 160.767 248.076 160.767 246.862C160.767 245.648 161.754 244.663 162.972 244.663C164.189 244.663 165.177 245.648 165.177 246.862C165.177 248.076 164.189 249.06 162.972 249.06Z" fill="#C4533A"/>
<path d="M173.72 249.06C172.502 249.06 171.515 248.076 171.515 246.862C171.515 245.648 172.502 244.663 173.72 244.663C174.938 244.663 175.925 245.648 175.925 246.862C175.925 248.076 174.938 249.06 173.72 249.06Z" fill="#C4533A"/>
<path d="M165.636 244.022C165.281 244.022 164.993 243.448 164.993 242.74C164.993 242.031 165.281 241.457 165.636 241.457C165.991 241.457 166.279 242.031 166.279 242.74C166.279 243.448 165.991 244.022 165.636 244.022Z" fill="#121B46"/>
<path d="M164.349 240.999C164.441 241.183 164.625 241.366 164.809 241.549C164.993 241.732 165.176 241.824 165.452 241.915C165.544 241.915 165.728 241.824 165.728 241.732C165.728 241.641 165.636 241.457 165.544 241.457C165.544 241.457 165.544 241.457 165.452 241.457C165.084 241.457 164.717 241.274 164.441 240.908C164.441 240.908 164.349 240.908 164.349 240.999Z" fill="#121B46"/>
<path d="M171.057 244.022C170.702 244.022 170.414 243.448 170.414 242.74C170.414 242.031 170.702 241.457 171.057 241.457C171.412 241.457 171.7 242.031 171.7 242.74C171.7 243.448 171.412 244.022 171.057 244.022Z" fill="#121B46"/>
<path d="M172.158 240.908C171.883 241.183 171.515 241.457 171.148 241.457C171.056 241.457 170.872 241.549 170.872 241.641C170.872 241.732 170.964 241.915 171.056 241.915C171.056 241.915 171.056 241.915 171.148 241.915C171.423 241.824 171.607 241.732 171.791 241.549C171.975 241.366 172.067 241.183 172.25 240.999V240.908C172.25 240.908 172.158 240.908 172.158 240.908Z" fill="#121B46"/>
<path d="M166.003 246.587C166.187 247.045 166.554 247.411 166.922 247.686C167.289 247.961 167.84 248.144 168.3 248.144C168.851 248.144 169.31 247.961 169.678 247.686C169.861 247.595 170.045 247.411 170.229 247.228C170.413 247.045 170.505 246.862 170.688 246.678C170.505 246.862 170.321 246.953 170.137 247.137C169.953 247.228 169.77 247.411 169.586 247.503C169.218 247.686 168.759 247.869 168.392 247.869C167.932 247.869 167.565 247.778 167.197 247.503C166.646 247.137 166.279 246.862 166.003 246.587Z" fill="#121B46"/>
<path d="M167.657 248.785C167.84 248.969 168.116 248.969 168.3 248.969C168.575 248.969 168.759 248.877 168.943 248.785C168.667 248.785 168.483 248.877 168.3 248.877C168.116 248.877 167.932 248.877 167.657 248.785Z" fill="#121B46"/>
<path d="M169.862 238.251C170.137 237.977 170.505 237.885 170.872 237.885C171.24 237.885 171.607 237.885 171.883 238.068C172.25 238.16 172.526 238.343 172.801 238.618C173.077 238.801 173.261 239.167 173.444 239.442C173.536 239.625 173.444 239.809 173.353 239.809C173.261 239.9 173.077 239.809 172.985 239.809C172.801 239.625 172.618 239.442 172.342 239.351C172.158 239.167 171.883 239.167 171.699 239.076C171.423 238.984 171.24 238.984 170.964 238.984C170.688 238.984 170.413 238.984 170.137 238.984H170.045C169.862 238.984 169.77 238.801 169.77 238.618C169.77 238.343 169.862 238.343 169.862 238.251Z" fill="#121B46"/>
<path d="M166.738 238.251C166.463 237.977 166.095 237.885 165.728 237.885C165.36 237.885 164.993 237.885 164.717 238.068C164.35 238.16 164.074 238.343 163.798 238.618C163.523 238.801 163.339 239.167 163.155 239.442C163.063 239.625 163.155 239.809 163.247 239.809C163.339 239.9 163.523 239.809 163.615 239.809C163.798 239.625 163.982 239.442 164.258 239.351C164.442 239.167 164.717 239.167 164.901 239.076C165.176 238.984 165.36 238.984 165.636 238.984C165.911 238.984 166.187 238.984 166.463 238.984H166.554C166.738 238.984 166.83 238.801 166.738 238.618C166.83 238.343 166.83 238.343 166.738 238.251Z" fill="#121B46"/>
<path d="M168.208 240.724C168.116 241.182 168.024 241.64 167.932 242.19C167.84 242.648 167.748 243.106 167.656 243.564C167.656 243.656 167.565 243.747 167.565 243.93C167.565 244.022 167.473 244.205 167.473 244.297C167.473 244.572 167.656 244.938 167.932 245.03C168.208 245.213 168.483 245.121 168.759 245.03C169.034 244.938 169.218 244.846 169.402 244.663C168.943 244.846 168.391 244.938 168.116 244.755C167.932 244.663 167.84 244.48 167.932 244.297C167.932 244.205 167.932 244.114 168.024 244.022C168.116 243.93 168.116 243.747 168.116 243.656C168.208 243.198 168.299 242.648 168.391 242.19C168.208 241.732 168.208 241.274 168.208 240.724Z" fill="#121B46"/>
<path d="M179.324 244.389C179.324 244.114 179.232 243.747 178.956 243.564C178.681 243.381 178.313 243.381 178.038 243.473C177.762 243.564 177.486 243.839 177.303 244.022C177.119 244.297 176.935 244.572 176.843 244.847C176.843 244.938 176.843 245.121 176.935 245.121C177.027 245.121 177.119 245.121 177.211 245.03C177.395 244.847 177.67 244.572 177.946 244.48C178.038 244.48 178.129 244.48 178.221 244.48C178.313 244.572 178.405 244.663 178.405 244.847C178.497 245.121 178.589 245.488 178.313 245.579C178.038 245.763 177.67 245.671 177.394 245.671C177.67 245.763 178.038 245.946 178.405 245.854C178.589 245.763 178.772 245.579 178.772 245.396C178.772 245.213 178.773 245.03 178.681 244.847C178.589 244.663 178.589 244.48 178.405 244.297C178.221 244.114 177.946 244.114 177.762 244.205C177.395 244.297 177.119 244.572 176.843 244.847L177.211 245.03C177.395 244.572 177.762 244.022 178.221 243.839C178.497 243.747 178.773 243.656 178.956 243.839C179.048 243.839 179.232 244.114 179.324 244.389Z" fill="#121B46"/>
<path d="M157.643 244.389C157.643 244.114 157.735 243.747 158.011 243.564C158.286 243.381 158.654 243.381 158.929 243.473C159.205 243.564 159.48 243.839 159.664 244.022C159.848 244.297 160.032 244.572 160.124 244.847C160.124 244.938 160.124 245.121 160.032 245.121C159.94 245.121 159.848 245.121 159.756 245.03C159.572 244.847 159.297 244.572 159.021 244.48C158.929 244.48 158.837 244.48 158.746 244.48C158.654 244.572 158.562 244.663 158.562 244.847C158.47 245.121 158.378 245.488 158.654 245.579C158.929 245.763 159.297 245.671 159.572 245.671C159.297 245.763 158.929 245.946 158.562 245.854C158.378 245.763 158.194 245.579 158.194 245.396C158.194 245.213 158.194 245.03 158.286 244.847C158.378 244.663 158.378 244.48 158.562 244.297C158.746 244.114 159.021 244.114 159.205 244.205C159.572 244.297 159.848 244.572 160.124 244.847L159.756 245.03C159.572 244.572 159.205 244.022 158.746 243.839C158.47 243.747 158.194 243.656 158.011 243.839C157.919 243.839 157.735 244.114 157.643 244.389Z" fill="#121B46"/>
<path d="M155.347 261.243H155.439C157.827 260.602 159.205 258.037 158.654 255.656C157.827 251.35 156.449 243.748 156.633 241.549C157 238.526 159.021 229.916 167.106 229.275C175.098 228.634 180.059 233.946 180.977 241.732C181.988 249.427 179.416 257.854 179.416 257.854C179.508 259.045 183.55 262.892 184.836 264.083C185.02 264.266 184.928 264.449 184.744 264.541C172.618 268.388 158.746 263.258 155.347 261.793C155.071 261.61 155.071 261.335 155.347 261.243ZM168.3 254.373C172.985 254.373 176.752 249.976 176.752 244.664C176.752 239.259 172.985 234.954 168.3 234.954C163.615 234.954 159.848 239.351 159.848 244.664C159.94 249.976 163.707 254.373 168.3 254.373Z" fill="#121B46"/>
<path d="M183.366 263.991C179.783 262.709 176.292 261.243 172.985 259.594C171.331 258.77 169.678 257.854 168.116 256.755C166.554 255.655 165.176 254.556 163.798 253.182C164.809 254.831 166.187 256.205 167.657 257.396C169.127 258.587 170.78 259.594 172.526 260.51C174.271 261.335 176.017 262.067 177.854 262.709C179.599 263.258 181.437 263.716 183.366 263.991Z" fill="white"/>
<path d="M173.536 252.999C174.639 252.633 175.649 251.9 176.476 251.075C177.303 250.251 178.038 249.243 178.497 248.144C178.956 247.045 179.232 245.854 179.14 244.663C179.14 244.114 179.048 243.473 178.956 242.923C178.865 242.373 178.681 241.824 178.497 241.274C178.497 241.824 178.497 242.465 178.497 243.015C178.405 243.564 178.497 244.114 178.313 244.663L178.221 245.488L178.038 246.312C177.946 246.587 177.854 246.862 177.762 247.137C177.67 247.411 177.578 247.686 177.487 247.869C177.119 248.877 176.476 249.793 175.833 250.709C175.19 251.442 174.455 252.266 173.536 252.999Z" fill="white"/>
<path d="M175.098 238.709C175.098 238.709 168.024 235.503 161.594 238.709C161.594 238.709 168.116 228.267 175.098 238.709Z" fill="white"/>
<path d="M236.006 401.941H406.235C416.615 401.941 424.975 393.605 424.975 383.254V95.0807C424.975 84.7299 416.615 76.3943 406.235 76.3943H236.006C225.625 76.3943 217.265 84.7299 217.265 95.0807V383.254C217.265 393.513 225.625 401.941 236.006 401.941Z" fill="#DFDFDF"/>
<path d="M297.005 84.1804H345.143V87.7528H297.005V84.1804Z" fill="#ADADAD"/>
<path d="M298.291 383.804H343.949V393.055H298.291V383.804Z" fill="#ADADAD"/>
<path d="M222.226 97.3708H419.923V377.85H222.226V97.3708Z" fill="white"/>
<path d="M222.226 97.3708H419.923V108.088H222.226V97.3708Z" fill="black"/>
<path d="M402.376 304.02C398.013 304.02 394.476 300.493 394.476 296.143C394.476 291.792 398.013 288.265 402.376 288.265C406.739 288.265 410.277 291.792 410.277 296.143C410.277 300.493 406.739 304.02 402.376 304.02Z" fill="#DA2526"/>
<path d="M402.376 369.972C398.013 369.972 394.476 366.445 394.476 362.095C394.476 357.744 398.013 354.217 402.376 354.217C406.739 354.217 410.277 357.744 410.277 362.095C410.277 366.445 406.739 369.972 402.376 369.972Z" fill="#DA2526"/>
<path d="M380.42 304.02C376.057 304.02 372.52 300.493 372.52 296.143C372.52 291.792 376.057 288.265 380.42 288.265C384.784 288.265 388.321 291.792 388.321 296.143C388.321 300.493 384.784 304.02 380.42 304.02Z" fill="#DA2526"/>
<path d="M325.759 290.005H368.018V294.127H325.759V290.005Z" fill="#EDAEB1"/>
<path d="M233.342 309.241H408.899V313.363H233.342V309.241Z" fill="#EDAEB1"/>
<path d="M233.342 317.577H408.899V321.699H233.342V317.577Z" fill="#EDAEB1"/>
<path d="M366.64 325.912H408.899V330.035H366.64V325.912Z" fill="#EDAEB1"/>
<path d="M348.91 355.591H391.168V359.713H348.91V355.591Z" fill="#EDAEB1"/>
<path d="M394.701 147.601C393.696 143.367 396.323 139.121 400.568 138.116C404.813 137.111 409.069 139.729 410.074 143.962C411.078 148.196 408.451 152.442 404.206 153.447C399.961 154.452 395.705 151.834 394.701 147.601Z" fill="#DA2526"/>
<path d="M348.91 139.232H391.168V143.354H348.91V139.232Z" fill="#EAA0A3"/>
<path d="M299.853 297.7H368.018V301.822H299.853V297.7Z" fill="#EDAEB1"/>
<path d="M222.226 156.453H419.923V284.509H222.226V156.453Z" fill="#DA2526"/>
<path d="M277.07 295.959C283.409 295.959 289.84 293.028 294.892 290.738C301.507 287.715 305.733 279.563 304.355 272.418C303.436 267.563 299.761 263.35 295.352 262.159C294.892 262.067 294.433 261.884 293.882 261.793C293.147 261.609 292.412 261.518 291.769 261.243C289.288 260.235 287.359 257.762 286.624 254.556C285.981 251.808 286.165 248.785 286.349 245.946V245.488C286.624 240.541 286.808 235.32 284.971 230.557C283.317 226.16 279.183 221.489 273.763 221.122C273.12 221.031 272.477 221.122 271.834 221.122C270.915 221.122 270.088 221.122 269.261 221.031C265.311 220.298 262.831 216.267 260.81 212.97C258.789 209.672 255.573 205.367 250.98 205.367C248.132 205.459 245.376 207.382 243.998 210.222C242.896 212.695 242.804 215.718 243.723 218.741C243.998 219.565 244.366 220.481 244.641 221.305C245.652 223.962 246.662 226.435 245.652 228.725C245.192 229.733 244.366 230.649 243.539 231.473C243.263 231.839 242.896 232.114 242.62 232.481C238.486 237.244 237.935 244.847 241.242 250.251C243.447 253.823 247.122 256.205 250.613 258.587C255.022 261.609 259.156 264.449 260.626 269.212C261.361 271.685 261.177 274.25 260.993 276.907C260.81 279.197 260.626 281.67 261.085 283.96C262.004 288.631 265.587 292.845 270.364 294.769C272.569 295.593 274.865 295.959 277.07 295.959ZM272.661 222.038C273.028 222.038 273.304 222.038 273.671 222.038C278.632 222.405 282.49 226.71 283.96 230.832C285.706 235.412 285.522 240.541 285.246 245.305V245.763C285.063 248.694 284.879 251.717 285.522 254.739C286.349 258.312 288.553 261.06 291.309 262.159C292.044 262.434 292.871 262.617 293.606 262.8C294.065 262.892 294.525 262.983 294.984 263.167C299.026 264.357 302.333 268.113 303.252 272.601C304.538 279.105 300.496 286.891 294.433 289.731C287.819 292.753 278.632 296.967 270.823 293.669C266.414 291.837 263.106 287.99 262.188 283.593C261.728 281.395 261.912 279.105 262.096 276.815C262.28 274.159 262.463 271.319 261.728 268.663C260.259 263.533 255.665 260.51 251.347 257.487C247.948 255.197 244.457 252.816 242.345 249.427C239.221 244.48 239.772 237.335 243.631 232.939C243.906 232.572 244.182 232.297 244.549 232.023C245.376 231.107 246.295 230.191 246.846 228.908C248.04 226.16 246.938 223.321 245.836 220.664C245.468 219.84 245.192 219.015 244.917 218.191C243.998 215.443 244.09 212.603 245.101 210.405C246.203 207.932 248.683 206.191 251.072 206.191C255.114 206.191 258.146 210.222 259.983 213.245C262.096 216.725 264.76 221.031 269.17 221.763C270.088 221.947 271.099 221.947 272.017 221.855C272.109 222.038 272.385 222.038 272.661 222.038Z" fill="#EA575F"/>
<path d="M241.242 198.864C243.263 198.864 244.825 197.215 244.825 195.291C244.825 193.276 243.171 191.719 241.242 191.719C239.313 191.719 237.659 193.368 237.659 195.291C237.567 197.215 239.221 198.864 241.242 198.864ZM241.242 192.726C242.62 192.726 243.814 193.826 243.814 195.291C243.814 196.665 242.712 197.856 241.242 197.856C239.864 197.856 238.67 196.757 238.67 195.291C238.67 193.826 239.772 192.726 241.242 192.726Z" fill="#EA575F"/>
<path d="M257.135 179.902C257.135 180.635 257.778 181.276 258.513 181.276C259.248 181.276 259.891 180.635 259.891 179.902C259.891 179.17 259.248 178.528 258.513 178.528C257.778 178.528 257.135 179.17 257.135 179.902Z" fill="#EA575F"/>
<path d="M400.998 258.587C400.034 258.587 399.253 257.808 399.253 256.846C399.253 255.885 400.034 255.106 400.998 255.106C401.962 255.106 402.744 255.885 402.744 256.846C402.744 257.808 401.962 258.587 400.998 258.587Z" fill="#EA575F"/>
<path d="M241.517 266.373C243.355 266.373 244.825 264.907 244.825 263.075C244.825 261.243 243.355 259.778 241.517 259.778C239.68 259.778 238.21 261.243 238.21 263.075C238.118 264.816 239.68 266.373 241.517 266.373ZM241.517 260.785C242.804 260.785 243.814 261.793 243.814 263.075C243.814 264.358 242.804 265.365 241.517 265.365C240.231 265.365 239.221 264.358 239.221 263.075C239.221 261.793 240.231 260.785 241.517 260.785Z" fill="#EA575F"/>
<path d="M350.747 256.388C350.747 256.388 361.128 273.426 364.16 288.265H294.433C294.433 288.265 299.761 262.617 305.824 256.572L350.747 256.388Z" fill="#121B46"/>
<path d="M352.401 261.427C350.38 261.335 348.359 261.243 346.338 261.152L340.275 260.969C336.233 260.877 332.19 260.877 328.056 260.877C324.014 260.877 319.972 260.877 315.838 260.969L309.775 261.152C307.754 261.243 305.733 261.335 303.712 261.427C305.733 261.518 307.754 261.61 309.775 261.701L315.838 261.885C319.88 261.976 323.922 261.976 328.056 261.976C332.099 261.976 336.141 261.976 340.275 261.885L346.338 261.701C348.359 261.61 350.38 261.518 352.401 261.427Z" fill="white"/>
<path d="M345.327 261.793C345.603 263.167 346.062 264.449 346.613 265.64C347.164 266.831 347.991 268.022 348.818 269.121C349.737 270.129 350.839 271.136 352.125 271.686C353.411 272.327 354.973 272.419 356.259 271.961C354.881 271.961 353.595 271.594 352.493 270.953C351.39 270.312 350.472 269.396 349.645 268.48C347.991 266.465 346.613 264.175 345.327 261.793Z" fill="white"/>
<path d="M324.473 261.243C324.289 264.633 324.198 268.113 324.106 271.503L324.014 276.632V281.762V281.945L324.198 282.128C326.035 283.96 327.872 285.884 329.802 287.716L330.72 288.632V287.349C330.628 283.044 330.72 278.647 330.628 274.342C330.536 270.037 330.445 265.64 330.261 261.335C330.077 265.64 329.985 270.037 329.893 274.342C329.802 278.647 329.802 283.044 329.802 287.349L330.72 286.983C328.883 285.151 326.954 283.227 325.116 281.395L325.3 281.762V276.632L325.208 271.503C324.749 268.113 324.565 264.724 324.473 261.243Z" fill="white"/>
<path d="M308.672 261.427C308.488 262.709 308.305 263.9 308.029 264.999C307.754 266.19 307.294 267.289 306.651 268.205C306.008 269.121 305.089 269.854 304.079 270.312C302.976 270.77 301.782 270.861 300.588 270.953C301.782 271.319 303.068 271.502 304.354 271.136C305.641 270.861 306.835 269.945 307.57 268.846C308.305 267.747 308.672 266.465 308.856 265.182C308.948 263.9 308.948 262.617 308.672 261.427Z" fill="white"/>
<path d="M270.455 186.223L279.091 186.497C279.091 186.497 281.847 199.138 285.705 215.993C286.991 213.977 288.186 212.145 289.196 210.313C293.055 217.825 297.74 224.786 302.792 231.565C299.945 236.419 296.637 241.732 292.871 247.228C292.779 247.32 292.779 247.411 292.687 247.503C286.073 257.304 270.731 253.732 269.169 242.007C269.169 241.915 269.169 241.732 269.077 241.641C266.781 223.962 266.413 204.726 270.455 186.223Z" fill="#F7BB8B"/>
<path d="M275.508 173.49C275.692 171.292 275.967 168.91 276.335 169.002C276.978 169.093 277.253 170.651 277.529 172.666C276.886 172.941 276.243 173.215 275.508 173.49Z" fill="#F28766"/>
<path d="M271.925 176.238C271.925 173.857 272.109 169.094 272.936 168.727C273.579 168.361 274.222 171.384 274.681 173.948C273.579 174.59 272.66 175.414 271.925 176.238Z" fill="#F28766"/>
<path d="M265.862 173.124C266.413 173.49 267.424 174.681 268.618 177.979C268.618 177.979 267.791 170.651 268.618 169.551C269.261 168.727 270.915 174.315 271.558 176.696C271.099 177.246 270.823 177.887 270.639 178.437C270.364 179.353 270.272 180.269 270.364 181.001C269.353 183.749 271.007 186.955 274.038 187.963C275.141 188.329 276.335 188.421 277.529 188.238C278.448 188.513 279.366 188.604 280.285 188.513C279.642 189.703 278.815 190.894 277.897 191.993L271.925 190.894C271.925 190.894 265.403 178.528 265.311 173.399C265.311 173.032 265.678 172.941 265.862 173.124Z" fill="#F7BB8B"/>
<path d="M286.899 229.275C286.991 227.077 286.899 224.787 286.716 222.588C286.624 221.489 286.532 220.39 286.44 219.291C286.348 218.191 286.164 217.092 286.073 215.993L285.246 216.268C286.348 217.917 287.451 219.565 288.645 221.123C287.91 219.291 286.991 217.55 285.981 215.81L284.97 213.978L285.062 216.085C285.154 217.184 285.246 218.283 285.338 219.382C285.43 220.481 285.521 221.581 285.705 222.68C286.073 224.878 286.44 227.077 286.899 229.275Z" fill="#121B46"/>
<path d="M283.868 170.009L273.579 189.337C273.12 190.161 272.201 190.528 271.282 190.345C269.353 189.795 266.322 188.604 265.587 186.223C264.484 182.65 273.763 164.605 273.763 164.605L283.868 170.009Z" fill="#DFDFDF"/>
<path d="M294.984 145.003L298.475 146.01C299.485 146.285 300.22 147.384 300.036 148.483C299.577 151.598 298.199 158.559 294.157 167.719C293.698 168.727 292.595 169.277 291.493 168.91L288.37 167.994L294.984 145.003Z" fill="#D3691A"/>
<path d="M277.805 135.66L294.249 140.607C296.637 141.339 296.546 148.759 294.065 157.186C291.493 165.613 287.543 171.842 285.062 171.201L268.618 166.255L277.805 135.66Z" fill="#F57F1F"/>
<path d="M268.802 149.674C266.23 158.101 266.138 165.521 268.618 166.254C271.007 166.987 275.049 160.758 277.621 152.239C280.193 143.812 280.285 136.392 277.805 135.659C275.416 134.927 271.374 141.155 268.802 149.674Z" fill="#FC9447"/>
<path d="M246.754 115.966L277.254 139.415L277.162 141.522C276.794 149.491 274.222 157.369 269.904 163.964L231.963 164.147L246.754 115.966Z" fill="#DFDFDF"/>
<path d="M226.635 136.209C222.593 149.674 224.338 162.04 230.493 163.872C235.27 165.338 241.334 159.933 245.651 151.231C246.937 148.667 248.04 145.827 248.958 142.804C249.785 140.056 250.336 137.4 250.704 134.835C252.082 124.759 249.969 116.607 245.1 115.141C238.945 113.401 230.677 122.744 226.635 136.209Z" fill="#C4C4C4"/>
<path d="M239.221 139.965C236.74 148.3 236.465 156.27 238.027 161.582C242.252 158.101 246.386 151.232 248.959 142.896C251.439 134.56 251.715 126.591 250.153 121.278C245.927 124.851 241.793 131.629 239.221 139.965Z" fill="#919191"/>
<path d="M239.129 134.011L235.822 145.003L245.652 151.323C246.938 148.758 248.04 145.919 248.959 142.896C249.786 140.148 250.337 137.492 250.704 134.927L239.129 134.011Z" fill="#EBEBEB"/>
<path d="M234.995 138.682C234.077 141.705 234.444 144.545 235.822 144.911C237.2 145.369 239.037 143.171 239.956 140.148C240.875 137.125 240.507 134.285 239.129 133.919C237.751 133.553 235.822 135.659 234.995 138.682Z" fill="#F57F1F"/>
<path d="M274.13 137.583C273.762 139.873 273.211 142.255 272.752 144.545C272.201 146.835 271.65 149.125 270.915 151.323C270.18 153.521 269.353 155.72 268.434 157.827C267.424 159.933 266.229 161.949 264.851 163.872C266.597 162.223 268.067 160.3 269.169 158.193C270.363 156.086 271.19 153.888 271.925 151.598C272.66 149.308 273.211 147.018 273.579 144.636C273.946 142.346 274.222 139.965 274.13 137.583Z" fill="black"/>
<path d="M287.451 167.994C285.246 166.895 283.041 166.162 280.744 165.43C278.448 164.788 276.151 164.147 273.763 163.872C275.967 164.972 278.172 165.704 280.469 166.437C282.765 167.078 285.062 167.719 287.451 167.994Z" fill="black"/>
<path d="M236.373 138.774C236.281 139.324 236.097 139.873 236.097 140.423C236.097 140.698 236.097 140.972 236.097 141.247C236.097 141.43 236.097 141.522 236.189 141.705C236.281 141.888 236.373 142.072 236.649 142.163C236.924 142.255 237.108 142.163 237.292 142.072C237.475 141.98 237.567 141.888 237.751 141.797C237.935 141.614 238.118 141.339 238.302 141.064C238.578 140.514 238.853 139.965 238.945 139.415C239.037 138.866 239.129 138.224 239.129 137.675C239.129 137.4 239.037 137.034 238.945 136.759C238.853 136.576 238.853 136.484 238.761 136.301C238.67 136.118 238.486 136.026 238.21 135.934C237.935 135.934 237.751 136.026 237.659 136.118C237.567 136.209 237.475 136.392 237.383 136.484C237.2 136.759 237.108 137.034 237.016 137.217C236.649 137.766 236.465 138.316 236.373 138.774ZM236.373 138.774C236.465 138.224 236.74 137.766 237.016 137.217C237.2 136.942 237.292 136.759 237.475 136.576C237.659 136.392 237.935 136.301 238.027 136.392C238.118 136.392 238.118 136.667 238.21 136.85C238.21 137.125 238.21 137.308 238.21 137.583C238.118 138.041 238.027 138.591 237.935 139.049C237.843 139.507 237.659 140.056 237.475 140.514C237.383 140.789 237.292 140.972 237.2 141.156C237.108 141.339 236.924 141.522 236.832 141.522C236.74 141.522 236.557 141.339 236.465 141.064C236.373 140.789 236.281 140.514 236.281 140.24C236.189 139.873 236.189 139.324 236.373 138.774Z" fill="#121B46"/>
<path d="M244.182 116.24C241.793 116.79 239.496 117.889 237.475 119.355C236.465 120.087 235.638 121.003 234.811 122.011C233.984 123.019 233.433 124.026 232.698 125.125C230.126 129.339 228.105 133.919 226.635 138.682C225.9 141.064 225.349 143.445 224.982 145.919C224.614 148.392 224.614 150.957 224.982 153.43C225.441 155.903 226.084 158.285 227.554 160.483C228.289 161.491 229.299 162.407 230.494 162.865C231.688 163.323 233.066 163.323 234.168 162.865C233.617 163.048 232.974 163.139 232.331 163.048C231.688 163.048 231.137 162.865 230.585 162.59C229.483 162.04 228.656 161.216 228.013 160.208C226.727 158.193 226.176 155.72 225.808 153.338C225.165 148.575 226.176 143.629 227.646 139.049C229.116 134.377 231.045 129.889 233.433 125.583C234.076 124.576 234.628 123.477 235.362 122.469C236.097 121.461 236.924 120.637 237.843 119.813C239.68 118.164 241.885 116.973 244.182 116.24Z" fill="black"/>
<path d="M279.55 190.436C279.55 190.436 283.133 182.65 282.765 180.818C282.398 179.078 278.356 174.681 276.426 175.414C274.497 176.147 277.437 181.643 277.437 181.643C277.437 181.643 272.66 187.413 273.211 190.345C273.762 193.276 279.55 190.436 279.55 190.436Z" fill="#F7BB8B"/>
<path d="M314.368 184.116C314.368 184.116 298.842 192.36 296.086 195.566C293.422 198.772 286.256 213.886 286.256 213.886L301.782 234.679C301.782 234.679 318.41 210.039 314.368 184.116Z" fill="#FDB32C"/>
<path d="M311.244 189.52C311.887 188.421 312.163 187.322 311.979 186.314C312.898 185.673 313.633 184.94 314.368 184.116C314.643 183.108 315.286 180.727 315.746 177.979C316.205 175.505 316.481 172.849 316.297 170.742C316.205 169.735 316.021 168.819 315.562 168.177L339.172 154.896C339.172 154.987 339.172 155.079 339.172 155.079C338.804 157.277 335.956 174.406 338.896 183.566C340.642 184.391 342.846 184.94 345.602 185.032C348.542 185.123 351.39 186.131 353.503 188.146C355.8 190.345 357.821 193.917 357.913 199.963C355.708 200.237 353.595 200.695 351.39 201.062C344.959 202.253 338.529 203.443 332.006 204.543C323.646 205.917 315.103 206.191 306.651 207.199C307.018 200.97 308.305 194.467 311.244 189.52Z" fill="#F7BB8B"/>
<path d="M315.746 178.07C328.607 179.719 335.13 164.422 335.313 163.781C332.925 167.536 329.526 169.46 326.127 170.376C321.993 171.475 317.951 171.109 316.297 170.834H316.205C316.481 172.941 316.205 175.597 315.746 178.07Z" fill="#EBA771"/>
<path d="M339.447 183.475C339.447 183.475 324.289 200.237 319.788 197.489C315.286 194.741 314.184 184.665 314.184 184.665C314.184 184.665 298.934 197.856 296.729 202.161C294.616 206.466 294.8 214.802 300.128 227.992C305.457 241.183 303.436 258.953 303.436 258.953H352.4C352.4 258.953 348.266 250.434 349.553 240.45C350.839 230.465 362.598 198.68 362.598 198.68C362.598 198.68 364.986 184.024 339.447 183.475Z" fill="#F57F1F"/>
<path d="M339.907 185.215C338.712 186.498 337.518 187.78 336.232 189.062C334.946 190.345 333.752 191.536 332.374 192.726C330.996 193.826 329.71 195.016 328.24 196.024C326.77 197.032 325.3 197.948 323.738 198.497C322.176 199.138 320.431 199.322 318.961 198.68C317.399 198.131 316.297 196.757 315.47 195.2C314.643 193.642 314.184 191.994 313.908 190.253C313.541 188.513 313.357 186.772 313.357 185.032C313.082 188.513 313.265 192.177 314.735 195.566C315.47 197.215 316.756 198.772 318.502 199.596C319.42 199.963 320.339 200.146 321.35 200.146C322.268 200.054 323.187 199.871 324.106 199.596C325.851 198.955 327.413 197.948 328.883 196.94C330.353 195.841 331.731 194.742 332.925 193.459C335.497 190.803 337.886 188.146 339.907 185.215Z" fill="black"/>
<path d="M304.63 204.909C303.803 207.291 302.701 209.489 301.506 211.688C300.404 213.886 299.302 216.268 299.026 218.832C298.75 221.397 299.118 223.962 299.761 226.344C300.404 228.817 301.415 231.107 302.425 233.305C301.782 230.924 301.047 228.542 300.588 226.069C300.128 223.687 299.853 221.214 300.036 218.832C300.22 216.451 301.231 214.161 302.241 211.871C302.701 210.772 303.252 209.581 303.619 208.39C304.079 207.382 304.446 206.192 304.63 204.909Z" fill="black"/>
<path d="M327.504 232.939C325.759 232.298 323.922 232.206 322.176 232.298C320.339 232.481 318.593 232.939 317.032 233.763C318.869 233.672 320.523 233.488 322.268 233.305C324.013 233.214 325.667 233.122 327.504 232.939Z" fill="black"/>
<path d="M367.742 228.542C368.753 227.626 369.763 226.71 370.774 225.794C375.367 221.489 380.144 217.275 384.646 212.97C385.932 214.344 387.218 215.718 388.504 217.183C391.444 220.481 394.476 224.053 397.415 227.809C401.274 232.572 401.366 239.259 397.783 244.205C395.394 247.503 392.914 250.709 390.25 253.915C382.533 263.167 373.714 271.96 363.7 279.197L357.453 273.334C357.453 273.334 366.181 257.762 376.745 238.618C373.714 235.229 370.682 231.748 367.742 228.542Z" fill="#F7BB8B"/>
<path d="M364.16 277.456C364.16 277.456 360.852 291.013 357.453 294.952C357.27 295.227 356.902 295.135 356.81 294.769C356.627 294.127 356.718 292.57 357.913 289.364C357.913 289.364 353.687 295.41 352.309 295.593C351.023 295.776 355.34 287.349 355.34 287.349C355.34 287.349 349.828 293.669 348.634 293.395C347.44 293.12 352.676 285.334 352.676 285.334C352.676 285.334 346.613 291.471 346.154 290.921C345.143 289.547 353.411 280.662 352.309 279.838C351.39 279.197 348.634 280.387 347.348 281.303C347.072 281.487 346.705 281.395 346.613 281.12C346.337 280.571 346.154 279.563 347.44 278.555C349.461 276.998 353.779 273.701 360.301 272.693L364.16 277.456Z" fill="#F7BB8B"/>
<path d="M380.879 234.496C379.869 234.862 379.134 235.503 378.491 236.145C377.848 236.877 377.205 237.61 376.837 238.526C377.848 238.16 378.583 237.519 379.226 236.877C379.869 236.236 380.512 235.503 380.879 234.496Z" fill="#121B46"/>
<path d="M388.872 216.542L371.049 232.939L348.542 209.855C348.542 209.855 347.072 185.856 351.941 185.398C359.107 184.665 382.073 206.741 388.872 216.542Z" fill="#F57F1F"/>
<path d="M356.167 217.55L347.072 209.031L353.687 225.427L356.167 217.55Z" fill="black"/>
<path d="M303.711 149.308C303.987 142.346 304.814 135.201 307.202 129.064C310.326 121.186 324.841 118.072 335.038 126.866C339.723 130.988 340.734 138.316 340.458 145.094C340.734 145.002 340.917 144.911 341.101 144.819C343.122 144.27 345.235 145.827 345.878 147.75C346.338 149.308 346.062 151.048 345.143 152.422C344.408 153.521 343.214 154.62 341.928 155.078C341.652 155.17 340.183 155.445 339.172 155.353C338.161 159.842 335.957 163.872 332.374 166.803C327.964 170.467 322.268 171.933 316.573 170.742C312.163 169.826 305.641 166.986 304.079 162.498C303.62 161.307 303.62 160.025 303.62 158.742C303.62 158.468 303.62 158.193 303.62 157.826C303.62 155.262 303.62 152.33 303.711 149.308Z" fill="#F7BB8B"/>
<path d="M303.62 158.01C303.987 158.101 304.355 158.193 304.814 158.193C307.294 158.193 309.315 156.178 309.315 153.704C309.315 151.231 307.294 149.216 304.814 149.216C304.446 149.216 304.079 149.216 303.712 149.308C303.62 152.33 303.62 155.262 303.62 158.01Z" fill="#EBA771"/>
<path d="M331.731 153.704C331.731 156.178 329.71 158.193 327.229 158.193C324.749 158.193 322.728 156.178 322.728 153.704C322.728 151.231 324.749 149.216 327.229 149.216C329.71 149.216 331.731 151.231 331.731 153.704Z" fill="#EBA771"/>
<path d="M311.612 145.003C311.612 146.468 311.061 147.659 310.326 147.659C309.591 147.659 309.04 146.468 309.04 145.003C309.04 143.537 309.591 142.346 310.326 142.346C311.061 142.346 311.612 143.537 311.612 145.003Z" fill="#121B46"/>
<path d="M307.662 141.43C307.845 141.888 308.213 142.255 308.58 142.529C308.948 142.896 309.407 143.079 309.958 143.262C310.234 143.354 310.51 143.171 310.51 142.896C310.601 142.621 310.418 142.346 310.142 142.346H310.05C309.315 142.346 308.489 141.888 307.937 141.247C307.845 141.155 307.754 141.155 307.754 141.247C307.662 141.339 307.662 141.43 307.662 141.43Z" fill="#121B46"/>
<path d="M326.311 144.636C325.76 145.277 324.933 145.735 324.198 145.735C323.922 145.735 323.739 145.918 323.739 146.193C323.739 146.468 323.922 146.651 324.198 146.651H324.29C324.841 146.56 325.3 146.285 325.668 145.918C326.035 145.552 326.311 145.186 326.586 144.819C326.586 144.728 326.586 144.636 326.495 144.636C326.495 144.544 326.403 144.544 326.311 144.636Z" fill="#121B46"/>
<path d="M324.566 145.735C324.106 145.277 323.647 144.911 323.096 144.728C322.545 144.453 321.901 144.361 321.35 144.453C320.707 144.544 320.156 144.636 319.697 144.911C319.421 145.002 319.237 145.186 318.962 145.369L318.319 145.918C318.227 146.01 318.135 146.193 318.319 146.285C318.411 146.376 318.594 146.468 318.686 146.376L319.329 145.918C319.513 145.827 319.788 145.644 319.972 145.552C320.432 145.369 320.891 145.277 321.35 145.277C321.81 145.277 322.269 145.369 322.728 145.644C323.096 145.827 323.555 146.193 323.831 146.468C324.014 146.743 324.382 146.743 324.566 146.56C324.749 146.285 324.841 146.01 324.566 145.735Z" fill="#121B46"/>
<path d="M311.061 152.972C311.52 153.888 312.163 154.62 312.99 155.17C313.817 155.72 314.827 156.178 315.93 156.178C316.94 156.178 318.043 155.811 318.87 155.17C319.329 154.895 319.605 154.529 319.972 154.162C320.248 153.796 320.615 153.338 320.891 152.972C320.523 153.246 320.156 153.613 319.788 153.888C319.421 154.162 319.053 154.437 318.594 154.62C317.767 155.078 316.94 155.353 316.022 155.353C315.103 155.353 314.276 155.078 313.45 154.62C312.531 154.254 311.796 153.704 311.061 152.972Z" fill="#121B46"/>
<path d="M314.644 157.735C315.011 158.101 315.562 158.193 316.022 158.193C316.481 158.193 317.032 158.01 317.4 157.735C316.94 157.826 316.481 157.918 316.022 157.918C315.562 157.918 315.103 157.826 314.644 157.735Z" fill="#121B46"/>
<path d="M319.237 135.751C319.88 135.201 320.523 135.018 321.258 135.018C321.993 135.018 322.728 135.11 323.371 135.293C324.106 135.476 324.749 135.934 325.3 136.392C325.851 136.85 326.219 137.491 326.586 138.041C326.77 138.316 326.678 138.682 326.311 138.865C326.035 138.957 325.76 138.957 325.576 138.774L325.484 138.682C325.025 138.316 324.657 137.949 324.198 137.675C323.738 137.4 323.279 137.217 322.82 137.125C322.36 137.033 321.809 136.942 321.258 136.942C320.707 136.942 320.156 136.942 319.604 136.85H319.421C319.053 136.758 318.87 136.392 318.961 136.026C319.053 135.934 319.145 135.842 319.237 135.751Z" fill="#121B46"/>
<path d="M312.714 135.751C312.071 135.201 311.428 135.018 310.693 135.018C309.958 135.018 309.223 135.11 308.58 135.293C307.845 135.476 307.202 135.934 306.651 136.392C306.1 136.85 305.733 137.491 305.365 138.041C305.181 138.316 305.273 138.682 305.641 138.865C305.916 138.957 306.192 138.957 306.376 138.774L306.467 138.682C306.927 138.316 307.294 137.949 307.754 137.675C308.213 137.4 308.672 137.217 309.132 137.125C309.591 137.033 310.142 136.942 310.693 136.942C311.245 136.942 311.796 136.942 312.347 136.85H312.531C312.898 136.758 313.082 136.392 312.99 136.026C312.898 135.934 312.806 135.842 312.714 135.751Z" fill="#121B46"/>
<path d="M315.654 140.88C315.379 141.888 315.287 142.896 315.103 143.903C314.919 144.911 314.736 145.827 314.46 146.834C314.368 147.109 314.368 147.292 314.276 147.476C314.184 147.659 314.001 148.025 314.092 148.3C314.092 148.941 314.46 149.582 315.011 149.857C315.562 150.132 316.205 150.132 316.757 149.949C317.308 149.766 317.675 149.491 318.135 149.124C317.216 149.491 316.113 149.766 315.47 149.216C315.103 148.941 314.919 148.666 315.011 148.3C315.011 148.117 315.103 148.025 315.195 147.75C315.287 147.476 315.379 147.292 315.47 147.018C315.746 146.01 315.93 145.002 315.93 143.995C315.838 142.987 315.838 141.888 315.654 140.88Z" fill="#121B46"/>
<path d="M344.133 149.308C344.133 148.666 343.949 148.025 343.398 147.567C342.847 147.109 342.02 147.109 341.377 147.384C340.734 147.567 340.183 148.025 339.723 148.575C339.264 149.124 338.989 149.674 338.713 150.315C338.621 150.498 338.713 150.773 338.989 150.865C339.172 150.956 339.356 150.865 339.448 150.773C339.907 150.315 340.458 149.857 340.918 149.766C341.193 149.674 341.377 149.674 341.561 149.857C341.745 149.949 341.928 150.224 342.02 150.59C342.204 151.14 342.388 151.872 341.928 152.147C341.377 152.422 340.642 152.33 339.999 152.239C340.642 152.514 341.377 152.788 342.204 152.514C342.571 152.422 342.939 151.872 342.939 151.506C342.939 151.048 342.939 150.682 342.847 150.315C342.755 149.949 342.571 149.582 342.204 149.216C341.836 148.85 341.285 148.85 340.826 148.941C339.999 149.216 339.448 149.674 338.897 150.224L339.632 150.682C339.999 149.674 340.734 148.575 341.653 148.117C342.112 147.842 342.755 147.75 343.214 148.025C343.674 148.117 343.949 148.758 344.133 149.308Z" fill="#121B46"/>
<path d="M305.916 131.354C306.467 128.881 307.57 126.499 309.315 124.576C313.082 120.454 319.145 119.355 324.749 119.171C328.515 119.08 332.374 119.355 335.773 121.003C341.101 123.568 344.316 129.064 348.267 133.461C354.146 140.056 362.139 144.819 370.774 146.835C377.848 148.483 385.197 148.209 392.455 148.941C399.712 149.583 407.153 151.231 412.757 155.903C417.075 159.567 420.015 164.88 425.067 167.353C427.823 168.819 431.039 169.185 434.162 169.643L439.307 170.284C446.84 171.292 451.066 179.627 447.115 186.131C447.115 186.131 447.023 186.223 447.023 186.314C444.451 190.436 440.225 193.734 438.664 198.405C437.194 202.619 438.204 207.29 437.837 211.779C437.286 218.832 433.243 225.336 427.731 229.732C422.219 234.129 415.238 236.511 408.164 237.244C405.592 237.518 403.019 237.61 400.355 237.518C400.723 234.129 399.712 230.557 397.507 227.717C394.476 223.962 391.536 220.481 388.596 217.092C388.596 217 388.504 217 388.412 216.909L388.964 216.451C382.166 206.649 359.199 184.574 352.033 185.307C350.288 184.94 348.726 184.94 347.256 185.215C346.705 185.123 346.246 185.123 345.694 185.032C343.03 184.94 340.826 184.391 338.988 183.566C336.14 174.773 338.713 158.285 339.264 155.353C340.274 155.445 341.652 155.17 342.02 155.079C343.306 154.621 344.5 153.521 345.235 152.422C346.154 151.048 346.429 149.308 345.97 147.751C345.419 146.01 343.582 144.545 341.652 144.728C340.734 146.285 339.723 147.659 338.437 148.85C338.07 149.216 337.61 149.583 337.059 149.583C336.324 149.583 335.865 148.85 335.589 148.209C335.13 147.384 334.395 146.56 334.027 145.735C328.975 146.01 323.83 143.812 320.523 139.873C319.512 138.682 318.686 137.308 317.951 136.026C316.848 134.285 315.746 132.453 314.735 130.713C312.347 133.369 308.58 138.224 304.998 138.591C304.722 138.774 304.538 135.293 305.916 131.354Z" fill="black"/>
<path d="M476.697 372.812C478.534 373.453 480.096 374.003 481.106 374.369C483.587 373.087 485.883 372.904 486.986 372.812C487.812 372.721 488.088 373.179 488.088 373.545C488.088 373.728 487.996 373.82 487.904 373.82C487.169 373.911 485.699 374.369 485.608 374.919C485.424 375.56 491.395 376.11 491.487 377.026C491.487 377.392 487.261 377.026 487.261 377.026C487.261 377.026 491.763 378.217 491.395 378.766C491.028 379.224 486.894 378.675 486.894 378.675C486.894 378.675 491.211 380.415 490.66 380.781C490.109 381.148 486.526 380.232 486.526 380.232C488.088 381.056 488.547 381.606 488.731 381.881C488.823 382.064 488.731 382.155 488.547 382.155C486.986 381.972 484.23 380.323 482.3 379.133V379.224C479.82 379.499 477.248 379.499 474.767 379.499C475.594 377.209 476.145 375.011 476.697 372.812Z" fill="#F28766"/>
<path d="M449.412 344.05L460.344 366.583L480.646 373.362L479.82 380.14C479.82 380.14 455.751 378.675 451.892 374.827C448.034 370.98 440.685 352.294 440.409 350.37C440.133 348.538 449.412 344.05 449.412 344.05Z" fill="#F57F1F"/>
<path d="M442.614 340.752C442.614 340.752 447.667 345.973 447.483 350.004C447.299 354.034 446.932 376.385 446.932 376.385L449.045 377.392L453.362 375.835C453.362 375.835 451.249 352.202 451.249 349.729C451.158 347.164 450.423 343.317 448.034 342.218C445.554 341.21 442.614 340.752 442.614 340.752Z" fill="#DD711F"/>
<path d="M508.574 386.002C517.577 387.101 523.824 388.017 523.824 388.017L525.845 396.628L507.747 396.811C508.114 393.239 508.39 389.575 508.574 386.002Z" fill="#F08D6E"/>
<path d="M522.538 387.559C522.538 387.559 524.467 385.544 525.294 383.804C526.121 382.063 525.661 374.186 529.611 374.735V392.964L527.958 394.613H529.795V398.277C529.795 398.277 525.753 399.651 523.273 398.368C523.273 398.368 525.661 395.712 524.559 392.872C523.456 389.849 522.538 387.559 522.538 387.559Z" fill="#FDB32C"/>
<path d="M513.259 385.361V397.544H426.537C426.537 397.544 429.569 380.14 436.642 377.85C443.624 375.743 513.259 385.361 513.259 385.361Z" fill="#BA222A"/>
<path d="M506.369 383.346L519.047 390.399L520.058 396.444L517.118 399.834L514.362 398.918C514.362 398.918 514.362 398.918 514.178 398.826C513.259 398.46 508.023 396.261 500.674 393.238C502.695 390.032 504.624 386.735 506.369 383.346Z" fill="#FA9778"/>
<path d="M518.587 389.208C518.587 389.208 521.252 388.292 522.721 387.101C524.191 385.911 527.499 378.766 530.714 380.964L522.354 397.086L520.149 397.819L521.711 398.643L520.057 401.849C520.057 401.849 515.831 401.208 514.27 398.918C514.27 398.918 517.577 397.635 517.944 394.613C518.404 391.681 518.587 389.208 518.587 389.208Z" fill="#F57F1F"/>
<path d="M513.351 386.186L508.298 396.628L476.329 383.987C476.329 383.987 439.49 404.414 429.661 400.567C419.739 396.72 419.188 377.758 423.23 375.468C427.272 373.178 449.136 376.201 449.136 376.201L450.239 377.209C450.239 377.209 472.011 368.049 477.247 368.232C482.484 368.415 513.351 386.186 513.351 386.186Z" fill="#DA2526"/>
<path d="M507.839 396.17C505.267 394.979 502.695 393.788 500.03 392.689C497.458 391.59 494.794 390.491 492.13 389.483C489.466 388.475 486.802 387.468 484.138 386.46C481.473 385.544 478.809 384.537 476.145 383.621L476.237 383.895C476.788 383.163 477.339 382.43 477.891 381.697C477.248 382.338 476.604 383.071 476.053 383.712L475.87 383.895L476.053 383.987C478.626 385.178 481.29 386.277 483.862 387.376C486.526 388.475 489.098 389.483 491.762 390.491C494.427 391.498 497.091 392.506 499.755 393.422C502.511 394.429 505.175 395.345 507.839 396.17Z" fill="#121B46"/>
<path d="M446.748 397.544C448.034 397.086 449.228 396.536 450.514 396.078L454.281 394.521C456.761 393.422 459.242 392.323 461.722 391.223C464.202 390.033 466.591 388.934 469.071 387.651L472.654 385.819C473.848 385.178 475.043 384.537 476.237 383.896C474.951 384.354 473.665 384.903 472.47 385.361L468.704 386.918C466.223 388.017 463.743 389.117 461.263 390.216C458.782 391.407 456.394 392.506 453.913 393.788L450.331 395.62C449.136 396.261 447.942 396.903 446.748 397.544Z" fill="#121B46"/>
<path d="M450.055 377.3C448.402 377.667 446.932 378.399 445.462 379.132C443.992 379.957 442.614 380.781 441.328 381.972C442.981 381.605 444.451 380.873 445.921 380.14C447.391 379.315 448.861 378.399 450.055 377.3Z" fill="#121B46"/>
<path d="M439.123 380.231C440.501 380.415 441.879 380.323 443.165 380.048C444.451 379.773 445.737 379.499 447.023 378.858C445.645 378.674 444.267 378.766 442.981 379.041C441.695 379.224 440.317 379.59 439.123 380.231Z" fill="#121B46"/>
<path d="M423.414 342.767C424.425 341.76 425.894 341.302 427.272 341.21C428.559 341.118 429.661 340.844 430.58 340.477C432.049 335.989 430.671 327.562 430.488 326.462V326.371L442.155 332.874C441.971 333.241 441.879 333.607 441.787 334.157C441.695 335.164 441.787 336.538 442.063 337.729C442.339 339.103 442.614 340.294 442.706 340.752C443.625 341.851 444.911 342.492 446.564 343.408C446.564 343.866 446.564 344.324 446.656 344.782C447.116 347.439 446.289 351.286 446.381 354.034C446.564 357.332 446.656 360.538 446.564 363.835C446.564 367.957 446.381 371.805 446.105 375.743H424.057C424.7 369.881 423.23 361.179 421.577 351.561C420.658 346.706 421.944 344.141 423.414 342.767Z" fill="#FA9778"/>
<path d="M441.971 337.73C435.632 338.554 432.417 330.951 432.325 330.676C433.519 332.508 435.173 333.424 436.827 333.882C438.848 334.432 440.869 334.249 441.696 334.157C441.604 335.256 441.787 336.539 441.971 337.73Z" fill="#FA7C55"/>
<path d="M442.706 341.027C442.706 341.027 445.186 346.156 443.349 347.256C441.604 348.446 430.396 340.477 430.396 340.477C430.396 340.477 424.333 341.21 422.679 345.424C421.025 349.729 423.414 376.11 423.414 376.11C423.414 376.11 443.9 377.392 449.137 376.11C449.137 376.11 449.045 363.011 449.688 358.98C450.331 354.858 449.963 347.988 448.677 345.149C447.942 343.683 442.706 341.027 442.706 341.027Z" fill="white"/>
<path d="M430.304 340.202C430.304 340.202 439.766 344.599 438.847 349.362C437.929 354.126 433.795 401.758 433.795 401.758C433.795 401.758 421.393 402.124 416.707 399.742C412.022 397.361 422.587 364.751 422.036 361.728C421.485 358.706 418.729 344.874 422.679 342.401C426.629 339.928 430.304 340.202 430.304 340.202Z" fill="#F57F1F"/>
<path d="M433.152 397.269C430.396 398.277 427.548 398.827 424.608 398.827C423.138 398.827 421.76 398.735 420.382 398.46C419.004 398.185 417.626 397.636 416.157 397.178C417.351 398.094 418.637 398.827 420.107 399.285C420.842 399.559 421.577 399.651 422.312 399.834C423.047 399.926 423.781 400.017 424.608 399.926C426.17 399.926 427.64 399.651 429.11 399.193C430.58 398.735 431.958 398.094 433.152 397.269Z" fill="#121B46"/>
<path d="M464.225 353.449L462.856 352.093L470.625 344.293L471.994 345.649L464.225 353.449Z" fill="#121B46"/>
<path d="M468.52 354.034C468.52 354.034 468.061 354.858 467.785 354.95C467.51 355.133 465.764 355.499 465.764 355.499C465.672 355.591 464.203 356.873 461.906 358.705C461.171 357.789 460.436 356.782 459.701 355.866C459.242 355.225 458.691 354.583 458.231 353.942C459.242 353.484 460.069 353.118 460.712 352.843L462.09 351.744C462.733 350.919 464.662 347.897 465.489 347.988C466.591 348.08 466.499 348.446 466.499 348.446C466.499 348.446 464.846 350.553 465.213 351.377C465.581 352.202 469.163 348.263 469.163 348.263L470.082 347.53C470.082 347.53 470.266 349.729 469.439 350.461C469.439 350.461 469.898 351.652 469.071 352.568C469.163 352.568 469.071 353.759 468.52 354.034Z" fill="#FA9778"/>
<path d="M431.222 343.683L438.48 361.728L461.63 351.744C461.63 351.744 465.672 356.782 465.213 356.965C464.846 357.057 444.359 376.934 435.816 375.468C427.272 374.003 421.485 348.904 421.485 348.904L431.222 343.683Z" fill="#F57F1F"/>
<path d="M436.092 375.652C436.092 375.652 433.519 375.377 431.774 373.087C430.12 370.797 424.057 358.522 424.057 358.522C424.057 358.522 427.364 379.682 436.092 375.652Z" fill="#121B46"/>
<path d="M434.805 363.377C435.54 363.285 436.183 363.102 436.827 362.919C437.47 362.644 438.113 362.369 438.664 362.095L439.95 361.453L438.572 361.179C437.653 360.995 436.735 360.904 435.724 360.995C436.551 361.545 437.378 361.911 438.296 362.186L438.204 361.27C437.561 361.545 437.01 361.82 436.367 362.186C435.908 362.369 435.357 362.827 434.805 363.377Z" fill="#121B46"/>
<path d="M458.691 362.736C456.854 363.652 455.2 364.751 453.638 365.942C452.076 367.133 450.515 368.415 449.229 369.972C451.066 369.056 452.72 367.957 454.281 366.766C455.935 365.575 457.405 364.293 458.691 362.736Z" fill="#121B46"/>
<path d="M454.648 354.583C453.73 354.583 452.903 354.858 452.076 355.133C451.341 355.499 450.606 355.957 449.963 356.69C450.882 356.69 451.709 356.415 452.536 356.141C453.27 355.774 454.005 355.408 454.648 354.583Z" fill="#121B46"/>
<path d="M434.53 348.08C434.53 347.255 434.254 346.523 433.887 345.79C433.519 345.057 433.152 344.324 432.601 343.775C432.05 343.225 431.315 342.675 430.58 342.309C429.753 342.034 428.926 341.943 428.099 342.217C428.926 342.401 429.569 342.675 430.212 343.042C430.763 343.408 431.315 343.866 431.866 344.416C432.417 344.965 432.785 345.515 433.244 346.156L434.53 348.08Z" fill="#121B46"/>
<path d="M427.18 322.89C427.456 321.974 428.466 321.15 429.477 321.424C429.569 321.424 429.66 321.516 429.752 321.516C429.568 318.218 430.12 314.555 432.416 312.539C437.377 308.234 444.543 309.7 446.105 313.638C447.85 318.127 447.942 323.623 447.85 328.294C447.85 328.936 447.85 329.577 447.574 330.126C446.748 332.325 443.624 333.79 441.419 334.157C438.663 334.706 435.815 333.974 433.703 332.233C431.957 330.768 430.855 328.752 430.395 326.554C429.936 326.554 429.201 326.462 429.017 326.462C428.374 326.188 427.823 325.73 427.456 325.18C427.088 324.539 426.904 323.623 427.18 322.89Z" fill="#FA9778"/>
<path d="M444.267 321.424C444.267 322.157 444.543 322.707 444.91 322.707C445.278 322.707 445.553 322.157 445.553 321.424C445.553 320.692 445.278 320.142 444.91 320.142C444.635 320.142 444.267 320.783 444.267 321.424Z" fill="#121B46"/>
<path d="M439.398 322.707C439.043 322.707 438.755 322.133 438.755 321.424C438.755 320.716 439.043 320.142 439.398 320.142C439.754 320.142 440.042 320.716 440.042 321.424C440.042 322.133 439.754 322.707 439.398 322.707Z" fill="#121B46"/>
<path d="M444.543 325.455C444.359 325.913 443.992 326.279 443.532 326.554C443.165 326.829 442.614 327.012 442.063 327.012C441.511 327.012 441.052 326.829 440.593 326.554C440.409 326.462 440.225 326.188 440.041 326.096C439.858 325.913 439.766 325.73 439.582 325.546C439.766 325.73 439.95 325.821 440.133 326.004C440.317 326.096 440.501 326.279 440.685 326.371C441.052 326.554 441.511 326.737 441.971 326.737C442.43 326.737 442.797 326.646 443.257 326.371C443.9 326.004 444.267 325.73 444.543 325.455Z" fill="#121B46"/>
<path d="M442.889 327.745C442.705 327.928 442.43 327.928 442.246 327.928C441.971 327.928 441.787 327.836 441.603 327.745C441.879 327.745 442.062 327.836 442.246 327.836C442.43 327.836 442.614 327.745 442.889 327.745Z" fill="#121B46"/>
<path d="M440.592 316.936C440.317 316.661 439.949 316.57 439.582 316.57C439.214 316.57 438.847 316.57 438.48 316.753C438.112 316.844 437.836 317.028 437.561 317.302C437.285 317.486 437.102 317.852 436.918 318.127C436.826 318.31 436.918 318.493 437.01 318.585C437.102 318.676 437.285 318.585 437.377 318.585C437.561 318.402 437.745 318.218 438.02 318.127C438.204 317.944 438.48 317.944 438.755 317.852C439.031 317.76 439.214 317.76 439.49 317.76C439.766 317.76 440.041 317.76 440.317 317.669H440.409C440.592 317.669 440.684 317.486 440.684 317.302C440.684 317.028 440.592 316.936 440.592 316.936Z" fill="#121B46"/>
<path d="M443.809 316.936C444.084 316.661 444.452 316.57 444.819 316.57C445.187 316.57 445.554 316.57 445.921 316.753C446.289 316.844 446.565 317.028 446.84 317.302C447.116 317.486 447.299 317.852 447.483 318.127C447.575 318.31 447.483 318.493 447.391 318.585C447.299 318.676 447.116 318.585 447.024 318.585C446.84 318.402 446.656 318.218 446.381 318.127C446.197 317.944 445.921 317.944 445.646 317.852C445.37 317.76 445.187 317.76 444.911 317.76C444.635 317.76 444.36 317.76 444.084 317.669H443.992C443.809 317.669 443.717 317.486 443.717 317.302C443.717 317.028 443.717 316.936 443.809 316.936Z" fill="#121B46"/>
<path d="M443.441 319.318C443.532 319.776 443.624 320.325 443.716 320.783C443.808 321.241 443.9 321.791 444.084 322.249C444.084 322.34 444.175 322.432 444.175 322.615C444.175 322.707 444.267 322.89 444.267 323.073C444.267 323.44 444.084 323.714 443.808 323.806C443.532 323.989 443.257 323.898 442.981 323.806C442.706 323.714 442.522 323.623 442.338 323.44C442.797 323.623 443.349 323.714 443.624 323.531C443.808 323.44 443.9 323.256 443.808 323.073C443.808 322.982 443.808 322.89 443.716 322.798C443.624 322.707 443.624 322.524 443.624 322.432C443.441 321.974 443.441 321.424 443.349 320.966C443.349 320.325 443.441 319.867 443.441 319.318Z" fill="#121B46"/>
<path d="M427.915 323.44C427.915 323.165 428.007 322.799 428.282 322.615C428.558 322.341 428.925 322.432 429.293 322.524C429.66 322.615 429.844 322.89 430.12 323.073C430.303 323.348 430.487 323.623 430.579 323.898C430.579 323.989 430.579 324.173 430.487 324.173C430.395 324.173 430.303 324.173 430.212 324.081C430.028 323.898 429.752 323.623 429.477 323.531C429.385 323.531 429.293 323.531 429.201 323.531C429.109 323.623 429.017 323.715 429.017 323.898C428.925 324.173 428.834 324.539 429.109 324.631C429.385 324.814 429.752 324.722 430.12 324.722C429.844 324.905 429.477 324.997 429.017 324.905C428.834 324.814 428.65 324.631 428.65 324.447C428.65 324.264 428.65 324.081 428.742 323.898C428.834 323.715 428.834 323.531 429.017 323.348C429.201 323.165 429.477 323.165 429.66 323.165C430.12 323.257 430.395 323.531 430.579 323.806L430.212 323.989C430.028 323.531 429.66 322.982 429.201 322.707C428.925 322.615 428.65 322.524 428.466 322.707C428.191 322.89 428.007 323.165 427.915 323.44Z" fill="#121B46"/>
<path d="M426.721 318.127C427.088 316.936 427.731 315.47 428.926 315.287C428.466 314.188 428.466 312.997 428.926 311.898C429.385 310.982 430.12 310.249 430.947 309.7C432.141 308.875 433.427 308.417 434.897 308.234C437.01 307.959 439.215 308.326 441.328 308.784C442.43 308.967 443.808 309.15 444.91 309.425C446.013 308.6 447.758 309.058 448.677 310.066C449.596 311.165 449.779 312.631 449.779 314.005C449.687 316.753 448.861 319.409 447.85 321.974C447.758 320.875 447.666 319.867 447.483 318.768C447.115 317.577 446.38 316.57 445.553 315.654C442.889 318.31 438.572 319.318 434.989 318.035C434.897 318.951 434.621 319.684 434.254 320.508C433.795 321.516 433.151 322.432 432.049 322.707C431.59 322.798 431.038 322.615 430.855 322.249C430.671 321.882 429.752 321.424 429.752 321.516C429.66 321.424 429.569 321.424 429.477 321.424C428.466 321.15 427.456 321.974 427.18 322.89C426.904 323.623 427.088 324.539 427.548 325.18C427.915 325.73 428.466 326.279 429.109 326.462C429.293 326.554 429.936 326.646 430.487 326.646C430.763 327.836 431.13 328.936 431.773 329.943C430.947 330.035 430.028 329.943 429.293 329.577C428.191 329.027 427.548 327.836 426.996 326.737C426.537 325.73 426.078 324.722 425.894 323.623C425.618 321.791 426.078 319.867 426.721 318.127Z" fill="#121B46"/>
<path d="M492.038 182.742C494.151 180.269 497.182 178.62 500.398 178.62C504.256 178.62 508.206 180.543 511.697 178.803C516.291 176.605 516.658 169.368 521.343 167.261C524.559 165.796 528.233 167.536 531.816 168.269C537.788 169.368 544.218 166.987 547.985 162.315C549.455 160.483 550.557 158.376 552.211 156.727C555.334 153.613 560.203 152.697 564.337 153.888C568.563 155.079 571.962 158.285 574.075 162.04C575.728 164.971 576.923 168.635 580.046 169.918C583.629 171.383 587.855 168.819 591.53 170.193C594.102 171.2 595.572 174.131 595.664 176.879C595.755 178.895 595.296 180.818 594.745 182.65H492.038V182.742Z" fill="#FFCCA6"/>
<path d="M56.7737 228.542C57.4168 226.801 59.1623 225.427 60.8159 224.878C63.2963 224.053 66.0523 224.237 68.349 222.954C70.9212 221.489 73.0341 218.283 75.882 218.557C78.1787 218.832 79.8323 221.397 82.129 221.855C86.8142 222.954 89.9376 215.077 94.7146 215.077C97.5625 215.077 99.9511 217.916 102.799 218.008C106.474 218.099 108.954 213.886 111.159 210.588C114.466 205.642 120.254 201.52 125.214 204.176C128.522 205.917 130.175 210.039 132.013 213.703C133.85 217.275 136.514 221.122 140.189 221.122C144.047 221.122 147.905 216.909 151.213 219.107C152.774 220.115 153.509 222.313 153.509 224.328C153.509 225.794 153.142 227.168 152.774 228.542H56.7737Z" fill="#FFCCA6"/>
</svg>
