<svg xmlns="http://www.w3.org/2000/svg" width="627" height="534" fill="none"><ellipse fill="#FC9365" rx="109.5" ry="10.5" transform="matrix(-1 0 0 1 271.604 464.5)"/><path fill="#DFDFDF" d="M425.46 403.29l-151.2 57.11a17.76 17.76 0 01-22.94-10.36l-96.96-256.7a17.76 17.76 0 0110.36-22.94l151.2-57.11a17.76 17.76 0 0122.93 10.36l96.97 256.7a17.81 17.81 0 01-10.36 22.94z"/><path fill="#ADADAD" d="M264.36 140.69l-42.76 16.15 1.2 3.18 42.76-16.15-1.2-3.18zM364.03 408.03l-40.55 15.32 3.11 8.24 40.56-15.32-3.12-8.24z"/><path fill="#fff" d="M335.22 127.35l-175.6 66.33 94.37 249.85 175.6-66.32-94.37-249.86z"/><path fill="#000" d="M335.22 127.35l-175.6 66.33 3.6 9.55 175.6-66.33-3.6-9.55z"/><path fill="#DA2526" d="M244.74 371.88a7.5 7.5 0 10-5.3-14.04 7.5 7.5 0 005.3 14.04zM266.93 430.63a7.5 7.5 0 10-5.3-14.04 7.5 7.5 0 005.3 14.04zM264.24 364.51a7.5 7.5 0 10-5.3-14.03 7.5 7.5 0 005.3 14.03z"/><path fill="#EDAEB1" d="M308.07 333.69l-37.53 14.18 1.38 3.67 37.54-14.18-1.39-3.67zM396.63 319.82l-155.93 58.9 1.39 3.67 155.93-58.9-1.39-3.67zM399.44 327.24l-155.94 58.9 1.39 3.68 155.94-58.9-1.4-3.68zM283.84 379.4l-37.53 14.17 1.38 3.67 37.54-14.18-1.39-3.67zM309.58 399.88l-37.54 14.18 1.39 3.67 37.53-14.18-1.38-3.67z"/><path fill="#DA2526" d="M198.92 229.96a7.5 7.5 0 10-14.88 1.92 7.5 7.5 0 0014.88-1.92z"/><path fill="#EAA0A3" d="M236.78 207.14l-37.54 14.18 1.39 3.67 37.53-14.17-1.38-3.68z"/><path fill="#EDAEB1" d="M333.67 331.85l-60.54 22.87 1.38 3.67 60.55-22.87-1.39-3.67z"/><path fill="#DFDFDF" d="M269.3 296.96l35.95 18.4a3.7 3.7 0 004.57-.98c2.3-2.82 5.63-7.81 4.21-12.31-2.14-6.65-35.24-24.18-35.24-24.18l-9.49 19.07z"/><path fill="#D3691A" d="M226.17 270.64l-4.18 5.22a4.07 4.07 0 00.23 5.31c4.03 4.26 13.42 13.3 29.12 23.04a4.08 4.08 0 005.35-.9l3.74-4.68-34.26-28z"/><path fill="#F57F1F" d="M242.34 238.42l-19.75 24.71c-2.92 3.63 5.03 14.8 17.82 24.97 12.72 10.21 25.43 15.48 28.32 11.78l19.7-24.6-46.09-36.86z"/><path fill="#FC9447" d="M270.7 250.28c12.7 10.2 20.74 21.35 17.82 24.97-2.93 3.62-15.56-1.68-28.32-11.78-12.72-10.2-20.75-21.35-17.82-24.97 2.89-3.7 15.52 1.6 28.31 11.78z"/><path fill="#DFDFDF" d="M268.5 175.86l-21.46 67.6 2.36 3.02a84.97 84.97 0 0034.6 26.46l57.72-39.51-73.22-57.57z"/><path fill="#C4C4C4" d="M320.4 185.63c20.3 16.2 30.8 36.85 23.38 46.09-5.68 7.18-20.52 5.42-36.3-3.26a96.68 96.68 0 01-13.86-9.31 93.56 93.56 0 01-11.1-10.36c-12.68-13.85-18.17-28.38-12.3-35.81 7.41-9.24 29.89-3.56 50.18 12.65z"/><path fill="#919191" d="M305.24 204.5c12.57 10.08 21.4 21.85 24.49 31.5-10.11-.85-23.57-6.86-36.22-16.9-12.57-10.08-21.4-21.85-24.52-31.58 10.25.97 23.68 6.9 36.25 16.98z"/><path fill="#EBEBEB" d="M299.14 195.25l16.56 13.23-8.21 19.98a96.68 96.68 0 01-13.87-9.31 93.56 93.56 0 01-11.1-10.36l16.62-13.54z"/><path fill="#F57F1F" d="M310.45 198.06c4.57 3.68 6.96 8.28 5.25 10.42-1.63 2.1-6.68.84-11.32-2.81-4.65-3.66-6.95-8.29-5.24-10.42 1.7-2.14 6.75-.88 11.31 2.8z"/><path fill="#000" d="M249.85 237.55c1.44 1.6 2.96 3.16 4.49 4.73.75.75 1.52 1.57 2.27 2.31.75.75 1.6 1.54 2.35 2.29 3.19 2.99 6.42 5.87 9.92 8.47a89.08 89.08 0 0010.74 7.22c.96.57 1.95.94 2.9 1.51.49.29.94.5 1.5.75l1.54.62 1.55.63c.22.1.44.2.75.28l.76.27c1.06.35 2.1.6 3.07.98-2.14-.5-4.26-.9-6.33-1.7l-1.51-.55c-.53-.18-1.02-.46-1.46-.66-1.02-.46-2.03-.92-2.96-1.4-.93-.5-1.89-1.06-2.85-1.63-.96-.57-1.84-1.17-2.8-1.74l-1.36-.89-1.31-1c-.91-.68-1.79-1.28-2.7-1.96-3.45-2.7-6.68-5.59-9.81-8.7a81.17 81.17 0 01-8.75-9.83zM261.74 297.67a149.1 149.1 0 017.84-10.6c2.79-3.48 5.52-6.85 8.63-9.98a149.35 149.35 0 01-7.84 10.6c-2.7 3.45-5.52 6.85-8.63 9.98z"/><path fill="#121B46" d="M308.45 199.65c.71.66 1.46 1.4 2.13 2.18.34.43.58.8.85 1.27.09.24.18.49.27.73.01.28.06.63-.2.92-.27.29-.6.41-.88.42a4.59 4.59 0 01-2.37-.6 14.01 14.01 0 01-2.63-1.8c-.75-.74-1.5-1.48-2.11-2.37a9.56 9.56 0 01-.72-1.4c-.1-.25-.19-.5-.15-.88 0-.28.03-.67.3-.96.26-.28.62-.32.9-.33.27-.02.58.06.8.16.54.17.98.37 1.38.69.83.71 1.63 1.34 2.43 1.97zm0 0c-.8-.63-1.6-1.26-2.5-1.66-.45-.2-.9-.41-1.4-.5-.5-.1-1.05-.07-1.23.19-.19.25-.08.77.15 1.15.16.4.5.83.74 1.21.59.8 1.3 1.47 2.02 2.13.71.66 1.51 1.3 2.33 1.73.37.23.85.52 1.27.64.42.12.92.21 1.13.04.3-.2.16-.8 0-1.22-.18-.49-.33-.9-.68-1.32a8.45 8.45 0 00-1.83-2.39z"/><path fill="#000" d="M272.78 173.6a33.26 33.26 0 0113.42-2c2.3.16 4.52.62 6.73 1.28 2.2.66 4.26 1.66 6.36 2.54a128.43 128.43 0 0123.33 14.12c3.6 2.84 7 5.94 10.03 9.27l2.28 2.59 2.07 2.76c.35.43.65.97 1 1.4l.9 1.42c.28.46.65.97.84 1.46l.78 1.57.78 1.57c.3.54.4 1.06.61 1.63.4 1.06.8 2.12 1.13 3.22l.45 1.69c.13.6.24 1.12.34 1.64.24 1.13.31 2.3.35 3.41-.07 2.27-.48 4.66-1.8 6.56-.11.23-.3.48-.5.65-.19.26-.4.43-.59.69-.43.35-.82.78-1.36 1.08-.97.64-2 1.12-3.12 1.36 1.09-.32 2.12-.8 2.97-1.5.43-.34.86-.7 1.26-1.12.18-.26.4-.43.5-.66.18-.25.4-.43.5-.65a11.8 11.8 0 001.48-6.44c-.2-4.49-1.84-8.81-3.82-12.82a47.57 47.57 0 00-7.77-10.96 86.91 86.91 0 00-10.05-9.07 126.97 126.97 0 00-23.08-14.22c-2.03-.91-4.11-1.99-6.24-2.68a34.98 34.98 0 00-6.6-1.42c-4.32-.33-8.88.18-13.18 1.62z"/></svg>